<svg id="Layer_1" data-name="Layer 1" xmlns="http://www.w3.org/2000/svg" viewBox="0 0 500 500"><defs><style>.cls-1{fill:#ea8caa;}.cls-2{fill:#373735;}</style></defs><ellipse class="cls-1" cx="245.85" cy="299.41" rx="125.8" ry="111.59"/><path class="cls-2" d="M374.06,298.51c0,1.13.4.73.48.9C374.39,297.51,374,298.56,374.06,298.51Z"/><polygon class="cls-2" points="371.26 280.18 371.49 280.47 370.55 277.88 371.26 280.18"/><path class="cls-2" d="M366.58,263.59a14.36,14.36,0,0,0,1.15,4,28.08,28.08,0,0,1,1.61,4.94l0,.53.9,1.2c-.27-.9-.56-1.86-.85-2.84s-.71-1.94-1.05-2.89-.67-1.86-.95-2.7S366.77,264.22,366.58,263.59Z"/><path class="cls-2" d="M364.39,254.45c0,.31-.28-.11-.3-.15a20.53,20.53,0,0,1,1.12,2.17c-.06-.21-.07-.27-.1-.39C365,255.73,364.75,255.26,364.39,254.45Z"/><path class="cls-2" d="M365.11,256.08c.77,1.68-.28-1.2,0,0Z"/><path class="cls-2" d="M361.12,248.57q.74,1,1.38,2c-.06-.54-1.09-2.44-.6-1.8C360.54,246.68,360.65,247.21,361.12,248.57Z"/><path class="cls-2" d="M359.53,246.84l.71,1A2.18,2.18,0,0,0,359.53,246.84Z"/><path class="cls-2" d="M361.75,250.07c-.48-.75-1-1.46-1.51-2.2.08.36-.11.51.68,1C360.62,248.81,361.08,249.15,361.75,250.07Z"/><path class="cls-2" d="M362.34,251.47c.47,1.28,1.18,2.87-.14.83C364.38,256.36,364.53,255.55,362.34,251.47Z"/><path class="cls-2" d="M365.58,263l.44,1.74c.25.45.52.9.76,1.36C366.42,265.44,365.75,262.85,365.58,263Z"/><path class="cls-2" d="M353.2,235.71c-.21,0,.16.9.11,1.16l1.18,1.35A11.4,11.4,0,0,1,353.2,235.71Z"/><path class="cls-2" d="M353.31,236.87c-.6-.66-1.17-1.35-1.81-2C352.94,236.79,353.24,237.11,353.31,236.87Z"/><path class="cls-2" d="M358.63,246.87c.87,1.17,1.78,2.32,2.64,3.52-1-1.44-2-2.83-3.07-4.24Z"/><polygon class="cls-2" points="346.7 227.79 347.98 228.7 345.78 227.03 346.7 227.79"/><path class="cls-2" d="M342,222.91c1,.6-.73-1.45.23-.73a28.54,28.54,0,0,0-3.89-3A21.17,21.17,0,0,1,342,222.91Z"/><path class="cls-2" d="M336.35,217.88l2,1.35A13.55,13.55,0,0,0,336.35,217.88Z"/><path class="cls-2" d="M348.72,231.31a4.36,4.36,0,0,0-1.05-1.87l.37,1.07C348.25,230.75,348.5,231,348.72,231.31Z"/><path class="cls-2" d="M348.06,230.55l0,0-1.48-1.71Z"/><path class="cls-2" d="M348.88,231.52l-.16-.21A.29.29,0,0,0,348.88,231.52Z"/><path class="cls-2" d="M355.25,240.79c-1.08-1.15-3.2-3.6-1.66-.87C354.47,240.67,353.62,239.07,355.25,240.79Z"/><path class="cls-2" d="M349.29,232.87l1.68,2.26c0-.12-.13-.61.44-.08Z"/><polygon class="cls-2" points="348.32 231.88 349.29 232.87 348.66 232.03 348.32 231.88"/><path class="cls-2" d="M339.66,221.46a33.07,33.07,0,0,1-3.14-2.6c1.13,1.16,2.32,2.33,3.48,3.41C340.26,222.33,340.94,222.63,339.66,221.46Z"/><path class="cls-2" d="M343.83,225.79l-.21-.17C343.71,225.76,343.8,225.86,343.83,225.79Z"/><path class="cls-2" d="M324.86,209.7l.15.2.09,0Z"/><path class="cls-2" d="M340.14,222.51a10.42,10.42,0,0,0,2,1.76c-.68-.61-1.34-1.31-2.11-2C339.89,222.25,339.84,222.26,340.14,222.51Z"/><path class="cls-2" d="M333.05,215.34c.43.48.93,1,1.46,1.54A7.61,7.61,0,0,0,333.05,215.34Z"/><path class="cls-2" d="M343.42,225.24l.14.12C343.35,225,343.35,225.08,343.42,225.24Z"/><path class="cls-2" d="M343.42,225.24c-.48-.4-.9-.68-1.31-1,.54.51,1.05,1,1.51,1.35A2.35,2.35,0,0,1,343.42,225.24Z"/><path class="cls-2" d="M319.65,209.49a3.71,3.71,0,0,1,2,.74,17.73,17.73,0,0,1,3.17,2.38c2.35,1.28,1.71-.76.18-2.71-.17.09-.26.22-2.67-1.17.68.74,4.75,3.93,2.63,2.88-3.12-1.91-2.36-1.85-3.73-3,1,1.22-4.32-1.87-4-.83l2.82,1.48C320,209.4,319,208.93,319.65,209.49Z"/><path class="cls-2" d="M329.27,213.07l.94.66a33.18,33.18,0,0,1-2.83-2.85c-1.69-.94-2.1-1-2.28-1l2.3,1.65,2.22,1.74Z"/><path class="cls-2" d="M334.21,217c-1-.26-3.17-1.88-2.18-.44,2.56,2.14,2,1.24,3.67,2.39-4.21-3.41,1.34.83-1.49-1.89.86.64,1.62,1.23,2.31,1.82-.7-.69-1.39-1.34-2-2l.08.11h0c.14.2.18.27,0,.08l-.09-.07a.58.58,0,0,1-.3,0c-1.14-1.08-.11-.24.3,0,0,0,.07,0,.09,0h0c-1.44-1.12-2.87-2.25-4.38-3.26.44.37,1,.78,1.6,1.28Z"/><path class="cls-2" d="M351.16,238.14c-.07-.15,0-.17,0-.19C350.89,237.7,350.79,237.61,351.16,238.14Z"/><path class="cls-2" d="M350.05,236.22a5.15,5.15,0,0,1,1.34,1.48c.54,1-.17.11-.25.25.54.54,1.82,2,.58-.09l-.27-.27c-.56-.94-1.21-2-1.66-2.82s-.71-1.38-.57-1.25A8.63,8.63,0,0,0,350.05,236.22Z"/><path class="cls-2" d="M342.48,226.18c-1.11-1-2.17-2.07-3.31-3,.48.6.91,1.25,1.35,1.88l.08-.24C342.32,226.66,342.13,226.08,342.48,226.18Z"/><polygon class="cls-2" points="324.56 209.22 325.31 209.2 322.8 208.23 324.56 209.22"/><polygon class="cls-2" points="319.6 206.03 319.99 205.81 318.55 205.18 319.6 206.03"/><path class="cls-2" d="M141.33,357.46l.84,1C141.79,358,141.53,357.67,141.33,357.46Z"/><path class="cls-2" d="M136.32,349.68l-.28-.1C136.35,349.9,136.5,350,136.32,349.68Z"/><path class="cls-2" d="M181.3,200.82c-1.91.52-4.07,1.13-3.65,1.4l.73.08A15.11,15.11,0,0,1,181.3,200.82Z"/><path class="cls-2" d="M122.92,276.12l.26-.5c0-.49-.05-.94-.08-1.35C123.05,274.83,123,275.46,122.92,276.12Z"/><path class="cls-2" d="M124.36,277.82l-.76,2.36C123.8,279.66,124.05,278.9,124.36,277.82Z"/><path class="cls-2" d="M179,390.65l1.52.35C178.46,389.85,179.24,390.55,179,390.65Z"/><path class="cls-2" d="M263.06,186.49c-1.64-.36-3-.58-4.12-.73C260.93,186.24,262.49,186.79,263.06,186.49Z"/><path class="cls-2" d="M135.43,357c.51.65.77.89.84.81C135.75,357.14,135.42,356.79,135.43,357Z"/><path class="cls-2" d="M254.12,185.44l.88.16c1.22,0,2.45,0,3.94.16A16.26,16.26,0,0,0,254.12,185.44Z"/><path class="cls-2" d="M346.15,362.85l.3-.29C346.43,362.49,346.31,362.63,346.15,362.85Z"/><path class="cls-2" d="M372.25,315.52a20.16,20.16,0,0,1-.36,2.26A11.37,11.37,0,0,0,372.25,315.52Z"/><path class="cls-2" d="M298.54,195.14c1.18.44.21,0,0,0Z"/><path class="cls-2" d="M303.43,199.09c-.26-.06-.46-.09-.53,0A1,1,0,0,1,303.43,199.09Z"/><path class="cls-2" d="M241.76,188h-.1C242,188.05,242,188,241.76,188Z"/><path class="cls-2" d="M300.22,196q-.63-.34-1.44-.72C299,195.44,299.44,195.66,300.22,196Z"/><path class="cls-2" d="M300.06,195.74l1,.45C301.23,196.18,301.12,196.09,300.06,195.74Z"/><path class="cls-2" d="M296.92,194.52c.66.26,1.28.52,1.86.79-.22-.12-.3-.18-.24-.17Z"/><path class="cls-2" d="M261.31,408.81h.27C262.77,408.5,262.24,408.59,261.31,408.81Z"/><path class="cls-2" d="M157.59,222.6l.09-.11-.14.11Z"/><path class="cls-2" d="M154.65,225.78a10.07,10.07,0,0,1,2.89-3.18l-1.9.06Z"/><path class="cls-2" d="M156,374.06c-.64-.79-1.32-1.55-1.91-2.37,3,2.08,4.85,4,3.15,1.67-.31.17-1-.23-1.89-.92a40.1,40.1,0,0,1-2.94-2.79l-1.52-1.52c-.47-.51-.92-1-1.33-1.36-.82-.77-1.48-1.24-1.8-1.1-.37-.57-.75-1.11-1.08-1.7a10.17,10.17,0,0,0,.83.9,6.08,6.08,0,0,0-2.4-2.58,8.76,8.76,0,0,1-3.11-3.12c-.94-1.48-1.49-2.58-.66-1.71L140.05,356l-1.19-1.54c-.6-1-.25-.86.34.1-1.1-1.64-2.24-3.26-3.22-5l.06,0a37,37,0,0,1-2.43-2.89c-.52-1.44.47.61.44.18l-1.79-2.78c-.29-1.36,1.24.93,2.25,3a5.13,5.13,0,0,0-1.14-3.16A16.32,16.32,0,0,1,132.2,342a22.85,22.85,0,0,1-1.36-3.56l1.41,2.74c-.08-2.14-1.42-4.17-2.14-7.59,0,.42.34,2.16.51,3.38s.17,1.94-.71.38a19.17,19.17,0,0,0-1.65-3.91c.22-.1.14-.57-.11-1.29l-1-2.83.66,0c-.93-2.35-1.24-2.05-1.89-3.41-.65-2.76-.31-3.44-.07-4.17-.87-4.4-.14,3.22-1.36-2-.54-3.72-1.22-6.26-2.07-10.71,0-2.65.43.42.53-.54l-.71-2.29c0-.57.14-.39.22-.3-.35-2-.67-.12-1-3.23-.35-.41-.2-2,.08-4,.15-1,.3-2.06.37-3.13a21.31,21.31,0,0,0,0-3.11c.26-.93.35.48.62.21,0-2.63,0-3.78,0-4.79s0-1.92,0-4.13c.29-1.21.72-2.38,1.09-3.57-1,2.58-.93-.94-.68-4.06a19.52,19.52,0,0,0-1,2.21c.17-1.65.54-3.26.83-4.9.25-.55.34,0,.39.84,0-.34.06-.66.08-.92.68-1.64.8-.65.83.65l-.83,1.62c0,1.26.26,2.46.68,2.3a6.92,6.92,0,0,1,.19-1.59c0,.32.07.54.17.41a5.72,5.72,0,0,0,.14-1.47l1-.89-.2-.33c.62-2,1.47-4,2.24-5.93.15-1.14.37-2.22.58-3.34s.41-2.28.69-3.5a44.74,44.74,0,0,1,3-8.46c-.36,1.85.58.73,1.09,1.11a9.46,9.46,0,0,0-1.88,3.53c-.52,1.54-1.14,3.28-1.88,5,.77-1.79.93-1.26.81-.78l1.07-3.15c.35-1,.71-2.11,1.15-3.13.39.35,1-1.09,2-2.54-1.54.68,1.77-4.69,3-7.12.4.05.25.72-1.45,3.56a7.74,7.74,0,0,0,1.29-1.94,11.64,11.64,0,0,0,.68-1.75,8.39,8.39,0,0,1,2-3.63,3.64,3.64,0,0,0-.76,1.38,16.23,16.23,0,0,1,2.1-3.21c.79-1,1.41-1.62,1.21-1.09l-.46.66,1.34-1.8,1.62-2,1.69-2.16c.6-.7,1.19-1.4,1.75-2.08l2.91-3.58a5.35,5.35,0,0,0,1.23-2,3.55,3.55,0,0,1,.13,1.58l1.17-2.22c.4-.73.84-1.44,1.26-2.17.87-1.43,1.69-2.94,2.64-4.33-.15,1.11,3.43.3.35,3.53a33.74,33.74,0,0,0,4.19-3.63c-.73.48-2.34.6-1.47-.23,1.51-.76,2-1,2.62-1.35s1.24-.73,3-1.68c-1.12.69-.7-1.17,1-2.33-.17.32.8.82.25,1.34l3.59-3.87c-.94.92.33.89,1.48.56-.56.12,3.74-2.38,4.88-3.14-.68.27-1.33.59-2,.91a18.61,18.61,0,0,0,4.63-3.54,15.25,15.25,0,0,1,4.75-3.39c-.53.53-.89,2.06,1.78.86a29.42,29.42,0,0,1,9-7.37l1-.07,3.66-1.67c-1,.84-3.08,2.17-5.15,3.76-1,.77-2.12,1.55-3.13,2.26s-1.91,1.45-2.69,2a13.88,13.88,0,0,0,3.66-1.24c.59-.07.23.2-.39.54s-1.47.8-1.9,1l1.73-.73,1.76-.66,3.53-1.31c-.57-.55,5.21-2.54,4.76-3-2.52,1.13-5,2.22-7.47,3.5-.28-.25.64-1.13,2.28-2.2a30,30,0,0,1,6.67-2.92c1.39-.14-.63,1.44-.45,1.62a27.73,27.73,0,0,1,5.28-1.88l-2.09,1c2.91-.65,4.48-2.14,8.12-2.42,1.22-.22,3.8.11,3.92-.33-2.12-.35-3-2.58-1.8-3.42.23,0,1.9-.19,3.69-.31s3.73-.09,4.46,0c2.12.27-2.84,1.9-1,2.14,0-.19,1.12-.6,1.58-.74,1.32,0-.46.6,2.34.16.39-.73,5.75-.59,1.27-.72a42.86,42.86,0,0,1,6.2-.49c-.53-.18.17-.61,1.36-1a17.12,17.12,0,0,1,4.29-1c-.16.17.48.38.79.48,1.44,0,2.71,0,3.89,0s2.27.13,3.35.19l3.27.19c1.13.1,2.32.2,3.65.29.48.2,3,.57,1.92.79a12.36,12.36,0,0,1,3.13-.05c3.1.94-3.65-.32-1.31.66a6.25,6.25,0,0,1,2.52-.17c1.33,0,2.93.09,4.11.18-.62-.79-5.38-.77-7.72-.8,0-.43,1.08-.74,2.84-.92.88-.09,1.94-.14,3.13-.16s2.51.1,3.93.21c4.47.5,1.83.84,2.62.85a43.92,43.92,0,0,0,4.72.79c1.18.11,2.05.12,2.87.18a20.35,20.35,0,0,1,2.59.28,18.91,18.91,0,0,1,3.84,1.14c2.52,1.32-.18,1.07.3,1.62-.88-.21-1.65-.45-2.35-.66s-1.33-.41-1.92-.62c-1.19-.41-2.23-.8-3.43-1.1l2.89,1a31.54,31.54,0,0,1-4.81-1c.54.23,1.67.52,3.15,1s3.32.84,5.26,1.43,4,1.17,5.93,1.89,3.76,1.38,5.22,2.08c1.12.25,3,.82,2.24.27l-1.93-.69c-1.59-1.11,3.8.88,1.47-.28,1.33.38,2.78.71,4.3,1.24a36.4,36.4,0,0,1,4.86,2.14c.14.28.26.59.39.88a9.41,9.41,0,0,0-3.22-1.69,17,17,0,0,1,3.36,1.8,9.17,9.17,0,0,0,3.58,1.62l-2.23-1.62c1.3.5,2.81,1,4.34,1.6a31.76,31.76,0,0,1,4.55,2.36c-1.07-1.3-.73-.33-2.53-2.17.71.93-1.2-.23-3-1.19s-3.53-1.8-2.21-.61a11.75,11.75,0,0,0-2.93-2.1,25.72,25.72,0,0,1-3.58-2.16c0,.24.92.83-1.72-.44a4.48,4.48,0,0,1-.67-.08l-.17-.08.14.08c-.13,0-.15,0,.05,0a5,5,0,0,1,1.25.86,24.11,24.11,0,0,1-3.66-1,29.33,29.33,0,0,0-3.69-1.15c-1.6-.66.76,0-.06-.49l-2.32-.44c-.07-.49-4.11-2.22-.16-1.12l-1.74-.62-1.76-.54a28.31,28.31,0,0,0-6.68-2.06c-1.66-.52-4.37-.59-2.82-.56-1.89-.38-3.8-.62-5.7-.93l0-.12c-5.6-1.09-11.62-1.18-18-2.34l-3.07,0c-1.14,0-2.43,0-4-.12l-.62-.4c-1.23,0-3.07,0-4.75-.05a13,13,0,0,0-3.7.21,10.58,10.58,0,0,0-3.08-.27,34.88,34.88,0,0,0-4.46.31l-4.75.65c-1.5.24-2.88.5-4,.62l-.08.52a39,39,0,0,0-4.41.86c-1.51.39-3.1.76-4.88,1.29l.33.38a39.08,39.08,0,0,1-5.73,1.43c-2.19.56-4.67,1.05-7,1.9a6.09,6.09,0,0,1,2.39-.8,20.44,20.44,0,0,0-4.47,1.16,35.49,35.49,0,0,0-4.31,1.83c-1.4.68-2.78,1.34-4.13,2a26.42,26.42,0,0,1-4,1.62,17.32,17.32,0,0,1-3,1.43,2.48,2.48,0,0,0,.29-.17l-.5.25-1.8.64a15.2,15.2,0,0,0,1.53-.51c-.92.5-2.33,1.24-3.64,2.09l-.81-.1-.31.2c-1.42.6-1,.8-.07.72-.64.45-1.22.89-1.65,1.26-1.49-.09-3.35,2.32-5.22,2.52-.72.83-6.32,4.65-6.46,5.84-.11-.06-.5.17.16-.34a24.45,24.45,0,0,0-3.94,3.08l-1,0-2.35,3.07c-2,1.19-2.84,1.69-1.43-.18-1.84,2.1-2.57,3-3.28,3.67-.34.37-.67.73-1.1,1.22s-.89,1.16-1.58,2.12l-.12-.44c-.58.61-1.24,1.48-1.87,2.26a8.53,8.53,0,0,1-1.64,1.79c-1.53,1.13-4.64,4.59-7.79,8.94-.77,1.1-1.65,2.19-2.4,3.37L134,244.9c-.76,1.17-1.45,2.37-2.18,3.5l-1,1.66-1,1.61c.94-.56.32.37-.46,1.55-.39.58-.83,1.23-1.12,1.78s-.4,1-.24,1.2c-.48.39-1.17,1.57-.75,0-.87,2.32-1.77,3.95-2.37,5.51a15.94,15.94,0,0,0-1.36,4.67c-.43.45-.05-1.14-.36-.72a6.7,6.7,0,0,1-.57,2c-.31.43,0-.76.13-1.55a14,14,0,0,0-.91,4.68,2,2,0,0,0,.78,1.47,16.35,16.35,0,0,0-1,2.92,7.63,7.63,0,0,0-.16,2.59c-.43.8-1,2.2-.46-.88-.18.86-.86,3.46-1.28,5.91s-.61,4.74-.31,4.86a11.62,11.62,0,0,0-.23,2.9,67.62,67.62,0,0,0-.44,8.12l.14-1.06c.69,1.52.17,3.19.34,6.29l-.08-.08a26,26,0,0,0,0,3.6,13.78,13.78,0,0,0,.18,1.48c.13.75.17,1.48.38,5l.42-.45c.58.25.59,1.81.73,3.79.08,1,.16,2.09.3,3.19.07.55.15,1.1.25,1.64a13.49,13.49,0,0,0,.46,1.52l-.1-1.49c.89,2.05.16,6.39.82,8.59.06.5-.38-.7-.65-1.33,1.25,5.83.78.56,2.36,4.66,0,.88-1.19-.69-.18,2.12a23.9,23.9,0,0,0,2.38,4.83c.62,1.08,1.2,2.26,1.81,3.37a19.57,19.57,0,0,1,1.43,3.17c-.18-.92-.34-1.82.76-.1.36.69.75,1.52,1.19,2.4l1.31,2.78a15.18,15.18,0,0,0,3.12,4.56c.16.37.18.53.14.58,1.5,1.87,4.8,6.11,6.09,6.9a6.24,6.24,0,0,0,1.58,2.89c1,1.13,2.23,2.4,3.44,3.6,2.53,2.32,4.87,4.38,4.34,4.89l2.72,2.47,1.36,1.23,1.41,1.17H157a22.37,22.37,0,0,0,6.6,4.51c.8.74.09.38,0,.39,5.32,4.29,6,4.58,11.22,7l.26.73c.76.24,2.78,1.67,5.45,3.29,1.35.78,2.85,1.62,4.4,2.43s3.23,1.44,4.81,2a1.39,1.39,0,0,1-.76-.11c3.56,1.28,7.64,3.24,11.31,4.67a33.6,33.6,0,0,0,5,1.67,6.69,6.69,0,0,0,3.44.21l4.92.78c-6.18-1.69,1.1-.52-1.38-1.46,2.43.57,6.21,1.9,3.17,1.4l-.46-.18c-.66.34,1.27.82,3.34,1.29s4.26.82,4.12,1.13a151.13,151.13,0,0,0,36.74,1.86c-.48-.2-1-.42-1.43-.63,1.38,0,2.74-.24,4.11-.37,1.09.05,1.51.41-1.43.71a11.5,11.5,0,0,0,4.94-1.07c5.75-.61-2.11,1.19-.36.92.79-.11,1.58-.28,2.38-.42h-.55a23.65,23.65,0,0,1,5.5-1.49c2.23-.31,1.22.21,2.09.06,0,.05.3,0,1.33-.25,1.72-.3,3.41-.71,5.11-1.12l-2.16-.06c2.17-.84,4.75-1.16,2.26-1.21a17.8,17.8,0,0,0,4.51-.72,65.69,65.69,0,0,0,6.46-1.94l3.24-1.14c1-.39,2-.79,2.84-1.13,1.71-.7,3-1.18,3.55-1.35a47.06,47.06,0,0,1,4.33-2.36c1.51-.76,3.09-1.59,4.86-2.45-.94.33-1.73.05,1.29-1.47-.44,1.78,5.72-2.5,8.51-3.26-1.23.37.85-.89,2.65-2.25s3.44-2.62,1.6-1.89c2.39-1.54.43.32,2.38-.68,5.14-4.42,11.95-9.08,17.55-15.42,0-.22-1.17.65-.17-.87l3.6-2.74c1-1.33.18-1.83,2.56-3.81-.38.25-1,.6-.31-.3a85.09,85.09,0,0,0,13.24-21.18,184,184,0,0,0,8.49-23.83c-.78,2.17-.51.67-.19-1-.3,1.09-.42-.1-.7.07.37-1.11.62-2.25.9-3.39l.82-3.43a15,15,0,0,1,0-4.34c.19-1.8.15-3.55-.13-3.92l.05,2.22c-.35-1.49-.74-.48-1.29.82s-1.16,2.86-1.62,2.61a7.87,7.87,0,0,1-.08,2.76c-.2,1-.51,2.11-.81,3.26l-.44,1.77c-.17.6-.33,1.21-.46,1.83a18.52,18.52,0,0,0-.41,3.91c-.48,1.07-.06-1-.43-.48a15.77,15.77,0,0,1-1.2,5.79v-.35c-.61,2-1.16,3.7-1.7,5.27s-1.21,2.95-1.82,4.38-1.38,2.82-2.16,4.42-1.82,3.3-2.91,5.36l.73-.39a15.7,15.7,0,0,1-1.93,2.79c-.26,1.18.45,0,1.19-1.28s1.38-2.56,1.26-1.43a6.86,6.86,0,0,0-.88,1.1c-.35.47-.73,1-1.12,1.66-.82,1.25-1.64,2.8-2.62,4.22s-1.85,2.88-2.74,3.95a7.62,7.62,0,0,1-2.1,2c-1.82,2.5,1-.39-.86,2.09l-.75.46-.19.84c-1.33,1.56-2.25,2.12-2.49,2,.33-.36.82-1.13,1.13-1.55a17.66,17.66,0,0,0-1.52,1.69c-.56.61-1.12,1.28-1.64,1.91a27.32,27.32,0,0,1-2.28,2.67c.75-.67,1.42-1.39,2.13-2.09a95.84,95.84,0,0,1-9.5,9.69c-3.52,3-7.08,6-10.28,8.57l.64-.18a26.4,26.4,0,0,1-4.7,3.26c-.59.32-1.2.65-2,1.13s-1.84,1.13-3.32,2l.19-.17a25.18,25.18,0,0,1-4.31,2.75c1.42-1-3.15,1-1.25-.26-2.91,1.75-3.63,2.2-4.08,2.54a23.52,23.52,0,0,1-2.49,1.93l-1.1.09a15.34,15.34,0,0,1-4.5,2.51c2.51-1.35-2.25.29.53-1.28-.87.24-1.68.5-2.42.76s-1.46.47-2.11.71c-1.31.48-2.43,1-3.44,1.4a13.12,13.12,0,0,1-5.4,1.29c-2.9,1.94,6.15-1.25,4.43-.51,1.6-.13-2.4,1.52-4.62,2.08a16.34,16.34,0,0,1-3.63.23,24.65,24.65,0,0,0-2.56.2,27.73,27.73,0,0,0-3.6.54c.56-.11.59-.2,1.15-.31a18.27,18.27,0,0,0-3.2.68,14,14,0,0,1-3.6.49c-1.38.85-3.41.52-3.74,1.32,1.76-.26,3.5-.65,5.25-1-1.48.33-2.88.86-4.55,1.3a28,28,0,0,1-6.13.78,21.64,21.64,0,0,1,2.83-.8c-1.47-.07-2.77.49-4.3.33.18-.41,1.79-.55,3.74-.82a27.77,27.77,0,0,0,5.8-1.05c-1.57,0-6,1.31-4.47.3a8.75,8.75,0,0,1-4.14.89,20.7,20.7,0,0,0-5.38.61l.23-.49a17.51,17.51,0,0,1-3,.38l2-.66c-3.15.58-6.1-.27-9.12-.11,3.17.07,3.52.2,3.42.39s-.66.43.69.58c-3.94.31-5.08-.09-6.31-.46a22,22,0,0,0-6.93-1.08c1.18,0,4.42.58,2.55.68-.83-.11-1.79-.24-2.67-.39a15.21,15.21,0,0,1-2.16-.56c-5.78-.55.83.59-1.66.6a4.84,4.84,0,0,0-2.47-.36,18.24,18.24,0,0,1-3,.05l.06-.48c-3.26-.67-3.73-.5-4.13-.35s-.71.35-3.61-.44l2.61-.15-3.09-.45.75-.41a20.4,20.4,0,0,1-3.86-.6c-1.07-.26-2.12-.59-3.7-1.07.65.53-.66.75-3.49-.11-1.84-.86,1.21-.1-2.8-1.26a6.13,6.13,0,0,1,3.69.88c.23-.1,1,0,1.2-.12-2-.93-5.16-1.61-6.56-2.15a12.94,12.94,0,0,1,1.5.64c-2-.47-3.95-.87-5.91-1.4-.82-.52-.07-.37.68-.23-1.16-.4-2-.51-3.71-1.14.58-.19.63-.61,3.05.16-1.81-.59-3.67-1.11-5.46-1.77-.28-.32-2.48-1.64-1.75-1.47a19.86,19.86,0,0,0-2.38-1.06c-.86-.38-1.8-.75-2.76-1.14s-2-.78-2.93-1.26a27,27,0,0,1-2.77-1.61,6.22,6.22,0,0,1-1.45-.59c-1.68-1-3.16-2.19-4.79-3.28a49.08,49.08,0,0,0-5.34-3.43l-1.68-2.18c-3-2.1,2.32,2.9-2.7-.62-3.47-2.61-.86-1.5-1.89-2.63a24.54,24.54,0,0,1-7.59-6.29C154.36,372.49,155.05,373.26,156,374.06Zm-26.05-36.6c.45.77,1.44,2.23,1.44,2.93C130.47,339.71,130.4,338.89,129.94,337.46Zm-4.32-67.61a9.77,9.77,0,0,1-.92,2.68A12.2,12.2,0,0,1,125.62,269.85Zm159.85-78.79h-.1C283.48,190.29,284.15,190.57,285.47,191.06Zm4,1.41c.43.06.42,0,.27-.13a8.61,8.61,0,0,1-2.25-.57A4.52,4.52,0,0,0,289.45,192.47ZM274.78,410l-.83,0C275.73,409.51,275.25,409.73,274.78,410Z"/><path class="cls-2" d="M124.19,277.6a.6.6,0,0,1-.33.32C123.87,278.27,124,278.3,124.19,277.6Z"/><path class="cls-2" d="M178.69,390.58l.12.07a.28.28,0,0,0,.16,0Z"/><path class="cls-2" d="M225.57,191.27a8.75,8.75,0,0,1-1.64,0C223.9,191.4,224.29,191.44,225.57,191.27Z"/><path class="cls-2" d="M310.42,200.33,308,199.21a12.75,12.75,0,0,1,2.1,1.25C310.05,200.33,309.66,200,310.42,200.33Z"/><path class="cls-2" d="M328.48,215.35c.34.19.65.5,1,.69l.06-.24C328.2,214.8,327.18,214.24,328.48,215.35Z"/><path class="cls-2" d="M311.9,202.89c0,.47,1.51,1.17,3.19,2l-.29-.17C315.56,204.55,313.72,203.72,311.9,202.89Z"/><path class="cls-2" d="M315.47,205.13c.51.28,1,.55,1.51.86C317.29,205.9,316.4,205.59,315.47,205.13Z"/><path class="cls-2" d="M294.59,194c.82.4.72-.3,1.14,0C296.85,193.84,289.85,192.6,294.59,194Z"/><polygon class="cls-2" points="312.57 204.81 312.23 204.05 311.13 203.88 312.57 204.81"/><path class="cls-2" d="M299.49,198.06c.92.4,1.8.86,2.68,1.32,0-.1.36,0,.8.17l-2.35-1.12C300,198.15,299.49,198,299.49,198.06Z"/><path class="cls-2" d="M303,199.55a17.83,17.83,0,0,0,2.22.92C304.72,200.26,303.7,199.81,303,199.55Z"/><polygon class="cls-2" points="308.92 203.03 308.18 202.54 306.33 201.55 308.92 203.03"/><path class="cls-2" d="M268.74,189.22l-3.24-.37c-.35.12.51.36,1.71.48C268,189.34,269.2,189.46,268.74,189.22Z"/><path class="cls-2" d="M278.09,192.46a5,5,0,0,1-1.3-.7l-.24.59C277.07,192.36,277.57,192.42,278.09,192.46Z"/><path class="cls-2" d="M268.84,190.77c-.35.12-4.69-.24-.66.36C268.53,191,271.74,191.37,268.84,190.77Z"/><path class="cls-2" d="M220.38,190.38c.26-.06.54-.1.81-.15l-.3-1Z"/><path class="cls-2" d="M181.14,206.78c3.43-1.57.49-1,3.66-2.28.69-.62-2.6,1.05-1.88.45C181,206.19,179.92,206.74,181.14,206.78Z"/><path class="cls-2" d="M182.92,205l1-.66A9,9,0,0,0,182.92,205Z"/><path class="cls-2" d="M373.84,306.39c.16-.84.26-1.68.34-2.53-.13.55-.25,1.09-.4,1.62Z"/><path class="cls-2" d="M373.28,301.51l.67-.58-.55-1.52A7.88,7.88,0,0,1,373.28,301.51Z"/><path class="cls-2" d="M128.79,330.75l-.21-.12a4.84,4.84,0,0,0,.49,2C129,332,128.85,331.39,128.79,330.75Z"/><polygon class="cls-2" points="143.62 359.55 143.3 359.09 143.45 360.29 143.62 359.55"/><path class="cls-2" d="M163.12,378.65c-.84-.73-1.92-1.48-2.76-2.22C162.28,377.91,162.88,379.42,163.12,378.65Z"/><ellipse class="cls-1" cx="70.85" cy="201.82" rx="40.85" ry="36.23"/><path class="cls-2" d="M114.11,201.51c0,.39.4.25.48.31C114.46,201.17,114,201.53,114.11,201.51Z"/><polygon class="cls-2" points="112.52 195.39 112.71 195.46 112.14 194.65 112.52 195.39"/><path class="cls-2" d="M111,189.84c-.41.72.77,1.94.82,3l-.11.21.68.3c-.22-.6-.53-1.26-.8-1.88-.13-.31-.25-.61-.34-.89A3.4,3.4,0,0,1,111,189.84Z"/><path class="cls-2" d="M111.18,186.33c-.07.15-.21,0-.22,0a4.24,4.24,0,0,1,.44.71c0-.07,0-.1,0-.15S111.3,186.61,111.18,186.33Z"/><path class="cls-2" d="M111.41,186.9c.26.58,0-.48,0,0Z"/><path class="cls-2" d="M109.93,184.39l.62.61c.06-.23-.27-.91,0-.72C110,183.59,109.93,183.83,109.93,184.39Z"/><path class="cls-2" d="M109.1,184l.3.32C109.42,184.18,109.39,184.07,109.1,184Z"/><path class="cls-2" d="M110,185l-.62-.68c0,.16-.24.28.27.32C109.45,184.64,109.71,184.7,110,185Z"/><path class="cls-2" d="M110.17,185.47c.09.48.28,1-.33.43C110.66,187.22,111,186.81,110.17,185.47Z"/><path class="cls-2" d="M110.17,189.83l0,.62c.14.13.28.25.41.39C110.42,190.64,110.37,189.72,110.17,189.83Z"/><path class="cls-2" d="M107.44,179.83c-.15,0-.16.47-.28.63l.48.4C107.55,180.55,107.29,180,107.44,179.83Z"/><path class="cls-2" d="M107.16,180.46c-.25-.19-.48-.4-.75-.57C106.89,180.54,107,180.61,107.16,180.46Z"/><polygon class="cls-2" points="108.35 184.23 109.53 185.25 108.21 183.99 108.35 184.23"/><polygon class="cls-2" points="105.21 177.11 105.82 177.28 104.82 176.92 105.21 177.11"/><path class="cls-2" d="M103.56,175.48c.48.06,0-.72.38-.56a4.51,4.51,0,0,0-1.56-.79A3.07,3.07,0,0,1,103.56,175.48Z"/><path class="cls-2" d="M101.57,173.82c.25.1.51.21.81.31A2.24,2.24,0,0,0,101.57,173.82Z"/><path class="cls-2" d="M105.48,178.67a1,1,0,0,0-.13-.83l-.09.56Z"/><path class="cls-2" d="M105.26,178.41h0l-.48-.61Z"/><path class="cls-2" d="M105.54,178.74l-.06-.07C105.47,178.72,105.47,178.75,105.54,178.74Z"/><path class="cls-2" d="M107.41,182.07c-.49-.3-1.31-1-1,0C106.84,182.24,106.67,181.63,107.41,182.07Z"/><path class="cls-2" d="M105.41,179.42l.53.78c.08-.08.1-.32.36-.19Z"/><polygon class="cls-2" points="105.01 179.15 105.41 179.41 105.21 179.12 105.01 179.15"/><path class="cls-2" d="M102.5,175.26a4,4,0,0,1-1.15-.79,13.06,13.06,0,0,0,1.09,1.24C102.59,175.66,102.93,175.66,102.5,175.26Z"/><path class="cls-2" d="M103.87,176.76l-.08,0C103.8,176.78,103.82,176.82,103.87,176.76Z"/><polygon class="cls-2" points="97.41 171.39 97.43 171.5 97.49 171.45 97.41 171.39"/><path class="cls-2" d="M102.45,175.83a1.18,1.18,0,0,0,.75.51,8.44,8.44,0,0,1-.76-.63C102.38,175.73,102.34,175.75,102.45,175.83Z"/><path class="cls-2" d="M100.34,173.08a4.5,4.5,0,0,0,.41.63C100.67,173.48,100.47,173.05,100.34,173.08Z"/><path class="cls-2" d="M103.77,176.54l.06,0C103.8,176.41,103.78,176.45,103.77,176.54Z"/><path class="cls-2" d="M103.77,176.54a2.29,2.29,0,0,0-.57-.2,4.48,4.48,0,0,0,.59.38A.58.58,0,0,1,103.77,176.54Z"/><path class="cls-2" d="M94.66,172.86c.26-.3,1.33,0,1.81.8.89.23,1.21-1.12,1-2.16-.12.12-.22.25-1.12-.07.15.37,1.41,1.55.56,1.41-1.12-.49-.74-.66-1.12-1.16.14.69-1.66-.24-1.82.53l1,.35C94.88,172.67,94.47,172.61,94.66,172.86Z"/><path class="cls-2" d="M98.85,172.58l.33.21a4.52,4.52,0,0,1-.73-1.27c-.66-.2-.85-.16-1-.07l.77.55.73.62Z"/><path class="cls-2" d="M100.53,173.88c-.51.13-1.34-.29-1.2.42.88.67.84.21,1.48.49-1.48-1.06.57.15-.3-.87a5.82,5.82,0,0,1,.84.55c-.21-.26-.42-.5-.6-.76v0h0c0,.09,0,.13,0,0l0,0a.45.45,0,0,1-.17.08c-.35-.41,0-.14.17-.08s0,0,.06,0h0l-1.58-1A9.74,9.74,0,0,0,100.53,173.88Z"/><path class="cls-2" d="M105.11,181.87a.11.11,0,0,1,0-.1C105.05,181.7,105,181.69,105.11,181.87Z"/><path class="cls-2" d="M104.89,181.13a.72.72,0,0,1,.54.41c.1.38-.17.12-.27.23.23.13.75.54.47-.24l-.12-.07c-.27-.67-.5-1.68-.36-1.64A3.11,3.11,0,0,0,104.89,181.13Z"/><path class="cls-2" d="M102.82,177.47l-1.21-.89.27.79.13-.19C102.55,177.83,102.62,177.51,102.82,177.47Z"/><polygon class="cls-2" points="97.38 171.12 97.81 170.86 96.71 170.89 97.38 171.12"/><polygon class="cls-2" points="95.69 170.06 95.96 169.76 95.4 169.68 95.69 170.06"/><path class="cls-2" d="M38.24,219.72l.32.26A2.27,2.27,0,0,0,38.24,219.72Z"/><path class="cls-2" d="M36.7,217.31l-.2,0C36.65,217.41,36.75,217.42,36.7,217.31Z"/><path class="cls-2" d="M49.13,168.34c-.75,0-1.68-.17-1.39.18l.38.29A2.27,2.27,0,0,1,49.13,168.34Z"/><path class="cls-2" d="M31,194.27l.18-.14-.28-.5Z"/><path class="cls-2" d="M32.65,195.09l-.4.7A3.18,3.18,0,0,0,32.65,195.09Z"/><path class="cls-2" d="M50.1,229.77l.62-.17C50.09,229.26,50.25,229.61,50.1,229.77Z"/><path class="cls-2" d="M76.62,163.59a5.79,5.79,0,0,0-1.36-.45C75.91,163.48,76.4,163.92,76.62,163.59Z"/><path class="cls-2" d="M33.76,221.33c.22.18.36.23.44.17C34,221.31,33.82,221.22,33.76,221.33Z"/><path class="cls-2" d="M73.63,163.07c.1.05.19.07.29.11a5.86,5.86,0,0,1,1.34,0A1.89,1.89,0,0,0,73.63,163.07Z"/><path class="cls-2" d="M102.09,221.35l.13-.07S102.14,221.28,102.09,221.35Z"/><path class="cls-2" d="M113.12,207.25c0,.18-.06.48-.1.76A2.46,2.46,0,0,0,113.12,207.25Z"/><path class="cls-2" d="M88.63,166.27c.4.14.08,0,0,0Z"/><path class="cls-2" d="M89.82,168.64a.31.31,0,0,0-.24.13A.36.36,0,0,1,89.82,168.64Z"/><path class="cls-2" d="M69.52,165.71h0C69.61,165.79,69.59,165.77,69.52,165.71Z"/><path class="cls-2" d="M89.14,166.7a2.92,2.92,0,0,0-.45-.33A3.48,3.48,0,0,0,89.14,166.7Z"/><path class="cls-2" d="M89.14,166.48l.33.19C89.54,166.62,89.52,166.56,89.14,166.48Z"/><path class="cls-2" d="M88.08,166.06a3.86,3.86,0,0,1,.61.31c-.06-.06-.08-.09-.06-.1Z"/><path class="cls-2" d="M75.77,236.44s.06,0,.08,0C76.22,236.23,76.05,236.29,75.77,236.44Z"/><path class="cls-2" d="M43.11,177.89a.06.06,0,0,0,0,0l0,0Z"/><path class="cls-2" d="M42.36,179.07a1.19,1.19,0,0,1,.71-1.2l-1.17-.6C42.05,177.88,42.2,178.48,42.36,179.07Z"/><path class="cls-2" d="M42.85,224.81l-.4-.93c1.25.32,1.65,1,1.42,0-.51.45-1.17-.15-1.84-.75-.35-.29-.65-.62-.94-.82a.7.7,0,0,0-.86-.07l-.18-.66c.1.14.18.11.28.26-.24-1.34-1.38,0-2.15-1.42-.23-.52-.28-.94.06-.73l-1-.81c-.18-.3.07-.36.25-.06a12,12,0,0,1-1.08-1.49h0a6.37,6.37,0,0,1-1.15-.69c-.06-.51.24.14.33,0l-.79-.76c.12-.53.83.07,1.12.71.37-.74.2-.88-.11-1.11a2.34,2.34,0,0,1-.5-.5,2.5,2.5,0,0,1-.26-1.17l.52.8c.47-.88-.06-1.44,0-2.57-.15.3-.31,2.41-1,1.54a1.68,1.68,0,0,0-.62-1.18c.45-.17.11-.65-.09-1.35l.62-.14c-.39-.68-.69-.53-1.09-.9a1.25,1.25,0,0,1,.6-1.43c-.19-1.36-.61,1.12-1-.46.07-1.2-.4-1.92-.91-3.28.17-.84.39.1.56-.21l-.55-.68c0-.17.16-.13.25-.1-.24-.6-.65,0-.88-1-.34-.12-.15-.64.11-1.26a2.1,2.1,0,0,0,.19-2c.2-.28.38.17.64.1-.45-1.68-.31-1.42-.77-2.87l.61-1.08c-.6.76-1-.43-1.25-1.52a4.92,4.92,0,0,0-.68.64,13.17,13.17,0,0,1,.07-1.66c.15-.16.32.06.51.38,0-.12,0-.23-.07-.32.39-.5.66-.1.89.37l-.54.45c.25.47.62.91,1,.92a1,1,0,0,1,0-.53c.07.12.15.2.22.17s0-.22-.1-.5L33,194l-.25-.15,1-1.77a24.39,24.39,0,0,1-.33-2.42,6.12,6.12,0,0,1,.41-3c.19.75.7.5,1.24.81-.43.13-.62.53-.69,1.07a4.42,4.42,0,0,1-.39,1.65c.3-.54.52-.3.56-.12a17.19,17.19,0,0,1,.29-2.14c.43.26.55-.22,1-.6-1.06-.09.12-1.71.34-2.58.33.14.45.46-.09,1.34.59-.32.52-.78.48-1.24s-.11-1,.48-1.25c-.14.22-.26.3-.18.48.1-.66,1.12-1.74,1.16-1.28l-.14.22c1.07-1.31,3.27-3.94,2.92-4.69a5.38,5.38,0,0,1,.62,1.07,38.38,38.38,0,0,1,.29-4.22c.28.72,2.19,1.38,1.4,2.6a3.13,3.13,0,0,0,1.32-1.13c-.27.08-1.21-.38-1-.67a8.62,8.62,0,0,0,2.26-.38c-.4.15-.77-1.09-.18-1.43,0,.19.7.88.58,1.11l.72-1.82c-.23.39.47.83.94.89-.25-.08,1.16-.77,1.48-1.06a5.25,5.25,0,0,0-.71.14c1.64-.78.8-2.26,2.49-3.12-.1.32.16,1.54,1,1.22.11-.68.58-3.26,2-4.37l.42.18,1.13-.76c-.25.55-.79,1.37-1.28,2.32s-1,1.84-1.42,2.39c.74,0,.34.28,1.26-.14.44.14-.33.65-.59.78l2.22-.74c-.35-.61,1.47-1.19,1.21-1.7a19.48,19.48,0,0,0-2.18,1.54c-.17-.3,0-.88.41-1.48a3.9,3.9,0,0,1,2-1.28c.5.12,0,1.24.16,1.44a2.83,2.83,0,0,1,1.59-.81l-.58.57c.94-.08,1.26-1.26,2.51-.91.4,0,1.31.59,1.3.19-.76-.61-1.41-2.9-1.08-3.57.07,0,.65.07,1.26.17a7.18,7.18,0,0,1,1.54.47c.75.51-.77,1.55-.13,2,0-.19.32-.46.46-.55.43.1-.09.58.79.38.06-.7,1.82-.19.35-.63.86-.29.95,0,2-.09-.37-.43.84-1.54,1.77-1.77-.05.17.16.39.26.49.47,0,.88,0,1.26,0s.74.12,1.09.17a16.61,16.61,0,0,0,2.23.27c.14.17,1,.41.58.68a1.61,1.61,0,0,1,1-.25c1,.72-1.17-.07-.47.74.1-.38,1.39-.36,2.18-.5-.15-.64-1.73-.36-2.49-.21.07-.84,1.48-1.54,3.4-1.68,1.51,0,.54.63.82.54,2.65.76,2.65-1,4.77.24.73.8-.26,1-.18,1.48a4.55,4.55,0,0,1-1.37-.48,4.37,4.37,0,0,0-1.09-.48l.9.47a2.58,2.58,0,0,1-1.59-.2,9.09,9.09,0,0,0,2.69.93,19.4,19.4,0,0,1,3.55,1.44c.4,0,1.06.06.86-.26l-.64-.19c-.41-.65,1.38-.06.68-.59a5.9,5.9,0,0,1,3.18.78l-.06.66c.07-.19-.6-.67-1-.65.3,0,.68.35,1,.71s.78.66,1.22.45l-.6-.81c1,.16,2.29.14,3.22.87-.16-.78-.27-.07-.65-1.08.21,1.11-2.64-1.47-2-.09-.37-1.16-1.15-1-1.9-2.05,0,.19.21.51-.66,0a1.19,1.19,0,0,1-.27.07l-.06,0,0,.05c-.05,0-.05,0,0,0a1.22,1.22,0,0,1,.34.48c-.64.25-2-.41-2.61-.33-.52-.26.3-.14.08-.44l-.86.1c.08-.45-1.23-1.19.16-1l-1.17-.4a3.68,3.68,0,0,0-2.22-.82c-.56-.22-1.56.16-1-.07l-2-.16V164a16.79,16.79,0,0,0-3-.2,10,10,0,0,1-1.53-.17,8.2,8.2,0,0,1-1.58-.45,6.84,6.84,0,0,1-2.38,0l-.21-.4c-.82.09-2.51-.3-2.85.1a3.14,3.14,0,0,0-2.58-.37,23.18,23.18,0,0,1-3,.52l0,.51a10.57,10.57,0,0,0-3.08.95l.17.42a4.47,4.47,0,0,1-1.92.43,12.84,12.84,0,0,0-2.4.5c.06-.2.48-.29.8-.28a4.13,4.13,0,0,0-3,.92,5.24,5.24,0,0,1-2.7,1.26,1.75,1.75,0,0,1-1,.48l.09-.08-.17.09c-.21,0-.44,0-.67.09a2.55,2.55,0,0,0,.58,0,8.24,8.24,0,0,0-1.16.82l-.43-.31-.1.07c-.54.09-.25.39.17.58a2.6,2.6,0,0,0-.46.58c-.78-.5-1,.91-1.94.53-.07.54-2,1.69-1.73,2.56-.08-.08-.23,0,0-.21A2.78,2.78,0,0,0,42.78,174l-.57-.33-.45,1.42c-.83.19-1.21.26-.95-.6a26.16,26.16,0,0,0-1.51,2.83l-.23-.33c-.4.4-.63,1.39-1.07,1.44a3.81,3.81,0,0,0-1.25.95,12.7,12.7,0,0,0-1.56,1.85c-.52.74-1.06,1.53-1.63,2.28A23.15,23.15,0,0,1,32,185.69c1.35,0-1.22,1.09-.41,1.63-.32.05-.64.41-.65-.18-.38,1.66-1.41,2.18-1.07,3.53-.31.09-.28-.48-.48-.37,0,.15.07.59-.13.71s-.15-.31-.19-.61c-.45,1.7.33,2.09,1.06,2.42-.58.71-.71,1.14-.28,1.85-.31.23-.66.67-.57-.38-.14.56-1,3.5-.37,3.63-.18.16-.1.81,0,1a22.56,22.56,0,0,0-.19,2.7l.12-.35c.72.51.17,1,.32,2.08l-.08,0A3.24,3.24,0,0,0,29,205a4.65,4.65,0,0,1,0,1.69l.45-.2c.53,0,.46.55.35,1.24s-.34,1.56.08,2.15l.13-.53c.54.6-.79,2.34-.69,3.15,0,.19-.21-.21-.34-.42,0,2.13.64.08,1.26,1.43-.21.37-.95,0-.62.92,0,.29.51.88,1,1.56a4.93,4.93,0,0,1,1.16,2.19c.08-.39.18-.76.68-.26a8.92,8.92,0,0,1,.61,1.87,1.91,1.91,0,0,0,1.17,1.45c0,.15,0,.23-.06.27.62.55,1.75,1.95,2.45,2-.42.8.55,1.64,1.45,2.36s1.87,1.2,1.33,1.75a21.76,21.76,0,0,0,1.85,1.61l-.15.07a3.45,3.45,0,0,0,2.47,1.18c.21.31-.08.26-.15.31a5.69,5.69,0,0,0,3.92,2l-.09.53c.3,0,.93.55,1.77,1.19a14.38,14.38,0,0,0,1.41.94,6,6,0,0,0,1.67.53.44.44,0,0,1-.32.11c1.28.22,2.51,1.17,3.73,1.71s2.26,1,3,.23L60.2,238c-2-.6.48-.69-.29-1.17.81.07,1.94,1,.94.87l-.13-.13c-.57.84,2.48.92,2.33,1.47,1,.13,2.07.29,3.1.47s2,.22,3.07.34l1.53.17,1.52,0c1,0,2,0,3,0l-.51-.7a12.67,12.67,0,0,0,1.36-.11c.37.12.55.5-.44.61.56.34,1.6-.57,1.6-.73,1.95,0-.63.95,0,.88l.79-.16-.19-.06a2.93,2.93,0,0,1,1.78-.85c.75,0,.46.36.75.32,0,0,.11,0,.45-.08l1.72-.33-.81-.4c.68-.45,1.58-.34.65-.79.7.41,2.26,0,3.74-.51l1.08-.36c.34-.13.66-.28.94-.4a4.18,4.18,0,0,1,1.2-.4,5.32,5.32,0,0,1,1.35-1c.49-.28,1-.57,1.59-.85-.34,0-.8-.44.21-.89.28,1.36,2.11-.42,3.35-.18-1-.09,2.63-1.93,1-2,.84-.44.34.38,1.12.23a12.12,12.12,0,0,1,2.86-2.37,21.89,21.89,0,0,0,3.1-2.73c-.1-.15-.6,0-.41-.61l1.62-.56c.3-.49-.45-1,.68-1.43-.21,0-.52,0-.33-.28a19.24,19.24,0,0,0,2.62-3.24c.68-1.22,1.32-2.48,1.9-3.76.25-.67.51-1.32.78-2s.58-1.29.79-2c.45-1.34,1.16-2.61,1.73-4-.46.69-.41.18-.32-.4-.15.36-.43-.09-.67-.06l1.05-2.21c-.64-.5.1-2.53-.52-2.81l.07.75c-.69-1-1.73,1.24-2.68,1,.43.55,0,1.2-.4,1.89a2.4,2.4,0,0,0-.3,2.38c-.29.31-.22-.37-.49-.23.29.49.23,1-.21,1.86l-.07-.13c-.16.63-.32,1.18-.49,1.66s-.46.9-.7,1.32l-.78,1.34c-.26.49-.68,1-1.07,1.59l.52,0a2.58,2.58,0,0,1-.79.77c.28,1,.88-1.54,1.26-.58-.65.13-1.11,1.14-1.73,2s-1.26,1.73-1.85,1.64c-.56.78.61.1,0,.88h-.4l.14.43c-.46.45-1,.46-1.16.31a2.17,2.17,0,0,0,.31-.51c-.79.39-1.37,1.84-1.66,2,.27-.17.49-.38.74-.57a9.65,9.65,0,0,1-1.34,1.56c-.51.5-1,1-1.54,1.53s-1.12.92-1.64,1.41-1,1-1.44,1.46l.29.07c-1.44,1.42-1.43.72-3.19,2l0-.09a3.26,3.26,0,0,1-1.27,1c.36-.49-1.15,0-.65-.56a6,6,0,0,0-1.14,1.09,3.53,3.53,0,0,1-.59,1l-.45-.21A2.35,2.35,0,0,1,87,234.29c.71-.66-.85-.26-.08-1a3.92,3.92,0,0,0-.81.13,4.08,4.08,0,0,0-.67.18,6.82,6.82,0,0,0-1,.54c-.61.37-1.1.64-1.75.23-.73,1.32,2-.06,1.54.33.58.16-.61,1-1.34,1.13s-1.56-1-3.32-.57c.17,0,.17-.11.35-.15a1.81,1.81,0,0,0-1,.26,1.54,1.54,0,0,1-1.15.07c-.37.67-1.08.11-1.11.91l1.65-.41c-.9.33-1.7,1.38-3.34,1.14a2.85,2.85,0,0,1,.87-.6c-.48-.18-.87.29-1.37.05.07-.74,2-.41,2.95-1.14-.53-.26-1.83.83-1.43-.09a1.12,1.12,0,0,1-1.26.6,2.24,2.24,0,0,0-1.69.33l0-.48a2.51,2.51,0,0,1-.94.33l.62-.64c-1,.56-1.9-.34-2.84-.14,1,.05,1.1.18,1.07.37s-.21.43.21.58c-2.5.58-1.4-1.29-4.12-1.17.37,0,1.37.35.77.54a6.84,6.84,0,0,1-.82-.24,2.28,2.28,0,0,1-.65-.41c-1.8-.15.22.52-.58.71-.55-.66-.92.11-1.75.18l.07-.47c-1-.29-1.19-.07-1.34.14s-.29.42-1.18,0l.91-.48-1,0,.31-.49a3.68,3.68,0,0,1-2.39-.39c.15.39-.36.82-1.26.53-.52-.47.47-.33-.8-.67.38-.2.79-.46,1.2.14.11-.13.37-.2.46-.33a4.74,4.74,0,0,0-2-.73,1.37,1.37,0,0,1,.45.26c-.66,0-1.35.06-2,0-.21-.29.06-.33.33-.37a7.93,7.93,0,0,1-1.23-.19c.28-.3.41-.69,1.19-.55l-1.8-.3c0-.2-.64-.78-.37-.83a2,2,0,0,0-.75-.29c-.28-.09-.59-.16-.91-.23a4,4,0,0,1-1.84-.76.77.77,0,0,1-.52,0c-1-.73-1.61-1.74-3.14-2.1l-.21-1.08c-1-.58.33,1.41-1.32.42-1.2-.68,0-.78-.25-1.22a3,3,0,0,1-2.57-1.7C42.38,224.28,42.54,224.58,42.85,224.81Zm-8.24-11.22c.2.21.69.58.51.88C34.5,214.41,34.64,214.07,34.61,213.59ZM32.5,192.43c.1.25-.07.54-.35.84A1.87,1.87,0,0,1,32.5,192.43Zm51.65-27.3,0,0C83.51,164.76,83.72,164.9,84.15,165.13Zm1.28.64c.16,0,.17-.09.13-.17-.13.09-.43,0-.77-.15C84.85,165.6,85,165.74,85.43,165.77ZM80.5,239l-.29-.06C80.78,238.64,80.64,238.8,80.5,239Z"/><path class="cls-2" d="M32.46,195a.48.48,0,0,1-.28.06C32.24,195.17,32.33,195.19,32.46,195Z"/><path class="cls-2" d="M50,229.8l0,0a.19.19,0,0,0,.09,0Z"/><path class="cls-2" d="M64.46,168.05a1.32,1.32,0,0,1-.55-.17C63.92,168,64.05,168.08,64.46,168.05Z"/><path class="cls-2" d="M92.71,167.9l-.87-.32a1.67,1.67,0,0,1,.66.53C92.54,168,92.46,167.77,92.71,167.9Z"/><path class="cls-2" d="M97.64,174.57c.14,0,.21.16.35.19l.11-.2C97.67,174.23,97.27,174.14,97.64,174.57Z"/><path class="cls-2" d="M92.7,169.72c-.13.39.42.53,1,.76l-.1,0C94.06,170,93.37,169.87,92.7,169.72Z"/><path class="cls-2" d="M93.84,170.54a1.92,1.92,0,0,1,.51.27C94.53,170.65,94.17,170.65,93.84,170.54Z"/><path class="cls-2" d="M87.23,166.07c.25.19.36-.42.46-.22C88.19,165.47,85.56,165.81,87.23,166.07Z"/><polygon class="cls-2" points="92.5 171.13 92.55 170.59 92.06 170.78 92.5 171.13"/><path class="cls-2" d="M88.35,168.71l.84.51c0-.08.15-.08.31-.05C89,168.92,88.38,168.56,88.35,168.71Z"/><path class="cls-2" d="M89.5,169.17a1.9,1.9,0,0,0,.75.23A4.21,4.21,0,0,0,89.5,169.17Z"/><polygon class="cls-2" points="91.27 170.63 91.06 170.41 90.48 170.05 91.27 170.63"/><path class="cls-2" d="M78.33,165.75H77.25c-.13.16.14.3.54.29S78.46,165.93,78.33,165.75Z"/><path class="cls-2" d="M81.16,167.72c-.24-.16-.24-.27-.36-.47l-.16.6Z"/><path class="cls-2" d="M78.19,167.26c-.13.15-1.54.29-.26.42C78.06,167.53,79.11,167.52,78.19,167.26Z"/><path class="cls-2" d="M62.61,166.59l.26-.05-.22-1Z"/><path class="cls-2" d="M50.73,173.37c1.14-.34,0-.69,1-.92.14-.35-.88.19-.73-.13C50.52,172.89,50.12,172.94,50.73,173.37Z"/><path class="cls-2" d="M51,172.32a2.81,2.81,0,0,0,.25-.31A1.59,1.59,0,0,0,51,172.32Z"/><polygon class="cls-2" points="114.01 204.19 114.27 203.34 113.9 203.88 114.01 204.19"/><path class="cls-2" d="M113.35,202.52l.66-.19-.56-.51C113.47,202,113.5,202.38,113.35,202.52Z"/><path class="cls-2" d="M35.08,211.23h-.17c-.13.16-.1.33,0,.65A3.81,3.81,0,0,1,35.08,211.23Z"/><polygon class="cls-2" points="39.28 220.12 39.2 219.97 38.91 220.59 39.28 220.12"/><path class="cls-2" d="M45.61,225.55c-.24-.23-.64-.38-.89-.61C45.36,225.32,45.22,226.18,45.61,225.55Z"/><ellipse class="cls-1" cx="183.13" cy="125.24" rx="40.85" ry="36.23"/><path class="cls-2" d="M216.38,150c-.27.26.12.45.14.54C216.87,150,216.29,149.91,216.38,150Z"/><polygon class="cls-2" points="219.48 144.5 219.56 144.68 219.72 143.7 219.48 144.5"/><path class="cls-2" d="M222.32,139.5c-.83.2-.86,1.89-1.56,2.69l-.22.06.27.7A25.35,25.35,0,0,1,222.32,139.5Z"/><path class="cls-2" d="M224.93,137.17c-.33.09,0-.73-.36.66l.12-.1A5,5,0,0,1,224.93,137.17Z"/><path class="cls-2" d="M224.69,137.73c-.22.59.37-.31,0,0Z"/><path class="cls-2" d="M225.44,134.9v.87c.21-.12.45-.83.49-.53C226,134.37,225.83,134.51,225.44,134.9Z"/><path class="cls-2" d="M225.15,134v.44C225.22,134.39,225.28,134.29,225.15,134Z"/><path class="cls-2" d="M225.1,135.38l0-.93c-.15.08-.37,0,0,.42C224.92,134.74,225.06,135,225.1,135.38Z"/><path class="cls-2" d="M224.85,135.84c-.28.4-.53.93-.54.07-.15.77-.17,1.12,0,1.11s.17-.11.28-.3A3.65,3.65,0,0,0,224.85,135.84Z"/><path class="cls-2" d="M221.76,138.92l-.42.46c0,.19,0,.36,0,.55C221.37,139.67,222,139,221.76,138.92Z"/><path class="cls-2" d="M226.88,129.88c-.14-.07-.45.22-.65.25l.07.63C226.46,130.47,226.65,129.89,226.88,129.88Z"/><path class="cls-2" d="M226.23,130.13c0-.31-.06-.62-.12-.93C226,130,226.05,130.16,226.23,130.13Z"/><polygon class="cls-2" points="224.42 133.67 224.55 135.23 224.49 133.4 224.42 133.67"/><polygon class="cls-2" points="227.18 126.33 227.5 126.88 227.02 125.92 227.18 126.33"/><path class="cls-2" d="M227.09,124c.31.38.47-.56.67-.15a4.74,4.74,0,0,0-.61-1.66A3.06,3.06,0,0,1,227.09,124Z"/><path class="cls-2" d="M226.75,121.38c.11.25.27.5.4.79A1.91,1.91,0,0,0,226.75,121.38Z"/><path class="cls-2" d="M226.29,127.66a1,1,0,0,0,.48-.69l-.45.33Z"/><path class="cls-2" d="M226.3,127.32l0,0c0-.38.06-.65.07-.77C226.38,126.63,226.35,126.87,226.3,127.32Z"/><path class="cls-2" d="M226.28,127.75v-.09S226.23,127.71,226.28,127.75Z"/><path class="cls-2" d="M225.29,131.47c-.14-.57-.21-1.66-.75-.69C224.77,131.19,225.07,130.63,225.29,131.47Z"/><path class="cls-2" d="M225.72,128.15l-.16.94c.12,0,.29-.16.39.11Z"/><polygon class="cls-2" points="225.62 127.67 225.72 128.15 225.78 127.8 225.62 127.67"/><path class="cls-2" d="M226.47,123.08a4.44,4.44,0,0,1-.31-1.37,15.64,15.64,0,0,0,0,1.67C226.26,123.45,226.51,123.67,226.47,123.08Z"/><path class="cls-2" d="M226.44,125.14l0-.09C226.38,125.11,226.37,125.15,226.44,125.14Z"/><polygon class="cls-2" points="225.25 116.73 225.19 116.83 225.27 116.83 225.25 116.73"/><path class="cls-2" d="M226.05,123.47a1.16,1.16,0,0,0,.19.89,7.1,7.1,0,0,1-.12-1C226.06,123.35,226,123.34,226.05,123.47Z"/><path class="cls-2" d="M226.34,120a5.57,5.57,0,0,0-.13.75C226.31,120.51,226.46,120,226.34,120Z"/><path class="cls-2" d="M226.53,124.91l0,.06C226.63,124.83,226.59,124.85,226.53,124.91Z"/><path class="cls-2" d="M226.53,124.91a3.55,3.55,0,0,0-.29-.55,5.36,5.36,0,0,0,.17.69A.53.53,0,0,1,226.53,124.91Z"/><path class="cls-2" d="M222.22,116c.4,0,1,.85.83,1.8.51.77,1.64,0,2.14-1-.17,0-.33,0-.8-.8-.12.38,0,2.12-.51,1.45-.5-1.12-.11-1-.06-1.62-.35.61-1.08-1.28-1.73-.79a9.34,9.34,0,0,1,.53.91C222.52,116,222.25,115.73,222.22,116Z"/><path class="cls-2" d="M225.57,118.6l.11.37a6.22,6.22,0,0,1,.26-1.44c-.36-.6-.53-.69-.67-.7a17.08,17.08,0,0,1,.38,1.89Z"/><path class="cls-2" d="M225.94,120.71c-.47-.25-.79-1.13-1.17-.5.2,1.1.48.72.77,1.37-.38-1.79.31.5.36-.85a7.18,7.18,0,0,1,.26,1c0-.34,0-.66.05-1l0,0h0c0,.08-.07.11-.06,0s0,0,0,0a.35.35,0,0,1-.17-.06c0-.54.09-.1.17.06l.07,0h0l-.51-1.81A9,9,0,0,0,225.94,120.71Z"/><path class="cls-2" d="M223.79,129.71a.11.11,0,0,1,.1-.05C223.86,129.55,223.83,129.5,223.79,129.71Z"/><path class="cls-2" d="M224.16,129a.77.77,0,0,1,.08.67c-.19.33-.2,0-.35,0,.08.26.16.92.5.17l0-.14c.3-.67.82-1.56.9-1.42A2.88,2.88,0,0,0,224.16,129Z"/><path class="cls-2" d="M225.19,124.93l-.27-1.49-.34.78.22,0C224.75,125,225,124.83,225.19,124.93Z"/><polygon class="cls-2" points="225.41 116.5 225.9 116.59 225.05 115.89 225.41 116.5"/><path class="cls-2" d="M224.83,114.57l.4,0a5.31,5.31,0,0,0-.4-.44A4,4,0,0,1,224.83,114.57Z"/><path class="cls-2" d="M145.08,120.47l0,.4A1.82,1.82,0,0,0,145.08,120.47Z"/><path class="cls-2" d="M145.68,117.69l-.17-.11C145.58,117.73,145.64,117.8,145.68,117.69Z"/><path class="cls-2" d="M187.78,86.74c-.62-.43-1.32-1-1.27-.58l.17.44A2,2,0,0,1,187.78,86.74Z"/><path class="cls-2" d="M157.66,97h.22l.11-.57A5.76,5.76,0,0,0,157.66,97Z"/><path class="cls-2" d="M158.37,98.75l-.78.26A3,3,0,0,0,158.37,98.75Z"/><path class="cls-2" d="M147,135.61l.57.26C147.36,135.22,147.26,135.58,147,135.61Z"/><path class="cls-2" d="M213.45,97.75a6.1,6.1,0,0,0-.92-1.1C212.9,97.28,213.07,97.91,213.45,97.75Z"/><path class="cls-2" d="M140.75,118.47c0,.29.1.42.2.43C140.92,118.61,140.87,118.43,140.75,118.47Z"/><path class="cls-2" d="M211.26,95.61a2.46,2.46,0,0,0,.17.27,6.33,6.33,0,0,1,1.1.77A1.94,1.94,0,0,0,211.26,95.61Z"/><path class="cls-2" d="M194.26,157.52l.14,0C194.39,157.48,194.34,157.49,194.26,157.52Z"/><path class="cls-2" d="M211.81,153.47c-.13.14-.37.32-.58.5A2.62,2.62,0,0,0,211.81,153.47Z"/><path class="cls-2" d="M221.68,107.08c.25.35.07,0,0,0Z"/><path class="cls-2" d="M221.13,109.71a.25.25,0,0,0-.26,0A.32.32,0,0,1,221.13,109.71Z"/><path class="cls-2" d="M206.36,95.53l0,0C206.39,95.64,206.38,95.62,206.36,95.53Z"/><path class="cls-2" d="M221.83,107.73a1.88,1.88,0,0,0-.16-.53C221.69,107.29,221.75,107.44,221.83,107.73Z"/><path class="cls-2" d="M222,107.56l.13.35C222.19,107.92,222.21,107.86,222,107.56Z"/><path class="cls-2" d="M221.33,106.59a3.36,3.36,0,0,1,.34.61c0-.09,0-.13,0-.12Z"/><path class="cls-2" d="M163.73,155.64l.05.07C164.2,155.74,164,155.68,163.73,155.64Z"/><path class="cls-2" d="M177.46,91.42l0,0h-.06Z"/><path class="cls-2" d="M176.16,91.9a1.15,1.15,0,0,1,1.28-.51l-.62-1.19C176.59,90.77,176.37,91.34,176.16,91.9Z"/><path class="cls-2" d="M144.89,127.25l.35-.94c.69,1.07.49,1.85,1,1-.68,0-.75-.89-.83-1.77-.06-.44,0-.88-.12-1.22a.7.7,0,0,0-.57-.64l.32-.59c0,.17.06.21,0,.38.36-.57.13-.8-.15-1.09a1.21,1.21,0,0,1-.4-1.41c.19-.52.45-.86.55-.47l-.13-1.24c.09-.34.3-.21.22.13l.1-.91.21-.9,0,0a8.28,8.28,0,0,1-.34-1.3c.32-.4.08.27.27.2l0-1.09c.45-.29.54.63.3,1.29,1.58-.49-.18-1,1.36-2.56l-.19.93c1-.29,1-1.06,1.79-1.82-.31.1-1.91,1.48-1.81.34a1.68,1.68,0,0,0,.38-1.27c.42.19.59-.36.91-1l.55.33c.2-.76-.12-.86-.15-1.41a1.21,1.21,0,0,1,1.44-.59c.87-1.08-1.22.37-.39-1.05a4.13,4.13,0,0,0,.94-1.31c.24-.47.39-1.05.72-1.69.71-.49.21.35.55.24l.08-.88c.12-.12.21,0,.25.09.25-.59-.46-.45.05-1.31-.17-.33.33-.57.95-.85s1.32-.59,1.48-1.3c.34-.08.17.38.4.5.84-1.53.74-1.28,1.39-2.66l1.18-.39c-1,.15-.45-1,.07-2a6.87,6.87,0,0,0-.92,0,11.85,11.85,0,0,1,1.11-1.23c.23,0,.21.25.14.61.06-.1.12-.2.16-.28.62-.12.57.35.43.87l-.7,0c-.09.56-.12,1.13.17,1.38a1.34,1.34,0,0,1,.29-.45c0,.14,0,.26.06.28s.12-.2.24-.46l.71.4-.09-.28,1.92-.7c.21-.34.4-.7.6-1.07s.44-.69.69-1A8.49,8.49,0,0,1,164.66,93c-.32.73.24.83.46,1.41-.83-.31-1.46,1.06-2.56,1.47.58-.22.6.11.51.27l1.6-1.49c.18.49.55.11,1.15.12C165,94,167,93.58,167.71,93c.17.3.1.7-.9,1,1.34.3,1-1.71,2.28-1.44-.25.09-.4.08-.44.27.48-.46,2-.66,1.73-.28l-.25.08c1.64-.48,5-1.22,5.14-2.13a5.67,5.67,0,0,1-.11,1.25,34.36,34.36,0,0,1,2.66-3.28c-.18.76,1,2.37-.32,3a2.91,2.91,0,0,0,1.74-.25c-.28-.07-.79-1-.42-1.08a14.62,14.62,0,0,0,2.09,1c-.42-.14,0-1.3.65-1.29-.09.18.1,1.13-.14,1.26L183,89.84c-.41.22-.06,1,.29,1.26-.16-.25,1.4.09,1.83,0l-.67-.29a2.17,2.17,0,0,0,1.87-.63,2.16,2.16,0,0,1,1.93-.63c-.26.2-.7,1.35.2,1.62A12.74,12.74,0,0,1,190,89.69a4.4,4.4,0,0,1,2.55-1.13l.25.4,1.38-.08c-.51.33-1.42.82-2.34,1.28s-1.85,1-2.48,1.26c.64.35.13.41,1.14.52.3.35-.62.38-.92.36l1.15.26,1.12.35c0-.68,1.89-.26,2-.83l-2.67.12c0-.69,1.84-1.54,3.53-1,.36.35-.62,1.08-.64,1.31a2.52,2.52,0,0,1,1.76.22l-.78.13c.81.53,1.73-.38,2.61.58.37.13.78,1.2,1,.86-.29-1,.39-3.25,1-3.61a13.82,13.82,0,0,1,2,2.07c.36.81-1.49.92-1.18,1.61.09-.16.51-.22.68-.23.32.3-.39.45.47.72.44-.57,1.59.92.63-.33.87.25.77.57,1.69,1-.09-.54,1.57-.88,2.47-.57-.13.12-.08.42,0,.57A22.3,22.3,0,0,1,208.19,97c.54.45,1.06.89,1.7,1.46,0,.23.53.91.08.91a2,2,0,0,1,1,.35c.4,1.1-1-.67-.82.36.29-.24,1.42.41,2.11.77.29-.65-1.25-1.22-2-1.51a1.63,1.63,0,0,1,1.47-.38,5,5,0,0,1,2.31.89c1.2.91.07.85.33.94,1.86,2,2.72.77,3.77,3,.16,1-.83.68-1,1.08-.91-.8-.88-1.63-1.41-2.26l.43.94a2.94,2.94,0,0,1-1.15-1.12c.15.87,2.9,3.59,3.56,5.65.35.21.86.66.88.29l-.42-.52c0-.74,1.2.76.91-.06a5.15,5.15,0,0,1,2,2.61l-.44.48c.15-.1-.06-.92-.39-1.16.47.39.19,2.09,1.09,2.33a8.58,8.58,0,0,0,0-1,6.32,6.32,0,0,1,1.91,2.76c.38-.71-.16-.23.2-1.27-.54,1-1.09-2.86-1.49-1.4.36-1.11-.35-1.47-.25-2.81-.16.13-.16.54-.53-.4a.91.91,0,0,1-.25-.11l0-.07v.07s-.05,0,0,0a1.12,1.12,0,0,1,0,.6c-.59-.24-1.42-1.55-1.92-1.86-.23-.53.33.08.34-.3l-.73-.46c.34-.31-.24-1.74.74-.72-.23-.35-.44-.71-.68-1.06a4.51,4.51,0,0,0-1.37-2c-.3-.53-1.32-.84-.73-.67a16.7,16.7,0,0,0-1.54-1.24l.07-.09a16.66,16.66,0,0,0-2.3-1.91,7.07,7.07,0,0,1-2.25-2.27,11,11,0,0,1-2-1.29l0-.44c-.78-.34-1.87-1.76-2.42-1.54-.29-1.33-3.47-2.21-4.77-2.86l-.26.45a10.54,10.54,0,0,0-1.43-.53l-.78-.21-.89-.15-.08.45a4.32,4.32,0,0,1-1.87-.62,7.93,7.93,0,0,0-2.28-.9c.16-.14.56,0,.83.16a4.55,4.55,0,0,0-3-.78c-1.05-.06-2.1.14-3-.37a1.53,1.53,0,0,1-1.09-.15h.11l-.18,0c-.19-.11-.39-.22-.6-.32a3.27,3.27,0,0,0,.5.31,4.56,4.56,0,0,0-1.41,0l-.19-.49h-.12c-.5-.2-.43.21-.18.58a3,3,0,0,0-.7.26c-.38-.8-1.36.19-1.9-.66-.36.37-2.62.38-2.85,1.23,0-.11-.17-.16.1-.18a2.6,2.6,0,0,0-1.64.12l-.29-.59-1.16,1c-.79-.28-1.14-.46-.44-1A7.23,7.23,0,0,1,176,88a3.76,3.76,0,0,0-1.3.73v-.4c-.55.13-1.3.82-1.69.57a3.69,3.69,0,0,0-1.58,0c-.66.14-1.46.37-2.32.61l-1.32.38c-.45.14-.88.32-1.32.46a18.85,18.85,0,0,1-2.58.7c.53.42.12.41-.36.48s-1.08.15-.93.58c-.29-.16-.76-.1-.4-.55-1.34,1-2.46.72-3,2-.31-.13.09-.53-.14-.58-.08.12-.32.48-.55.44s.08-.33.24-.58c-1.43,1-1.1,1.76-.76,2.49a2,2,0,0,0-1,.35,1.58,1.58,0,0,0-.41.88c-.38,0-.94,0-.17-.66-.47.32-3.08,1.89-2.68,2.43-.24,0-.62.53-.68.69a24.64,24.64,0,0,0-2,1.83l.33-.17c.17.87-.6.88-1.2,1.72l0-.07c-1,.71-1.09,1-1.21,1.18s-.28.4-1.18,1.19l.46.18c.72.78-1.68,1.33-2.09,2.7a3.84,3.84,0,0,1,.49-.27c-.08.78-2.21,1.1-2.71,1.73-.16.11,0-.3.05-.54-1.5,1.51.44.53-.13,1.89-.42.11-.65-.7-1.1.21-.22.18-.25,1-.35,1.85a7.85,7.85,0,0,1-.26,1.28,2.62,2.62,0,0,1-.49,1.08c.33-.22.66-.42.66.3-.19,1-1.79,2.49-1.08,3.62-.09.12-.17.16-.23.15.07.84-.13,2.63.34,3.15-.84.29-.73,1.57-.58,2.72s.54,2.17-.23,2.2a16.85,16.85,0,0,0,.29,2.46l-.17,0a3.55,3.55,0,0,0,1,2.55c0,.37-.22.14-.31.13a8.53,8.53,0,0,0,.46,2.33,4.33,4.33,0,0,0,.44.81,5.72,5.72,0,0,0,.79,1l-.4.35a6.3,6.3,0,0,1,.57,2.07,6.46,6.46,0,0,0,.55,1.62,7,7,0,0,0,1,1.49.4.4,0,0,1-.31-.12,19.74,19.74,0,0,1,1.93,3.68,4.16,4.16,0,0,0,1,1.5,1.45,1.45,0,0,0,1.3.43l1.39,1c-1.23-1.74.79-.27.47-1.14.55.59,1,1.93.23,1.28l0-.18c-1,.37,1.6,2.1,1.11,2.51,3.06,2.88,6.1,5.79,9.68,7.63l-.06-.86,1.18.68c.25.33.18.75-.68.25a1,1,0,0,0,.92.45,1.43,1.43,0,0,0,.8-.15c1.65,1-1.05.47-.51.72l.77.27-.14-.15c.73,0,.91-.28,2,.21.63.43.19.57.45.71,0,.05.06.11.41.2l1.65.6-.48-.76c.82,0,1.54.53,1-.34.77,1.43,6.11,2,6.76,2.35a8.79,8.79,0,0,1,3.45.09c-.31-.14-.44-.79.66-.66-.51,1.32,2,.69,2.9,1.7-.81-.6,3.24-.24,1.93-1.11.94.07.07.5.8.79a8.39,8.39,0,0,1,1.76-.25c.61-.06,1.25-.09,1.91-.1l2-.06a14.83,14.83,0,0,0,2.05-.4c0-.18-.5-.35,0-.73l1.64.56c.52-.19.23-1.11,1.36-.8-.18-.1-.44-.26-.1-.42a15.58,15.58,0,0,0,4-1,28.94,28.94,0,0,0,3.79-1.77c1.23-.67,2.48-1.29,3.69-2,.61-.33,1.24-.65,1.9-.93s1.28-.63,2-.89c-.8.19-.42-.15,0-.51-.35.17-.26-.35-.47-.49.74-.31,1.51-.59,2.24-.94-.13-.79,1.79-1.77,1.52-2.39l-.45.59c.17-1.19-2.12-.27-2.64-1.09a1,1,0,0,1-.52.74,7,7,0,0,1-1,.4,2.38,2.38,0,0,0-1.84,1.58c-.4.07.07-.45-.22-.5-.07.6-.48.94-1.37,1.29l0-.14c-2.16,1.54-3.4,1.69-6.16,2.7l.39.35a2.62,2.62,0,0,1-1.12.09c-.41.94,1.68-.63,1.38.35-.6-.28-1.64.13-2.66.52l-.76.27a5.12,5.12,0,0,1-.71.13,1.21,1.21,0,0,1-1-.21c-.94.27.43.44-.51.71l-.33-.21-.13.44c-.64.13-1-.13-1.13-.38.16,0,.41-.19.56-.26a12.6,12.6,0,0,0-2.54.58h.95c-.63.2-1.31.37-2,.53a21.79,21.79,0,0,1-2.17.31c-.73.09-1.45.22-2.15.33a11.77,11.77,0,0,0-2,.36l.2.21a3.64,3.64,0,0,1-1.82.12,5.52,5.52,0,0,0-2-.21l.09-.05a3.47,3.47,0,0,1-1.64.23c.28-.12,0-.26-.19-.4s-.42-.33-.05-.42c-2.17.15-1.08.2-2.62.83l-.27-.41a2,2,0,0,1-1.72.31c.95-.11-.57-.71.49-.9-2-1.3-3.53.09-4.19-1.42-1.3.67,1.73,1.15,1.11,1.16.2.22-.06.36-.46.4a3,3,0,0,1-1.26-.23c-.7-.27-.82-1.58-2.51-2.22.17.08.21,0,.37.09-.53-.51-1.36-.2-2-.92-.69.39-1-.45-1.45.21l1.63.5c-.95-.19-2.21.34-3.41-.87a2.8,2.8,0,0,1,1,0c-.3-.43-.86-.29-1.17-.73.5-.65,1.86.88,3.07.67-.15-.25-.65-.31-1-.37s-.55-.2-.14-.46c-1.13.62-1.49-1-3-.82l.31-.37a1.94,1.94,0,0,1-1-.25c.29-.05.57-.1.87-.18-1.12-.07-1.33-1.43-2.26-1.7,1.63,1.08,0,.72.55,1.47-1.21-.42-1.33-.88-1.44-1.39a2.61,2.61,0,0,0-1.3-1.86c.32.17.88,1.09.31.9a4.1,4.1,0,0,1-.84-1.37c-1.44-1.06-.1.54-.88.28-.11-.82-.85-.38-1.54-.83l.33-.36c-1.23-1.68-1.1.32-2.16-1.28l1,.11-.82-.57.55-.23c-1-.49-1.1-.86-1.64-1.74-.11.4-.77.44-1.37-.28-.14-.67.55,0-.24-1,.4.08.88.12.89.81.16-.05.42,0,.58,0a2.45,2.45,0,0,0-.57-1c-.23-.32-.48-.59-.61-.78a1.36,1.36,0,0,1,.18.48l-1.57-1.2c0-.34.24-.22.49-.1-.25-.29-.59-.39-.92-.84.41-.07.75-.3,1.33.24-.22-.2-.45-.4-.66-.62l-.59-.67c.1-.19,0-1,.25-.88a3.78,3.78,0,0,0-1-1.4,3.86,3.86,0,0,1-.88-1.73,1,1,0,0,1-.36-.37,7.23,7.23,0,0,1-.2-.87c0-.3,0-.6-.1-.89a4.1,4.1,0,0,0-.7-1.82,6.6,6.6,0,0,1,.53-.92c-.33-1.08-.71,1.25-1.25-.56-.42-1.29.52-.58.64-1.06a4.75,4.75,0,0,1-.76-1.22,2.35,2.35,0,0,1,0-1.73A5.3,5.3,0,0,1,144.89,127.25Zm2-13.65c0,.29.08.9-.26,1C146.18,114.1,146.52,114,146.84,113.6Zm13.16-17c-.09.25-.4.35-.82.4A1.75,1.75,0,0,1,160,96.62Zm58.72,6.82h0C218.39,102.78,218.49,103,218.72,103.44Zm.7,1.26c.13.08.18,0,.2-.06-.15,0-.32-.28-.54-.58C219,104.22,219.11,104.4,219.42,104.7Zm-53.08,55.64-.21-.23C166.75,160.22,166.55,160.27,166.34,160.34Z"/><path class="cls-2" d="M158.29,98.55a.44.44,0,0,1-.24-.14C158,98.54,158.06,98.62,158.29,98.55Z"/><path class="cls-2" d="M146.93,135.56v0h.1Z"/><path class="cls-2" d="M200.84,94.76a1,1,0,0,1-.37-.43C200.41,94.44,200.48,94.57,200.84,94.76Z"/><path class="cls-2" d="M223.9,111a8.18,8.18,0,0,0-.51-.79,1.44,1.44,0,0,1,.22.82C223.7,110.91,223.79,110.68,223.9,111Z"/><path class="cls-2" d="M223.35,119.28c.07.11,0,.26.12.37l.22-.07C223.59,119.05,223.36,118.71,223.35,119.28Z"/><path class="cls-2" d="M222.73,112.37c-.35.22,0,.68.27,1.24a.3.3,0,0,1,0-.1C223.56,113.49,223.14,112.92,222.73,112.37Z"/><path class="cls-2" d="M223.06,113.74a3.07,3.07,0,0,1,.22.54C223.52,114.27,223.24,114,223.06,113.74Z"/><path class="cls-2" d="M220.63,106.07c.08.32.54-.11.5.12C221.75,106.2,219.49,104.81,220.63,106.07Z"/><polygon class="cls-2" points="221.67 113.33 222.05 112.94 221.56 112.77 221.67 113.33"/><path class="cls-2" d="M220,108.83l.32.93c.07-.05.17,0,.27.16C220.3,109.37,220.09,108.74,220,108.83Z"/><path class="cls-2" d="M220.56,109.92a2,2,0,0,0,.43.66A3.85,3.85,0,0,0,220.56,109.92Z"/><path class="cls-2" d="M221.06,112.16a1.56,1.56,0,0,0,0-.31l-.27-.62C220.86,111.54,221,111.84,221.06,112.16Z"/><path class="cls-2" d="M213.61,100.52l-.84-.65c-.2,0-.06.33.26.56S213.61,100.75,213.61,100.52Z"/><path class="cls-2" d="M214.81,103.75a1,1,0,0,1,0-.61l-.48.39Z"/><path class="cls-2" d="M212.64,101.68c-.2,0-1.38-.69-.45.2C212.38,101.83,213.2,102.45,212.64,101.68Z"/><polygon class="cls-2" points="200.05 92.58 200.3 92.67 200.65 91.72 200.05 92.58"/><path class="cls-2" d="M186.38,91.85c1.15.31.34-.65,1.37-.21.3-.2-.84-.37-.54-.53C186.46,91.33,186.1,91.17,186.38,91.85Z"/><path class="cls-2" d="M187.21,91.11l.38-.11A1.17,1.17,0,0,0,187.21,91.11Z"/><polygon class="cls-2" points="214.5 151.84 215.26 151.4 214.63 151.53 214.5 151.84"/><path class="cls-2" d="M215.14,150.18l.61.31-.06-.76C215.58,149.88,215.35,150.18,215.14,150.18Z"/><path class="cls-2" d="M148.85,112.27l-.11-.12c-.2,0-.3.17-.48.46Z"/><polygon class="cls-2" points="145.55 121.48 145.59 121.31 144.95 121.55 145.55 121.48"/><path class="cls-2" d="M146.43,129.62c0-.33-.22-.7-.25-1C146.4,129.29,145.72,129.82,146.43,129.62Z"/><ellipse class="cls-1" cx="324.63" cy="130.59" rx="40.85" ry="36.23"/><path class="cls-2" d="M332.39,168.62c-.37,0-.18.43-.22.51C332.78,168.92,332.36,168.52,332.39,168.62Z"/><polygon class="cls-2" points="338.17 166.29 338.12 166.48 338.85 165.82 338.17 166.29"/><path class="cls-2" d="M343.53,164.34c-.78-.45-1.87.88-2.91,1l-.21-.09c-.08.24-.15.49-.24.71A18.91,18.91,0,0,1,343.53,164.34Z"/><path class="cls-2" d="M347,164.35c-.31-.15.49-.52-.7.26h.15C346.55,164.55,346.71,164.47,347,164.35Z"/><path class="cls-2" d="M346.44,164.61c-.54.31.47,0,0,0Z"/><path class="cls-2" d="M348.89,163.1l-.57.65c.23.06.87-.31.7-.06C349.67,163.12,349.43,163.07,348.89,163.1Z"/><path class="cls-2" d="M349.27,162.24l-.3.31C349.07,162.57,349.17,162.53,349.27,162.24Z"/><path class="cls-2" d="M348.33,163.22l.64-.67c-.16,0-.29-.22-.31.29C348.62,162.62,348.57,162.89,348.33,163.22Z"/><path class="cls-2" d="M347.83,163.38c-.48.07-1,.25-.45-.33C346.07,163.84,346.49,164.18,347.83,163.38Z"/><path class="cls-2" d="M343.5,163.56l-.63,0-.37.4C342.69,163.79,343.62,163.75,343.5,163.56Z"/><path class="cls-2" d="M353.32,160.51c-.05-.15-.46-.15-.63-.27l-.37.51C352.63,160.64,353.15,160.35,353.32,160.51Z"/><path class="cls-2" d="M352.69,160.24l.55-.76C352.59,160,352.55,160.14,352.69,160.24Z"/><polygon class="cls-2" points="348.97 161.49 348.03 162.74 349.2 161.33 348.97 161.49"/><polygon class="cls-2" points="356.02 158.28 355.88 158.9 356.19 157.87 356.02 158.28"/><path class="cls-2" d="M357.67,156.64c-.08.47.73,0,.56.39a4.24,4.24,0,0,0,.75-1.6A2.69,2.69,0,0,1,357.67,156.64Z"/><path class="cls-2" d="M359.27,154.6a5,5,0,0,0-.29.83A3,3,0,0,0,359.27,154.6Z"/><path class="cls-2" d="M354.5,158.6a.89.89,0,0,0,.81-.16l-.54-.07A3.23,3.23,0,0,1,354.5,158.6Z"/><path class="cls-2" d="M354.75,158.37h0l.57-.51Z"/><path class="cls-2" d="M354.43,158.65l.07-.05C354.44,158.59,354.42,158.59,354.43,158.65Z"/><path class="cls-2" d="M351.13,160.57c.28-.52,1-1.38-.06-1C351,160,351.54,159.8,351.13,160.57Z"/><path class="cls-2" d="M353.74,158.51l-.81.5c.09.08.33.1.2.36Z"/><polygon class="cls-2" points="354.01 158.12 353.74 158.51 354.04 158.32 354.01 158.12"/><path class="cls-2" d="M357.88,155.58a4,4,0,0,1,.74-1.2,10,10,0,0,0-1.18,1.16C357.48,155.69,357.5,156,357.88,155.58Z"/><path class="cls-2" d="M356.35,156.93l0-.09C356.33,156.86,356.29,156.88,356.35,156.93Z"/><polygon class="cls-2" points="361.69 150.41 361.58 150.43 361.63 150.49 361.69 150.41"/><path class="cls-2" d="M357.32,155.55a1.26,1.26,0,0,0-.53.72c.19-.24.42-.47.65-.73C357.42,155.47,357.39,155.44,357.32,155.55Z"/><path class="cls-2" d="M360.05,153.4a5.69,5.69,0,0,0-.66.39C359.63,153.72,360.08,153.53,360.05,153.4Z"/><path class="cls-2" d="M356.58,156.83l0,.06C356.71,156.86,356.67,156.84,356.58,156.83Z"/><path class="cls-2" d="M356.58,156.83a2.27,2.27,0,0,0,.21-.56,4.15,4.15,0,0,0-.39.57Z"/><path class="cls-2" d="M360.18,147.69a.85.85,0,0,1,.07.84,1.94,1.94,0,0,1-.86,1c-.26.87,1.12,1.19,2.19.93-.13-.12-.25-.21.08-1.1-.36.16-1.6,1.39-1.45.56.52-1.1.71-.71,1.18-1.12-.66.17.15-1.71-.61-1.84l-.29,1C360.38,147.92,360.41,147.5,360.18,147.69Z"/><path class="cls-2" d="M360.51,151.87l-.19.35a4,4,0,0,1,1.22-.78c.22-.65.18-.84.09-.95L360.48,152Z"/><path class="cls-2" d="M359.23,153.58c-.13-.51.32-1.31-.41-1.18-.7.86-.23.82-.53,1.45,1.11-1.44-.16.55.89-.29a7.28,7.28,0,0,1-.56.82c.25-.21.51-.41.77-.59l-.05,0h0c-.1,0-.14,0-.06,0l0,0a.51.51,0,0,1-.07-.17c.42-.34.14,0,.07.17l0,.06h0a14.45,14.45,0,0,0,1-1.59,3.89,3.89,0,0,0-.44.54Z"/><path class="cls-2" d="M351.26,158.21a.12.12,0,0,1,.1,0C351.42,158.14,351.43,158.09,351.26,158.21Z"/><path class="cls-2" d="M352,158a.8.8,0,0,1-.39.55c-.37.12-.13-.16-.23-.27-.12.25-.5.79.24.47l.07-.12c.64-.32,1.71-.47,1.65-.35A3.17,3.17,0,0,0,352,158Z"/><path class="cls-2" d="M355.64,155.89c.31-.4.64-.77.92-1.19a7.52,7.52,0,0,1-.8.27l.19.13C355.27,155.62,355.6,155.69,355.64,155.89Z"/><polygon class="cls-2" points="361.97 150.38 362.23 150.81 362.21 149.72 361.97 150.38"/><polygon class="cls-2" points="362.98 148.64 363.29 148.91 363.35 148.32 362.98 148.64"/><path class="cls-2" d="M300.05,104.58l-.25.33A2,2,0,0,0,300.05,104.58Z"/><path class="cls-2" d="M302.47,103l-.05-.2C302.37,103,302.36,103.05,302.47,103Z"/><path class="cls-2" d="M355.68,103.57c-.25-.7-.45-1.61-.68-1.22l-.13.46A2.31,2.31,0,0,1,355.68,103.57Z"/><path class="cls-2" d="M325.15,94.48l.17.13.43-.43Z"/><path class="cls-2" d="M324.71,96.28l-.79-.26A3.62,3.62,0,0,0,324.71,96.28Z"/><path class="cls-2" d="M290.2,116.51l.16.6C290.71,116.5,290.36,116.66,290.2,116.51Z"/><path class="cls-2" d="M367.77,128.86a3.81,3.81,0,0,0,.18-1.45C367.8,128.13,367.39,128.7,367.77,128.86Z"/><path class="cls-2" d="M298.36,100.12c-.19.21-.23.35-.17.42C298.38,100.33,298.47,100.18,298.36,100.12Z"/><path class="cls-2" d="M367.72,125.76c0,.11,0,.21-.05.32a5.68,5.68,0,0,1,.28,1.33A2,2,0,0,0,367.72,125.76Z"/><path class="cls-2" d="M310,161.78s.08.05.1.09S310.11,161.79,310,161.78Z"/><path class="cls-2" d="M326.68,168.66c-.18,0-.48,0-.76.05A2.87,2.87,0,0,0,326.68,168.66Z"/><path class="cls-2" d="M366.48,141.32c-.1.42,0,.08,0,0Z"/><path class="cls-2" d="M364.21,142.68a.25.25,0,0,0-.13-.22A.28.28,0,0,1,364.21,142.68Z"/><path class="cls-2" d="M364.27,122.27v0C364.21,122.37,364.22,122.35,364.27,122.27Z"/><path class="cls-2" d="M366.1,141.87a4,4,0,0,0,.29-.48A3.26,3.26,0,0,0,366.1,141.87Z"/><path class="cls-2" d="M366.32,141.86l-.16.34C366.21,142.28,366.27,142.24,366.32,141.86Z"/><path class="cls-2" d="M366.64,140.74a4.9,4.9,0,0,1-.25.65c.05-.07.08-.1.09-.07Z"/><path class="cls-2" d="M287.32,142a.38.38,0,0,1,0,.1C287.62,142.4,287.53,142.25,287.32,142Z"/><path class="cls-2" d="M344.58,101.27s0,0,.05,0l0,0Z"/><path class="cls-2" d="M343.23,100.94a1.08,1.08,0,0,1,1.36.29l.17-1.33C344.25,100.22,343.74,100.57,343.23,100.94Z"/><path class="cls-2" d="M295,109.24a7,7,0,0,1,.92-.41c-.32,1.24-.95,1.71,0,1.43-1-1.1,2.44-2.55,1.61-3.67.22-.07.42-.14.65-.19-.15.1-.12.17-.25.29,1.34-.26.07-1.31,1.43-2.14.5-.26.92-.33.72,0a7.69,7.69,0,0,1,.79-1c.32-.17.38.07.07.24l1.5-1.09v0a7.48,7.48,0,0,1,.64-1.22c.5-.09-.13.26.06.34a9.33,9.33,0,0,1,.75-.79c.55.13-.08.78-.69,1.12,1.48.68.59-.71,2.79-1l-.78.59c.91.42,1.42-.21,2.59-.2-.34-.19-2.44-.12-1.61-1a2,2,0,0,0,1.16-.67c.21.44.7.11,1.37-.19l.19.62c.66-.47.49-.75.82-1.2a1.26,1.26,0,0,1,1.52.51c1.38-.31-1.18-.48.38-1.07a4.34,4.34,0,0,0,1.57-.44,7.2,7.2,0,0,0,.76-.41l.89-.45c.87,0-.05.41.28.53l.61-.64c.19,0,.16.14.15.22.57-.32-.08-.64.86-1,.07-.37.62-.25,1.27-.09a2.17,2.17,0,0,0,2-.14c.32.15-.1.41,0,.64a22.38,22.38,0,0,0,2.72-1.31l1.19.4c-.87-.46.22-1,1.23-1.54a8,8,0,0,0-.78-.52c.54-.12,1.08-.26,1.63-.36.19.12,0,.33-.25.58l.3-.13c.57.27.25.62-.16,1-.19-.14-.38-.26-.57-.39-.39.39-.75.83-.67,1.2a1.41,1.41,0,0,1,.51-.18c-.1.11-.17.2-.12.27s.21-.08.47-.25l.33.71.09-.27,2,.58c.74-.29,1.46-.75,2.29-1a8.49,8.49,0,0,1,3-.42c-.68.42-.28.82-.43,1.42-.51-.74-1.81,0-2.95-.31.6.16.43.43.26.51l2.17-.26c-.13.49.38.44.88.73-.21-1.09,1.67-.29,2.58-.37,0,.34-.31.62-1.31.29.93,1,1.75-.78,2.7.12-.25-.06-.37-.14-.52,0,.68-.19,2,.59,1.58.73l-.24-.07a30.8,30.8,0,0,0,3.09,1c1.06.34,2,.51,2.32.18a5.94,5.94,0,0,1-.8,1c.65-.23,1.33-.46,2-.66s1.35-.34,2.05-.5c-.58.52-.53,2.54-1.95,2.21a2.81,2.81,0,0,0,1.53.83c-.18-.22-.07-1.25.3-1.13a4.12,4.12,0,0,0,.49,1,4.38,4.38,0,0,1,.64,1c-.26-.36.73-1.07,1.27-.66-.18.09-.58,1-.85.94h2c-.46-.07-.61.73-.5,1.19,0-.13.29,0,.6.33a5.65,5.65,0,0,0,.87.73l-.36-.65a2.14,2.14,0,0,0,1.87.62,2.15,2.15,0,0,1,1.91.65c-.32,0-1.36.65-.81,1.41a12.39,12.39,0,0,1,2.1-.23,6.51,6.51,0,0,1,1.45.12,3.29,3.29,0,0,1,1.26.56l0,.47,1.13.8c-.61-.06-1.63-.25-2.63-.45s-2.08-.35-2.73-.52c.29.66-.15.4.59,1.09,0,.46-.73-.07-.95-.26l.74.89.64,1c.45-.52,1.64,1,2,.55L355,110c.42-.54,2.39-.08,3.4,1.37,0,.51-1.15.43-1.32.61.34,0,1.24,1.07,1.2,1.28l-.69-.39c.29.91,1.58.79,1.65,2.07.15.37-.24,1.43.14,1.3.4-.91,2.4-2.21,3.12-2.07a14.42,14.42,0,0,1,.22,2.87c-.25.83-1.76-.29-2,.43.18-.06.54.16.68.27,0,.44-.58.07-.19.86.69-.12.59,1.72.69.18.49.75.2.92.59,1.87.15-.22.59-.13,1.06.13a3.28,3.28,0,0,1,1.08,1.15c-.18,0-.35.26-.42.38a15.62,15.62,0,0,1,.35,2.32,16.68,16.68,0,0,0,.15,2.23c-.15.18-.23,1-.57.7a1.54,1.54,0,0,1,.46,1c-.55,1-.15-1.15-.81-.33.39,0,.58,1.29.84,2,.59-.24.11-1.76-.23-2.46.89-.1,1.8,1.16,2.24,3.07.24,1.51-.53.63-.41.9a4,4,0,0,0,.38,2.58,2.12,2.12,0,0,1-.05,2.22c-.71.82-1.06-.15-1.48,0a4,4,0,0,1,.35-1.41,3.76,3.76,0,0,0,.33-1.15l-.34,1a2.6,2.6,0,0,1,0-1.61,2.59,2.59,0,0,0-.32,1c0,.25-.08.52-.11.82s-.13.6-.2.92a12.33,12.33,0,0,1-1.12,3.65c.06.4,0,1.07.34.85l.13-.66c.6-.47.19,1.39.64.63a4.82,4.82,0,0,1-.6,3.24l-.66,0c.17.05.67-.63.64-1,0,.6-1.55,1.47-1,2.33l.75-.65c-.05.49,0,1.07-.11,1.66a3.28,3.28,0,0,1-.66,1.6c.8-.17.07-.26,1.11-.67-.58.11-.15-.52.11-1.18s.54-1.23-.11-.89c1.08-.46.94-1.21,2-2-.2,0-.49.26-.09-.67a1.08,1.08,0,0,1-.1-.27l0-.06,0,0s0-.06,0,0a1.08,1.08,0,0,1-.44.39c-.29-.63.2-2.11.12-2.67.27-.53.15.29.46,0-.05-.28-.06-.56-.14-.85.45,0,1-1.36,1,.07l.27-1.23a4.16,4.16,0,0,0,.6-2.34c.15-.59-.36-1.57-.05-1l-.11-2h.11a4.92,4.92,0,0,0,0-1.48q-.1-.75-.21-1.53a10.2,10.2,0,0,1-.08-1.57,5.59,5.59,0,0,1,.12-1.66,8.46,8.46,0,0,1-.49-2.39l.33-.28c-.34-.79-.26-2.58-.74-2.83.42-.6.11-1.61-.35-2.63s-1-2.09-1.28-2.78l-.48.17a14.49,14.49,0,0,0-1.79-2.74l-.35.29a4.47,4.47,0,0,1-1.07-1.68,8.62,8.62,0,0,0-1.2-2.17c.2,0,.45.35.54.66a4.53,4.53,0,0,0-1.89-2.52c-.8-.7-1.75-1.19-2.12-2.12a1.56,1.56,0,0,1-.78-.79.27.27,0,0,0,.1.06l-.13-.14a6.81,6.81,0,0,0-.29-.62,2.62,2.62,0,0,0,.22.55,5.37,5.37,0,0,0-1.17-.81l.14-.5-.1-.07c-.29-.47-.47-.09-.5.36a2.73,2.73,0,0,0-.71-.22c.17-.87-1.2-.67-1.14-1.68-.54.12-2.35-1.24-3-.68.05-.1-.05-.23.18-.08a2.26,2.26,0,0,0-1.41-.85l.1-.65-1.5.11c-.48-.7-.67-1,.23-1.09-1.94-.27-1.44-.49-3.16-.48l.23-.33c-.51-.21-1.52-.08-1.7-.52-.4-.65-1.87-1.12-3.54-1.74-.83-.33-1.77-.51-2.66-.8s-1.74-.62-2.5-.9c.4,1.24-1.39-.75-1.67.12-.14-.3-.56-.53,0-.68a7.51,7.51,0,0,1-2-.33,2.3,2.3,0,0,0-1.64.23c-.17-.28.38-.37.22-.55-.13,0-.54.2-.7,0s.26-.22.53-.32c-1.71-.07-1.91.77-2.06,1.56a1.34,1.34,0,0,0-1.85.19c-.28-.26-.78-.52.25-.63-.57,0-3.57-.35-3.58.36-.19-.14-.81,0-.95.14a23.44,23.44,0,0,0-2.67.26l.37.06c-.39.8-1,.33-2,.62l0-.08c-2.41-.06-.94.41-3.34.35l.25.43c.07,1-2.12,0-3.31.76l.55.13c-.58.49-2.39-.63-3.16-.47-.19,0,.19-.23.38-.37-2.08.18,0,.68-1.31,1.36-.39-.21,0-.93-1-.61-.6-.06-2.09,2.29-3.59,2.33.39.09.77.18.27.66-.82.61-2.91.68-3.25,1.87-.15,0-.23,0-.27-.07-.52.65-1.84,1.87-1.93,2.5a1.13,1.13,0,0,0-1.23.22,7.36,7.36,0,0,0-1.08,1.28c-.68.94-1.27,1.8-1.8,1.28l-1.56,1.91-.08-.15a3,3,0,0,0-1.15,2.48c-.29.23-.26-.06-.3-.14a9.3,9.3,0,0,0-1.49,1.85,8.39,8.39,0,0,0-.46,2.14l-.53-.07a1.51,1.51,0,0,1-.38.67,10,10,0,0,0-.8,1.12,8,8,0,0,0-1.35,3.18.42.42,0,0,1-.13-.31c-.09,1.32-.95,2.64-1.44,3.91s-.72,2.41.08,3a16.41,16.41,0,0,0,.26,1.71c.33-2.1.75.4,1.12-.43,0,.81-.72,2.06-.73,1l.11-.15c-.9-.46-.59,2.61-1.13,2.54,0,1.07,0,2.13,0,3.18s.17,2.1.26,3.13l.06.78.14.77.3,1.52c.11.5.22,1,.32,1.5s.33,1,.49,1.44l.53-.67.45,1.3c0,.4-.35.68-.68-.27-.2.65.92,1.44,1.07,1.39.23,1,0,.86-.34.62s-.62-.71-.52-.43a6.38,6.38,0,0,0,.37.74v-.2c.57.47.88.38,1.39,1.46.22.74-.22.55-.11.83,0,0,0,.13.19.42a12.34,12.34,0,0,0,.85,1.56l.11-.89c.67.5.87,1.39,1,.37a2.92,2.92,0,0,0,.42,1.53c.15.31.33.64.53,1s.46.62.71.92c1,1.23,2,2.35,2.16,2.68a9.1,9.1,0,0,1,2.71,2.17c-.17-.29.13-.89.93-.12-1.2.74,1.19,1.76,1.32,3.1-.29-1,2.78,1.72,2.23.24.71.62-.24.44.18,1.11a18.71,18.71,0,0,1,3.2,1.86,15.16,15.16,0,0,0,3.61,2c.1-.15-.21-.59.43-.58.34.45.66,1,1,1.38.56.11.84-.78,1.58.12-.08-.18-.21-.46.16-.4a17.73,17.73,0,0,0,1.87.88c.65.22,1.32.4,2,.57s1.36.32,2,.46l2.08.27,2.07.28c.7,0,1.39.12,2.08.22s1.39.22,2.08.36a17.39,17.39,0,0,1,2.1.43c-.76-.33-.25-.37.32-.39-.38-.08,0-.44-.08-.68.77.19,1.55.45,2.34.57.37-.7,2.47-.31,2.64-1l-.71.2c.85-.85-1.52-1.51-1.45-2.48-1,1-2.74-1.11-4.38.16-.37-.19.32-.32.12-.54-.42.43-.94.54-1.88.26l.11-.09a15.87,15.87,0,0,1-3.24-.39c-1-.28-1.95-.61-3.38-1l.12.5a2.16,2.16,0,0,1-1-.56c-.44.26,0,.38.44.51s.9.21.49.55a4.78,4.78,0,0,0-2.48-1.11,9,9,0,0,1-1.44-.47c-.39-.22-.66-.47-.71-.77-.92-.33.1.61-.83.29l-.14-.37-.37.28c-.59-.27-.76-.72-.69-1a3.56,3.56,0,0,0,.6.11c-.67-.55-2.2-.74-2.41-1l.78.55c-.63-.2-1.28-.47-1.94-.75l-1-.43-1-.54c-.64-.35-1.28-.69-1.92-1s-1.23-.65-1.85-.88l0,.29c-1.87-.79-1.2-1-3-2.29h.09a3.48,3.48,0,0,1-1.44-.8c.59.17-.43-1,.3-.79-1.8-1.18-1-.48-2.57-.91l0-.49a2,2,0,0,1-1.54-.81c.81.49,0-.91.94-.41a4.17,4.17,0,0,0-1.64-2.08c-.55-.44-.9-.86-.7-1.61-1.42-.31.6,2,.1,1.6,0,.61-1.1-.29-1.42-1a2.49,2.49,0,0,1-.06-1.31,4.41,4.41,0,0,0-.4-2c.07.16.15.14.22.3-.07-.72-.91-1-.91-1.94-.8-.14-.4-1-1.17-.8a10.64,10.64,0,0,0,.86,1.45c-.66-.73-1.79-1.25-1.95-2.9a2.88,2.88,0,0,1,.78.68c.06-.51-.46-.77-.4-1.29.8-.15.86,1.84,1.81,2.52.1-.56-1.21-1.53-.24-1.39-.64-.13-.77-.56-.88-1a2.64,2.64,0,0,0-.77-1.51l.48-.06a2.46,2.46,0,0,1-.51-.83l.75.45c-.73-.81-.05-1.91-.5-2.74.45,1.88-.47.54-.61,1.42-.64-1.11-.33-1.54,0-2a2.24,2.24,0,0,0,.36-2.19c.12.34-.09,1.37-.39.83a3.05,3.05,0,0,1,.35-1.52c-.14-1.75-.48.3-.79-.44.56-.63-.25-.86-.46-1.67H286c.11-1-.1-1.16-.34-1.28s-.45-.22-.19-1.14l.6.82-.09-1,.53.24a3.06,3.06,0,0,1,.11-2.36c-.38.18-.84-.27-.67-1.18.41-.56.38.43.57-.85.24.36.55.73,0,1.19.15.09.24.34.38.42a4.49,4.49,0,0,0,.49-2,1.41,1.41,0,0,1-.21.46,11.87,11.87,0,0,1-.16-2c.26-.23.33,0,.4.29a8.18,8.18,0,0,1,.06-1.23c.32.26.72.36.66,1.14l.11-1.79c.17-.07.77-.66.81-.41a3.58,3.58,0,0,0,.45-1.64,3,3,0,0,1,.67-1.83.84.84,0,0,1,.06-.51c.34-.51.74-.93,1.09-1.42a4.69,4.69,0,0,0,.92-1.72l1-.25c.52-1-1.35.38-.47-1.33.7-1.17.79,0,1.25-.23.17-.7.36-2.13,1.66-2.6C295.48,108.75,295.19,108.91,295,109.24Zm11.16-8.52c-.2.21-.54.74-.85.58C305.32,100.66,305.66,100.79,306.14,100.72Zm21.15-5.22c-.22.14-.54,0-.9-.17A1.81,1.81,0,0,1,327.29,95.5Zm39.95,41.17,0,0C367.54,136,367.42,136.21,367.24,136.67Zm-.49,1.37c0,.15.11.16.18.11-.1-.12,0-.44.07-.79C366.85,137.43,366.73,137.6,366.75,138Zm-80.57,9.23V147C286.57,147.45,286.38,147.36,286.18,147.27Z"/><path class="cls-2" d="M324.77,96.07a.48.48,0,0,1-.12-.26C324.54,95.9,324.53,96,324.77,96.07Z"/><path class="cls-2" d="M290.17,116.4l0,0a.11.11,0,0,0,.06.07Z"/><path class="cls-2" d="M360.78,118a1.1,1.1,0,0,1,0-.55C360.67,117.47,360.63,117.62,360.78,118Z"/><path class="cls-2" d="M365.06,145.56l.27-.91a1.59,1.59,0,0,1-.49.7C365,145.38,365.18,145.29,365.06,145.56Z"/><path class="cls-2" d="M358.52,150.7c0,.14-.15.22-.18.36l.2.11C358.84,150.72,358.92,150.31,358.52,150.7Z"/><path class="cls-2" d="M363.27,145.64c-.37-.1-.51.45-.76,1a.47.47,0,0,1,.06-.09C363,147,363.17,146.33,363.27,145.64Z"/><path class="cls-2" d="M362.45,146.8a2.46,2.46,0,0,1-.28.5C362.34,147.48,362.33,147.12,362.45,146.8Z"/><path class="cls-2" d="M366.59,139.88c-.2.26.44.32.23.45C367.21,140.79,366.83,138.2,366.59,139.88Z"/><path class="cls-2" d="M361.86,145.49l.55,0-.22-.49A4.71,4.71,0,0,1,361.86,145.49Z"/><path class="cls-2" d="M364,141.21l-.42.88c.08,0,.09.15.06.31C363.92,141.84,364.18,141.24,364,141.21Z"/><path class="cls-2" d="M363.68,142.4a1.78,1.78,0,0,0-.24.75A5.57,5.57,0,0,0,363.68,142.4Z"/><polygon class="cls-2" points="362.27 144.23 362.48 144.01 362.79 143.4 362.27 144.23"/><path class="cls-2" d="M365.92,130.92l-.17-1.07c-.18-.1-.28.19-.2.58S365.76,131.08,365.92,130.92Z"/><path class="cls-2" d="M364.35,134c.13-.26.24-.27.42-.41l-.61-.09Z"/><path class="cls-2" d="M364.4,131c-.17-.11-.53-1.46-.46-.19C364.12,130.92,364.29,132,364.4,131Z"/><polygon class="cls-2" points="361.6 115.85 361.73 116.08 362.63 115.59 361.6 115.85"/><path class="cls-2" d="M351.49,106.83c.71.93.66-.32,1.21.64.37,0-.45-.79-.11-.74C351.86,106.46,351.68,106.11,351.49,106.83Z"/><path class="cls-2" d="M352.59,106.73l.37.13A.75.75,0,0,0,352.59,106.73Z"/><polygon class="cls-2" points="329.79 168.96 330.65 169.07 330.07 168.79 329.79 168.96"/><path class="cls-2" d="M331.29,168l.29.62L332,168C331.81,168.06,331.46,168.16,331.29,168Z"/><path class="cls-2" d="M308.58,101.07v-.17c-.18-.11-.34-.06-.68,0Z"/><polygon class="cls-2" points="299.69 105.67 299.83 105.57 299.22 105.31 299.69 105.67"/><path class="cls-2" d="M294.25,112c.24-.23.4-.61.64-.85C294.49,111.75,293.62,111.6,294.25,112Z"/><ellipse class="cls-1" cx="429.15" cy="215.38" rx="40.85" ry="36.23"/><path class="cls-2" d="M407.88,249.05c-.32-.19-.39.24-.48.29C408,249.52,407.92,249,407.88,249.05Z"/><polygon class="cls-2" points="413.95 250.54 413.79 250.67 414.77 250.56 413.95 250.54"/><path class="cls-2" d="M419.43,252.09c-.36-.82-2-.38-2.95-.87l-.12-.2-.61.44A18.39,18.39,0,0,1,419.43,252.09Z"/><path class="cls-2" d="M422.21,254.13c-.15-.31.71-.14-.71-.2a.46.46,0,0,1,.12.09A3.88,3.88,0,0,1,422.21,254.13Z"/><path class="cls-2" d="M421.62,254c-.61-.08.37.29,0,0Z"/><path class="cls-2" d="M424.48,254.24c-.28.06-.56.14-.84.18.15.19.87.27.59.37C425.09,254.71,424.92,254.54,424.48,254.24Z"/><path class="cls-2" d="M425.29,253.77l-.43.08C424.93,253.92,425,254,425.29,253.77Z"/><path class="cls-2" d="M424,254l.91-.16c-.11-.13-.1-.36-.41.05C424.54,253.69,424.35,253.88,424,254Z"/><path class="cls-2" d="M423.47,253.84c-.44-.23-1-.41-.17-.54C421.77,253.17,421.92,253.7,423.47,253.84Z"/><path class="cls-2" d="M419.86,251.44l-.52-.34-.54.11C419.07,251.15,419.85,251.67,419.86,251.44Z"/><path class="cls-2" d="M429.54,254.81c0-.15-.28-.4-.34-.59l-.6.18C428.91,254.5,429.5,254.59,429.54,254.81Z"/><path class="cls-2" d="M429.2,254.22l.89-.28C429.3,253.92,429.15,254.05,429.2,254.22Z"/><polygon class="cls-2" points="425.49 252.99 424 253.44 425.77 253 425.49 252.99"/><polygon class="cls-2" points="433 254.69 432.51 255.09 433.38 254.47 433 254.69"/><path class="cls-2" d="M435.27,254.39c-.34.33.59.43.21.65a3.57,3.57,0,0,0,1.55-.75A2.5,2.5,0,0,1,435.27,254.39Z"/><path class="cls-2" d="M437.77,253.82a5.29,5.29,0,0,0-.74.47A3,3,0,0,0,437.77,253.82Z"/><path class="cls-2" d="M431.61,254a1,1,0,0,0,.73.41c-.13-.13-.25-.27-.38-.41Z"/><path class="cls-2" d="M432,254h0c.38,0,.65,0,.76,0A7.6,7.6,0,0,1,432,254Z"/><path class="cls-2" d="M431.52,254h.09S431.56,253.93,431.52,254Z"/><path class="cls-2" d="M427.77,253.53c.53-.21,1.59-.52.57-.85C428,253,428.55,253.19,427.77,253.53Z"/><path class="cls-2" d="M431.07,253.46l-.94-.08c0,.11.19.27-.06.4Z"/><polygon class="cls-2" points="431.52 253.31 431.07 253.46 431.42 253.49 431.52 253.31"/><path class="cls-2" d="M436.09,253.72a4.33,4.33,0,0,1,1.31-.48c-.55,0-1.1.11-1.63.15C435.72,253.53,435.52,253.79,436.09,253.72Z"/><path class="cls-2" d="M434.07,253.81l.09,0C434.1,253.75,434.06,253.74,434.07,253.81Z"/><polygon class="cls-2" points="442.24 252.13 442.14 252.08 442.15 252.16 442.24 252.13"/><path class="cls-2" d="M435.67,253.32a1.13,1.13,0,0,0-.85.24,8.49,8.49,0,0,1,.95-.17C435.8,253.32,435.8,253.28,435.67,253.32Z"/><path class="cls-2" d="M439.11,253.36a5.67,5.67,0,0,0-.75-.1C438.59,253.35,439.05,253.48,439.11,253.36Z"/><path class="cls-2" d="M434.31,253.88l-.06,0C434.4,254,434.37,253.94,434.31,253.88Z"/><path class="cls-2" d="M434.31,253.88a2,2,0,0,0,.51-.32,3.65,3.65,0,0,0-.66.22A.4.4,0,0,1,434.31,253.88Z"/><path class="cls-2" d="M442.86,249.11c.06.39-.83,1-1.78.86-.76.52.1,1.63,1.06,2.11,0-.17-.06-.33.77-.8-.38-.12-2.1.07-1.45-.49,1.09-.52,1-.13,1.61-.09-.32-.17,0-.45.33-.76s.65-.71.41-1a6.1,6.1,0,0,1-.9.56C442.86,249.4,443.16,249.13,442.86,249.11Z"/><path class="cls-2" d="M440.42,252.53a2.6,2.6,0,0,1-.36.13,4.69,4.69,0,0,1,1.42.18c.57-.37.66-.54.67-.68l-1.84.46Z"/><path class="cls-2" d="M438.37,253c.21-.48,1.06-.83.42-1.18-1.08.24-.69.5-1.31.81,1.75-.45-.47.33.86.33a5.56,5.56,0,0,1-.94.29c.33,0,.65,0,1,0l0,0h0c-.09,0-.12-.07,0-.05l0,0a.34.34,0,0,1,.05-.17c.53,0,.1.09-.05.17,0,0,0,0,0,.07h0l1.74-.58A9.29,9.29,0,0,0,438.37,253Z"/><path class="cls-2" d="M429.28,251.73a.16.16,0,0,1,.06.1C429.45,251.78,429.49,251.74,429.28,251.73Z"/><path class="cls-2" d="M430,252a.83.83,0,0,1-.65.2c-.36-.12,0-.21,0-.35-.25.12-.88.33-.09.52l.12-.06c.71.14,1.65.65,1.52.72A3,3,0,0,0,430,252Z"/><path class="cls-2" d="M434.16,252.56l1.45-.37-.8-.29.07.22C434,252.12,434.25,252.38,434.16,252.56Z"/><polygon class="cls-2" points="442.47 252.29 442.4 252.79 443.07 251.93 442.47 252.29"/><polygon class="cls-2" points="444.36 251.69 444.42 252.09 444.83 251.68 444.36 251.69"/><path class="cls-2" d="M429.69,181.54l-.41.12A2.11,2.11,0,0,0,429.69,181.54Z"/><path class="cls-2" d="M432.59,181.72l.09-.19C432.54,181.63,432.47,181.7,432.59,181.72Z"/><path class="cls-2" d="M472.45,215.18c.35-.66.9-1.45.46-1.35l-.43.23A2.41,2.41,0,0,1,472.45,215.18Z"/><path class="cls-2" d="M456,188.17l.06.21.58-.06A4.66,4.66,0,0,0,456,188.17Z"/><path class="cls-2" d="M454.51,189.35l-.47-.67A2.77,2.77,0,0,0,454.51,189.35Z"/><path class="cls-2" d="M414.27,184.69l-.27.58C414.67,185,414.3,184.91,414.27,184.69Z"/><path class="cls-2" d="M461.49,241a5.8,5.8,0,0,0,1.14-.87C462,240.47,461.35,240.61,461.49,241Z"/><path class="cls-2" d="M431,177c-.28.06-.4.14-.39.24C430.9,177.15,431.06,177.08,431,177Z"/><path class="cls-2" d="M463.74,238.9l-.28.16a5.85,5.85,0,0,1-.83,1.07A2,2,0,0,0,463.74,238.9Z"/><path class="cls-2" d="M394.57,230v.14C394.64,230.13,394.61,230.09,394.57,230Z"/><path class="cls-2" d="M403.24,245.68c-.16-.08-.41-.26-.64-.41A2.3,2.3,0,0,0,403.24,245.68Z"/><path class="cls-2" d="M451.78,248.68c-.37.21,0,.07,0,0Z"/><path class="cls-2" d="M449.18,248a.25.25,0,0,0,.05-.26A.32.32,0,0,1,449.18,248Z"/><path class="cls-2" d="M464.07,234l0,0C464,234,464,234,464.07,234Z"/><path class="cls-2" d="M451.12,248.79a3.22,3.22,0,0,0,.54-.13A4,4,0,0,0,451.12,248.79Z"/><path class="cls-2" d="M451.29,248.93l-.35.13C450.92,249.14,451,249.16,451.29,248.93Z"/><path class="cls-2" d="M452.28,248.36a2.52,2.52,0,0,1-.62.3c.09,0,.13,0,.12,0Z"/><path class="cls-2" d="M393.39,200.55a.18.18,0,0,1-.07,0C393.28,201,393.34,200.86,393.39,200.55Z"/><path class="cls-2" d="M466.34,205.67s0,0,0,0v-.06Z"/><path class="cls-2" d="M465.58,204.53a1.14,1.14,0,0,1,.79,1.12l1-.83C466.79,204.7,466.18,204.61,465.58,204.53Z"/><path class="cls-2" d="M422.75,182.12l1,.29c-1.05.72-1.85.72-.92,1.08-.06-1.38,3.56-.52,3.59-1.9l.64.27c-.18,0-.2.08-.38.06,1.24.63.86-1,2.46-.83.55.09.93.28.56.45a8.82,8.82,0,0,1,1.23-.3c.36,0,.26.28-.1.23l1.88,0,0,0a7.13,7.13,0,0,1,1.24-.61c.45.24-.26.13-.16.31.36-.1.72-.12,1.08-.19.37.43-.52.59-1.22.49.8,1.44.89-.22,2.84.87l-1,0c.5.87,1.28.67,2.24,1.36-.17-.34-1.92-1.54-.76-1.71a2.14,2.14,0,0,0,1.34.13c-.09.48.5.5,1.22.65l-.2.61c.81,0,.83-.32,1.36-.49.85.26.87.83.94,1.29,1.3.56-.68-1.08.94-.64a4.2,4.2,0,0,0,1.52.56c.54.09,1.13.12,1.84.27.68.54-.28.29-.08.59l.87-.17c.16.09,0,.21,0,.27.64.08.3-.56,1.28-.31.27-.25.64.16,1.08.68a2.13,2.13,0,0,0,1.68,1.05c.17.31-.32.27-.36.53a24.63,24.63,0,0,0,2.95.56l.72,1c-.43-.89.8-.72,1.91-.51a8.66,8.66,0,0,0-.31-.87,13.7,13.7,0,0,1,1.5.71c.08.21-.18.27-.55.31l.32.07c.29.56-.18.65-.7.66-.07-.22-.12-.46-.2-.67-.56.08-1.11.22-1.27.56a1.31,1.31,0,0,1,.52.16c-.15,0-.26.06-.26.14s.22.06.53.08l-.19.79.25-.16,1.21,1.64c.38.1.78.18,1.19.26a10.22,10.22,0,0,1,1.2.37,7.93,7.93,0,0,1,2.6,1.52c-.77-.12-.72.45-1.22.83.07-.9-1.42-1.11-2.12-2,.38.5.07.61-.11.57l1.87,1.11c-.42.3,0,.56.19,1.13.52-1,1.47.82,2.24,1.32-.24.24-.64.28-1.21-.59.07,1.36,1.91.46,2,1.82-.14-.22-.17-.36-.37-.35.57.34,1.14,1.72.71,1.58l-.14-.22c.19.38.46.84.76,1.31s.54,1,.84,1.5c.59.94,1.23,1.68,1.63,1.65a5.37,5.37,0,0,1-1.21.16c1.21.56,2.46,1.21,3.73,1.94-.78,0-2.1,1.43-3,.26a3.6,3.6,0,0,0,.53,1.63c0-.28.85-1,1-.6a8.44,8.44,0,0,0-.62,2.2c.05-.43,1.28-.24,1.4.42-.19-.06-1.09.27-1.27.07a16.44,16.44,0,0,1,1.36,1.41c-.25-.38-1,.07-1.22.46.2-.19.17,1.36.33,1.77.07-.23.11-.46.17-.69a2.46,2.46,0,0,0,.83,1.76,2.34,2.34,0,0,1,.85,1.84c-.24-.24-1.44-.56-1.56.34.53.41,2.62,2,2.88,3.88l-.39.28.11,1.38c-.35-.5-.83-1.38-1.37-2.27s-1.14-1.77-1.45-2.37c-.32.65-.4.16-.46,1.16-.33.31-.42-.58-.41-.87-.15.75-.22,1.5-.42,2.24.69,0,.32,1.83.89,1.86l-.1-1.31a6.32,6.32,0,0,0-.16-1.29c.32,0,.83.41,1.07,1.06a4,4,0,0,1,.14,2.37c-.34.36-1.1-.59-1.33-.6a2.24,2.24,0,0,1,.11.94,1.44,1.44,0,0,1-.25.81l-.14-.76c-.51.79.4,1.69-.54,2.56a2.29,2.29,0,0,1-.59.56c-.24.17-.43.31-.26.41,1-.27,3.22.38,3.61,1a13.73,13.73,0,0,1-2.1,2c-.81.35-.9-1.51-1.59-1.21.15.1.22.52.22.69-.31.31-.44-.4-.72.45.55.44-1,1.54.31.63-.27.85-.59.74-1.08,1.65.53-.08.85,1.61.47,2.48-.12-.14-.42-.1-.57-.08a39.56,39.56,0,0,1-3.11,3.38c-.23,0-.93.49-.91,0a1.83,1.83,0,0,1-.4,1c-1.1.34.72-.93-.31-.84.25.32-.49,1.39-.91,2,.29.14.65-.13,1-.53a9.9,9.9,0,0,0,.68-1.33c.61.54.44,2.21-.74,3.73-1,1.16-.84,0-1,.29a4.88,4.88,0,0,0-1.56,2.07,2.42,2.42,0,0,1-1.61,1.52c-1.05.11-.64-.86-1-1.06.83-.87,1.66-.81,2.3-1.31l-1,.39a2.61,2.61,0,0,1,1.19-1.08,8.17,8.17,0,0,0-2.45,1.47,13.62,13.62,0,0,1-1.72,1.05,10.69,10.69,0,0,1-1.65.76c-.22.36-.7.83-.33.88l.54-.41c.74.06-.79,1.18,0,.91a5.55,5.55,0,0,1-2.65,1.91l-.47-.45c.1.15.91,0,1.15-.36-.38.47-2.08.14-2.33,1,.34,0,.68.06,1,0a6.37,6.37,0,0,1-2.74,1.88c.71.38.23-.16,1.26.21-1-.56,2.82-1,1.38-1.48,1.1.39,1.46-.32,2.78-.18-.12-.16-.53-.17.41-.51a.85.85,0,0,1,.11-.26h0s0,0,0,0a1.05,1.05,0,0,1-.59,0,2.61,2.61,0,0,1,.94-.94,6.41,6.41,0,0,0,1-.89c.54-.21-.09.33.29.35l.48-.71c.3.34,1.72-.17.68.77l1.08-.63a3.91,3.91,0,0,0,2-1.25c.54-.27.89-1.28.7-.7a13.06,13.06,0,0,0,1.34-1.44l.09.08a25.24,25.24,0,0,0,2-2.19,7.75,7.75,0,0,1,2.39-2.13c.17-.28.35-.57.58-.88a7.29,7.29,0,0,1,.84-1.08l.43.06c.38-.76,1.84-1.82,1.67-2.36,1.33-.26,2.35-3.43,3-4.77l-.44-.26a9.75,9.75,0,0,0,.91-3.15l-.45-.07c-.05-1.14,1.22-2.52,1.44-4.25.14.15,0,.57-.15.85a4.6,4.6,0,0,0,.7-3.09,5.49,5.49,0,0,1,.15-3,2,2,0,0,1,.05-1.12.36.36,0,0,0,0,.11.6.6,0,0,0,0-.19c.08-.2.16-.42.23-.65a2.4,2.4,0,0,0-.23.55,9.31,9.31,0,0,0-.21-1.43l.47-.24v-.13c.16-.53-.24-.41-.6-.11a2.37,2.37,0,0,0-.31-.68c.81-.49-.41-1.33.36-2-.45-.3-.64-2.6-1.61-2.67.1,0,.12-.2.19.07a2.75,2.75,0,0,0-.44-1.61l.53-.39c-.37-.34-.71-.68-1.11-1,.1-.82.2-1.2.91-.62-1.32-1.52-.78-1.34-2-2.54l.39-.08c-.23-.52-1.12-1.09-1-1.53a7.76,7.76,0,0,0-1.52-3.67c-.87-1.59-2.16-3.16-2.87-4.68-.27.63-.37.23-.57-.22s-.44-1-.82-.73c.08-.33-.12-.76.42-.54-1.34-1-1.4-2.17-2.81-2.34,0-.33.54-.06.52-.3-.14,0-.56-.17-.58-.4s.34,0,.62.07c-1.33-1.1-2-.55-2.6,0a1.33,1.33,0,0,0-1.58-1c-.08-.38-.32-.88.58-.36-.45-.35-2.69-2.41-3.11-1.85-.07-.23-.68-.45-.84-.46a23.78,23.78,0,0,0-2.32-1.36l.26.26c-.78.42-1-.33-2-.67l.06-.06c-1.93-1.45-1-.22-2.91-1.66l-.06.49c-.56.9-1.71-1.24-3.13-1.31l.38.42c-.76.06-1.58-1.89-2.3-2.22-.14-.13.29-.08.53-.08-1.79-1.07-.4.54-1.86.34-.19-.4.53-.76-.43-1.06-.45-.4-3,.62-4.26-.23.27.3.52.61-.17.7-1,0-2.73-1.18-3.7-.42-.13-.08-.18-.15-.18-.22-.8.17-2.58.39-3,.83-.39-.83-1.63-.61-2.73-.24s-2.09.68-2.19-.08c-.81.09-1.6.33-2.39.49l0-.16a3.17,3.17,0,0,0-2.45,1.15c-.37,0-.16-.21-.15-.3a9.07,9.07,0,0,0-2.29.51,5.53,5.53,0,0,0-1.74,1.26l-.35-.4a6.47,6.47,0,0,1-2.06.56l-.8.19a7.85,7.85,0,0,0-.8.32,6.64,6.64,0,0,0-1.49.92.36.36,0,0,1,.12-.31,8.2,8.2,0,0,1-1.78,1c-.64.3-1.31.55-1.93.81a5.39,5.39,0,0,0-1.55.88,1.42,1.42,0,0,0-.48,1.28l-1.06,1.34c1.78-1.15.22.81,1.1.53-.58.57-2,.84-1.29.16l.19,0c-.14-.47-.75-.18-1.28.27s-1.11.93-1.3.67c-.78.72-1.59,1.39-2.3,2.17s-1.49,1.46-2.19,2.22l-2,2.39a8.29,8.29,0,0,0-.88,1.25l-.79,1.29.86,0-.72,1.17c-.33.24-.75.16-.23-.69a1.05,1.05,0,0,0-.48.92,1.34,1.34,0,0,0,.13.8c-1.05,1.66-.46-1.06-.71-.53l-.29.78.16-.14a3,3,0,0,1-.25,2c-.44.63-.57.19-.72.45,0,0-.12.06-.19.42l-.6,1.68.76-.5c0,.83-.52,1.56.35,1a3.1,3.1,0,0,0-.93,1.31,12.06,12.06,0,0,0-.57,2.19c-.37,1.54-.37,3.07-.56,3.42a5.6,5.6,0,0,1,.22,1.67c0,.56,0,1.16,0,1.82.11-.33.75-.52.7.59-.67-.19-.8.34-.88,1s0,1.55-.42,2.08c.52-.91.6,3.24,1.32,1.78.08,1-.49.15-.64.92a8,8,0,0,1,.59,1.71c.16.61.22,1.26.41,1.9s.33,1.31.52,2c.1.33.2.67.32,1s.31.64.48.95c.18,0,.22-.57.72-.13l-.14,1.72c.35.47,1.08,0,1.08,1.17,0-.19.13-.48.38-.19a20.87,20.87,0,0,0,4.78,6.82c.49.49,1,1,1.47,1.51s1,.95,1.51,1.46,1,1,1.44,1.57,1,1,1.43,1.61c-.43-.72,0-.45.49-.12-.26-.29.26-.35.33-.59.51.61,1,1.28,1.55,1.87.71-.36,2.19,1.2,2.71.77l-.69-.26c1.19-.18-.34-2.11.3-2.85-.67.11-1.1-.49-1.55-1.17a2.43,2.43,0,0,0-2.05-1.31c-.18-.37.45-.06.42-.35-.6.1-1.05-.17-1.64-.94h.15c-2.09-1.62-2.6-2.76-4.3-5.12l-.23.47a2.68,2.68,0,0,1-.39-1.05c-1-.13,1.05,1.43,0,1.41.12-.65-.56-1.53-1.2-2.4s-1.1-1.83-.8-2.34c-.5-.82-.32.52-.82-.3l.12-.37-.46,0a1,1,0,0,1,.15-1.19,2.27,2.27,0,0,0,.34.49c0-.88-1.09-2-1.12-2.3l.24.91a10.44,10.44,0,0,1-.95-1.82l-.74-2c-.29-.66-.42-1.37-.65-2a19.07,19.07,0,0,0-.75-1.89l-.19.23c-.65-1.89,0-1.59-.4-3.7l.05.07a3.24,3.24,0,0,1-.35-1.58c.28.54.49-1,.79-.32-.12-.52-.21-.85-.28-1.07a1,1,0,0,0-.16-.41,4.11,4.11,0,0,1-.65-1l.4-.29a2.3,2.3,0,0,1-.47-1.69c.24.94.62-.61,1,.44a4.65,4.65,0,0,0,.51-2.59c0-.7,0-1.26.71-1.58-.34-.63-.62-.21-.83.3s-.21,1.14-.26.83c-.41.42-.62-1.05-.25-1.71s1.59-.83,2.19-2.5c-.08.16,0,.2-.09.36.51-.51.21-1.34.93-1.93-.38-.68.46-1-.2-1.43l-.5,1.61a15.86,15.86,0,0,0,.06-1.61,2.63,2.63,0,0,1,.87-1.76,2.84,2.84,0,0,1,0,1c.44-.29.31-.84.76-1.14.3.26.09.72-.2,1.26a5.72,5.72,0,0,0-.42.86,2.23,2.23,0,0,0-.11.91c.25-.14.29-.64.38-1s.21-.54.46-.12c-.59-1.15,1-1.44.89-2.93l.36.32a1.8,1.8,0,0,1,.3-.93l.13.85c.15-1.08,1.48-1.24,1.79-2.16-1.13,1.58-.71,0-1.48.48.95-2.37,1.76-.42,3.37-2.54-.19.31-1.13.82-.91.25a4,4,0,0,1,1.4-.76c1.12-1.39-.54-.13-.24-.9.83,0,.48-.78.95-1.46l.33.35c1.74-1.15-.27-1.14,1.4-2.1-.08.32-.12.7-.17,1a6.58,6.58,0,0,1,.63-.75l.18.54a3.54,3.54,0,0,1,1.84-1.54c-.38-.14-.4-.8.35-1.36.7-.09-.05.56,1-.18-.09.42-.17.88-.88.83,0,.17-.06.42,0,.59a6.13,6.13,0,0,0,1.84-1.09,1.55,1.55,0,0,1-.49.16l1.27-1.55c.35,0,.21.26.09.5.3-.23.4-.6.9-.87a1.12,1.12,0,0,1-.32,1.3,14.18,14.18,0,0,1,1.37-1.2c.18.1,1,0,.88.25a4,4,0,0,0,1.45-1,4,4,0,0,1,1.77-.89.92.92,0,0,1,.38-.36c1.18-.41,2.38-.15,3.64-1.09l1,.45c1.08-.39-1.32-.64.51-1.27,1.3-.48.62.49,1.12.59.58-.45,1.63-1.47,3-1A4.92,4.92,0,0,1,422.75,182.12Zm14.18-.07c-.3.06-.89.29-1,0C436.29,181.53,436.49,181.82,436.93,182.05ZM457,190.29c-.26,0-.45-.29-.62-.67A1.84,1.84,0,0,1,457,190.29Zm-1.51,55.62,0,0C456.19,245.62,456,245.71,455.51,245.91Zm-1.3.61c-.09.13,0,.18.05.2,0-.15.28-.32.61-.48C454.72,246.19,454.51,246.21,454.21,246.52ZM388.64,203.1l.23-.21C388.75,203.51,388.7,203.31,388.64,203.1Z"/><path class="cls-2" d="M454.68,189.22a.43.43,0,0,1,.06-.28C454.6,188.94,454.54,189,454.68,189.22Z"/><path class="cls-2" d="M414.32,184.58h0a.38.38,0,0,0,0,.1Z"/><path class="cls-2" d="M465,228.54a1,1,0,0,1,.43-.36C465.33,228.12,465.19,228.19,465,228.54Z"/><path class="cls-2" d="M447.91,250.77c.27-.14.53-.32.79-.49a1.31,1.31,0,0,1-.82.2C448,250.58,448.18,250.66,447.91,250.77Z"/><path class="cls-2" d="M439.64,250.35c-.11.08-.26.06-.37.14l.09.21C439.89,250.6,440.2,250.3,439.64,250.35Z"/><path class="cls-2" d="M446.52,249.59c-.22-.35-.69,0-1.24.26l.1,0C445.41,250.41,446,250,446.52,249.59Z"/><path class="cls-2" d="M445.15,249.92a3.44,3.44,0,0,1-.53.21C444.63,250.37,444.85,250.09,445.15,249.92Z"/><path class="cls-2" d="M452.81,247.68c-.31.06.09.55-.14.49C452.65,248.79,454.1,246.58,452.81,247.68Z"/><polygon class="cls-2" points="445.56 248.52 445.95 248.91 446.12 248.42 445.56 248.52"/><path class="cls-2" d="M450.08,246.89l-.94.31c.05.06,0,.16-.16.26C449.53,247.22,450.17,247,450.08,246.89Z"/><path class="cls-2" d="M449,247.46a2,2,0,0,0-.67.42A4.17,4.17,0,0,0,449,247.46Z"/><path class="cls-2" d="M446.74,247.92h.3l.63-.26C447.36,247.74,447.06,247.86,446.74,247.92Z"/><path class="cls-2" d="M458.7,241l.69-.82c0-.2-.32-.08-.57.23S458.47,241,458.7,241Z"/><path class="cls-2" d="M455.4,242a1,1,0,0,1,.6,0l-.36-.51Z"/><path class="cls-2" d="M457.59,239.93c0-.2.76-1.35-.16-.46C457.47,239.66,456.8,240.46,457.59,239.93Z"/><polygon class="cls-2" points="467.2 227.79 467.1 228.04 468.05 228.4 467.2 227.79"/><path class="cls-2" d="M467.23,214.34c-.21,1.15.64.26.36,1.31.25.27.23-.86.44-.58C467.76,214.36,467.9,214,467.23,214.34Z"/><path class="cls-2" d="M468,215.07c.05.11.1.23.17.36A1.07,1.07,0,0,0,468,215.07Z"/><polygon class="cls-2" points="405.57 247.78 406.21 248.39 405.9 247.82 405.57 247.78"/><path class="cls-2" d="M407.34,247.92l-.13.67.71-.27C407.75,248.26,407.4,248.12,407.34,247.92Z"/><path class="cls-2" d="M438.7,183.77l.09-.14c-.07-.19-.24-.25-.57-.36Z"/><polygon class="cls-2" points="428.73 182.19 428.91 182.2 428.57 181.62 428.73 182.19"/><path class="cls-2" d="M420.42,183.85c.34,0,.71-.24,1.05-.28C420.76,183.81,420.17,183.16,420.42,183.85Z"/></svg>