<svg id="Layer_1" data-name="Layer 1" xmlns="http://www.w3.org/2000/svg" viewBox="0 0 500 500"><defs><style>.cls-1{fill:#5b7529;}.cls-2{fill:#373735;}.cls-3{fill:#98b763;}.cls-4{fill:linen;}.cls-5{fill:#ffc757;}</style></defs><path class="cls-1" d="M492.14,261.11S435,315.33,361.64,318.58s-135.07-45.71-135.07-45.71,57.16-54.23,130.5-57.48S492.14,261.11,492.14,261.11Z"/><path class="cls-2" d="M494.56,256.83c.34.3.59.25.77.12s.29-.37.4-.38C494.33,255.72,494.48,257,494.56,256.83Z"/><polygon class="cls-2" points="481.58 250.13 481.98 249.98 479.75 249.54 481.58 250.13"/><path class="cls-2" d="M470.14,243.15c.38,1.87,4.31,2.24,6.09,3.93l.17.48,1.51-.42C475.34,245.76,471.71,244.51,470.14,243.15Z"/><path class="cls-2" d="M465.36,237c.13.7-1.6-.32,1.4,1a1.51,1.51,0,0,1-.2-.27A12.84,12.84,0,0,1,465.36,237Z"/><path class="cls-2" d="M466.56,237.66c1.27.64-.6-.85,0,0Z"/><path class="cls-2" d="M460.59,234.87l1.89.42c-.2-.47-1.65-1.31-1-1.23C459.65,233.41,459.86,233.89,460.59,234.87Z"/><path class="cls-2" d="M458.53,235l1,.25C459.4,235,459.2,234.87,458.53,235Z"/><path class="cls-2" d="M461.52,235.79l-2-.55c.14.33-.05.75.91.29C460.06,235.83,460.61,235.65,461.52,235.79Z"/><path class="cls-2" d="M462.46,236.52c.79.75,1.88,1.57,0,1.13C465.69,239.16,465.72,238,462.46,236.52Z"/><path class="cls-2" d="M468.82,244.1l1,1.05,1.28.19C470.45,245.24,469,243.66,468.82,244.1Z"/><path class="cls-2" d="M450.37,229.09c-.23.22.24,1,.2,1.41l1.4.27C451.42,230.28,450.27,229.54,450.37,229.09Z"/><path class="cls-2" d="M450.57,230.5c-.69-.14-1.39-.27-2.1-.38C450.14,230.92,450.53,230.86,450.57,230.5Z"/><path class="cls-2" d="M457.52,236.25l3.51.57c-1.37-.28-2.72-.59-4.1-.84Z"/><polygon class="cls-2" points="443.1 225.86 444.47 225.67 442.11 225.84 443.1 225.86"/><path class="cls-2" d="M438.17,224c1-.22-.76-1.35.24-1.35a12,12,0,0,0-3.9-.39A8,8,0,0,1,438.17,224Z"/><path class="cls-2" d="M432.54,222.22a14.19,14.19,0,0,0,2,0A7.19,7.19,0,0,0,432.54,222.22Z"/><path class="cls-2" d="M445.31,228.55a2.21,2.21,0,0,0-1.15-1.44l.41,1.1Z"/><path class="cls-2" d="M444.59,228.25l0,0-1.6-.73Z"/><path class="cls-2" d="M445.5,228.64l-.19-.09C445.35,228.66,445.38,228.71,445.5,228.64Z"/><path class="cls-2" d="M453,233.19c-1.31-.08-3.79-.68-1.9,1C452.15,234,451.06,233.07,453,233.19Z"/><path class="cls-2" d="M446,230l1.92,1.06c.06-.22-.17-.68.48-.66Z"/><polygon class="cls-2" points="444.9 229.84 445.99 230.03 445.28 229.63 444.9 229.84"/><path class="cls-2" d="M435.8,224.31a11.11,11.11,0,0,1-3.12-.7,34.55,34.55,0,0,0,3.45,1.6C436.39,225,437.07,224.77,435.8,224.31Z"/><path class="cls-2" d="M440.06,226.25l-.21,0C439.94,226.33,440,226.39,440.06,226.25Z"/><path class="cls-2" d="M421.74,219.85l.13.2.09-.13Z"/><path class="cls-2" d="M436.27,225.43a3,3,0,0,0,2,.46,21.27,21.27,0,0,1-2.16-.68C436,225.29,436,225.36,436.27,225.43Z"/><path class="cls-2" d="M429.36,221.49a16.73,16.73,0,0,0,1.39,1C430.39,222.08,429.6,221.34,429.36,221.49Z"/><path class="cls-2" d="M439.64,225.87l.15,0C439.57,225.6,439.57,225.7,439.64,225.87Z"/><path class="cls-2" d="M439.64,225.87a5.49,5.49,0,0,0-1.35,0,14,14,0,0,0,1.56.32A1.36,1.36,0,0,1,439.64,225.87Z"/><path class="cls-2" d="M416.82,224.09c.37-.71,2.94-.72,4.69.73,2.14.1,1.69-2.82.36-4.77-.16.31-.26.61-2.47.43.3.32,1.37.91,2.12,1.44s1.16,1,.2,1.08c-2.84-.45-2.15-.95-3.35-1.76.83,1.29-3.87.32-3.68,1.91l2.51.22C417.18,223.6,416.22,223.69,416.82,224.09Z"/><path class="cls-2" d="M425.78,221.43l.88.19a10.56,10.56,0,0,1-2.6-2c-1.54-.1-1.92.09-2.1.31l4.15,1.49Z"/><path class="cls-2" d="M430.45,222.94c-.95.58-3.08.2-2.16,1.52,2.47.83,2-.06,3.55.12-4-1.23,1.31,0-1.39-1.53a18.59,18.59,0,0,1,2.23.56c-.68-.35-1.33-.73-1.93-1.11l.07.08h0v0c.14.16.17.24,0,.11,0,0-.07,0-.09,0a1,1,0,0,1-.29.24c-1.09-.59-.1-.28.29-.24,0,0,.07-.06.09-.1v0c-1.38-.33-2.76-.68-4.16-1A32.83,32.83,0,0,0,430.45,222.94Z"/><path class="cls-2" d="M448.32,234.93a.21.21,0,0,1,0-.24C448,234.67,447.87,234.7,448.32,234.93Z"/><path class="cls-2" d="M447,233.74a2.15,2.15,0,0,1,1.56.3c.67.6-.17.38-.25.65.63.05,2.14.32.63-.85l-.32,0c-1.4-1-3-2.82-2.64-2.81A6.26,6.26,0,0,0,447,233.74Z"/><path class="cls-2" d="M438.66,228.35l-3.41-.89,1.38,1.34.09-.45C438.5,229.23,438.3,228.58,438.66,228.35Z"/><polygon class="cls-2" points="421.48 219.32 422.21 218.59 419.86 219.22 421.48 219.32"/><path class="cls-2" d="M417,218.09l.39-.71c-.44,0-.87.06-1.3.11C416.44,217.68,416.74,217.88,417,218.09Z"/><path class="cls-2" d="M271,293.76l1,.22A5.64,5.64,0,0,0,271,293.76Z"/><path class="cls-2" d="M264.53,290.56l-.34.27C264.59,290.79,264.78,290.71,264.53,290.56Z"/><path class="cls-2" d="M305.36,220.61c-1.68-.23-3.67-.68-3.19.08l.73.65A5.71,5.71,0,0,1,305.36,220.61Z"/><path class="cls-2" d="M240.81,261.39l.51-.05c.1-.46.21-.89.3-1.27Z"/><path class="cls-2" d="M242.15,264.87l-1.86.73A9.54,9.54,0,0,0,242.15,264.87Z"/><path class="cls-2" d="M308.17,306.55l1.34-.56C307.78,305.53,308.42,306.16,308.17,306.55Z"/><path class="cls-2" d="M370.46,210.61a16.25,16.25,0,0,0-3.28-.59C368.77,210.55,370,211.33,370.46,210.61Z"/><path class="cls-2" d="M264.44,300.85c.63.13,1,.08,1-.1C264.81,300.61,264.41,300.59,264.44,300.85Z"/><path class="cls-2" d="M363.37,210c.23.08.46.11.7.19a15.36,15.36,0,0,1,3.11-.15A5,5,0,0,0,363.37,210Z"/><path class="cls-2" d="M445,288.31c.11,0,.23-.06.34-.07S445.15,288.19,445,288.31Z"/><path class="cls-2" d="M485.09,272.08a16,16,0,0,1-1.36,1.15A6,6,0,0,0,485.09,272.08Z"/><path class="cls-2" d="M399.09,213.32c1,.14.17-.06,0,0Z"/><path class="cls-2" d="M403,217.64a.58.58,0,0,0-.47.33A.75.75,0,0,1,403,217.64Z"/><path class="cls-2" d="M353.9,215.73h-.08C354.11,215.88,354.06,215.85,353.9,215.73Z"/><path class="cls-2" d="M400.46,214a8.19,8.19,0,0,0-1.18-.51A8.63,8.63,0,0,0,400.46,214Z"/><path class="cls-2" d="M400.35,213.56l.82.26C401.32,213.7,401.23,213.59,400.35,213.56Z"/><path class="cls-2" d="M397.74,213.09a10.78,10.78,0,0,1,1.54.41c-.18-.1-.24-.16-.19-.18Z"/><path class="cls-2" d="M373.45,315l.21.06C374.56,314.55,374.15,314.65,373.45,315Z"/><path class="cls-2" d="M285.77,238.41s.05,0,.08-.08l-.14,0Z"/><path class="cls-2" d="M283,240.48a3.35,3.35,0,0,1,2.67-2.12l-2.09-1.77Z"/><path class="cls-2" d="M287,300.31l-1.91-1.58c3.11-.17,4.84,1,3.19-.84-.63,1.21-2.78.46-4.93-.32s-4.26-1.63-4.94-.45l-1.2-1.14c.39.2.52.08.91.29-2.23-2.43-2.85.91-6.26-1.08-1.15-.77-1.84-1.53-.86-1.43l-3-.69c-.77-.43-.37-.76.39-.33l-4.25-1.85.07-.06a20,20,0,0,1-3.19-.11c-.88-.89.65,0,.54-.42l-2.59-.61c-.59-1.11,1.61-.71,3.14.18-.87-3.5-2.23-.36-6-4.22l2.28.85c-.63-2.08-2.53-2.51-4.42-4.67.3.74,3.56,4.77.81,4a5.27,5.27,0,0,0-3-1.42c.47-.85-.91-1.38-2.52-2.25l.76-1c-1.88-.69-2.08-.06-3.38-.17a3.22,3.22,0,0,1-1.67-3.33c-2.87-2,1.22,2.64-2.45.63a14,14,0,0,0-3.35-2.26l-.92-.43-.49-.21c-.14-.05-.39-.17-.44-.17-.39-.08-.84-.18-1.4-.33-.25-.44,0-.51.24-.56s.54-.07.58-.27a7.94,7.94,0,0,1-1.61.12c-.16-.14.24-.24.44-.3a3,3,0,0,0-1.31.1,2.62,2.62,0,0,1-1.77-.29c-1,.06-1.17-.48-1.12-1,.82-.38,1.67-.71,2.21-1s.82-.6.71-1.1c.69-.11.69.44,1.34.55a5.93,5.93,0,0,1,.55-1.7l.13-.36.08-.21a.78.78,0,0,1,.13-.27c.26-.46.57-1,1-1.82l2.79-1.13c-2.26.56-.85-2,.52-4.21a20.46,20.46,0,0,0-2.12.27l2.66-2.87c.51-.11.45.47.27,1.28.14-.24.28-.47.38-.67,1.39-.43,1.25.59.89,1.74-.52.08-1,.14-1.57.2-.29,1.19-.47,2.4.14,2.88a3.9,3.9,0,0,1,.78-1c-.06.32-.08.56.09.6s.33-.44.63-1.07l1.54.62-.17-.57c1.51-.74,3-1.49,4.53-2.19,2-3.22,3.4-6.72,7.86-10.32-.62,1.63.67,1.59,1.28,2.68-2-.25-3.36,2.84-5.89,4.28,1.33-.75,1.38-.07,1.18.32,1.2-1.32,2.43-2.58,3.66-3.88.45.91,1.33,0,2.71-.34-2-1.13,2.55-3.22,4-4.82.47.51.39,1.36-1.9,2.56,3.22-.18,1.91-3.95,5-4.26-.54.33-.89.41-.93.83,1-1.25,4.34-2.66,3.89-1.73l-.54.33c3.73-1.91,11.17-6.09,11-7.85a8.8,8.8,0,0,1,.36,2.5c1.37-2.8,2.75-5.67,4.26-8.44,0,1.6,3.79,3.68,1,5.89a8.58,8.58,0,0,0,3.88-1.88c-.69.1-2.42-1.2-1.63-1.72,3,.4,2,.06,5.41.06-1.05.12-.93-2.43.59-3-.1.42,1,2,.56,2.48.92-1.23,1.88-2.4,2.84-3.61-.78.76.56,1.84,1.62,2.09-.55-.25,3.2-1.25,4.13-1.8l-1.77.1c4.34-1.22,3.07-4.57,7.43-5.89-.38.61-.35,3.13,1.89,2.68.59-1.45,2.72-6.69,6.42-8.71l.94.43L321,218c-.73,1.1-2.17,2.84-3.68,4.64a60,60,0,0,1-4.27,4.72c1.76,0,.68.6,3.06-.18,1,.34-1,1.29-1.72,1.54,1.89-.43,3.78-.89,5.67-1.27-.61-1.23,3.95-2.45,3.46-3.48-1.93,1-3.88,1.94-5.76,3-.31-.59.29-1.81,1.52-2.91a11.27,11.27,0,0,1,5.14-2.6c1.16.27-.2,2.51,0,2.93.4-.61,3.63-1.74,4.08-1.52L326.93,224c2.35,0,3.29-2.64,6.28-1.86,1-.1,3.12,1.17,3.14.36-1.79-1.23-3-5.83-2.15-7.16.18,0,1.53.11,3,.34a18.83,18.83,0,0,1,3.61.83c1.75,1-2,3.19-.45,4,0-.37.8-1,1.14-1.14,1,.16-.25,1.18,1.89.69.18-1.43,4.45-.37.88-1.27,2.09-.62,2.31,0,4.81-.3-.44-.4,0-1.21.93-2a8.39,8.39,0,0,1,3.24-1.74c-.1.35.42.77.67,1,1.12,0,2.11,0,3,0s1.77.12,2.61.18c1.68.16,3.32.21,5.39.26.39.34,2.38.78,1.52,1.35a5.11,5.11,0,0,1,2.43-.69c2.42,1.22-2.84.12-1,1.58.17-.8,3.31-1,5.15-1.39-.25-.63-1.3-.76-2.52-.66a27,27,0,0,0-3.5.7c0-1.66,3.25-3.47,7.73-3.92,3.55-.21,1.44,1.18,2.07,1a10.62,10.62,0,0,0,6.05-.64c1.34-.51,2.53-.84,5.18.13,2,1.36-.2,2.13.17,3-2.86,0-4.22-1.29-6.15-1.41.77.25,1.53.48,2.3.75a7.59,7.59,0,0,1-3.84-.08c1.7,1,10.92,1.48,15.69,3.32.94-.2,2.52-.24,1.89-.82-.53-.05-1.06-.12-1.59-.16-1.28-1.14,3.18-.6,1.27-1.39,2.21-.13,4.82-.66,7.67.55l.27,1.33c0-.36-1.76-1.19-2.67-1,1.36-.26,4.13,2.69,5.86,1.45L407,217.76c2.26-.12,5.2-.67,7.72.43-.87-1.49-.64,0-2.14-1.91.58,1.08-1.09.59-2.65.18s-3-.73-1.92.48c-1.55-2-3.16-1.53-5.42-3.4,0,.41.74.94-1.46.28a3,3,0,0,1-.57.25l-.14-.06.11.07c-.11,0-.12,0,.05,0a2.84,2.84,0,0,1,1,.84c-1.3.68-4.83-.1-6.13.21-1.29-.42.64-.36,0-.91l-1.92.39c0-.91-3.31-2.08-.07-2.06-.95-.17-1.89-.37-2.84-.51a11.77,11.77,0,0,0-5.4-1.06c-1.34-.38-3.54.63-2.28,0l-4.57.1,0-.22a59.55,59.55,0,0,0-6.93.05,19.83,19.83,0,0,1-7.39-.8,20,20,0,0,1-5.59.37l-.52-.77c-1.93.31-5.89-.42-6.67.43-2.28-2-9.48.46-12.89.68l0,1a33.87,33.87,0,0,0-7.27,1.93l.35.84a6.82,6.82,0,0,1-2,.61,24.26,24.26,0,0,1-2.5.32,29,29,0,0,0-5.68.83c.18-.4,1.17-.58,1.91-.54-2.53-.39-4.87.6-7.09,1.67s-4.32,2.26-6.57,2.22a4.05,4.05,0,0,1-2.45.81.7.7,0,0,0,.24-.13l-.42.13c-.5,0-1,0-1.56,0a5.73,5.73,0,0,0,1.34.06,19,19,0,0,0-3,1.4l-.81-.73-.26.13c-1.24.08-.74.76.1,1.22a7.47,7.47,0,0,0-1.3,1.1c-1.46-1.11-2.8,1.58-4.62.55-.46,1-5.44,2.85-5.34,4.71-.12-.19-.49-.14.1-.42a7.59,7.59,0,0,0-3.53,1.64l-1-.88-2,2.74c-1.93.07-2.8,0-1.58-1.6-3.26,3.13-2.91,2-5.53,4.9l-.2-.79c-1.15.61-2.49,2.53-3.49,2.31-1.64,0-4.84,1.67-8.48,3.72a112.24,112.24,0,0,1-11.22,5.94c2.48,1.16-3.49,1-2.74,2.7-.67-.22-1.72.1-1-1-2.88,2.57-5.27,2.51-6.55,5.29-.68-.2.2-1.13-.31-1.17-.18.27-.72,1.09-1.23,1.06s.19-.71.54-1.25c-3.15,2.35-2.44,4-1.73,5.43-2,.55-2.75,1.26-3.25,2.94-.86,0-2.11.26-.3-1.35-.57.37-2.33,1.5-3.86,2.68a15.92,15.92,0,0,0-2,1.74c-.66.69-1,1.22-.79,1.47a5.83,5.83,0,0,0-2.21,1.92,73.65,73.65,0,0,0-6.21,5.48l1.09-.72c.38.38.31.72-.06,1.12.93.64,1.35,1.52,3,2.64h-.26a18.93,18.93,0,0,0,2.41,2.27,6.94,6.94,0,0,0,1.31.82,7.06,7.06,0,0,1,1.25.79c.28.21.6.49,1,.88l.7.65.66.69.28-1c1.56-1.44,3.35,3.69,6.49,4.69l-.68-1.07c1.82.32,2.65,4.92,4,6.05.24.35-.67-.06-1.19-.22,3.33,3.38,1.15-.78,4.24.69.2.9-1.57,1.09.36,2.35.37.52,2.1.86,4,1.4s4,1.23,5.07,2.51c-.37-.78-.74-1.55.85-1.17,2.21,1,5,4.73,7.65,4.21.22.25.27.43.22.55,1.86.41,5.76,1.91,7.15,1.52.1,1.87,2.91,2.67,5.53,3.27s5.06,1,4.48,2.48l2.69,1,2.71.9-.25.24c3.36,1.45,4.84,1.14,6.29.85.73.46.06.54-.06.67a21.06,21.06,0,0,0,5.14,1.94,19.86,19.86,0,0,0,5,.11l.18,1.07c.67-.12,2.41.77,4.69,1.7a21.72,21.72,0,0,0,7.79,1.79.83.83,0,0,1-.66.32,17,17,0,0,1,4.66.84c1.59.45,3.17,1,4.66,1.43.74.23,1.46.43,2.14.58a10.46,10.46,0,0,0,1.93.2,3.32,3.32,0,0,0,2.81-1.12c1.32-.11,2.64-.24,4-.42-4.94-.79.91-1.48-1.06-2.29,1.95,0,4.91,1.58,2.5,1.53l-.36-.21c-.53.89,1,1.21,2.63,1.46s3.39.34,3.28,1c9.87.57,19.62,1.39,28.95.45L371,320.68l3.23-.27c.88.25,1.28,1-1,1.2a2.8,2.8,0,0,0,2.39-.33,3.57,3.57,0,0,0,1.4-1.16c4.57-.08-1.51,2-.14,1.78l1.87-.38-.45-.11c1.43-.82,1.47-1.46,4.22-1.81,1.78,0,1.05.72,1.74.65,0,.1.25.1,1.05-.16l4.06-.65-1.84-.82c1.67-.87,3.75-.75,1.66-1.6a8,8,0,0,0,3.67.16c.79-.09,1.64-.23,2.52-.4s1.77-.42,2.66-.65c3.56-.89,6.87-2.1,7.78-2.05a25.22,25.22,0,0,1,7.47-3.2c-.81,0-1.65-1,.88-1.78,0,2.84,5-.54,7.65.42-2.25-.46,6.91-3.14,3.42-3.68,2.11-.68.51.88,2.3.78,4.46-3,10.92-4.18,16.59-7.52-.07-.36-1.29-.33-.29-1.44l3.87-.06c1.06-.78.07-2.36,2.72-2.43-.44-.1-1.09-.25-.39-.77,6-2.37,11.4-6.08,16.76-9.83s10.7-7.52,16.83-10.26c-1.81.55-.92-.23.12-1.08-.79.41-.51-.69-.94-1,1.69-.77,3.38-1.55,5.07-2.37-.06-1.63,4.43-3.84,4-5.19L490.72,266c.75-2.61-4.58-.45-5.55-2.16-.85,2.94-6.65,2.2-8.42,6.59-1,.23.24-1-.41-1-.33,1.28-1.23,2.18-3.33,3.25l.1-.32c-5.18,4-7.95,4.93-14.38,8.43l1,.51a7.7,7.7,0,0,1-2.58.85c-.77,2.19,3.77-2.3,3.23-.08-1.4-.25-3.74,1.24-6.07,2.59s-4.63,2.59-5.77,2c-2.1,1.2,1.16.61-.95,1.79l-.85-.2-.16,1c-1.45.66-2.51.4-2.8,0a7.24,7.24,0,0,0,1.22-.88c-2.1.4-5,2.93-5.69,3.06l2.22-.75c-5.56,3.6-13.14,6.33-18.53,9.89l.62.22a10.79,10.79,0,0,1-4.08,1.78A19.73,19.73,0,0,0,415,304l.14-.17a9.36,9.36,0,0,1-3.51,1.94c1.11-.92-2.73-.15-1.25-1.26-4.7,2.5-2.22,1.52-5.05,4.15l-1-.48c-.94,1-.94,1.36-3.46,2.32,1.93-1.25-1.94-.6.17-2.11a13.39,13.39,0,0,0-6.35,1.63c-1.56.74-2.81,1.21-4.32.35-2.05,2.57,5,0,3.68.78,1.34.37-1.72,2-3.5,2.16-.88.17-1.77-.28-3-.69a8.79,8.79,0,0,0-4.93-.35c.44-.07.44-.23.88-.31a5.52,5.52,0,0,0-2.47.52,4.89,4.89,0,0,1-2.8.22c-.95,1.4-2.64.33-2.75,1.95l4-1c-2.23.75-4.17,3-8.15,2.46a7.23,7.23,0,0,1,2.12-1.21c-1.17-.35-2.12.54-3.33.19.16-1.63,4.94-.83,7.23-2.46-.64-.24-1.76.21-2.6.5s-1.4.33-.89-.58c-.75,1.18-1.86,1.23-3.11,1.23a7.07,7.07,0,0,0-4.11.89l.13-1a7.25,7.25,0,0,1-2.3.72l1.5-1.33c-2.36,1.2-4.72-.57-7,0,2.42-.06,2.71.2,2.65.58s-.47.88.58,1.15c-3,.77-3.91.12-4.88-.57s-2-1.44-5.36-1.31c.9-.12,3.41.64,2,1.05a12,12,0,0,1-3.74-1.14c-4.46.12.65,1-1.26,1.54-1.48-1.19-2.22.35-4.22.62l0-1c-5.05-.93-1.5,2-6.06.79l2.06-1.14-2.42.11.6-1.05c-2.67.56-3.47.3-6-.38.5.76-.56,1.69-2.83,1.41-1.46-.79,1-.75-2.22-1.12.82-.46,1.71-1.1,3,0,.18-.29.79-.5,1-.79a7.12,7.12,0,0,0-2.78-.7c-1-.12-1.89-.15-2.46-.25a4.59,4.59,0,0,1,1.2.44l-4.83.53c-.66-.49,0-.67.59-.85a19.91,19.91,0,0,1-3.05,0c.51-.69.58-1.5,2.56-1.47l-4.49,0c-.23-.4-2-1.38-1.4-1.54-2.26-1-6.21.13-9.2-1.37a2.29,2.29,0,0,1-1.27.08c-1.46-.47-2.76-1.17-4.17-1.73a14.08,14.08,0,0,0-4.83-1.06l-1.51-2c-2.8-.59,2.09,2.57-2.59,1.56-3.33-.72-.79-1.55-1.76-2.32a19.53,19.53,0,0,1-3.52,0,7.61,7.61,0,0,1-4-1.77A16.13,16.13,0,0,1,287,300.31Zm-32.2-14.42c.69.16,2.19.27,2.36,1C256,287.49,255.67,286.74,254.81,285.89Zm-8.66-26.15c-.23.56-1,.91-1.9,1.14A5.46,5.46,0,0,1,246.15,259.74Zm142.22-47.42-.09,0C386.75,211.77,387.29,212,388.37,212.32Zm3.21.88c.35-.08.35-.21.23-.37-.27.2-1,.09-1.83-.08C390.17,213,390.57,213.25,391.58,213.2Zm-7,106.63-.68-.13C385.23,319.16,384.88,319.48,384.54,319.83Z"/><path class="cls-2" d="M242,264.46a.88.88,0,0,1-.55-.24C241.34,264.51,241.45,264.66,242,264.46Z"/><path class="cls-2" d="M307.92,306.65l.1,0a.39.39,0,0,0,.15-.13Z"/><path class="cls-2" d="M341.65,220.83a3,3,0,0,1-1.31-.31C340.34,220.76,340.66,220.92,341.65,220.83Z"/><path class="cls-2" d="M409.1,215.11l-2.13-.26a4.41,4.41,0,0,1,1.79.76C408.77,215.38,408.45,215,409.1,215.11Z"/><path class="cls-2" d="M424.87,226c.33,0,.61.19.94.17l.06-.45C424.64,225.31,423.67,225.37,424.87,226Z"/><path class="cls-2" d="M410.21,218.69c0,.83,1.29.9,2.74,1.14a2.27,2.27,0,0,1-.25-.06C413.42,218.78,411.81,218.73,410.21,218.69Z"/><path class="cls-2" d="M413.29,219.9a8.37,8.37,0,0,1,1.31.33C414.89,219.84,414.1,220,413.29,219.9Z"/><path class="cls-2" d="M395.8,213.38c.66.33.62-.94,1-.55C397.72,212,391.9,213.26,395.8,213.38Z"/><polygon class="cls-2" points="410.67 221.58 410.43 220.48 409.44 221.04 410.67 221.58"/><path class="cls-2" d="M399.68,218.25l2.22.74c0-.17.31-.2.68-.2C401.19,218.46,399.69,218,399.68,218.25Z"/><path class="cls-2" d="M402.58,218.79a6.14,6.14,0,0,0,1.86.25A9.75,9.75,0,0,0,402.58,218.79Z"/><polygon class="cls-2" points="407.53 221.09 406.92 220.72 405.35 220.27 407.53 221.09"/><path class="cls-2" d="M375,214.69l-2.55.14c-.27.32.41.57,1.35.49C374.37,215.12,375.32,215.05,375,214.69Z"/><path class="cls-2" d="M382.31,218.08c-.65-.27-.67-.5-1-.87l-.2,1.23Z"/><path class="cls-2" d="M375,217.73c-.28.33-3.67.78-.52.89C374.78,218.29,377.29,218.15,375,217.73Z"/><polygon class="cls-2" points="337.31 218.03 337.94 217.93 337.52 215.93 337.31 218.03"/><path class="cls-2" d="M306.65,231.17c2.9-.53.23-1.43,2.93-1.7.5-.68-2.21.21-1.68-.4C306.39,230.11,305.44,230.2,306.65,231.17Z"/><path class="cls-2" d="M307.9,229.07a9,9,0,0,0,.76-.58A3.49,3.49,0,0,0,307.9,229.07Z"/><polygon class="cls-2" points="491.35 268.35 493.13 267.37 491.71 267.69 491.35 268.35"/><path class="cls-2" d="M493.22,264.71l1.22.65c0-.57.06-1.12.12-1.71C494.23,264,493.67,264.7,493.22,264.71Z"/><path class="cls-2" d="M251.56,281l-.28.2c.08.44.44.68,1.18,1.17Z"/><polygon class="cls-2" points="273.69 293.62 273.31 293.41 273.57 294.82 273.69 293.62"/><path class="cls-2" d="M294,300.21c-.79-.35-1.84-.45-2.64-.79C293.2,299.86,293.74,301.67,294,300.21Z"/><path class="cls-3" d="M412.13,42.91s-.29,88.42-54.5,150.44-141.78,74.18-141.78,74.18.3-88.42,54.5-150.44S412.13,42.91,412.13,42.91Z"/><path class="cls-2" d="M410.63,38.21c.5,0,.66-.26.69-.48s-.06-.46,0-.55C409.58,37.63,410.73,38.42,410.63,38.21Z"/><polygon class="cls-2" points="395.13 43.32 395.32 42.92 393.22 44.29 395.13 43.32"/><path class="cls-2" d="M380.62,47.19c1.76,1,5.16-1.73,7.88-1.92l.51.2.88-1.42c-1.56.5-3.3,1.22-4.94,1.84A19.31,19.31,0,0,1,380.62,47.19Z"/><path class="cls-2" d="M372,46.65c.64.37-1.52,1,1.84-.42a2.55,2.55,0,0,1-.36,0C373.2,46.31,372.77,46.45,372,46.65Z"/><path class="cls-2" d="M373.51,46.2c1.5-.53-1.14-.12,0,0Z"/><path class="cls-2" d="M366.62,48.84l1.82-1.15c-.52-.17-2.32.37-1.74-.08C364.75,48.57,365.28,48.73,366.62,48.84Z"/><path class="cls-2" d="M365.08,50.47l1-.55C365.81,49.85,365.52,49.89,365.08,50.47Z"/><path class="cls-2" d="M368.07,48.75l-2,1.17c.36.12.54.54.94-.5C367,49.88,367.24,49.35,368.07,48.75Z"/><path class="cls-2" d="M369.38,48.53c1.21-.09,2.71-.37.87.76C374,47.86,373.12,47.07,369.38,48.53Z"/><path class="cls-2" d="M380.31,48.83l1.61,0,1.16-.83C382.5,48.37,380.09,48.42,380.31,48.83Z"/><path class="cls-2" d="M354.07,52.72c0,.33,1,.49,1.25.8l1.32-.89C355.82,52.73,354.34,53.1,354.07,52.72Z"/><path class="cls-2" d="M355.32,53.52c-.66.44-1.31.88-2,1.34C355.3,54.13,355.57,53.79,355.32,53.52Z"/><path class="cls-2" d="M365.26,52.09c1.07-.77,2.14-1.51,3.22-2.27-1.3.84-2.61,1.66-3.9,2.54Z"/><polygon class="cls-2" points="345.85 56.12 346.78 54.94 345.05 56.86 345.85 56.12"/><path class="cls-2" d="M340.51,58.64c.64-1-1.64-.33-.85-1.09a14.8,14.8,0,0,0-3.37,2.73A9.89,9.89,0,0,1,340.51,58.64Z"/><path class="cls-2" d="M334.72,61.79a16.72,16.72,0,0,0,1.57-1.51A8.28,8.28,0,0,0,334.72,61.79Z"/><path class="cls-2" d="M349.66,56.23a2.55,2.55,0,0,0-2-.09l1.18.42Z"/><path class="cls-2" d="M348.85,56.58l0,0-1.83.75Z"/><path class="cls-2" d="M349.87,56.14l-.21.09C349.77,56.27,349.83,56.28,349.87,56.14Z"/><path class="cls-2" d="M359.33,53.46c-1.1.94-3.53,2.43-.73,2.13C359.29,54.69,357.68,54.87,359.33,53.46Z"/><path class="cls-2" d="M351.33,56.7l2.34-.75c-.13-.2-.67-.33-.13-.81Z"/><polygon class="cls-2" points="350.32 57.41 351.32 56.7 350.46 56.98 350.32 57.41"/><path class="cls-2" d="M338.88,60.68a14.39,14.39,0,0,1-3,2c1.33-.49,2.69-1,3.94-1.59C339.89,60.71,340.23,60,338.88,60.68Z"/><path class="cls-2" d="M343.74,58.71l-.2.14C343.7,58.85,343.82,58.83,343.74,58.71Z"/><path class="cls-2" d="M324.37,68.57l.26,0,0-.15Z"/><path class="cls-2" d="M340.1,61.08a3.67,3.67,0,0,0,1.95-1.25c-.68.41-1.41.82-2.23,1.21C339.79,61.18,339.81,61.26,340.1,61.08Z"/><path class="cls-2" d="M331.65,63.76a16.79,16.79,0,0,0,1.85-.4C332.9,63.36,331.72,63.48,331.65,63.76Z"/><path class="cls-2" d="M343.11,58.77l.13-.09C342.85,58.65,342.93,58.71,343.11,58.77Z"/><path class="cls-2" d="M343.11,58.77a7.07,7.07,0,0,0-1.06,1.06c.56-.33,1.06-.67,1.49-1A1.93,1.93,0,0,1,343.11,58.77Z"/><path class="cls-2" d="M323.67,75.26c-.23-.77,1.79-2.78,4.27-3.16,1.78-1.6-.79-3.21-3.31-3.5.1.34.25.62-1.63,2.22.47,0,1.77-.46,2.76-.69s1.7-.21,1,.58c-2.59,1.91-2.41,1-4,1.43,1.63.22-2.83,3.23-1.48,4.16l2.16-1.82C323.59,74.65,322.9,75.46,323.67,75.26Z"/><path class="cls-2" d="M328.76,66.49l.84-.55a12.53,12.53,0,0,1-3.57.67c-1.3,1.12-1.46,1.55-1.43,1.84L329,66.23Z"/><path class="cls-2" d="M333.61,63.9c-.32,1.12-2.29,2.51-.56,2.69,2.58-1.35,1.51-1.56,2.91-2.67-4.14,2.29,1-1-2.28,0a20.32,20.32,0,0,1,2.2-1.34c-.81.28-1.61.53-2.38.73h.14v0c.23,0,.32,0,.08.08l-.08.06a.73.73,0,0,1,0,.38c-1.31.45-.29-.1,0-.38a.65.65,0,0,0,0-.14h0c-1.35.85-2.71,1.68-4,2.58A42.44,42.44,0,0,0,333.61,63.9Z"/><path class="cls-2" d="M356.94,58.22c-.16,0-.18-.08-.21-.13C356.48,58.29,356.4,58.4,356.94,58.22Z"/><path class="cls-2" d="M355,58.45a2.59,2.59,0,0,1,1.47-1c1-.1.15.39.3.64.53-.46,1.95-1.42-.16-1.06l-.26.23c-1.87.42-4.52.37-4.26.13A6.67,6.67,0,0,0,355,58.45Z"/><path class="cls-2" d="M344.23,61.19l-3.38,2,2.12-.16-.28-.37C344.78,61.91,344.12,61.62,344.23,61.19Z"/><polygon class="cls-2" points="323.77 68.41 323.79 67.36 322.42 69.61 323.77 68.41"/><path class="cls-2" d="M319.33,71l-.23-.78c-.31.36-.63.72-.94,1.1C318.55,71.24,318.94,71.14,319.33,71Z"/><path class="cls-2" d="M267.46,248.2l1-.61A6.83,6.83,0,0,0,267.46,248.2Z"/><path class="cls-2" d="M259.83,251l-.06.43C260.05,251.1,260.15,250.9,259.83,251Z"/><path class="cls-2" d="M235.07,163.35c-1.41,1.22-3.18,2.52-2.3,2.69l1-.13A6.79,6.79,0,0,1,235.07,163.35Z"/><path class="cls-2" d="M217.55,247.07l.32-.45-.69-1.21Z"/><path class="cls-2" d="M221,248.64l-.79,2.09A14.31,14.31,0,0,0,221,248.64Z"/><path class="cls-2" d="M306.78,228l.66-1.42C305.7,227.63,306.7,227.55,306.78,228Z"/><path class="cls-2" d="M277.26,102.94a19.66,19.66,0,0,0-3,2.23C275.9,104.26,277.43,103.79,277.26,102.94Z"/><path class="cls-2" d="M267.71,258c.61-.39.83-.67.74-.84C267.83,257.53,267.5,257.83,267.71,258Z"/><path class="cls-2" d="M271.31,108.22c.24-.13.44-.3.68-.43a19,19,0,0,1,2.3-2.62A6.19,6.19,0,0,0,271.31,108.22Z"/><path class="cls-2" d="M398.24,102.42a2.59,2.59,0,0,1,.19-.33C398.33,102,398.28,102.18,398.24,102.42Z"/><path class="cls-2" d="M415.11,57.1a17.41,17.41,0,0,1-.12,2A7.66,7.66,0,0,0,415.11,57.1Z"/><path class="cls-2" d="M301.63,81.92c.87-.67.08-.17,0,0Z"/><path class="cls-2" d="M307.93,81.74a.61.61,0,0,0-.12.6A.78.78,0,0,1,307.93,81.74Z"/><path class="cls-2" d="M268.16,119.91l-.06.07C268.43,119.84,268.37,119.86,268.16,119.91Z"/><path class="cls-2" d="M303.21,81.31a11.68,11.68,0,0,0-1.3.58A10.54,10.54,0,0,0,303.21,81.31Z"/><path class="cls-2" d="M302.79,81.1l.84-.48C303.66,80.42,303.51,80.42,302.79,81.1Z"/><path class="cls-2" d="M300.39,82.83a13.35,13.35,0,0,1,1.52-.94c-.21.08-.32.09-.28,0Z"/><path class="cls-2" d="M364.09,181.14l.21-.13C364.66,180,364.42,180.36,364.09,181.14Z"/><path class="cls-2" d="M233.31,192.63a.57.57,0,0,0,0-.13l-.08.14Z"/><path class="cls-2" d="M232.79,196.44a4.14,4.14,0,0,1,.44-3.8l-2.77.43Z"/><path class="cls-2" d="M285.23,240.3l-2.73.41c2.35-2.51,4.61-3.07,1.91-3,.41,1.3-1.88,2.46-4.18,3.59s-4.64,2.18-4.28,3.51c-.61.06-1.23.09-1.84.14.47-.16.49-.34.95-.5-3.64.08-1.57,2.8-5.81,4.07-1.51.36-2.64.38-1.79-.3l-2.94,1.85c-.95.3-.89-.23.06-.52l-4.82,2v-.09a23.58,23.58,0,0,1-2.63,2.35c-1.38.07.54-.49.11-.7l-2.53,1.56c-1.34-.3.72-1.69,2.63-2.26-3.41-1.69-2,1.45-8.06,1.72l2.48-1.16c-2.13-.92-4,.23-7.17.2.82.27,6.56.53,3.78,2.08a6.68,6.68,0,0,0-3.5,1.32c-.29-.92-1.8-.24-3.77.38l-.21-1.27c-2,1-1.69,1.52-2.81,2.43-2.43.53-3.18-.33-3.94-1-3.88.78,3,.87-1.45,2.26a17.74,17.74,0,0,0-4.43,1c-.71.25-1.43.54-2.2.86l-1.21.5c-.26.15-.42.28-.68.43-.59-.11-.48-.33-.35-.55s.3-.43.15-.59a6.67,6.67,0,0,1-1,1.25c-.24,0-.05-.34,0-.51a2.65,2.65,0,0,0-.82,1,2.52,2.52,0,0,1-1.51,1.09A1.06,1.06,0,0,1,219,264c.29-.91.64-1.81.8-2.47s.13-1.12-.31-1.48c.41-.6.8-.11,1.32-.47a5.85,5.85,0,0,1-.52-1l-.16-.43-.08-.19-.06-.34c-.17-.9-.39-1.7-.92-3.66.36-1.06.77-2.11,1.15-3.15-1.19,2.27-2-.87-2.65-3.66a23.35,23.35,0,0,0-1.29,2l-.18-4.38c.28-.49.65,0,1.1.77-.08-.31-.14-.6-.21-.83.67-1.47,1.3-.58,1.86.6q-.47.73-1,1.44c.65,1.15,1.39,2.22,2.16,2.08a4.58,4.58,0,0,1-.18-1.42c.18.3.34.49.49.38s-.08-.6-.33-1.33l1.53-.79-.53-.3c.54-1.81,1.05-3.6,1.63-5.39-.86-4.13-2.39-7.92-1.78-14.32.71,1.75,1.61.66,2.81,1-1.6,1.46-.37,4.92-1.14,8.1.42-1.67.94-1.2,1.07-.74-.09-2-.11-4-.16-6,1,.31,1-1.08,1.68-2.49-2.19.75-.48-4.54-.53-7,.69,0,1.23.7.46,3.5,2.16-2.79-1.45-4.55.54-7.34-.15.69-.34,1-.07,1.39-.2-1.74,1.21-5.58,1.56-4.51l-.16.69c1.31-4.52,3.72-13.8,2.36-15a8.21,8.21,0,0,1,2,1.56c-1-3.21-2-6.49-2.88-9.79,1.15,1.16,5.35-.41,4.89,3.53a10.62,10.62,0,0,0,1.49-4.61c-.44.65-2.6,1.12-2.39.08,2.45-2.19,1.48-1.6,4-4.44-.69,1-2.4-1-1.7-2.7.22.38,2.17.66,2.16,1.36-.2-1.68-.32-3.33-.46-5,0,1.2,1.7.88,2.66.19-.59.27,1.46-3.59,1.76-4.75l-1.23,1.54c2.34-4.5-1-5.89,1.32-10.45.15.76,1.95,2.57,3.29.38-.59-1.56-2.71-7.11-1.39-11.62l1-.46,1-3.43c.24,1.38.39,3.83.53,6.37a63.66,63.66,0,0,1,.16,7c1.32-1.46.93-.13,2.16-2.67,1-.61.14,1.79-.2,2.54,1.11-1.88,2.19-3.78,3.33-5.63-1.33-.37,1.23-5,.13-5.36-.72,2.33-1.53,4.6-2.17,6.94-.65-.17-1.07-1.55-.92-3.36a13.92,13.92,0,0,1,2-6.12c1.07-.76,1.62,2,2.08,2.11-.14-.77,1.5-4.26,2-4.47l-.4,2.07c1.78-1.94.6-4.6,3.42-6.53.66-.86,3.19-1.74,2.63-2.33-2.23.61-6.41-1.66-6.72-3.31.16-.13,1.23-1.17,2.5-2.2a21.48,21.48,0,0,1,3.33-2.38c2-.77.79,3.86,2.52,3.2-.27-.26-.07-1.33.05-1.75.91-.75.65,1,1.94-1.06-.9-1.17,3.13-3.92-.24-1.63,1.16-2.15,1.79-1.87,3.46-4.16-.62.09-.82-.88-.71-2.15a10.12,10.12,0,0,1,1.25-3.87c.17.34.87.2,1.2.13.83-.94,1.59-1.76,2.31-2.5s1.45-1.36,2.15-2c1.41-1.27,2.71-2.56,4.36-4.21.54-.08,2.4-1.39,2.15-.3a6.4,6.4,0,0,1,1.39-2.44c2.78-1.13-2.12,2.39.37,1.9-.44-.69,1.81-3.41,3-5.13-.64-.23-1.56.53-2.44,1.58a33.4,33.4,0,0,0-2.21,3.32c-1.2-1.15,0-5,3.16-8.94,2.61-3,2-.35,2.33-1A13.23,13.23,0,0,0,289,94.91c.66-1.42,1.35-2.59,4.15-4,2.57-.68,1.41,1.61,2.31,1.88-2.22,2.3-4.26,2.49-5.86,4,.79-.45,1.56-.91,2.35-1.33a9.57,9.57,0,0,1-3.05,3c2.08-.66,9.65-7.73,14.77-10.27.59-.88,1.81-2.15.88-2-.45.39-.92.75-1.37,1.15-.91.14-.42-.62.07-1.25s.95-1.17-.1-.69c.82-.94,1.65-2,2.66-3a12.87,12.87,0,0,1,3.79-2.69l1.21.68c-.25-.25-2.28.58-2.86,1.44.89-1.25,5.28-1.43,5.71-3.63l-2.46.57c1.69-1.86,3.6-4.53,6.42-5.76-1.81-.33-.53.47-3.12.38,1.26.27-.42,1.25-2,2.2s-2.92,1.87-1.16,1.84a6,6,0,0,0-3.24.73,12.83,12.83,0,0,1-3.56,1.23c.3.28,1.29,0-.94,1.34a2.93,2.93,0,0,1-.26.62l-.16.07.14,0c-.05.11-.05.13.06,0a3.12,3.12,0,0,1,1.42-.23c-.52,1.49-3.88,3.74-4.67,5-1.33.75.23-.75-.68-.61l-1.22,1.8c-.7-.6-4.14,1.21-1.58-1.34-.87.63-1.76,1.24-2.61,1.91a14.73,14.73,0,0,0-5,3.57c-1.32.81-2.3,3.26-1.75,1.85l-3.48,3.73-.18-.14a71.9,71.9,0,0,0-5.36,5.61,24.94,24.94,0,0,1-6.3,5.41,25.52,25.52,0,0,1-4,4.78l-1-.1c-1.26,1.77-4.81,4.49-4.8,5.71-1.6.21-3.3,2.26-4.94,4.58s-3.12,5-4.39,6.42l.75.7a42.35,42.35,0,0,0-4.12,7.33l.87.31a8.68,8.68,0,0,1-1.1,2.1c-.47.74-1,1.49-1.65,2.29a34.1,34.1,0,0,0-3.66,5.27c-.15-.43.45-1.38,1-2-2.16,1.8-3.2,4.44-4.1,7s-1.62,5.19-3.31,7a5.06,5.06,0,0,1-1.23,2.61.91.91,0,0,0,.08-.29,3.71,3.71,0,0,0-.21.44c-.37.41-.76.82-1.14,1.3a7.74,7.74,0,0,0,1-1.06,21.79,21.79,0,0,0-1.22,3.48l-1.11.14-.1.3c-.86,1.09,0,1.17.94.81a8.79,8.79,0,0,0-.18,1.88c-1.86.39-.94,3.46-3,4.22.4,1.15-2,6.58-.58,7.86-.22,0-.46.31-.22-.38a9.54,9.54,0,0,0-1.42,4.12l-1.36.2.5,3.66c-1.35,1.65-2,2.31-2.28.12-.15,5-.68,3.9-.53,8.2l-.7-.42c-.41,1.41,0,3.94-.88,4.6-1.19,1.36-2.3,5.25-3.46,9.78s-2.29,9.72-3.78,13.71c1.31-.58.85.32.3,1.46s-1.18,2.51-.32,2.84c-.63.38-1.15,1.48-1.38,0-.21,4.32-1.94,6.24-.86,9.39-.62.41-.67-1-1.05-.64.07.36.27,1.42-.12,1.82s-.36-.69-.5-1.4c-.54,4.38,1.13,5,2.66,5.55-1,2.09-1,3.22-.19,4.91-.6.7-1.29,1.93-1.17-.79-.28,1.5-1.69,9.23-.38,9.49a3.82,3.82,0,0,0-.27,1.68,7.55,7.55,0,0,0,.11,1.61,82.74,82.74,0,0,0-.38,9.31l.23-1.42c.54.06.73.41.77,1,1.23-.25,2.32,0,4.53-.45l-.18.18a25,25,0,0,0,3.77-.26,9.86,9.86,0,0,0,1.67-.42,8.39,8.39,0,0,1,1.62-.4l.65-.09.68,0,1.92-.06-.54-.86c.1-2.14,5.56,0,8.82-1.68l-1.38-.22c1.69-1.14,6,1.34,7.93,1.06.46.06-.57.47-1.11.75,5.28-.23.3-1.39,3.89-2.72.87.45-.39,1.91,2.12,1.3.7.08,2.34-1,4.25-2.06s4.1-2.17,6-2.14c-.9-.24-1.79-.49-.24-1.43,2.5-1,7.59-.59,9.32-3,.37,0,.54.09.6.21,1.8-1.14,6-3.1,6.84-4.43,1.51,1.18,4.35-.43,6.89-2s4.81-3.19,5.45-1.78l2.86-1.43,2.83-1.49v.35c3.76-1.62,4.69-3,5.62-4.29.93-.26.45.32.46.49a25.72,25.72,0,0,0,5.53-2.69,24,24,0,0,0,4-3.84l1,.59c.43-.6,2.48-1.37,5-2.53,1.23-.6,2.57-1.3,3.88-2.1.65-.41,1.29-.84,1.91-1.3a16.34,16.34,0,0,0,1.69-1.52.93.93,0,0,1-.28.74,21.16,21.16,0,0,1,4.3-3.11c1.57-1,3.21-1.86,4.71-2.72.75-.44,1.47-.87,2.11-1.31a14.19,14.19,0,0,0,1.66-1.4,3.83,3.83,0,0,0,1.37-3l1.42-1.7,1.37-1.75c-4.44,3.42-.36-1.73-2.5-.7,1.51-1.58,5-2.86,3.08-1l-.44.14c.23,1,1.66,0,3.13-1.11s2.88-2.49,3.27-2c8.11-7.54,16.22-14.89,22.66-23.17l-1.88.06,2.27-2.82c.85-.56,1.7-.34.06,1.69a3.48,3.48,0,0,0,1.59-2.19,4.25,4.25,0,0,0,.24-2c3.4-3.8.24,2.62,1.16,1.37l1.14-1.8-.42.29c.51-1.76.08-2.23,1.92-4.74,1.31-1.49,1.3-.35,1.77-1,.08.06.27-.13.68-1l2.6-3.79-2,.93c.65-2,2.29-3.63.11-2.51a9.68,9.68,0,0,0,2.88-2.91c.53-.71,1.07-1.52,1.61-2.36s1-1.76,1.52-2.66c2-3.57,3.63-7.19,4.34-7.89a32,32,0,0,1,3.27-8.49c-.59.67-1.95.6-.6-2,2,2.08,3.26-4.5,5.91-6-2,1.52,2.83-8-.1-5.52,1.06-2.25,1,.22,2.23-1.33,1.14-5.88,5-12.11,6.7-19.27-.3-.21-1.16.82-1.23-.83.91-1.08,1.85-2.15,2.75-3.25.2-1.45-1.63-1.81.23-4-.39.29-1,.71-.82-.25,2.61-6.72,3.83-14,5-21.21s2.2-14.49,4.53-21.6c-.87,1.9-.81.58-.68-.92-.26,1-.86-.11-1.36,0,.64-2,1.27-4,1.85-6-1.2-1.19.33-6.55-.93-7.26l.14,2c-1.35-2.61-3.51,3.39-5.41,2.87,1.51,3-3.06,7.14-1.18,12-.5,1-.51-.93-1-.44.69,1.25.71,2.68,0,5.22l-.16-.32c-.8,7.3-2.09,10.29-4.17,18.25l1.05-.42a9.47,9.47,0,0,1-1.23,2.78c1,2.28,1.05-4.85,2.24-2.73-1.17,1-1.77,4-2.48,7s-1.48,5.77-2.71,6.28c-.65,2.63,1.26-.51.59,2.12l-.76.55.57.86c-.58,1.69-1.52,2.37-2,2.3a11,11,0,0,0,.25-1.67c-1.23,2-1.5,6.31-1.94,7l1.07-2.4c-1.45,7.3-5,15.61-6.45,22.7l.6-.35a13.68,13.68,0,0,1-1.73,4.69,25.51,25.51,0,0,0-2.29,4.9v-.24a11.7,11.7,0,0,1-1.21,4.33c.16-1.59-2.14,2.16-1.82.12-1.72,5.72-.57,2.95-.82,7.2l-1.07.48c0,1.49.26,1.75-.94,4.53.56-2.5-1.87,1.19-1.36-1.66a17.14,17.14,0,0,0-3.6,6.43c-.64,1.83-1.26,3.2-3,3.83.28,3.53,3.77-4.09,3.32-2.48,1.28-.84.11,2.83-1.1,4.43-.54.86-1.53,1.26-2.73,2a10.89,10.89,0,0,0-4,3.82c.28-.41.17-.52.45-.94a7.13,7.13,0,0,0-1.51,2.41,6,6,0,0,1-2,2.46c.27,1.78-1.78,2.41-.71,3.64l2.37-4c-1.18,2.37-1.06,5.54-4.47,8.43a8.52,8.52,0,0,1,.75-2.59c-1.14.72-1.23,2.13-2.41,2.87-1.05-1.27,3.2-4.63,3.77-7.67-.66.36-1.19,1.6-1.62,2.49s-.83,1.39-1.1.32c.27,1.45-.54,2.4-1.51,3.43a9,9,0,0,0-2.51,4l-.6-.77a8.78,8.78,0,0,1-1.25,2.39l.2-2.16c-1,2.77-4,3.47-5.4,5.74,1.84-2,2.25-2.08,2.47-1.77s.27,1,1.28.33c-1.77,3-2.94,3.27-4.19,3.59s-2.6.64-5.12,3.46c.62-.82,3.12-2.34,2.31-.89a15.18,15.18,0,0,1-3.74,2.26c-3.39,3.7,1.23.15.13,2.08-2,.39-1.48,2-2.85,3.84l-.67-.7c-4.64,3.44.27,2.57-4.17,5.43l.79-2.45-1.83,2-.29-1.2c-1.7,2.53-2.51,3-5,4.53.95.11.8,1.6-1.19,3.22-1.73.63.23-1.3-2.58,1,.31-1,.54-2.11,2.31-2.39-.07-.35.26-1,.19-1.33a9.11,9.11,0,0,0-2.7,1.75c-.86.69-1.61,1.41-2.13,1.8a5,5,0,0,1,1.27-.66l-3.42,4.2c-.88.2-.52-.43-.17-1a23.7,23.7,0,0,1-2.38,2.45c-.12-.87-.66-1.48.93-3l-3.59,3.54c-.47-.09-2.63.67-2.26.07-2.56,1.08-4.82,5-8.32,6.33a3,3,0,0,1-.95,1.05c-1.51.83-3.08,1.37-4.62,2.1a18.05,18.05,0,0,0-4.64,3l-2.71-.16c-2.68,1.78,3.61.1-.88,3.07-3.19,2.1-1.81-.44-3.17-.2a23,23,0,0,1-2.8,2.73,9.41,9.41,0,0,1-4.54,1.91A20.64,20.64,0,0,1,285.23,240.3Zm-36.77,14.92c.68-.41,1.95-1.48,2.66-1.11C250.62,255.43,249.81,255.14,248.46,255.22Zm-28.33-13.79a3.25,3.25,0,0,1-.52,2.43A6.65,6.65,0,0,1,220.13,241.43ZM292.47,89.76a.25.25,0,0,0,0,.09C290.8,90.66,291.39,90.39,292.47,89.76Zm3.17-2c.21-.33.11-.42-.09-.44-.07.35-.72.86-1.5,1.4C294.42,88.81,294.88,88.62,295.64,87.8ZM376,175.48l-.61.46C376,174.43,376,175,376,175.48Z"/><path class="cls-2" d="M220.59,248.43a.86.86,0,0,1-.56.27C220.16,249,220.34,249.05,220.59,248.43Z"/><path class="cls-2" d="M306.66,228.27l.11-.05a.34.34,0,0,0,0-.22Z"/><path class="cls-2" d="M262.43,133.53a3.87,3.87,0,0,1-1.22.87C261.38,134.57,261.73,134.41,262.43,133.53Z"/><path class="cls-2" d="M310.84,75.25,309,76.75a5.33,5.33,0,0,1,2-.89C310.78,75.69,310.22,75.67,310.84,75.25Z"/><path class="cls-2" d="M331.48,70.26c.25-.27.63-.35.87-.61l-.28-.36C330.8,70,330.07,70.79,331.48,70.26Z"/><path class="cls-2" d="M314.39,76.79c.58.6,1.7-.39,3-1.37l-.24.15C317,74.35,315.68,75.58,314.39,76.79Z"/><path class="cls-2" d="M317.73,75.2a9.55,9.55,0,0,1,1.29-.8C319,73.91,318.44,74.64,317.73,75.2Z"/><path class="cls-2" d="M299.09,84.57c.75-.3-.21-1.13.34-1.13C299.53,82.08,295.94,87.58,299.09,84.57Z"/><polygon class="cls-2" points="316.92 78.39 315.9 77.83 315.54 78.99 316.92 78.39"/><path class="cls-2" d="M305.75,84.8l2.3-1.26c-.12-.11.09-.38.39-.68C307.1,83.75,305.53,84.59,305.75,84.8Z"/><path class="cls-2" d="M308.44,82.86a7.6,7.6,0,0,0,1.66-1.29A12.85,12.85,0,0,0,308.44,82.86Z"/><polygon class="cls-2" points="314.07 80.52 313.31 80.76 311.73 81.69 314.07 80.52"/><path class="cls-2" d="M283.72,102.11l-1.89,2.15c0,.45.74.07,1.42-.75C283.58,102.88,284.27,102.06,283.72,102.11Z"/><path class="cls-2" d="M292,98.52a2.57,2.57,0,0,1-1.44.23l.74,1Z"/><path class="cls-2" d="M286,104.14c0,.45-2.3,3.49.24,1C286.21,104.72,288.08,102.6,286,104.14Z"/><polygon class="cls-2" points="257.13 135.13 257.54 134.53 255.79 133.47 257.13 135.13"/><path class="cls-2" d="M243.47,170c1.78-2.8-.83-1.23,1-3.68-.11-.9-1.49,2-1.53,1.11C242.53,169.4,241.9,170.26,243.47,170Z"/><path class="cls-2" d="M242.92,167.39a9.81,9.81,0,0,0,.15-1A4.09,4.09,0,0,0,242.92,167.39Z"/><polygon class="cls-2" points="416.8 49.13 417.34 46.93 416.58 48.33 416.8 49.13"/><path class="cls-2" d="M415.48,44.82l1.31-.49c-.38-.47-.76-.91-1.15-1.41C415.7,43.48,415.79,44.44,415.48,44.82Z"/><path class="cls-2" d="M242.07,254.39l-.07.35c.41.23.89.12,1.86-.11Z"/><polygon class="cls-2" points="269.49 246.05 269.02 246.21 270.31 246.96 269.49 246.05"/><path class="cls-2" d="M290.72,234.81c-.9.39-1.81,1.14-2.71,1.53C289.82,235.2,291.62,236,290.72,234.81Z"/><path class="cls-4" d="M241.46,425l-10.77-.15a87.86,87.86,0,0,0-47.56,13.18L174,443.75c-59,36.59-135.08-6.47-134.07-75.87l.15-10.76a87.73,87.73,0,0,0-13.18-47.56l-5.68-9.15c-36.59-59,6.48-135.08,75.87-134.08l10.77.16A87.87,87.87,0,0,0,155.4,153.3l9.15-5.68c59-36.59,135.08,6.48,134.07,75.87l-.15,10.77a87.75,87.75,0,0,0,13.18,47.56l5.68,9.15C353.92,349.94,310.85,426.05,241.46,425Z"/><path class="cls-2" d="M242.67,429.89c-1.62,0-1,.78-1.29.94C244.1,430.59,242.59,429.67,242.67,429.89Z"/><polygon class="cls-2" points="268.48 424.37 268.13 424.84 271.57 422.9 268.48 424.37"/><path class="cls-2" d="M290.76,414.41a6.24,6.24,0,0,0-2.36.78,30.36,30.36,0,0,0-2.93,1.73l-1.58,1-1.67.92a23.34,23.34,0,0,1-3.26,1.46c-.27,0-.52,0-.78,0l-1.4,1.78,1.89-.83,1.9-1c1.28-.71,2.59-1.39,3.82-2.12C286.8,416.58,289.12,415.32,290.76,414.41Z"/><path class="cls-2" d="M303.27,409.05c-1,.12,1.92-2.24-2.51,1.9.28-.14.36-.18.53-.25C301.7,410.34,302.27,409.85,303.27,409.05Z"/><path class="cls-2" d="M301.29,410.7c-1,.85-.62.66-.15.37S302.1,410.31,301.29,410.7Z"/><path class="cls-2" d="M310.11,402.16c-.67,1-1.42,1.87-2.14,2.81.76-.27,3.07-2.41,2.4-1.43C312.64,400.69,311.87,401,310.11,402.16Z"/><path class="cls-2" d="M311.56,399l-1.05,1.47C310.82,400.34,311.18,400,311.56,399Z"/><path class="cls-2" d="M308.18,403.54c.41-.5.82-1,1.21-1.5l1.12-1.56c-.51.22-.88-.07-1.06,1.41-.05-.27-.13-.19-.3.13S308.66,402.86,308.18,403.54Z"/><path class="cls-2" d="M306.48,404.89c-1.61,1.15-3.59,2.65-1.39-.05l-.79.83-.7.67c-.42.42-.74.77-1,1.05-.48.57-.61.86-.44.88a3.67,3.67,0,0,0,1.41-.79c.37-.28.81-.62,1.31-1S305.9,405.48,306.48,404.89Z"/><path class="cls-2" d="M291,412.49l-2.33,1c-.51.54-1.08,1-1.63,1.49C287.92,414.32,291.37,412.78,291,412.49Z"/><path class="cls-2" d="M323.83,385.21c-.15-.34-1.31.59-1.77.61L321,388.2C321.88,387.18,323.35,385.13,323.83,385.21Z"/><path class="cls-2" d="M322.06,385.82c.5-1.2,1.06-2.35,1.5-3.56C321.81,385.18,321.64,385.82,322.06,385.82Z"/><path class="cls-2" d="M310.78,397.51c-1.13,1.74-2.17,3.6-3.45,5.27l1.13-1.5,1.05-1.56,2.06-3.1Z"/><path class="cls-2" d="M330.42,371.91c0,.78-.11,1.54-.2,2.31.24-1.33.33-2.71.47-4.06Z"/><path class="cls-2" d="M333.46,362.54c.09,1.73,1.6-1.9,1.44-.14a31.62,31.62,0,0,0,.64-7.12,22.57,22.57,0,0,1-.66,3.4A20.2,20.2,0,0,1,333.46,362.54Z"/><path class="cls-2" d="M335.46,351.75c0,1.1,0,2.25.08,3.53A21.91,21.91,0,0,0,335.46,351.75Z"/><path class="cls-2" d="M326.66,376.53a5.57,5.57,0,0,0,2-2.4l-1.4,1C327.09,375.58,326.87,376.05,326.66,376.53Z"/><path class="cls-2" d="M327.24,375.2l0,0,1.37-3Z"/><path class="cls-2" d="M326.5,376.88l.16-.35C326.52,376.63,326.46,376.69,326.5,376.88Z"/><path class="cls-2" d="M317.49,390.23a37,37,0,0,0,1.46-3.47c.11-.44.11-.72-.11-.67s-.62.44-1.42,1.23C317,389,318.81,387.08,317.49,390.23Z"/><path class="cls-2" d="M324.72,378.08l-2,3.46c.23,0,.86-.45.55.65Z"/><path class="cls-2" d="M325.34,376.19c-.18.64-.39,1.27-.62,1.89.25-.44.52-.86.73-1.3Z"/><path class="cls-2" d="M333.3,358.48c0-1.8.48-3.67.73-5.83-.48,2.28-1.19,4.57-1.69,6.79C332.53,359.82,332.76,360.92,333.3,358.48Z"/><path class="cls-2" d="M330.71,366.74a2.57,2.57,0,0,0,.08-.38C330.66,366.57,330.56,366.74,330.71,366.74Z"/><path class="cls-2" d="M335.22,331.37l-.14.35a1.09,1.09,0,0,1,.15.08Z"/><path class="cls-2" d="M332.09,359.78a11.75,11.75,0,0,0-.73,3.71c.28-1.27.69-2.59,1-4.05C332.25,359.27,332.18,359.23,332.09,359.78Z"/><path class="cls-2" d="M335.82,345.72c-.27.9-.52,1.92-.77,3C335.41,347.85,336,346.07,335.82,345.72Z"/><path class="cls-2" d="M331.19,365.87l0,.26C331.49,365.64,331.38,365.68,331.19,365.87Z"/><path class="cls-2" d="M331.19,365.87a19.27,19.27,0,0,0,.17-2.38c-.24,1-.44,2-.57,2.87A2.57,2.57,0,0,1,331.19,365.87Z"/><path class="cls-2" d="M329.16,325.66c.4.09.9,1.2,1.24,2.77a18.11,18.11,0,0,1,.36,2.64,15.66,15.66,0,0,1-.26,2.88c.73,3.67,3.25,1.29,4.58-2.23-.36-.09-.59-.1-1.49-4a17.52,17.52,0,0,0-.15,1.92l-.07,1.31-.16,1.29c-.23,1.61-.52,2.61-.94,1a22.68,22.68,0,0,1-.26-4.34,16.72,16.72,0,0,0,.41-2.44c-.4,1.13-.84-.48-1.56-2.14s-1.49-3.41-2.11-2.73c.4,1.41.87,2.83,1.22,4.27C329.78,326,329.2,324.43,329.16,325.66Z"/><path class="cls-2" d="M335.11,339.36l0,1.66a21.86,21.86,0,0,1,.44-2.63c.1-.44.22-.9.36-1.41l.35-1.69c-.48-2.77-.8-3.32-1.07-3.49.06,2.71.18,5.42,0,8.13Z"/><path class="cls-2" d="M334.56,348.4c-.73-1.4-.71-5.3-1.87-3-.4,4.71.36,3.38.29,6.26,1-7.67.16,2.28,1.48-3.2a41,41,0,0,1-.43,4.2c.32-1.37.7-2.69,1-3.95l-.07.18v0h0c-.14.32-.23.42-.12,0v-.17a1,1,0,0,1-.29-.39c.41-2.23.26-.33.29.39,0,0,.07.1.12.12a0,0,0,0,0,0,0l.16-3.94.07-2-.06-2C335,342.67,334.85,344.73,334.56,348.4Z"/><path class="cls-2" d="M318,382.93c.19-.16.23-.12.3-.1C318.46,382.36,318.49,382.17,318,382.93Z"/><path class="cls-2" d="M320,380.55a5.79,5.79,0,0,1-1.1,2.58c-1,1.18-.35-.23-.63-.3-.36,1-1.43,3.53.68.87l.18-.52c.46-.61,1-1.24,1.52-1.85s1-1.22,1.44-1.72c.88-1,1.55-1.63,1.48-1.36A10.74,10.74,0,0,0,320,380.55Z"/><path class="cls-2" d="M328.64,365.08l.72-3.11c.24-1,.49-2.06.63-3.11-.46,1-1,1.95-1.57,2.9l.48,0C327.7,365.11,328.45,364.54,328.64,365.08Z"/><path class="cls-2" d="M335.61,330.6c.34.26.64.53,1,.81-.47-1.25-1.09-2.47-1.63-3.68Z"/><polygon class="cls-2" points="334.46 322.15 335.29 322.33 334.43 320.19 334.46 322.15"/><path class="cls-2" d="M26.32,208.63l-.71,1.59A15.47,15.47,0,0,0,26.32,208.63Z"/><path class="cls-2" d="M33.94,198.79l-.08-.49C33.63,198.87,33.59,199.15,33.94,198.79Z"/><path class="cls-2" d="M258.74,142.82c-2-2.14-4.3-4.54-4.4-3.61l.36,1.16A14.54,14.54,0,0,1,258.74,142.82Z"/><path class="cls-2" d="M129.65,164.26l.82.06,1.52-1.25Z"/><path class="cls-2" d="M128.59,168.18c-1.22.09-2.45.12-3.67.15A21.21,21.21,0,0,0,128.59,168.18Z"/><path class="cls-2" d="M15.94,273.56l1.32,1.69C16.53,272.28,16.41,273.69,15.94,273.56Z"/><path class="cls-2" d="M303.93,246.45c.07-2.19.05-3.9,0-5.4C303.59,243.66,303.14,245.86,303.93,246.45Z"/><path class="cls-2" d="M21.72,199.14c-.54,1.05-.68,1.56-.51,1.64C21.78,199.72,22,199.06,21.72,199.14Z"/><path class="cls-2" d="M303.74,234.84c-.09.38-.13.75-.2,1.14l.22,2.4c.09.83.11,1.71.17,2.67A15.94,15.94,0,0,0,303.74,234.84Z"/><path class="cls-2" d="M148.45,449.44c.18,0,.39,0,.56,0S148.79,449.33,148.45,449.44Z"/><path class="cls-2" d="M219.82,429.25l-2.95.46A26.63,26.63,0,0,0,219.82,429.25Z"/><path class="cls-2" d="M323.06,290c.95,1.54.22.2,0,0Z"/><path class="cls-2" d="M324.08,299.24c-.25-.29-.49-.49-.69-.44A1.16,1.16,0,0,1,324.08,299.24Z"/><path class="cls-2" d="M298.38,217.81v-.15C298.22,218.18,298.25,218.09,298.38,217.81Z"/><path class="cls-2" d="M324.07,292.56c-.25-.64-.56-1.36-.93-2.13C323.27,290.79,323.55,291.44,324.07,292.56Z"/><path class="cls-2" d="M324.24,292l.71,1.41C325.2,293.58,325.17,293.36,324.24,292Z"/><path class="cls-2" d="M321.76,287.87a28.14,28.14,0,0,1,1.38,2.56c-.12-.34-.15-.49-.08-.42Z"/><path class="cls-2" d="M44.8,388.87c0,.11,0,.24,0,.36C45.53,390.77,45.31,390.07,44.8,388.87Z"/><path class="cls-2" d="M214,138.42a1.08,1.08,0,0,0,.19,0l-.24,0Z"/><path class="cls-2" d="M208.13,139.05a8.13,8.13,0,0,1,5.77-.7c-.61-.85-1.24-1.71-1.89-2.56C210.67,136.78,209.37,137.93,208.13,139.05Z"/><path class="cls-2" d="M15,236l.84-1.88.41-.93.48-.91c-.08,1.24-.06,2.4-.14,3.35s-.12,1.73-.16,2.23c-.05,1,.13,1,1.09-.71-.63-.28-.74-1.36-.6-2.86a35.21,35.21,0,0,1,1.25-5.24c.55-1.86,1.27-3.67,1.58-5.15s.52-2.55-.06-3l1.61-2.21c-.34.69-.24.87-.58,1.55,1.61-2.11,1.68-3.12,1.67-4.44a8.39,8.39,0,0,1,1.92-5.69c1.38-1.94,2.68-3,2-1.55l2.45-4.69c1-1.16,1.11-.6.17.59.75-1.11,1.59-2.14,2.38-3.22l1.21-1.59,1.31-1.52,0,.1a28,28,0,0,1,2.47-4.59c1.75-1.16-.54.92.08.79.92-1.18,1.82-2.4,2.77-3.59.94-.32.78.22.17,1.14a18.4,18.4,0,0,1-2.86,3.24c2.45-.48,3-1.21,3.83-2.49a14.76,14.76,0,0,1,2-2.21A20.63,20.63,0,0,1,44,189.2a18.2,18.2,0,0,1,2.56-1.46L45,189.11c-.52.45-1,1-1.48,1.45a8.89,8.89,0,0,0,2.13-.71,15.74,15.74,0,0,0,2.14-1.12c.73-.43,1.49-.93,2.35-1.4A31.47,31.47,0,0,1,53.05,186c-.29,0-1,.24-1.84.48s-1.85.5-2.66.74c-1.64.44-2.75.46-1-1.25.3-.16.62-.34,1-.56s.72-.41,1.1-.67a17,17,0,0,0,2.58-2.15c.5.76,2.57-.66,5.3-2.23l.41,1.24c.68-.51,1.19-.85,1.57-1.16a6.78,6.78,0,0,0,.85-.83A10.92,10.92,0,0,1,61.78,178c.44-.19.84-.35,1.2-.47s.72-.18,1-.24a6.89,6.89,0,0,1,1.56-.1,5.55,5.55,0,0,1,2,.58c1.4-.51,1.85-.69,1.81-.83s-.58-.22-1.07-.26-1-.13-.9-.36.65-.69,2.37-1.25c1.24-.25,2.38-.54,3.47-.87s2.17-.56,3.26-.91,2.19-.79,3.42-1.11l4-1.18c3.6,0-.51.84.8,1,1-.47,2-.87,3-1.32.78,0,.55.29.44.46,1.31-.31,1.34-.64,1.57-1s.64-.74,2.77-.93c.56-.7,2.74-.28,5.49.22s6.1,1.05,8.83.29c1.34.38-.66.78-.25,1.28l4.39-.58c1.09-.18,1.88-.32,2.62-.47s1.43-.33,2.32-.59,2-.58,3.52-1.12c.91.05,1.81.06,2.72.06s1.83,0,2.74,0c-4.08-.32.79-2.14,4.73-4.07-1.44-.15-2.65-.3-3.44-.33l3.23-1.07c1.06-.4,2.13-.76,3.18-1.19.83,0,.32.6-.63,1.4a11.84,11.84,0,0,0,1.12-.63c2.47-.24,1.49.82,0,2-.88,0-1.76-.08-2.61-.14-1.46,1.18-2.88,2.33-2.36,3a11.87,11.87,0,0,1,2.18-.84c-.39.31-.64.55-.4.63s.92-.38,2-1l1.94,1,.22-.66c3.08-.55,6.12-1.3,9.16-2.16a95.19,95.19,0,0,0,8.08-6.38c2.81-2.33,5.75-5.06,9.92-8-1.59,2.22.44,1.73,1,2.86-1.53.17-3.13,1.33-4.93,2.77-.92.71-1.93,1.51-3,2.28a22.7,22.7,0,0,1-3.51,2c2.61-1.19,2.32-.42,1.78.13q2-1.42,4-2.95c1.32-1,2.49-2,3.74-3,.35,1,2.1-.41,4.41-1.35-1.32-.35,0-1.6,2-3l6.21-4c.52.55,0,1.38-4,3.53a7.08,7.08,0,0,0,2.88-1.33,12.39,12.39,0,0,0,1.91-1.76,13.16,13.16,0,0,1,1.91-1.8,6.25,6.25,0,0,1,1.28-.71,7.67,7.67,0,0,1,1.68-.4c-1,.44-1.63.54-1.88,1.05a19.76,19.76,0,0,1,4.77-2.16,6.93,6.93,0,0,1,2-.43c.44,0,.59.08.29.33l-1,.35c1.76-.48,3.94-1.23,6.28-1.89s4.84-1.35,7.19-1.79c1.17-.26,2.28-.55,3.32-.8s2-.41,2.81-.62c1.64-.43,2.76-.91,3-1.31a7.67,7.67,0,0,1-1.23,2.51c1-.63,2.09-1.08,3.16-1.61l3.28-1.55,3.39-1.33c1.14-.42,2.31-.93,3.49-1.25-.65.67.11,2,.21,3.15a1.68,1.68,0,0,1-.53,1.56A2.91,2.91,0,0,1,216,138a8.5,8.5,0,0,1-1.82.37,35.85,35.85,0,0,0,7.46.55c-1.12-.34-2.71-2.39-1-2.37,1.08.5,1.78.89,2.34,1.17a14.16,14.16,0,0,0,1.38.6l1.57.6c.34.13.73.28,1.2.49l1.61.81c-1.66-.71.73-2.5,3.54-1.77-.52.23-.34,2.24-1.39,2.24,1.22-.13,2.43-.15,3.66-.16s2.47-.05,3.72,0c-1.83-.13-.87,1.67.35,2.84-.27-.33,1.13.2,2.83.87.85.31,1.74.75,2.54,1.12a20.55,20.55,0,0,0,1.94.8l-2.48-1.68a17.45,17.45,0,0,0,4.41,1.59,19.1,19.1,0,0,0,3.32.52,14.48,14.48,0,0,1,7.69,2.64A2,2,0,0,0,257,150c-.35.61-.13,1.47,1.4,2.75.54,0,1.41,0,2.55.11.56,0,1.2.09,1.87.17s1.37.23,2.12.39a26.3,26.3,0,0,1,4.77,1.46,24.35,24.35,0,0,1,4.75,2.71l.53,1.48c1.47,1.2,3,2.32,4.42,3.64-.45-.19-1-.44-1.59-.73l-2.06-.9-2.33-1c-.79-.38-1.63-.75-2.51-1.08-1.75-.68-3.44-1.44-5.09-2s-3.16-1.16-4.35-1.66c2,2.24.16,1.12,3.6,3.8.36.76-.2.5-1.05,0a22.86,22.86,0,0,1-2.4-1.57,82.74,82.74,0,0,1,7.23,6.9c.32-.64,1.89.5,3.48,1.69s3,2.57,3.3,2.06l-2.06-1.89c-.69-.63-1.45-1.18-2.17-1.77l-2.17-1.74c-.73-.56-1.51-1.07-2.26-1.61.15-.32.67-.39,1.47-.23a10,10,0,0,1,3,1.24,25.66,25.66,0,0,1,3.82,2.66,31.22,31.22,0,0,1,3.7,4c.35.93-.34,1-1.13.92s-1.76-.29-1.88-.1a12.55,12.55,0,0,1,2.81,2.72c.55.64,1.08,1.29,1.48,1.82a4.26,4.26,0,0,1,.64,1.18,31.18,31.18,0,0,0-2.36-2.09,21.39,21.39,0,0,0,3.47,4.15,10.41,10.41,0,0,1,3,5.22,7.3,7.3,0,0,1,.46,1.43c.11.56.17,1.17.25,1.73.16,1.1.35,2,.77,2,.26-3.06,4.23-5.78,6.11-4.49l.49,1.73.43,1.55c.15.57.26,1.2.39,1.83.24,1.26.48,2.56.66,3.67a12.92,12.92,0,0,1,.17,2.61c-.14,1.57-1.15.73-2.14-.11s-2.05-1.67-2.1-.4c.39,0,1.26,1.29,1.59,1.87.23,1.79-1.3-.36,0,3.25,1.52.25,1.69,7.67,1.56,1.48a17.45,17.45,0,0,1,.93,3.89c.13,1.09.11,2.29.51,4.48.33-.77,1.23.1,2.18,1.68a23.26,23.26,0,0,1,2,5.87c-.36-.21-.75.7-1,1.13,0,2,0,3.77-.06,5.4s-.21,3.17-.31,4.67c-.2,3-.45,5.92-.41,9.7-.31.7-.55,4.38-1.21,2.86a18.57,18.57,0,0,1,1.1,4.38c-.34,2.31-.53,1-.76-.41s-.42-3-1-1.22c.39.12.82,1.62,1.27,3.49s1,4.08,1.59,5.67c.51-.62.2-2.5-.25-4.66l-1.41-6.26c1.72-.11,3.66,5.49,6.09,12.69,1.82,5.74-.43,2.81.05,3.77a21.45,21.45,0,0,0,4.39,9.34,22.56,22.56,0,0,1,4.14,7.71c.84,3.76-1.8,1.16-2.09,2.25-2.74-4.26-2.78-7.21-4.07-10.31.34,1.36.72,2.7,1.13,4.05A19.41,19.41,0,0,1,304.9,268a15.41,15.41,0,0,1-1.14-3.29c.09,1.66,1.74,6.34,4.33,11.38,1.29,2.51,2.8,5.13,4.27,7.57s2.78,4.83,3.77,6.86c1.16,1.15,2.81,3.37,2.54,2-.52-.8-1-1.61-1.56-2.38-.33-1.33.65-.38,1.47.56s1.53,1.81.79.11c1.21,1.54,2.65,3.11,3.92,5,.61,1,1.22,2,1.79,3.13q.44.83.84,1.74a19.62,19.62,0,0,1,.66,1.92l-.75,1.43a4.11,4.11,0,0,0-.34-2.06,8.81,8.81,0,0,0-1.39-2.78,7.26,7.26,0,0,1,1,2.09c.26.91.49,2,.75,3a20.3,20.3,0,0,0,.94,2.94,4.88,4.88,0,0,0,1.32,2.12c-.12-1.31-.24-2.63-.49-3.92l.81,1.32.78,1.43c.52,1,1.07,2,1.6,3.08a19.64,19.64,0,0,1,1.35,3.39,27.69,27.69,0,0,1,.88,3.62c.63-2.48-.41-1.06.11-4.89-.24.87-.55.51-.89-.41s-.84-2.39-1.27-3.82c-.84-2.86-1.92-5.36-1.87-2.75a14.14,14.14,0,0,0-.84-5.17c-.13-.41-.27-.84-.4-1.27s-.32-.87-.48-1.35a24.58,24.58,0,0,1-.8-3.23c-.31.33.09,1.85-1.66-2a6.5,6.5,0,0,1-.77-.63l-.11-.26.07.22c-.14-.13-.16-.13,0,.09a5.22,5.22,0,0,1,.48,2.16c-1.78-1.42-5.07-7.13-6.62-8.61-1.08-2.11.92.6.6-.73l-2.3-2.34c.6-.75-2.05-6.14,1.34-1.67-.88-1.44-1.76-2.88-2.52-4.21a51.16,51.16,0,0,0-3.83-8.09c-.75-2.08-3.08-4.82-1.72-3.27-1.06-2.23-2.09-4.5-3-6.84l.2-.13c-1-3.53-2.2-7.13-3-11a31.78,31.78,0,0,1-.32-12.17c-.06-.62-.13-1.23-.17-1.91s-.09-1.41-.11-2.18a54.62,54.62,0,0,1,.14-5.51l.79-.85c-.08-1.62,0-4.34.12-6.76a19.61,19.61,0,0,0-.07-3.31,5.2,5.2,0,0,0-.49-2,6.87,6.87,0,0,0,.45-1.92,11.82,11.82,0,0,0,0-2.61c-.08-1-.21-2-.37-3.09a28.12,28.12,0,0,0-.65-3.37l-.9-3.43-.46-1.69c-.17-.55-.37-1.09-.55-1.62-.74-2.1-1.3-4.07-1.8-5.57l-1,.12A56.17,56.17,0,0,0,292.21,178l-.63.71a22.57,22.57,0,0,1-2.05-3.27c-.74-1.21-1.49-2.55-2.28-4s-1.71-2.87-2.66-4.36c-.49-.73-1-1.49-1.51-2.2s-1.14-1.4-1.73-2.08a7,7,0,0,1,2.35,2.76,24.58,24.58,0,0,0-3.78-5.5,53.75,53.75,0,0,0-5-4.51c-3.57-2.74-7.19-5.1-9.94-8a14.71,14.71,0,0,1-3.89-2.7l.44.22a7.45,7.45,0,0,0-.68-.44c-.65-.57-1.31-1.19-2.07-1.82a16.31,16.31,0,0,0,1.71,1.6c-.65-.38-1.48-.85-2.4-1.34a28,28,0,0,0-3-1.42l-.39-1.29-.47-.21c-1.8-1.35-1.78-.42-1.08.76a18.46,18.46,0,0,0-2.86-.82c-.47-1.07-1.87-1.55-3.32-2.07s-3-1-3.84-2.19c-.85.11-3.51-.78-6.24-1.25s-5.43-.8-6.18-.11c0-.23-.63-.48.53-.23-1.17-.36-2.34-.76-3.51-1a16.31,16.31,0,0,0-3.45-.27l-.85-1.38c-.92.1-1.85.31-2.77.49l-2.73.56a13.56,13.56,0,0,1-3-1.19c-.32-.32.16-.67,1.82-1.06-2,.27-3.38.46-4.45.56s-1.83.14-2.55.25a33.45,33.45,0,0,0-6,1.26l.26-.82c-2.38.28-6,1.67-7.47,1.35a22.53,22.53,0,0,0-6.56.62l-2.27.49-1.2.27c-.41.11-.81.25-1.23.37-1.65.52-3.43,1-5.23,1.67l-5.48,2.15-5.45,2.53c-3.54,1.81-7,3.64-10,5.08,3.41.63-5.76,2.35-5.25,4.16-.94-.07-2.59.54-1.1-.9a32.79,32.79,0,0,1-6.78,3.7,19.47,19.47,0,0,0-5.44,3.21c-.88-.23,1-1.28.23-1.33-.41.32-1.69,1.22-2.43,1.13s.71-.74,1.54-1.35c-3,1.24-4.51,2.19-5.3,3.12a3.56,3.56,0,0,0-.84,2.62c-3.47.26-5,.7-7.23,2.25a4.59,4.59,0,0,1-1.61-.45c-.17-.22.35-.44,2.33-1-1.13.25-4.64.71-7.89,1.1-.81.08-1.61.17-2.34.28s-1.43.16-2,.27c-1.16.21-1.94.42-2,.74a5.71,5.71,0,0,0-2-.07,13.47,13.47,0,0,0-1.89.22c-5.31-.11-5.84-.27-11.13-.21l1.47.23c-2.09,1.47-4.44.35-8.81.62l.11-.16c-5-.13-6.13.09-7.16.35a12.69,12.69,0,0,1-2,.39c-.5.06-1.13.12-2,.17s-1.83.07-3.07.23l.72.81c-.24,1.12-2.39,1.31-5.22,1.5-2.76.38-6.28.69-8.8,2.19l2.13-.24c-1.33.92-3.62,1-6,1.11s-4.81.26-6.3.91c-.36.09-.14-.11.26-.4s1-.63,1.44-.91l-1.37.44c-.39.15-.73.3-1,.43a8.09,8.09,0,0,0-1.21.64c-.5.36-.46.57-.34.79.24.44.8.92-1.86,2.56-1.34,0,.39-2.3-3.29-.09a10.17,10.17,0,0,0-2.42,1.67c-1,.89-2.21,2.13-3.5,3.36s-2.59,2.62-3.92,3.83c-.66.62-1.35,1.17-2,1.7A15.58,15.58,0,0,1,32,187.22c1.29-.52,2.53-1,.73,1.3-.75.82-1.81,1.6-2.84,2.54L26.57,194a25.72,25.72,0,0,0-2.89,3.19A8.11,8.11,0,0,0,22,200.36c-.44.38-.68.48-.8.42-1.74,2.95-5.37,9.69-5.41,11.93-1.09.31-2.22,1.66-3.09,3.6-.46,1-.9,2-1.32,3.17s-.7,2.35-1,3.52c-.7,2.33-1.09,4.64-1.61,6.26a8.16,8.16,0,0,1-.82,1.9c-.27.43-.58.63-.95.53l-1.1,5.12L5.11,242l-.26-.31a34,34,0,0,0-.47,4.26,19.41,19.41,0,0,0,0,3.07,22.83,22.83,0,0,0,.85,4.09c-.25,1.53-.5.41-.66.28-.29,4.87-.25,7.59.2,10a24.81,24.81,0,0,0,.87,3.75c.45,1.34,1,2.85,1.73,4.76-.28.35-.55.69-.8,1a14.08,14.08,0,0,1,.8,3.19c.14.78.29,1.66.46,2.62s.47,2,.73,3.06.53,2.24.9,3.38.82,2.32,1.27,3.49a34.22,34.22,0,0,0,3.42,6.62c-.14,0-.4-.13-.86-.75.36.57.71,1.17,1,1.79s.74,1.21,1.1,1.84c.73,1.26,1.43,2.57,2.12,3.9,1.38,2.57,2.68,5.13,3.93,7.53s2.4,4.43,3.46,6.07,2.12,2.79,3.36,3.21c.61.92,1.19,1.87,1.79,2.81l1.68,2.89c-1.5-4-1.07-3.89-.28-3.18s1.83,2,1.41.25a16.32,16.32,0,0,1,1.45,5.05c.1,1.31-.14,1.7-.92-.24l-.07-.68c-.57-.2-.66.35-.5,1.28s.53,2.25.9,3.62c.76,2.73,1.43,5.64.78,5.67a72.19,72.19,0,0,1,1.85,12.32,103.32,103.32,0,0,1-.09,12.43c-.1,2.11-.19,4.21-.29,6.31s-.05,4.34-.06,6.51.26,4.32.4,6.47.6,4.25.91,6.36l1.13-2.18c.15,1,.26,1.94.44,2.9l.63,2.87c0,1.57-.64,2.3-1.54-1.84A8.92,8.92,0,0,0,39,392.79a7,7,0,0,0,1.68,2.44c.93,4,.29,3.4-.5,2s-1.74-3.45-1.38-2.21l1.13,3.29-.06-.8c1.36,2.52,2.13,2.49,3.87,7.24,1,3-.14,1.86.34,3-.1,0,0,.45.79,1.79A35,35,0,0,0,46.55,413l1.77,3.33-.45-3.19c2,2.64,3.57,6,2.82,2.44a11.18,11.18,0,0,0,.9,2.53c.23.5.5,1,.79,1.62a17.32,17.32,0,0,0,1,1.77c.79,1.2,1.68,2.49,2.62,3.82s2.1,2.56,3.18,3.84l.81.94.86.89,1.68,1.72,1.6,1.62,1.54,1.4c1,.88,1.83,1.66,2.5,2.31s1.2,1.07,1.45,1.38c1,.56,2,1.15,3,1.78s2,1.2,3,1.87,2,1.37,3.1,2l3.4,2.13c-.54-.47-.81-1.09-.45-1.26.18-.09.51-.06,1.05.14a25.69,25.69,0,0,1,2.32,1.18c-1.42.76.39,2,2.9,3.58,2.59,1.39,5.85,3,7.4,4.53-.72-.61-.25-.63.77-.37s2.6.83,4.17,1.18c3.12.81,6,1.41,3.61-.23,1.89.67,1.91.85,1.77,1.15s-.4.58,1,1.24c1.21.15,2.44.36,3.69.57s2.54.35,3.84.57l2,.34,2,.25c1.36.17,2.73.4,4.14.55a69.63,69.63,0,0,0,17.58-.22c.13-.39-1.91-.66.55-1.52,2.13.21,4.33.49,6.54.6A6.41,6.41,0,0,0,149.3,458a3.83,3.83,0,0,1,1.36-.63,13,13,0,0,1,2.53-.27c-.67-.1-1.65-.25-.18-.84,1.41-.34,2.83-.71,4.25-1.09s2.78-.94,4.18-1.42a75.21,75.21,0,0,0,8.13-3.59c1.31-.69,2.58-1.47,3.87-2.21s2.58-1.51,3.77-2.3l7.28-4.68a68.88,68.88,0,0,1,15-7.35,53.74,53.74,0,0,1,16.25-2.95c-3-.12-1.11-.6,1.13-1-1.48.05-.1-.87-.46-1.3a82.41,82.41,0,0,1,9.32.41,4.53,4.53,0,0,1,2.24-.67c1-.08,2.21-.12,3.46-.1,2.48,0,4.86.05,5.37-.58l-3,.19c4.05-1.44-5.57-3.41-5-5.28-2.31.85-5.34.36-8.84.19s-7.43,0-10.88,2.06c-1.74,0,1.27-.91.29-1.15-1.73,1.23-3.94,1.93-8.19,2.91l.4-.35c-5.78,2-9.84,3.65-14,5.52-1.05.46-2.09,1-3.18,1.49s-2.18,1.13-3.35,1.73c-2.22,1.21-4.68,2.56-7.58,4.2l1.34.28a22.18,22.18,0,0,1-2.67,1.32l-1.71.55c-1,1.39.67.49,2.42-.51s3.54-2.09,2.69-.63a6.89,6.89,0,0,0-2,.55c-.77.33-1.63.73-2.54,1.17-1.84.86-3.85,2.16-6,3.1l-3.11,1.45a28.64,28.64,0,0,1-2.91,1c-1.8.53-3.21.85-4,.48-4,1.27,1.52.66-2.47,1.94l-1.23-.23-.8,1.06c-2.72.55-4.24.15-4.44-.31.65-.1,1.78-.59,2.46-.79a47.78,47.78,0,0,0-6.31,1.21l-2.86.68a7.46,7.46,0,0,1-1.74.2c1.34,0,2.66-.12,4-.22a66.5,66.5,0,0,1-18.15,1.3,170,170,0,0,1-17.92-2.22l.69.68c-2.09-.42-3.55-.78-4.69-1.13a17.78,17.78,0,0,1-2.75-1.16c-.82-.4-1.65-.82-2.84-1.32s-2.65-1.26-4.82-2.13l.35.05a17.84,17.84,0,0,1-3.08-1c-.54-.23-1.11-.49-1.67-.76l-.85-.42-.82-.51c2.27.77-3.26-3.18-.33-2.07l-2.57-1.22c-.69-.34-1.2-.64-1.63-.85a8.55,8.55,0,0,0-1.69-.72c-.39-.1-.71-.13-1.31-.27a15.07,15.07,0,0,1-2.92-1.05L73.88,435c-2.08-.77-2.42-.64-6.08-3.7,3.31,2.14-1.44-2.83,2.33-.55-.39-.48-.77-.94-1.14-1.37s-.7-.88-1-1.29c-.7-.82-1.38-1.54-2-2.2-1.33-1.33-2.46-2.52-3.56-3.53a16.84,16.84,0,0,1-2.66-3A6.9,6.9,0,0,1,58.36,416c-1-.64-1.32-.5-1.2.08a4.93,4.93,0,0,0,.45,1.13,16.16,16.16,0,0,0,.9,1.4c1.35,2,3,4,2.08,3.12.4,1-.49.56-1.66-.57A19.18,19.18,0,0,1,55.5,417c-1.68-2.76-.88-5.86-4.2-12.85.32.71.49.69.8,1.39a19.93,19.93,0,0,0-1.86-4,14.46,14.46,0,0,1-1.58-4.62c-1.77-1.53-1.3-4.45-3-4.58l1.24,3.42c.21.56.41,1.13.63,1.7l.74,1.65c-1-1.81-2-3.57-3.13-5.7a16.44,16.44,0,0,1-1.37-3.61c-.18-.67-.35-1.39-.49-2.15-.07-.38-.14-.77-.2-1.17s-.05-.83-.07-1.27a11.34,11.34,0,0,1,.81,1.54c.34.69.7,1.49,1,2.14a9.77,9.77,0,0,0-.58-2.86,9.42,9.42,0,0,1-.38-2.94c.41.08.73.66,1,1.54.14.44.24,1,.38,1.53s.32,1.17.48,1.82c.34,1.28.63,2.69,1.08,4a18.28,18.28,0,0,0,1.62,3.46c0-1.11-.89-2.95-1.44-4.38s-.74-2.38.34-1.53a5.49,5.49,0,0,1-1.47-2.32,10.31,10.31,0,0,1-.38-1.43c-.08-.51-.13-1-.18-1.59a34.61,34.61,0,0,0-.45-3.44,17.43,17.43,0,0,0-1-3.73l1,.26-.51-1.75a8.44,8.44,0,0,1-.37-2.3c.4.91.94,1.8,1.42,2.69-.79-2.06-.48-4.15-.26-6.16a27.13,27.13,0,0,0,.38-6.29c-.06,4.51-.34,5-.71,4.83s-.86-.91-1.17.91a24,24,0,0,1-.25-3.43,14.9,14.9,0,0,1,.14-2.39,10.84,10.84,0,0,1,.9-3,13.76,13.76,0,0,0,1.06-3.27,21.72,21.72,0,0,0,.29-2.87,35.85,35.85,0,0,0-.16-4.17,15.07,15.07,0,0,1-.13,3.69c-.2,1.11-.49,1.63-.71.25a69.29,69.29,0,0,1,.61-7.4c-.57-4.35-.86-4-1-3s-.34,2.59-.83.8c.74-3.08-1-4.16-2.17-7.72l.94-.23a17.35,17.35,0,0,0-1.15-4.55,2.18,2.18,0,0,0-1-1.18,2.08,2.08,0,0,1-.93-1A21.5,21.5,0,0,1,38,325.86c.8,1,1.66,2,2.42,3.12-.55-1.45-1.17-2.86-1.78-4.27.46.17.91.35,1.35.53-1.23-2.25-2-3.73-2.62-5.23-.31-.76-.62-1.52-1-2.37s-.68-1.83-1.19-3c0,.66-.51.71-1.21.11a7.92,7.92,0,0,1-1.2-1.36,21.09,21.09,0,0,1-1.49-2.32c-1-2.81,1.65.93-1.6-4.21a8.2,8.2,0,0,1,1.86,1.54,6,6,0,0,1,1.36,3c.41.09,1.2.92,1.61,1a21.4,21.4,0,0,0-2.47-5c-1-1.63-2-2.91-2.57-3.84a13.91,13.91,0,0,1,1,2.08l-5.64-6.55c-.4-1.33.41-.58,1.21.17a50.36,50.36,0,0,1-3.22-4.24c1,.16,1.61-.38,3.63,2.37l-2.28-3.09A38.08,38.08,0,0,1,22,291.23c.08-.62-.87-3.93-.17-3.16a14,14,0,0,0-.66-1.52c-.23-.53-.48-1.07-.76-1.63-.57-1.11-1.24-2.27-1.92-3.49-1.15-2.5-2.5-5.19-2.79-8a6.71,6.71,0,0,1-.89-1.92,37,37,0,0,1-.48-3.86c-.12-1.27-.27-2.53-.3-3.84s-.18-2.62-.38-4a33.9,33.9,0,0,0-.62-4.4c.38-1.19,1-2.36,1.45-3.5-.08-2.42-.56-1.27-1.06-.49s-1,1.17-1.1-3c.13-5.87,1.41-2,2-4a36.29,36.29,0,0,1-.31-5.79,20.56,20.56,0,0,1,.58-3.6c.15-.62.33-1.25.54-1.87a16.8,16.8,0,0,1,.87-1.82C15.72,233.1,15.26,234.41,15,236Zm32.45-50c-.84.89-2.34,2.76-3.37,2.85C44.43,187.19,45.63,187,47.43,186Zm91.94-22.74a8,8,0,0,1-3.92,1.08A21.34,21.34,0,0,1,139.37,163.3ZM312.86,274.56l-.1-.09C311.9,272,312.18,272.85,312.86,274.56Zm2.36,5c.41.41.51.31.5,0a7.34,7.34,0,0,1-1.72-2.49C314,277.52,314.2,278.22,315.22,279.52ZM44.69,408.29l-.26-1.17C45.8,409.4,45.26,408.83,44.69,408.29Z"/><path class="cls-2" d="M128.76,167.71a.91.91,0,0,1-.65-.39C127.65,167.59,127.67,167.77,128.76,167.71Z"/><path class="cls-2" d="M15.69,273.25l0,.18a.4.4,0,0,0,.22.13Z"/><path class="cls-2" d="M290.71,196.41a8.26,8.26,0,0,1-.18-2.25C290.3,194.17,290.25,194.73,290.71,196.41Z"/><path class="cls-2" d="M331.38,306.81c-.45-1.24-1.1-2.4-1.64-3.59a11.7,11.7,0,0,1,1,3.4C330.91,306.47,331,305.64,331.38,306.81Z"/><path class="cls-2" d="M330.48,340.3c.1.54,0,1.14.08,1.68l.45-.12C331.05,339.54,330.74,337.92,330.48,340.3Z"/><path class="cls-2" d="M329.44,311.23c-.34.26-.27.93,0,1.85s.63,2.14,1,3.41a3.43,3.43,0,0,1-.11-.46c.64.25.7-.29.47-1.24a14.66,14.66,0,0,0-.53-1.66C330.07,312.52,329.74,311.87,329.44,311.23Z"/><path class="cls-2" d="M330.64,317.08a15.69,15.69,0,0,1,.58,2.39c.25.11.24-.14.09-.59S330.87,317.78,330.64,317.08Z"/><path class="cls-2" d="M319.54,285.45c.46,1.16,1.28.11,1.37.88C322.51,287,315.53,280,319.54,285.45Z"/><path class="cls-2" d="M327.5,314c.26-.39.47-.78.7-1.17L327,311.68C327.15,312.46,327.36,313.23,327.5,314Z"/><path class="cls-2" d="M320.37,294.79a40.5,40.5,0,0,1,1.67,3.82c.13-.13.45.3.8.86l-1.51-3.33C320.84,295.25,320.48,294.67,320.37,294.79Z"/><path class="cls-2" d="M322.84,299.47a30,30,0,0,0,1.57,3A21.4,21.4,0,0,0,322.84,299.47Z"/><path class="cls-2" d="M325.51,308.72c-.06-.41-.12-.83-.21-1.22l-1-2.74C324.68,306.08,325.18,307.37,325.51,308.72Z"/><path class="cls-2" d="M301.61,255l-.62-2.15-.55-2.18c-.42-.39-.42.86,0,2.48C301,254.15,301.43,255.74,301.61,255Z"/><path class="cls-2" d="M303.1,268.9a4.91,4.91,0,0,1,0-2.17l-1.21.31C302.28,267.66,302.67,268.29,303.1,268.9Z"/><path class="cls-2" d="M298.76,256.16c-.45-.35-2.39-6.4-1.07-.63C298.08,255.94,299.54,260.36,298.76,256.16Z"/><polygon class="cls-2" points="291.6 188.85 292.02 189.91 293.86 189 291.6 188.85"/><path class="cls-2" d="M250,149.8c.53.34,1,.59,1.29.77a4.27,4.27,0,0,0,.78.39.92.92,0,0,0,.77,0c.36-.14.66-.28,2.46,1.17,1.28.21-3-2.38-1.69-2.1a26.25,26.25,0,0,0-3.13-1.23C249.9,148.67,249.74,148.88,250,149.8Z"/><path class="cls-2" d="M253.65,150.05c.46.19,1,.38,1.51.56A9.89,9.89,0,0,0,253.65,150.05Z"/><polygon class="cls-2" points="231.9 429.8 235.34 430.28 233.13 429.56 231.9 429.8"/><path class="cls-2" d="M238.53,428.39l.79,1.31,2.09-1.15A7.76,7.76,0,0,1,238.53,428.39Z"/><path class="cls-2" d="M56.37,183.47l.06-.39c-.6-.05-1.27.27-2.6,1C54.67,183.84,55.53,183.66,56.37,183.47Z"/><polygon class="cls-2" points="25.28 212.78 25.69 212.16 23.95 212.77 25.28 212.78"/><path class="cls-2" d="M15.72,247.4a21.2,21.2,0,0,0,.15-2.32c0-.4,0-.8.05-1.19s.1-.77.18-1.13c0,.4-.11.77-.18,1.12s-.13.68-.2,1c-.15.61-.32,1.11-.45,1.51C15,247.17,15,247.53,15.72,247.4Z"/><circle class="cls-5" cx="169.26" cy="295.69" r="53.96"/><path class="cls-2" d="M213,260.11c.32.41.52,0,.63,0C213,259.53,212.93,260.19,213,260.11Z"/><polygon class="cls-2" points="206.4 254.59 206.62 254.56 205.42 254.03 206.4 254.59"/><path class="cls-2" d="M200.19,249.65c.21,1,2.37,1.62,3.36,2.67l.08.27.87-.06A38.17,38.17,0,0,1,200.19,249.65Z"/><path class="cls-2" d="M197.33,246.11c.1.38-.92-.28.83.6a.92.92,0,0,1-.12-.16A8.09,8.09,0,0,1,197.33,246.11Z"/><path class="cls-2" d="M198,246.55c.74.43-.37-.49,0,0Z"/><path class="cls-2" d="M194.48,244.82l1.13.26c-.14-.24-1-.72-.64-.66C193.85,244,194,244.29,194.48,244.82Z"/><path class="cls-2" d="M193.29,244.82l.57.16C193.8,244.87,193.67,244.79,193.29,244.82Z"/><path class="cls-2" d="M195.07,245.31l-1.21-.33c.09.17,0,.39.54.17C194.22,245.3,194.53,245.22,195.07,245.31Z"/><path class="cls-2" d="M195.65,245.71c.5.4,1.14.92,0,.58,1,.47,1.4.6,1.4.44S196.64,246.13,195.65,245.71Z"/><path class="cls-2" d="M199.44,250.05a6.66,6.66,0,0,1,.56.62l.7.23a3,3,0,0,1-.71-.57C199.72,250.11,199.48,250,199.44,250.05Z"/><path class="cls-2" d="M188.12,241.75c-.11.12.23.51.24.72l.84.12C188.84,242.35,188.1,242,188.12,241.75Z"/><path class="cls-2" d="M188.36,242.47l-1.25-.18C188.14,242.7,188.37,242.65,188.36,242.47Z"/><polygon class="cls-2" points="192.77 245.46 194.83 245.83 192.42 245.3 192.77 245.46"/><polygon class="cls-2" points="183.54 240.35 184.32 240.19 182.96 240.38 183.54 240.35"/><path class="cls-2" d="M180.44,239.66c.58-.2-.62-.6,0-.68a8.7,8.7,0,0,0-2.34.15A5.69,5.69,0,0,1,180.44,239.66Z"/><path class="cls-2" d="M176.92,239.28a8.66,8.66,0,0,0,1.15-.15A5.11,5.11,0,0,0,176.92,239.28Z"/><path class="cls-2" d="M185.13,241.59a1.44,1.44,0,0,0-.83-.67l.36.54Z"/><path class="cls-2" d="M184.67,241.48v0l-1-.29Z"/><path class="cls-2" d="M185.24,241.62l-.11,0S185.18,241.66,185.24,241.62Z"/><path class="cls-2" d="M190,243.81c-.77,0-2.25-.29-1,.54C189.55,244.25,188.85,243.77,190,243.81Z"/><path class="cls-2" d="M185.67,242.28c.41.14.8.35,1.2.52,0-.11-.16-.35.22-.34C186.61,242.4,186.15,242.31,185.67,242.28Z"/><polygon class="cls-2" points="185.02 242.25 185.67 242.28 185.22 242.13 185.02 242.25"/><path class="cls-2" d="M179.1,240a6.91,6.91,0,0,1-1.91-.06,22.43,22.43,0,0,0,2.21.48C179.53,240.33,179.9,240.15,179.1,240Z"/><path class="cls-2" d="M181.82,240.69h-.13C181.76,240.74,181.81,240.76,181.82,240.69Z"/><polygon class="cls-2" points="170.32 239.37 170.43 239.45 170.46 239.38 170.32 239.37"/><path class="cls-2" d="M179.51,240.55a2.12,2.12,0,0,0,1.24,0c-.43,0-.87-.07-1.35-.14C179.35,240.5,179.33,240.54,179.51,240.55Z"/><path class="cls-2" d="M175,239.23c.29.1.61.2.95.34C175.66,239.37,175.09,239.12,175,239.23Z"/><path class="cls-2" d="M181.53,240.52h.09C181.46,240.39,181.47,240.44,181.53,240.52Z"/><path class="cls-2" d="M181.53,240.52a3.71,3.71,0,0,0-.78.07,8.7,8.7,0,0,0,.94.09Z"/><path class="cls-2" d="M168.28,242.15c.05-.2.42-.4.94-.5a3.45,3.45,0,0,1,.87-.07,4,4,0,0,1,.93.24c1.21-.22.5-1.57-.59-2.37,0,.19-.05.29-1.33.58.46.13,2.82.59,1.74.88a4.66,4.66,0,0,1-1.42,0,4,4,0,0,0-.77-.3c.69.47-2.11.78-1.71,1.5l1.43-.31C168.4,241.87,167.88,242.06,168.28,242.15Z"/><path class="cls-2" d="M172.89,239.65l.54,0a7.22,7.22,0,0,1-1.82-.65c-.9.14-1.09.27-1.15.4l2.62.22Z"/><path class="cls-2" d="M175.81,239.81c-.46.34-1.74.49-1,1,1.53.11,1.11-.22,2-.28-2.49-.29.74-.13-1-.65a11.11,11.11,0,0,1,1.36.1c-.44-.13-.87-.26-1.27-.4l.06,0h0c.1.07.13.11,0,.06H176a.44.44,0,0,1-.13.14c-.72-.2-.11-.13.13-.14l0-.06h0c-.85-.07-1.71,0-2.55,0C174,239.74,174.63,239.72,175.81,239.81Z"/><path class="cls-2" d="M187.42,244.77c-.06-.06,0-.09,0-.12C187.21,244.64,187.14,244.66,187.42,244.77Z"/><path class="cls-2" d="M186.56,244.18a1.4,1.4,0,0,1,.91.13c.43.3-.07.2-.09.34.36,0,1.25.13.29-.45h-.18c-.88-.48-1.93-1.43-1.75-1.43A3.71,3.71,0,0,0,186.56,244.18Z"/><path class="cls-2" d="M181.25,241.82a15.61,15.61,0,0,0-2.06-.18l1,.53v-.23C181.27,242.26,181.07,242,181.25,241.82Z"/><path class="cls-2" d="M170.09,239.14l.28-.44c-.41.17-.82.44-1.23.65Z"/><polygon class="cls-2" points="167.34 239.28 167.43 238.88 166.71 239.14 167.34 239.28"/><path class="cls-2" d="M151.08,343.91l.57.09A3.7,3.7,0,0,0,151.08,343.91Z"/><path class="cls-2" d="M147.31,342.29l-.17.13C147.35,342.4,147.46,342.37,147.31,342.29Z"/><path class="cls-2" d="M116.11,276.82c-.65.72-1.55,1.52-1.09,1.55l.51-.13A4.22,4.22,0,0,1,116.11,276.82Z"/><path class="cls-2" d="M121.43,320.44v-.28l-.61-.34A7.24,7.24,0,0,0,121.43,320.44Z"/><path class="cls-2" d="M123.32,320.13l.31,1.08A6.13,6.13,0,0,0,123.32,320.13Z"/><path class="cls-2" d="M173.08,346.66a5.45,5.45,0,0,0,.61-.49C172.68,346.26,173.14,346.43,173.08,346.66Z"/><path class="cls-2" d="M140.68,247.21a10.25,10.25,0,0,0-1.82.75C139.81,247.7,140.65,247.64,140.68,247.21Z"/><path class="cls-2" d="M147.8,347.61c.39.06.57,0,.6-.06C148,347.49,147.77,347.49,147.8,347.61Z"/><path class="cls-2" d="M137,249.25c.14,0,.26-.1.4-.15a7.33,7.33,0,0,1,1.46-1.14A3.31,3.31,0,0,0,137,249.25Z"/><path class="cls-2" d="M220.58,291.46a1.25,1.25,0,0,0,0-.19C220.55,291.26,220.56,291.34,220.58,291.46Z"/><path class="cls-2" d="M217.08,266.9c.15.2.36.56.56.89A4.52,4.52,0,0,0,217.08,266.9Z"/><path class="cls-2" d="M156.35,240.54c.57-.16.08-.07,0,0Z"/><path class="cls-2" d="M159.43,241.59c-.11.08-.19.16-.18.26A.48.48,0,0,1,159.43,241.59Z"/><path class="cls-2" d="M134.17,254.86l0,0C134.31,254.85,134.28,254.85,134.17,254.86Z"/><path class="cls-2" d="M157.25,240.54a5,5,0,0,0-.75,0Z"/><path class="cls-2" d="M157.09,240.36l.51-.07C157.66,240.2,157.58,240.17,157.09,240.36Z"/><path class="cls-2" d="M155.56,240.75a8.94,8.94,0,0,1,.94-.17c-.12,0-.17,0-.15,0Z"/><path class="cls-2" d="M207.26,332.06l.11-.06C207.61,331.47,207.47,331.67,207.26,332.06Z"/><path class="cls-2" d="M117.51,291.93a.14.14,0,0,0,0-.06l0,.08Z"/><path class="cls-2" d="M117.71,293.87a2.18,2.18,0,0,1-.24-1.92l-1.28.56C116.69,293,117.2,293.43,117.71,293.87Z"/><path class="cls-2" d="M160.58,346.35l-1.25-.59c1.7-.38,2.78,0,1.66-.72-.1.33-.47.45-1,.47a6,6,0,0,1-1.77-.2c-1.25-.3-2.5-.58-2.78.05l-.77-.5c.24.08.3,0,.54.09-1.47-1-1.51.6-3.57-.34-.7-.36-1.13-.73-.58-.7l-1.75-.28c-.46-.21-.25-.37.2-.18-.83-.28-1.61-.67-2.43-1l0,0a13.77,13.77,0,0,1-1.8-.1c-.52-.47.37,0,.29-.21-.48-.12-1-.21-1.47-.36-.17-.31,0-.38.41-.31a4.24,4.24,0,0,1,1.35.46c-.3-.9-.61-.94-1.13-1a4.09,4.09,0,0,1-2.25-1.38l1.25.56c-.36-1.12-1.4-1.43-2.44-2.61.15.38,2,2.6.45,2.08a3.49,3.49,0,0,0-1.67-.89c.26-.4-.47-.8-1.32-1.41l.44-.47c-1-.52-1.13-.21-1.83-.38a1.69,1.69,0,0,1-.8-1.86c-1.4-1.42.5,1.54-1.32,0a8.52,8.52,0,0,0-1.67-1.58c-.61-.46-1.34-.85-2.12-1.5-.62-1,.43-.11.28-.55l-1.07-.44c-.16-.2,0-.24.1-.26-.73-.53-.52.37-1.58-.56-.38.08-.71-.6-1.05-1.45a4.22,4.22,0,0,0-1.57-2.32c-.1-.45.44-.06.56-.31-1.8-1.6-1.52-1.38-3.09-2.71l-.46-1.65c.19,1.3-1.08.24-2.2-.77,0,.49,0,.92.07,1.19a16.17,16.17,0,0,1-1.36-1.84c0-.3.28-.19.67,0-.11-.12-.22-.23-.31-.31-.12-.83.39-.61.94-.25l0,.9c.62.3,1.25.54,1.53.26a2.17,2.17,0,0,1-.51-.53c.16.07.29.1.31,0s-.23-.22-.51-.48l.43-.76h-.3l-.76-2.76c-.37-.39-.76-.75-1.15-1.14s-.71-.82-1.07-1.28a13.57,13.57,0,0,1-2.08-3.58c.69.66.86-.06,1.47-.18-.39,1,1,2.3,1.45,3.91-.22-.84.12-.76.29-.59L119,310.44c.51-.08.15-.7.21-1.52-.84.83-1.14-2-1.72-3.12.31-.14.72.08,1,1.53.39-1.73-1.7-1.82-1.24-3.55,0,.36,0,.57.22.68-.41-.79-.44-2.89-.09-2.44l.05.36c0-.6-.13-1.35-.24-2.15s-.1-1.64-.2-2.43c-.16-1.56-.48-2.89-.87-3.08a4.68,4.68,0,0,1,1.2.48c-.91-1.42-1.74-2.93-2.61-4.5.7.44,2.52-.84,2.81,1.17a6.87,6.87,0,0,0,.18-2.46c-.17.37-1.19.85-1.19.31a14.38,14.38,0,0,0,1.57-2.64c-.25.55-1.28-.27-1.1-1.2.15.17,1.13.13,1.19.48a20.13,20.13,0,0,1-.65-2.48c.06.6.91.3,1.35-.12-.28.18.51-1.9.55-2.52l-.49.87c.77-2.45-.8-2.92.14-5.41a.87.87,0,0,0,1.66.05,12.28,12.28,0,0,1-.86-2.36,7.81,7.81,0,0,1,0-3.57l.5-.26a13.9,13.9,0,0,1,.52-1.81c0,.68.2,2,.29,3.31s.16,2.63.14,3.52c.64-.77.47-.09,1.06-1.4.5-.32.09.9-.07,1.28l1.6-2.9c-.33-.08-.2-.73-.07-1.38s.41-1.25.13-1.33a28.94,28.94,0,0,0-1,3.55c-.34-.08-.54-.76-.51-1.7a5.59,5.59,0,0,1,.26-1.55,7.34,7.34,0,0,1,.8-1.58c.55-.39.79,1,1,1.07a5.4,5.4,0,0,1,1-2.27l-.22,1.05a3.59,3.59,0,0,0,.7-1.66,2.55,2.55,0,0,1,1.18-1.59c.37-.42,1.68-.78,1.42-1.1-1.14.23-3.16-1-3.24-1.88.08-.07.69-.57,1.36-1.08a7.19,7.19,0,0,1,1.84-1.08c1.08-.29.13,2,1.06,1.72-.12-.15,0-.67.14-.87.52-.33.27.55,1.06-.43-.36-.62,1.79-1.86,0-.83a3.84,3.84,0,0,1,.89-1c.28-.22.58-.47,1.13-.95-.66,0-.05-2,.8-3,.06.18.42.16.59.15.5-.42,1-.78,1.37-1.11s.89-.54,1.31-.79c.84-.51,1.66-1,2.64-1.7.27,0,1.33-.5,1.08,0a3.25,3.25,0,0,1,1-1c1.55-.21-1.37.9-.06,1-.13-.38,1.36-1.41,2.16-2.16-.58-.37-2.19,1.13-3,1.86-.47-.7.68-2.39,2.76-4,.84-.63,1.14-.54,1.21-.43s0,.35.09.23a7,7,0,0,0,2.95-2,3.72,3.72,0,0,1,2.74-1.34c1.39.09.41,1,.81,1.26a7,7,0,0,1-2,.58,7.57,7.57,0,0,0-1.58.46l1.36-.34a5,5,0,0,1-2,1.07c1.1-.08,6-2.38,9-2.57.45-.29,1.29-.68.82-.79l-.88.28c-.95-.23,1.57-1,.37-.91.58-.29,1.19-.63,1.89-.92a9.05,9.05,0,0,1,1.11-.39,8.77,8.77,0,0,1,1.29-.1l.42.56c-.06-.17-1.21-.21-1.68.05.71-.38,2.83.46,3.53-.44l-1.3-.26c1.23-.44,2.75-1.41,4.39-1.21-.77-.57-.36.07-1.57-.57,1.07.75-4.13.49-2.43,1.21a3.37,3.37,0,0,0-1.72-.35,11,11,0,0,1-2-.14c.09.18.61.25-.74.46a1.21,1.21,0,0,1-.26.24h0c-.05.05-.05.05,0,0a1.6,1.6,0,0,1,.74.14c-.57.61-2.65,1.07-3.29,1.47-.8.09.26-.3-.22-.41a8.21,8.21,0,0,0-.94.64c-.22-.4-2.25,0-.52-.9l-1.63.53a7.85,7.85,0,0,0-3.15.91c-.78.25-1.68,1.3-1.17.69L144.84,245l-.07-.09a19.22,19.22,0,0,0-3.49,2.15,22.61,22.61,0,0,1-3.88,2.06,14.54,14.54,0,0,1-2.61,2l-.48-.14c-.44.37-1.13.88-1.77,1.35s-1.17.92-1.22,1.24a2.76,2.76,0,0,0-1.4.6c-.26.18-.52.39-.79.62s-.5.53-.75.81c-1,1.15-2,2.44-2.72,3.13l.34.39a21.81,21.81,0,0,0-2.46,3.72l.43.17c-.65,1.34-2.36,3-3.55,5-.07-.22.28-.7.59-1a6.09,6.09,0,0,0-1.4,1.68,14.48,14.48,0,0,0-.76,2.06c-.21.7-.41,1.39-.67,2a8.74,8.74,0,0,1-1,1.76,2.82,2.82,0,0,1-.53,1.44.5.5,0,0,0,0-.16l-.09.24c-.17.24-.35.48-.53.75a3.44,3.44,0,0,0,.48-.61,14.73,14.73,0,0,0-.5,1.89l-.56.14,0,.16c-.42.62,0,.61.49.36a3.31,3.31,0,0,0,0,1c-.89.34-.22,1.88-1.22,2.44a6.6,6.6,0,0,1-.11,2.07c0,.91,0,1.8.43,2.06-.12,0-.2.2-.15-.18a5.23,5.23,0,0,0-.31,2.28l-.66.26.27.91.35.9c-.43,1-.68,1.45-1.08.35.57,2.6.12,2.09.74,4.26l-.39-.11c0,.77.61,2,.29,2.46-.86,1.77.55,8.48,1.09,12.94.47-.58.44,0,.46.63s.11,1.46.57,1.4c-.18.33-.13,1-.59.36,1,2.06.62,3.46,2,4.59-.15.35-.57-.29-.63,0,.13.15.52.58.47.86s-.35-.22-.61-.5c1,2.14,1.88,2,2.67,1.79a3.63,3.63,0,0,0,.37,1.4,2.56,2.56,0,0,0,1,.81c0,.47.07,1.19-.73,0,.38.71,2.13,4.5,2.75,4.19,0,.3.62.94.81,1.07,1,1.48,1.07,1.65,2.15,3l-.2-.46c1,.1,1,1,2.06,2l-.09,0a6.16,6.16,0,0,0,1.43,1.85,2.65,2.65,0,0,1,.48.48c.1.13.21.3.37.52s.36.46.61.8l.2-.47c.93-.54,1.67,2.37,3.33,3.35-.11-.21-.21-.44-.32-.66a3.26,3.26,0,0,1,1.14,1.66,6.81,6.81,0,0,0,1,1.94c.13.21-.37-.1-.67-.24,1.85,2.14.66-.29,2.37.8.12.5-.9.45.21,1.27a8.13,8.13,0,0,0,2.33,1,13.25,13.25,0,0,1,1.64.7,5.12,5.12,0,0,1,.72.44,3.77,3.77,0,0,1,.61.47c-.25-.41-.49-.81.45-.58a15,15,0,0,1,2.23,1.46,3.24,3.24,0,0,0,2.4.87c.15.13.19.22.17.28,1.12.18,3.49.9,4.24.69.22,1,2,1.18,3.53,1.37.79.08,1.54.19,2.08.29s.88.28.8.65l3.36.46-.1.14a6.09,6.09,0,0,0,2.37.08,5.57,5.57,0,0,0,1.35-.4c.49.13.12.25.07.33,3.14.55,3.5.31,6.09-.5l.3.49a2.84,2.84,0,0,1,1.06,0c.51,0,1.16,0,1.88,0s1.53-.05,2.33-.14a7.18,7.18,0,0,0,2.35-.58c0,.07-.06.18-.29.3a12.13,12.13,0,0,1,2.73-.69c1-.16,2-.19,2.85-.43,1.79-.4,3.29-.87,3.58-1.92a20.4,20.4,0,0,0,1.94-1.29c-2.73,1.07.09-.9-1.12-.69,1-.56,2.91-.71,1.67-.05h-.24c-.11,1.06,3.48-1.17,3.67-.63a64.43,64.43,0,0,0,14-9.67,8,8,0,0,1-1-.07c.47-.42.89-.9,1.34-1.35.46-.25.87-.11-.08.88.79-.24,1.31-1.93,1.21-2.06,2-1.77-.07,1.34.49.75l.72-.86-.23.13c.19-.44.24-.72.39-1a7.48,7.48,0,0,1,.87-1.34c.73-.74.67-.15.94-.46,0,0,.14-.06.4-.49l1.5-1.91-1.05.44c.42-1,1.36-1.8.18-1.27.88-.37,2.09-2.27,3.22-4.11s1.79-3.86,2.17-4.23c.07-.38.16-.75.26-1.11s.18-.75.29-1.12c.23-.75.52-1.51.86-2.36-.27.39-1,.42-.37-1,.52.47,1-.13,1.3-1a6.31,6.31,0,0,1,1.3-2.53c-.45.48-.21-.62,0-1.64s.17-2-.4-1.21c.31-1.27.5,0,1-.91a15,15,0,0,1,.22-2.46l.23-1.29.17-1.34a24.17,24.17,0,0,0,.39-5.68c-.18,0-.43.6-.71-.23l.8-2.08c-.05-.38-.31-.54-.49-.79s-.26-.56-.06-1.28c-.12.21-.31.52-.43,0A34,34,0,0,0,222.2,279c-.67-1.83-1.22-3.69-2-5.47-.36-.9-.69-1.82-1-2.75s-.71-1.82-1-2.78c.23,1.08-.15.49-.56-.2.19.5-.38.21-.54.42-.36-1-.66-2.1-1.08-3.12-.89-.11-2.06-2.78-2.77-2.68l.69.76c-1.38-.64-.26,2.48-1.17,2.85a1.9,1.9,0,0,1,.87.9,10.17,10.17,0,0,1,.47,1.47,4.67,4.67,0,0,0,1.82,2.91c.09.54-.5-.24-.55.1.69.31,1,1,1.42,2.24l-.16-.09a18.54,18.54,0,0,1,1.64,4.29l.5,2.15a23.46,23.46,0,0,1,.56,2.66l.39-.42a4.89,4.89,0,0,1,0,1.55c.93.84-.52-2.47.45-1.76-.33.72,0,2.26.35,3.77a9.22,9.22,0,0,1,.23,2.13,2,2,0,0,1-.32,1.34c.17,1.36.49-.47.66.9l-.25.39.43.31c.07.91-.36,1.4-.59,1.45a4.24,4.24,0,0,0-.12-.85c-.31,1.18.23,3.27.13,3.68l.14-1.32a25.1,25.1,0,0,1,.17,2.93l-.17,3.08-.08,1.55-.18,1.5a26.62,26.62,0,0,0-.17,2.9l.26-.23c0,.35,0,.66,0,.91s-.1.48-.14.66a6.19,6.19,0,0,1-.33.93,10.46,10.46,0,0,0-.8,2.65l0-.13a4.92,4.92,0,0,1-.42,2.26c0-.81-1,1.2-.91.15-.63,3-.13,1.53-.14,3.71l-.55.27a3.91,3.91,0,0,1-.44,2.33c.27-1.29-.93.64-.7-.82a7.59,7.59,0,0,0-1.12,1.8c-.27.56-.49,1.05-.67,1.51-.37.91-.67,1.63-1.55,1.93.1,1.83,1.93-2.08,1.68-1.25.66-.44,0,1.45-.6,2.28s-2.1.72-3.6,2.79c.16-.21.11-.27.26-.47a3.58,3.58,0,0,0-.84,1.18,6.52,6.52,0,0,1-.42.65,2.66,2.66,0,0,1-.69.52c0,.9-1.06,1.1-.6,1.78l1.47-1.88c-.75,1.12-.94,2.7-2.79,4.05a4.85,4.85,0,0,1,.53-1.3c-.62.3-.71,1.06-1.39,1.33-.37-.65,1.85-2.24,2.38-3.68-.71.28-1.41,2.38-1.55,1.26a2,2,0,0,1-.94,1.69,4.23,4.23,0,0,0-1.62,1.78l-.23-.43a5.1,5.1,0,0,1-.82,1.11l.27-1.07c-.71,1.32-2.26,1.47-3.2,2.42,1.14-.81,1.34-.8,1.42-.63s0,.52.6.26c-2.41,2.61-2.36.22-5.34,2.63.4-.32,1.75-.9,1.22-.23a6.37,6.37,0,0,1-1.09.5,4.42,4.42,0,0,1-1,.22c-2.16,1.35.59.22-.2,1-1.06-.06-1,.84-1.88,1.57l-.24-.42c-.33.15-.59.29-.78.4a2.24,2.24,0,0,0-.45.28.67.67,0,0,0-.24.46c0,.28,0,.55-1.35.93l.74-1.07-1.18.72,0-.61a6.72,6.72,0,0,1-1.45,1,6.36,6.36,0,0,1-1.63.49c.44.21.12.88-1.12,1.32-1,0,.32-.59-1.41.06a1.35,1.35,0,0,1,1.51-.76c0-.17.29-.41.32-.59a9.17,9.17,0,0,0-2.9.91,2.24,2.24,0,0,1,.71-.12c-.39.24-.78.5-1.17.73l-1.22.63c-.46-.08-.17-.3.12-.51-.51.17-.83.47-1.6.69.12-.43,0-.82,1-1.24l-2.36,1c-.19-.12-1.34-.19-1-.4-1.4-.07-3.27,1.24-5.16,1.09a1.4,1.4,0,0,1-.67.23c-.87,0-1.7-.14-2.56-.17-.43,0-.87,0-1.33,0A7.75,7.75,0,0,0,167,347l-1.12-.77c-1.63.06,1.53,1-1.2,1.08-1.94.09-.65-.63-1.3-.91a6.4,6.4,0,0,1-4.37-.18A11.27,11.27,0,0,1,160.58,346.35Zm-18.75-6.8c.39.11,1.21.24,1.31.64C142.48,340.43,142.32,340,141.83,339.55ZM121,317.26a1.69,1.69,0,0,1,.43,1.21A3.51,3.51,0,0,1,121,317.26Zm29.35-74.55,0,0C149.34,242.88,149.68,242.84,150.33,242.71Zm1.93-.42c.17-.13.14-.19,0-.23a2.07,2.07,0,0,1-1,.44C151.47,242.57,151.74,242.58,152.26,242.29Zm61.35,87.34-.33.23C213.69,329.09,213.64,329.36,213.61,329.63Z"/><path class="cls-2" d="M123.09,320.15a.39.39,0,0,1-.14.27C123.1,320.52,123.18,320.48,123.09,320.15Z"/><path class="cls-2" d="M173,346.75H173a.16.16,0,0,0,.06-.09Z"/><path class="cls-2" d="M130.26,261.38a2.23,2.23,0,0,1-.68.37C129.66,261.84,129.85,261.78,130.26,261.38Z"/><path class="cls-2" d="M162.28,239.27l-1.24.28a3.24,3.24,0,0,1,1.15,0C162.15,239.46,161.89,239.32,162.28,239.27Z"/><path class="cls-2" d="M173.09,242c.18-.05.37,0,.55,0l0-.23C172.85,241.67,172.32,241.82,173.09,242Z"/><path class="cls-2" d="M163.61,240.71c.14.42.89.1,1.75,0h-.16c.11-.29-.06-.37-.38-.36A5.3,5.3,0,0,0,163.61,240.71Z"/><path class="cls-2" d="M165.56,240.72a5.23,5.23,0,0,1,.79,0C166.44,240.45,166,240.64,165.56,240.72Z"/><path class="cls-2" d="M154.57,241.3c.43,0,.12-.56.39-.46C155.28,240.22,152.41,242.11,154.57,241.3Z"/><polygon class="cls-2" points="164.43 241.95 164.08 241.49 163.65 241.96 164.43 241.95"/><path class="cls-2" d="M157.76,242.63l1.35-.17c0-.07.13-.16.33-.25C158.62,242.39,157.7,242.5,157.76,242.63Z"/><path class="cls-2" d="M159.44,242.21a4.86,4.86,0,0,0,1.07-.23A5.76,5.76,0,0,0,159.44,242.21Z"/><polygon class="cls-2" points="162.61 242.34 162.21 242.29 161.25 242.37 162.61 242.34"/><path class="cls-2" d="M144,247.49l-1.22.87c0,.22.35.11.8-.22C143.83,247.86,144.28,247.52,144,247.49Z"/><path class="cls-2" d="M148.62,246.85a1.3,1.3,0,0,1-.74-.08l.21.58Z"/><path class="cls-2" d="M144.85,248.75c0,.23-1.57,1.48,0,.54C144.87,249.05,146.08,248.25,144.85,248.75Z"/><polygon class="cls-2" points="127.5 261.97 127.72 261.66 126.9 261.06 127.5 261.97"/><path class="cls-2" d="M120.57,279.75c.8-1.48-.46-.58.35-1.89-.09-.46-.66,1.08-.72.63C120.09,279.53,119.77,280,120.57,279.75Z"/><path class="cls-2" d="M120.2,278.49a4.63,4.63,0,0,0,0-.54A2.32,2.32,0,0,0,120.2,278.49Z"/><polygon class="cls-2" points="215.18 263.03 214.66 261.95 214.83 262.77 215.18 263.03"/><path class="cls-2" d="M213.26,261.67l.36-.62-.88-.21C212.92,261,213.26,261.42,213.26,261.67Z"/><path class="cls-2" d="M140.1,336.83l-.16.08c0,.23.22.39.61.71Z"/><polygon class="cls-2" points="152.56 343.77 152.33 343.68 152.57 344.39 152.56 343.77"/><path class="cls-2" d="M164.39,345.63a10,10,0,0,1-1.54-.11C163.9,345.62,164.45,346.35,164.39,345.63Z"/></svg>