<svg id="Layer_1" data-name="Layer 1" xmlns="http://www.w3.org/2000/svg" viewBox="0 0 500 500"><defs><style>.cls-1{fill:#dabfef;}.cls-2{fill:#373735;}.cls-3{fill:#6b52ab;}</style></defs><path class="cls-1" d="M422.94,45.48C377.24,56.25,329.21,62.6,283.32,100,229,144.26,196.24,204,177.31,251.21a18,18,0,0,1-15.05,11.25l-46,4.28-76.83,7.14a28.55,28.55,0,0,0-25.67,32.06,17.71,17.71,0,0,0,13.82,14.79L73,331a52.87,52.87,0,0,1,40.93,57.12l-5,47.75a17.74,17.74,0,0,0,9.38,17.75,28.54,28.54,0,0,0,38.85-13.54L189.35,370l17.15-37.31a18.24,18.24,0,0,1,14-10.33h.1c51.31-7.81,123.31-27.26,182.45-75.44,45.89-37.4,56.1-84.87,75.89-127.45C500.78,72.34,473.49,33.56,422.94,45.48Z"/><path class="cls-2" d="M425.05,47.52c-2,.38-1.17.64-1.45.77C426.85,47.52,425,47.43,425.05,47.52Z"/><path class="cls-2" d="M457.66,47.47l-.61,0c.78.2,1.6.34,2.36.59l2.33.75A42.15,42.15,0,0,0,457.66,47.47Z"/><path class="cls-2" d="M480.35,66.89a12.82,12.82,0,0,0-1.23-2.81A15.53,15.53,0,0,0,478,62.36a18.46,18.46,0,0,0-1.35-1.81A53.92,53.92,0,0,0,470.1,54l-.62-.67a25,25,0,0,0-2.34-1,40.21,40.21,0,0,1,8.11,6.85A31.74,31.74,0,0,1,480.35,66.89Z"/><path class="cls-2" d="M483.23,82.76c.08-.5.25.35.24.44s-.06-.6-.67-4.14a3.78,3.78,0,0,1,.05.67Z"/><path class="cls-2" d="M482.85,79.73c-.29-1.54-.27-1-.16-.38S482.86,80.78,482.85,79.73Z"/><path class="cls-2" d="M483.28,94.36c.08-1.41.05-2.81.08-4.21-.23.87-.52,4.57-.54,3.19C482.43,97.61,482.67,96.77,483.28,94.36Z"/><path class="cls-2" d="M483.22,98.42c.13-.73.16-1.47.23-2.2A8.27,8.27,0,0,0,483.22,98.42Z"/><path class="cls-2" d="M483.71,91.56l-.06,2.33-.2,2.33a2.88,2.88,0,0,0,.21-2.14C483.83,94.49,483.73,93.54,483.71,91.56Z"/><path class="cls-2" d="M483.93,88.94c.2-2.36.17-5.45.5-1.19-.09-4.07-.52-5.76-.6-5.45a3.22,3.22,0,0,0,0,.6c0,.32,0,.77,0,1.32s.06,1.24.09,2S483.93,87.93,483.93,88.94Z"/><path class="cls-2" d="M481.67,68l-.58-1.53c-.2-.51-.46-1-.69-1.48a26.58,26.58,0,0,0-1.65-2.29,21.3,21.3,0,0,1,1.82,3.14A12.79,12.79,0,0,0,481.67,68Z"/><path class="cls-2" d="M475.32,119.55c0,.32,1-1.2,1.29-1.41l1.1-3c-.37.73-.89,1.78-1.34,2.68A7.58,7.58,0,0,1,475.32,119.55Z"/><path class="cls-2" d="M476.61,118.14l-1.77,4.58C476.67,118.73,476.87,118,476.61,118.14Z"/><path class="cls-2" d="M483.86,99.31c.19-1.3.24-2.6.33-3.9s.09-2.6.09-3.89l0,2.31-.17,2.32c-.07,1.56-.31,3.09-.52,4.64Z"/><polygon class="cls-2" points="467.87 136.76 468.6 134.06 467.21 138.84 467.87 136.76"/><path class="cls-2" d="M463.26,148.26c.5-2-1.51,2.41-.86.34-1.21,3.14-2.06,5.87-2.83,8.34A87.22,87.22,0,0,1,463.26,148.26Z"/><path class="cls-2" d="M458.23,161.05c.46-1.28.89-2.63,1.34-4.11C459.09,158.31,458.64,159.67,458.23,161.05Z"/><path class="cls-2" d="M471.43,130.35a15.49,15.49,0,0,0-1.91,3.39l1.15-1.61Z"/><path class="cls-2" d="M470.71,132.07l0,.06L469,136C469.24,135.46,469.73,134.29,470.71,132.07Z"/><path class="cls-2" d="M471.62,129.91l-.19.44A.87.87,0,0,0,471.62,129.91Z"/><path class="cls-2" d="M480.18,111.25c-.67,2.73-2.86,8.23-.26,3.12C480.36,112.37,479,115.34,480.18,111.25Z"/><path class="cls-2" d="M473,127.91c.69-1.59,1.47-3.14,2.2-4.72-.14,0-.68.84-.2-.51C474.37,124.43,473.67,126.16,473,127.91Z"/><polygon class="cls-2" points="472.17 130.31 473.04 127.91 472.26 129.67 472.17 130.31"/><path class="cls-2" d="M462,153c-.68,2.13-1.58,4.41-2.6,7,1.2-2.7,2.39-5.52,3.49-8.21C462.88,151.35,463.14,150.08,462,153Z"/><path class="cls-2" d="M466.2,142.85l-.16.47C466.18,143.05,466.29,142.83,466.2,142.85Z"/><path class="cls-2" d="M448.3,184.69l.27-.35a.43.43,0,0,1,0-.12Z"/><path class="cls-2" d="M463.11,151.35a31.07,31.07,0,0,0,1.67-4.54c-.59,1.56-1.22,3.21-1.93,5C462.84,152,462.86,152,463.11,151.35Z"/><path class="cls-2" d="M455.47,168.1c.55-1,1.11-2.21,1.72-3.45A27,27,0,0,0,455.47,168.1Z"/><path class="cls-2" d="M465.64,144l.11-.31C465.39,144.3,465.47,144.23,465.64,144Z"/><path class="cls-2" d="M465.64,144c-.37,1.09-.61,2-.86,2.84.48-1.27.91-2.45,1.26-3.49A6.4,6.4,0,0,1,465.64,144Z"/><path class="cls-2" d="M447,193.26a13.12,13.12,0,0,1,1.37-3.7c.89-1.95,2.2-4.34,3.44-6.55,1.86-4.63-.71-2.23-3.22,1.33.08.22.23.28-1.89,4.91.5-.74,1.92-3.19,3-5s1.72-2.92,1-.89c-2.82,6.14-2.63,4.87-4.3,7.7.84-1.13.08.9-.89,3s-2,4.4-1.29,3.94c.89-1.78,1.82-3.53,2.68-5.32C447,192.68,446.1,194.66,447,193.26Z"/><path class="cls-2" d="M452.75,175.6l.8-1.93A65.44,65.44,0,0,1,450,180c-1.32,3.22-1.49,3.94-1.48,4.21,1.48-3.1,3-6.17,4.44-9.3Z"/><path class="cls-2" d="M457.31,165c-.22,1.69-2.08,6.37-.41,3.73,2.38-5.69,1.35-4.12,2.61-7.59-3.76,9.21.88-2.73-2.13,3.8.69-1.83,1.35-3.45,2-5-.74,1.63-1.47,3.2-2.17,4.66l.11-.2,0,0h0c.21-.37.3-.49.08-.06l-.07.2a1.3,1.3,0,0,1,0,.47c-1.2,2.62-.28.38,0-.47,0,0,0-.12,0-.14l0,0c-1.19,3.11-2.48,6.15-3.75,9.22C454.44,171.76,455.56,169.38,457.31,165Z"/><path class="cls-2" d="M478.67,119.61c-.16.26-.18.24-.22.25C478.23,120.47,478.17,120.71,478.67,119.61Z"/><path class="cls-2" d="M476.75,123.25a21.65,21.65,0,0,1,1.35-3.45c.95-1.82.18.09.35.06.48-1.36,1.7-4.68-.26-.7l-.23.68a66.52,66.52,0,0,1-4.16,7.47A26.9,26.9,0,0,0,476.75,123.25Z"/><path class="cls-2" d="M466.9,144.43,464,152.22l1.94-3.79-.29.12C467.48,144.19,466.84,145,466.9,144.43Z"/><polygon class="cls-2" points="447.68 185.44 447.77 184.26 446.17 188.78 447.68 185.44"/><polygon class="cls-2" points="442.72 194.92 442.57 194.38 441.39 196.95 442.72 194.92"/><path class="cls-2" d="M56.93,329.81l-2.41-.43C55.66,329.6,56.39,329.73,56.93,329.81Z"/><path class="cls-2" d="M74.1,333.8l.45-.07C73.77,333.62,73.44,333.61,74.1,333.8Z"/><path class="cls-2" d="M220.48,319.83c-.41,0-1,.07-1.47.11s-1,.13-1.51.2a21.54,21.54,0,0,0-2.68.65c-1.54.5-2.45,1-2.13,1.09s.88-.14,1.32-.19a18.87,18.87,0,0,1,3.53-1.36c.55-.12,1.07-.25,1.57-.32S220.1,319.86,220.48,319.83Z"/><path class="cls-2" d="M118.86,454l.91.54c.43.11.83.23,1.23.3l1.16.17a13.43,13.43,0,0,1-1.59-.42Z"/><path class="cls-2" d="M115.67,454.3a18.42,18.42,0,0,1-3.72-3.6A16.39,16.39,0,0,0,115.67,454.3Z"/><path class="cls-2" d="M37.67,271.27l1.52-.44,1.4-.35-1.38.14c-.39.05-.72.11-1,.16a2.19,2.19,0,0,0-.75.21C37.4,271.09,37.85,271.13,37.67,271.27Z"/><path class="cls-2" d="M365.25,270.28c-2.73,1.38-4.87,2.53-6.73,3.58C361.83,272.24,364.59,271.08,365.25,270.28Z"/><path class="cls-2" d="M64.75,326.86c-1.48-.26-2.12-.31-2.1-.21C64.17,326.92,65,327,64.75,326.86Z"/><path class="cls-2" d="M350.79,278.08l1.48-.66,3-1.67,3.27-1.89c-1.22.59-2.5,1.29-3.82,2A40,40,0,0,0,350.79,278.08Z"/><path class="cls-2" d="M297.77,86.32l.69-.41C298.49,85.81,298.19,86,297.77,86.32Z"/><path class="cls-2" d="M394.37,53.85c-1,.25-2.57.61-4.07,1C391,54.67,392.27,54.39,394.37,53.85Z"/><path class="cls-2" d="M417.58,229.53c1.48-1.7.2-.3,0,0Z"/><path class="cls-2" d="M426.11,222.33c-.26.42-.44.74-.4.85A2.57,2.57,0,0,1,426.11,222.33Z"/><path class="cls-2" d="M331.53,290.52l-.18.07C332,290.4,331.9,290.43,331.53,290.52Z"/><path class="cls-2" d="M420,227.13c-.61.6-1.29,1.29-2,2.07C418.31,228.87,418.92,228.24,420,227.13Z"/><path class="cls-2" d="M419.53,227.33l1.35-1.44C421,225.63,420.81,225.79,419.53,227.33Z"/><path class="cls-2" d="M415.43,231.81l1.33-1.31,1.21-1.3c-.32.31-.46.43-.39.33l-.81.93C416.42,230.84,416,231.27,415.43,231.81Z"/><path class="cls-2" d="M183.27,233.81l.24-.43C184.28,231.18,183.89,232.12,183.27,233.81Z"/><path class="cls-2" d="M191.12,371l.09-.25-.16.31Z"/><path class="cls-2" d="M188,378.59a35.8,35.8,0,0,1,3.08-7.56l-2.27,2Z"/><path class="cls-2" d="M15.76,316.4a20.9,20.9,0,0,0,4.8,4.58A19,19,0,0,1,16,317.8a20.81,20.81,0,0,1-2.51-2.88c-.52-.71-.76-1-.71-.82a5.85,5.85,0,0,0,.34.75,13.21,13.21,0,0,0,.95,1.66c.41,0,1.65,1.33,3.66,2.9a22.93,22.93,0,0,0,8.09,4.09c.38.1.82.22,1.16.29l1,.23,2,.42c1.3.28,2.52.52,3.58.71,2.13.38,3.63.54,3.91.26l3.65,1.12c-1.06-.26-1.25-.22-2.3-.47,7.09,2.27,5.59.26,14.87,2.55,3.23.84,5.45,1.54,3.2,1.2l7.32,1.31c2.1.5,1.53.62-.56.12l5.53,1.19L72,333c.93.19,1.76.46,2.65.68l-.09,0L76,334a12,12,0,0,1,1.84.37l3.36.94a2.78,2.78,0,0,1,.85.47s-.21-.07-.5-.17c-.59-.18-1.41-.46-1.11-.25.48.16,1,.28,1.44.48l1.4.59c.93.4,1.87.78,2.8,1.2.49.39.57.55.37.52s-.68-.26-1.37-.5c-1.39-.5-3.41-1.57-5.38-2.24.59.41,1.11.73,1.58,1s.86.56,1.26.78a19.66,19.66,0,0,0,2.52,1.12A29.46,29.46,0,0,1,94,344.44l-1.08-.9-1.15-.8-2.31-1.6a23.32,23.32,0,0,0,2.06,2c.37.34.79.66,1.18,1l1.2,1.17A31.42,31.42,0,0,1,96.55,348l1.35,1.59.71.84.65,1-.49-.83c-.23-.37-.57-.77-.91-1.24-.7-.9-1.45-2-2.15-2.87-1.4-1.66-2.1-2.72.45-.68.68.63,1.32,1.49,2.21,2.39l1.46,1.49c.48.57,1,1.17,1.62,1.83-.19.17.31.87,1.09,2,.37.59.83,1.29,1.34,2.06l.8,1.2c.28.42.5.9.76,1.36l-.69.06c2.35,3.93,2.33,3.55,3.69,5.93l.35.86c.09.27.16.54.23.8.13.51.25,1,.36,1.37a19.46,19.46,0,0,1,.39,2,9.35,9.35,0,0,1-.09,2.31c.83,4,.72,2.58.68,1.34,0-.62,0-1.2.11-1a3.28,3.28,0,0,1,.34.9l.28,1c.09.43.15.95.24,1.55.15,1.72.38,3.29.37,4.84s.18,3.05.07,4.6c0,3-.31,6.52-.55,10.81-.75,5-.3-.92-.67.86l0,4.49c-.13,1.09-.25.72-.31.53-.19,3.77.61.38.16,6.28.53,1.66-2.3,12-2.27,19.33-.37,1.78-.3-.9-.6-.38-.27,5-.38,7.18-.48,9.11a19.12,19.12,0,0,0,1.5,8.21A19.27,19.27,0,0,0,112,450.7c-.81-1.16-1-1.73-.94-1.82s.51.3,1.18.92a19.6,19.6,0,0,0,6.67,4.21,18.16,18.16,0,0,1-3.44-2.77,15.42,15.42,0,0,0,3.89,2.2c.71.26,1.39.58,2.1.8l2.16.62c1,.38.1.4-1.41.16.61.14,1.18.3,1.64.37,1.56.46,1.92.7,1.59.79a4.05,4.05,0,0,1-1,.05,8.35,8.35,0,0,1-1.63-.15,23.07,23.07,0,0,1-3-1.53c-2.29-.43-4.39-1.48-4.18-.87a25.51,25.51,0,0,0,2.9,1.42c-.61-.16-1-.24-.78-.06a18.31,18.31,0,0,0,2.76,1l1.88,1.37.59-.1a30.35,30.35,0,0,0,12.72,1.23,30.42,30.42,0,0,0,12.26-6,17.58,17.58,0,0,0,1.39-1.22c.45-.44.95-.82,1.38-1.31a32.24,32.24,0,0,0,2.61-3.08,34.66,34.66,0,0,0,2.43-3.69c.69-1.38,1.44-2.83,2.09-4.41-1,3.3.47,1,1,1.45a29,29,0,0,0-1.8,3c-.31.6-.74,1.17-1.12,1.8a17.3,17.3,0,0,1-1.31,1.93,24.51,24.51,0,0,1-7.82,7.18c.84-.5,1.43-.84,1.84-1.06a3.35,3.35,0,0,1,.69-.34c.17,0-.12.37-.52.68a29.63,29.63,0,0,0,8.58-10.29c.14.26.56-.32,1.17-1.36l.48-.85.48-.94c.33-.66.69-1.38,1.09-2.11-2,1.85,3.33-8.86,5.2-13.67.44-.15.24,1.12-2.46,6.8,3.58-6,2.67-8.64,6.1-14.55a13.09,13.09,0,0,0-1.12,2.75c1.22-3.39,5.1-11.25,4.5-9.25l-.63,1.39c4.36-9.21,13-28.18,12.82-29.92a5.21,5.21,0,0,1,.27,2.28l5-17.72c0,1.76,4.14-3.1,1,4.75a101.91,101.91,0,0,0,4.37-9.59c-.79,1.46-2.68,3.31-1.8,1.23,3.33-5.3,2.2-3.74,6-10.4-1.18,2.19-1.07-.79.6-4.34-.1.63,1.17.17.68,1.53l3-9.34c-.83,2.3.69.79,1.89-1.06-.31.41.57-1.5,1.66-3.82.27-.56.56-1.23.83-1.74s.56-1,.84-1.49a21.94,21.94,0,0,1,1.56-2.11,15.79,15.79,0,0,0-2.34,2.86,23.17,23.17,0,0,1,3.57-4.67,23.86,23.86,0,0,1,3.11-2.71,13.93,13.93,0,0,1,3.78-2,46,46,0,0,1,6.3-1.32c-1.26.44-3,1.94,2.53,1.18l2.84-1.16c1.26-.53,2.8-1.16,4.57-1.83s3.74-1.36,5.86-2.06,4.37-1.42,6.71-2l1.88-.06c2.39-.61,4.75-1.35,7.13-2-1.07.47-2.64,1.12-4.49,1.86s-4,1.51-6.25,2.32c-4.47,1.64-9.3,3.15-12.73,4.15,4.11-.5,1.2.17,7.3-1,2.21-.09-3.24,1.08-5,1.43,4.76-.77,9.49-1.71,14.23-2.63-.76-.45,10.62-3.12,10-3.54l-7.56,2.12-7.6,1.95c-.38-.26,1.74-1.19,5.21-2.3s8.22-2.56,13.2-3.67c2.58-.39-1.6,1.65-1.34,1.79,1.24-.5,9.28-2.86,10.24-2.93l-4.11,1.45a54.54,54.54,0,0,0,7.31-2.22,49.06,49.06,0,0,1,8.17-2.34c2.3-.57,7-1.28,7.27-1.77-3.91.45-5.3-1.59-3.05-2.92l14.58-3.7c3.86-.73-5,3.3-1.73,2.69a15.26,15.26,0,0,1,2.84-1.52c2.39-.68-.77.88,4.28-1,.64-.85,10.23-3.91,2.19-1.41,4.83-2.1,5.26-1.91,11-4.2-2,.38,4.53-3.55,9.26-5.82-.21.28,1,0,1.53-.11l12.36-5.6c3.66-1.72,7.18-3.54,11.64-5.85.92-.23,5.21-2.52,3.56-1.22a53.21,53.21,0,0,1,4.92-3.26c5.5-2.49-5.95,3.54-1.63,1.86a21.75,21.75,0,0,1,3.85-2.75c1.06-.69,2.24-1.39,3.35-2.15l3.08-2.16a7.63,7.63,0,0,0-2,1l-3.35,2.06c-2.5,1.53-5.28,3.35-7.13,4.56-.22-.36,1.23-1.7,3.84-3.63,1.29-1,2.9-2.07,4.69-3.33s3.76-2.73,5.91-4.21c6.89-4.63,3.34-1.47,4.49-2.35a96.71,96.71,0,0,0,11.23-8.56,75.14,75.14,0,0,1,9.44-7.6c4.39-2.72.85.69,2,.3-2.62,2.16-4.74,3.69-6.64,5s-3.58,2.53-5.48,3.82c1.61-1,3.14-2.08,4.68-3.17a44.43,44.43,0,0,1-3.43,2.85c-1.38,1-2.82,2-3.87,2.66,4-1.87,21.39-15.6,30-24.16.69-.83,1.71-1.87,2.27-2.69s.83-1.23.17-.65c-.81,1-1.72,1.88-2.6,2.79-1.41,1.09-.23-.28.83-1.51s1.93-2.42.26-.69c1.59-2,3.24-4.15,5.11-6.44.46-.58,1-1.14,1.43-1.75l1.44-1.89q1.49-1.92,3.22-4l1.32-.69a34.8,34.8,0,0,0-4.3,5.16,67.47,67.47,0,0,1,4.53-5.39,29.61,29.61,0,0,0,4-6l-3.24,3.87c1.33-2.19,2.83-4.63,4.33-7.23s3.06-5.34,4.75-8c-2,2.17-.7,1.29-3.67,4.73.7-.71.52-.21-.09.86a50.34,50.34,0,0,1-2.72,4.26c-2.15,3.06-4.13,5.88-2,3.6a30.65,30.65,0,0,0-2.22,2.44c-.69.8-1.37,1.59-2.07,2.42a71.86,71.86,0,0,1-5.05,5.56c.28,0,1.71-1.34-1.88,2.54-.12.22-.44.69-.64,1l-.25.26.21-.2c-.13.19-.14.21.08-.08a19.77,19.77,0,0,1,2-1.81,64.17,64.17,0,0,1-4.26,5.42,19,19,0,0,1-1.4,1.55l-1.35,1.42c-.85.89-1.58,1.67-2,2.22-2.31,2.15.77-1.09-.6,0-.94,1.08-1.84,2.19-2.81,3.24-.63,0-6.8,4.93-1.39-.12l-5,4.35c-.79.59-1.6,1.27-2.5,1.93s-1.83,1.33-2.74,2c-1.81,1.37-3.53,2.72-4.79,3.82-1.29.92-2.76,2.28-3.74,3.07s-1.36,1.14-.33.21l-8.45,6.26-.14,0c-2.1,1.53-4.35,2.88-6.57,4.39l-6.79,4.51c-2.37,1.42-4.8,2.85-7.29,4.24q-1.87,1-3.81,2.07c-1.29.68-2.65,1.26-4,1.87-1.52.86-3.07,1.74-4.89,2.73s-3.9,2.11-6.59,3.28l-1.19.14c-2,1-5.08,2.38-7.86,3.63A49.23,49.23,0,0,0,325.6,290c-4.76,1.13-20.23,8-27.78,10.31l-.12.58c-2.56.91-5.11,1.68-7.77,2.62s-5.49,1.95-8.71,3l.52.31a105.14,105.14,0,0,1-10.42,2.95l-13,3a28.71,28.71,0,0,1,4.48-1.1c-10.9,1.65-22.5,5.87-32.49,6.86a42.49,42.49,0,0,1-6,1l.61-.12-1,.16-3.45.32c1.05-.06,2-.13,2.91-.23l-3.46.61a19.45,19.45,0,0,0-4.47,1.37c-.48,0-1,.07-1.45.11l-.67.36c-1.46.67-2,1.12-1.9,1.23s.63,0,1.44-.31a15.34,15.34,0,0,0-3.2,2.68,10.12,10.12,0,0,0-3.74,4c-.26.48-.56,1-.78,1.46l-.69,1.4a12,12,0,0,1-1.4,2.28c-.44,1.92-5.75,13.22-5.61,15-.14,0-.54.79.1-.62a83.2,83.2,0,0,0-3.83,8.43l-1.12,1-2.17,6.68c-2.11,3.7-3,5.2-1.71,1.18-3.59,9.54-3.19,7.61-6.15,15.76l-.19-.54c-1.27,2.81-2.85,7.52-3.93,9.07-3.57,6-14.38,31-22.42,46.86.62-.66.69-.53.45,0a20.71,20.71,0,0,1-1.43,2.66c-.32.51-.65,1.06-1,1.59s-.73,1-1,1.41c-.57.9-1.06,1.54-1,1.81-.85.58-2.4,2.22-.9,0a22.38,22.38,0,0,1-7.8,6.23,47.27,47.27,0,0,1-7.63,2.92c-1-.11,1.69-.7.82-.71a10.89,10.89,0,0,1-3.44.54c-.86-.14,1.2-.24,2.44-.65-.52.08-1,.2-1.46.24l-1.31.13a18.33,18.33,0,0,1-2.17.16c-1.28.12-2.2.1-2.89.18a3.72,3.72,0,0,0-2.24.77l-1.52-.46-1.31-.51-1.19-.44-1.08-.46a41.05,41.05,0,0,1-4.08-1.78,7.2,7.2,0,0,1-1.22-1.54c0-.09.12,0,.5.26.19.15.45.35.8.6s.79.55,1.34.9a15.56,15.56,0,0,1-3-2.63,15.66,15.66,0,0,1-3.1-5.14,18.5,18.5,0,0,1-1.16-5.42l-.06-1c0-.31,0-.58,0-.81,0-.44-.05-.75-.13-.8a41,41,0,0,0,.54-5.34c.8-7.21.92-7.84,1.61-14.93l-.31,1.95c-.47-2.88.45-5.91,1-11.63l.06.17c1.91-13,.37-5.65,2.28-18.56l-.52.68a5.11,5.11,0,0,1-.2-2.49c0-.63.11-1.36.19-2.16s.05-1.69.08-2.62a37.08,37.08,0,0,0-1.38-12l.34,2.78c-.34-1-.49-2.25-.78-3.58s-.56-2.79-.84-4.27-.77-2.9-1.14-4.25a26.49,26.49,0,0,0-1.42-3.49c-.36-.88.83,1.24,1.51,2.38-2.35-5.19-2.89-5.33-3.06-5.21s-.28.57-2.7-2.83c-.69-1.42,1.94,1.08-1.54-3.45a42.94,42.94,0,0,0-7.55-7,111.94,111.94,0,0,0-11.84-7.29c1.43,1,2.8,1.95-.76.43-.66-.34-1.41-.61-2.2-.93l-2.48-1a27.88,27.88,0,0,0-2.71-.95l-2.82-.91a56.3,56.3,0,0,0-10-2.06c-.69-.23-1-.36-1-.43-4.33-.76-14-2.8-16.68-2.95-1.79-1.25-8.49-2.56-14.69-3.74L29,319.52l-1.11-.21-1-.22a14.94,14.94,0,0,1-3.32-1.28c-1.82-1-2.73-2-2.46-2.27a15.27,15.27,0,0,1-5.66-10.32l.18.31c0-1-.16-1.92-.16-2.77l0-2.35c.17-1.43.2-2.64.42-3.66l.22-1.44.27-1.24c.18-.79.29-1.51.52-2.2.86-1.7.43-.37.45-.2a30.85,30.85,0,0,1,1.9-3.5c.69-1,1.27-1.85,1.9-2.58s1.16-1.42,1.76-2,1.12-1.13,1.67-1.64,1.14-1,1.72-1.46,1.25-.9,1.93-1.41,1.51-.92,2.38-1.46a10.18,10.18,0,0,1,1.44-.72l1.64-.75,1.15.21c.32-.12.82-.26,1.48-.43s1.5-.21,2.46-.34c1.94-.21,4.58-.31,7.42-.51,5.74-.38,12.66-.9,18.79-1.76a3.78,3.78,0,0,1-1.33.35c13.8-1.87,33.31-1.72,38.22-4l9.1-1.29c-11.84,1,1.69-1-3.2-.79,4.64-.54,12.08-.58,6.37,0h-.9c-2,1.13,14.73-1,14.47-.37,11.64-1.11,23.15-2.06,34.47-3A19.94,19.94,0,0,0,177.65,255a18.41,18.41,0,0,0,1.12-2l.47-1.05.41-1,1.61-3.81,1.59-3.8q.84-1.87,1.65-3.75l-1.68,2,3.1-7c1-1.76,1.6-2.22-.61,2.74a43.8,43.8,0,0,0,3.37-8.65c4.75-9.51-1,4.13.41,1.18l1.82-4-.5.86a58.65,58.65,0,0,1,4-9.63c2-3.63,1.34-1.69,2.11-3.12a11.5,11.5,0,0,0,1.18-2.2c1.52-2.8,2.95-5.66,4.55-8.42-.79,1-1.58,2-2.33,3.09,1.74-3.89,4.4-7.87,1.65-4.33a81.53,81.53,0,0,0,4.52-7.09c2-3.15,4.23-6.93,6.49-10.61s4.54-7.24,6.43-10.08,3.38-4.93,4-5.71c.76-1.28,1.5-2.58,2.34-3.82s1.71-2.5,2.61-3.77c1.82-2.54,3.7-5.24,6-8.06-1.21,1.35-2.4,1.81,1.55-3.09-.18,1.32,1.7-.86,4.12-3.78a89.3,89.3,0,0,1,7.59-8c-3.57,2.9,11.84-13.31,6.39-8.67,3.62-3.78.55.08,3.52-2.58,8.22-9.37,19.79-19,31.75-28.56.09-.29-2.11,1.07.34-1.15L292.74,95c1.17-.68,2.38-1.3,3.57-2a18.75,18.75,0,0,0,2.39-2.21,11.21,11.21,0,0,1,1.47-1.2,17.35,17.35,0,0,1,2.8-1.58c-.74.29-1.86.71-.16-.4a243.13,243.13,0,0,1,85.83-32.08c-4.12.63-1.44-.06,1.66-.78-2,.38-.06-.43-.51-.57l12.71-2.18c2.15-1.16,13.49-3,14.66-4l-4,1c5.13-1.91-7.78,0-7.21-1.07-5.74,2.16-15.94,2.19-25.37,5.74-2.2.33,1.75-.73.55-.67a65.47,65.47,0,0,1-10.85,3l.59-.25-10.18,2.83L352,61.29c-2.83.92-5.74,1.8-9,2.89L337.9,66l-2.84,1c-1,.38-2,.81-3,1.23l1.41-.09c-3.57,1.48-4.38,1.66-6.09,2.27-3.78,2.42,10-4.27,6.58-1.94a50.15,50.15,0,0,0-6.1,2.18c-1.33.51-2.74,1.18-4.19,1.88l-4.43,2.14c-.74.36-1.5.7-2.21,1.08L314.91,77c-1.37.73-2.68,1.42-3.86,2s-2.24,1.1-3.09,1.52a10.88,10.88,0,0,1-2,.83c-5.09,3.12,1.77-.45-3.31,2.67l-1.5.58-1.08,1.11c-3.27,2.11-5.08,3-5.35,2.83.79-.52,2.18-1.6,3-2.19-2.19,1.3-5.14,3.34-7.68,5.22s-4.59,3.73-5.32,4.21l4.65-3.35c-6.44,5-13.38,10.74-20,16.77a216.73,216.73,0,0,0-17.92,18.3l1-.72c-3.86,4.55-5.53,6.27-7.29,8.1s-3.52,3.85-7.67,8.92l.27-.39c-1.5,2.16-3.53,5-5.78,7.81,1.84-2.77-4.24,4.59-1.79,1-3.74,5.3-4.54,6.69-5.07,7.61s-.69,1.42-2.81,5.15l-1.41,1.41a65.84,65.84,0,0,1-4.92,8.36c1.33-2.32.65-1.53,0-.82s-1.29,1.37.21-1.25c-8.19,11.08-10.11,17.7-14.28,22.56-1.08,3,.46.47,2.15-2.38s3.56-6,2.75-4.43c.9-1.18.4,0-.61,2-.51,1-1.14,2.15-1.79,3.3s-1.25,2.32-1.8,3.24a58.43,58.43,0,0,1-3.87,5.56,83.1,83.1,0,0,0-6,10.08c.51-1,.48-1.07,1-2a45.82,45.82,0,0,0-2.79,5.56,59.59,59.59,0,0,1-3.16,6.18c-.65,2.83-2.81,5.94-2.44,7,1.38-3.07,2.69-6.18,4.16-9.21-1.2,2.6-2.09,5.25-3.28,8.27-.58,1.51-1.26,3.11-2,4.87s-1.61,3.68-2.66,5.8c.15-.74,1.08-3.39,1.75-5.21-1.32,2.44-2,4.93-3.36,7.46-.2-.53,1-3.37,2.48-6.8s3.39-7.4,4.39-10.33c-1.56,2.55-4.37,10.79-3.86,7.63-.79,4.51-4.54,9.89-6.57,17.14l-.25-.63-.8,2.37a11.4,11.4,0,0,1-1.26,2.61l.33-.82.27-.83a8,8,0,0,0,.22-.84l.22-.89a12,12,0,0,1-4.27,6.2,20,20,0,0,1-6.49,3.24,18.2,18.2,0,0,0,4.39-1.78c.68-.36.81-.37.79-.24s-.66,1,1.28-.22a13.35,13.35,0,0,1-6.28,3.23,14.66,14.66,0,0,1-3.81.11c-2.39-.15-5-.32-13.32.57,2.25-.28,8.48-.5,5,0-3.17.2-7.37.41-9.34.34-11,1.13,1.74.33-2.92,1.06-3.81-.23-5.39.74-10.2,1.37l-.08-.48c-12.59.86-3.24,1.31-14.58,2L120,264.2l-5.88.72,1.16-.66a129.83,129.83,0,0,1-14.67,1.51c1.49.21-.74,1-6.3,1.49-3.82.06,2.08-.66-5.8.14a21.36,21.36,0,0,1,7.14-.9c.34-.19,1.73-.46,2.08-.65-4.12,0-10.28.88-13.13,1.15,1.1-.09,2.42-.18,3.1-.18l-11.37,1.73c-1.82,0-.4-.29,1-.56-2.31.27-3.89.64-7.29,1,.84-.47.59-.85,5.39-1.48l-10.85,1.44c-.74-.1-5.63.05-4.23-.22-3,.17-6.71.7-10.64,1.25-2,.27-4,.55-6,.78-1,.12-2,.23-3.06.32L39,271.2l-1.64.2c-.44.16-1.35.26-3.13.83a30.8,30.8,0,0,0-11,4.94,26.73,26.73,0,0,0-8.45,10.09c-.28.38-.56.75-.83,1.14l-.72,1.2-.72,1.21c-.24.41-.42.85-.63,1.28-.28.93-.45,1.52-.51,1.86s0,.45,0,.38.45-.84.76-1.4.56-.94.51-.45a11.78,11.78,0,0,1-.33,1.5c-.16.8-.39,1.92-.64,3.46l-.3,2.68c0,.71,0,1.23-.08,1.62-.07.77-.16,1-.26,1.07s-.21-.07-.32,0-.21.3-.19,1.1a30.1,30.1,0,0,0,.78,4,22.17,22.17,0,0,0,2,4.74,24.41,24.41,0,0,0,8.4,8.53A18.84,18.84,0,0,1,15.76,316.4Zm80.29,29.28c-.64-.49-1.6-1.21-2.49-1.93A18.35,18.35,0,0,1,91.37,342a6.88,6.88,0,0,1,2.32,1.34C94.37,343.94,95.08,344.72,96.05,345.68Zm35.17,112a12.82,12.82,0,0,1-2.41,0,27.35,27.35,0,0,1-3.07-.59C127.35,457.34,129.17,457.59,131.22,457.7ZM399.63,246.58l-.13.12C396.45,248.83,397.54,248.08,399.63,246.58Zm6-4.77c.53-.56.45-.57.16-.41a29.59,29.59,0,0,1-3.12,2.84A15.61,15.61,0,0,0,405.64,241.81ZM196.8,213.15l-.81,1.27C197.44,211.35,197.11,212.25,196.8,213.15Z"/><path class="cls-2" d="M116.09,454.33c-.39-.36-.46-.51-.5-.65C115,453.34,114.87,453.41,116.09,454.33Z"/><path class="cls-2" d="M37.11,271.43l.29,0a1.34,1.34,0,0,0,.27-.13Z"/><path class="cls-2" d="M303.42,303.78a28.66,28.66,0,0,1-3,.8C300.38,304.72,301.1,304.57,303.42,303.78Z"/><path class="cls-2" d="M432.05,211.23l-2.71,4.08c1.34-1.95,1.91-2.58,2.66-3.52C431.85,211.82,431.18,212.49,432.05,211.23Z"/><path class="cls-2" d="M455.42,175.26c.23-.69.61-1.41.85-2.09l-.29.09C454.75,176.1,454,178.15,455.42,175.26Z"/><path class="cls-2" d="M436,208.4c.55-.1,2.08-2.81,3.86-5.78l-.33.52C439.57,202,437.77,205.19,436,208.4Z"/><path class="cls-2" d="M440.25,201.93c.57-.9,1.1-1.85,1.63-2.75,0-.24-.17,0-.45.58A24.38,24.38,0,0,1,440.25,201.93Z"/><path class="cls-2" d="M412.6,235c1.23-1.07.36-1.09,1.13-1.62C414.67,231.77,406.46,241.49,412.6,235Z"/><polygon class="cls-2" points="438.6 206.75 437.51 207.54 436.81 209.41 438.6 206.75"/><path class="cls-2" d="M421.74,228.41c1.26-1.36,2.56-2.69,3.78-4.08-.12,0,.28-.57.79-1.28-1,1.37-2.26,2.67-3.17,3.67A9,9,0,0,0,421.74,228.41Z"/><path class="cls-2" d="M426.31,223.05c1.11-1.39,2.16-2.72,2.71-3.55C428.42,220.26,427.15,221.89,426.31,223.05Z"/><path class="cls-2" d="M434.48,213.15l-1,1.29c-.77,1.06-1.5,2.15-2.31,3.18C432.29,216.16,433.36,214.64,434.48,213.15Z"/><path class="cls-2" d="M375.65,266.06l-5,3.38c-.43.48,1-.32,2.89-1.59C374.66,267,376.52,265.7,375.65,266.06Z"/><path class="cls-2" d="M391.6,256.83a14.2,14.2,0,0,1-2.42,1.24l.21.61Z"/><path class="cls-2" d="M377,267c-.41.47-7.2,5.17-.7,1C376.75,267.49,381.83,264.1,377,267Z"/><polygon class="cls-2" points="293.96 305.22 295.44 304.74 294.9 303.84 293.96 305.22"/><path class="cls-2" d="M216.66,326.26c1.44-.55,2.27-.78,2.76-.93a2.39,2.39,0,0,0,.77-.37,1.57,1.57,0,0,1,.69-.31,27.89,27.89,0,0,1,3-.44c.82-.26-.51-.1-1.83.05s-2.47.31-1.74.07a15.72,15.72,0,0,0-3.92,1.45C215.72,326.17,215.74,326.31,216.66,326.26Z"/><path class="cls-2" d="M220.31,324.33l2.12-.51C221.2,324.09,220.6,324.23,220.31,324.33Z"/><polygon class="cls-2" points="411.04 50.7 415.61 49.89 412.61 50.22 411.04 50.7"/><path class="cls-2" d="M419.55,48l1.21.39,2.58-1.19A27.19,27.19,0,0,1,419.55,48Z"/><path class="cls-2" d="M102.79,355.85l.32.19a8,8,0,0,0-.61-1.21,14.8,14.8,0,0,0-1.33-2A30,30,0,0,1,102.79,355.85Z"/><polygon class="cls-2" points="51.11 329.14 52.16 329.4 50.32 328.38 51.11 329.14"/><path class="cls-2" d="M9.89,299.31a12.89,12.89,0,0,0-.11,1.89v2l.18,2c.07.65.09,1.26.22,1.93a11.69,11.69,0,0,1-.21-1.92c0-.59-.06-1.14-.08-1.65,0-1,.13-1.88.18-2.55s.1-1.15.11-1.43S10.09,299.16,9.89,299.31Z"/><circle cx="413.52" cy="86" r="7.41"/><path class="cls-3" d="M421.12,160.81c.14.06.14-.36.17-.43C421,160.43,421.11,160.92,421.12,160.81Z"/><polygon class="cls-3" points="418.54 161.38 418.61 161.22 418.19 161.58 418.54 161.38"/><path class="cls-3" d="M416.24,161c.11.74.85,0,1.22.32l.05.17.27-.54C417.27,161,416.56,161.28,416.24,161Z"/><path class="cls-3" d="M415.28,159.32c0,.29-.3.2.27.13a.15.15,0,0,1,0-.08A.67.67,0,0,1,415.28,159.32Z"/><path class="cls-3" d="M415.51,159.37c.24,0-.12-.25,0,0Z"/><path class="cls-3" d="M414.38,159.35l.35-.18c0-.17-.31-.27-.18-.37C414.2,158.87,414.24,159.05,414.38,159.35Z"/><path class="cls-3" d="M414,159.8l.18-.07C414.15,159.66,414.11,159.63,414,159.8Z"/><path class="cls-3" d="M414.55,159.58l-.38.15c0,.12,0,.35.17,0C414.28,159.89,414.38,159.7,414.55,159.58Z"/><path class="cls-3" d="M414.73,159.72c.15.18.36.31,0,.51C415.36,160.22,415.35,159.72,414.73,159.72Z"/><path class="cls-3" d="M416,161.74l.2.24.25-.2C416.34,161.88,416,161.52,416,161.74Z"/><path class="cls-3" d="M412.5,158.6a3.26,3.26,0,0,0,0,.61l.26-.12C412.68,159,412.47,158.82,412.5,158.6Z"/><path class="cls-3" d="M412.52,159.21l-.4.19C412.42,159.49,412.5,159.38,412.52,159.21Z"/><polygon class="cls-3" points="413.79 160.57 414.46 160.15 413.68 160.56 413.79 160.57"/><polygon class="cls-3" points="411.19 158.31 411.45 158.01 411 158.46 411.19 158.31"/><path class="cls-3" d="M410.31,158.2c.2-.26-.1-.52.09-.67a1.46,1.46,0,0,0-.73.39C409.89,157.84,410.09,157.91,410.31,158.2Z"/><path class="cls-3" d="M409.29,158.18a1.84,1.84,0,0,0,.38-.26A1.12,1.12,0,0,0,409.29,158.18Z"/><path class="cls-3" d="M411.54,159.2a.67.67,0,0,0-.18-.48l.05.45Z"/><path class="cls-3" d="M411.41,159.18h0l-.29-.08Z"/><path class="cls-3" d="M411.58,159.21h0C411.55,159.25,411.55,159.26,411.58,159.21Z"/><path class="cls-3" d="M413,160c-.25.19-.73.36-.38.8C412.77,160.55,412.57,160.3,413,160Z"/><path class="cls-3" d="M411.64,159.77l.35.17c0-.11,0-.29.11-.38Z"/><polygon class="cls-3" points="411.44 159.87 411.64 159.77 411.51 159.71 411.44 159.87"/><path class="cls-3" d="M409.84,158.7a.77.77,0,0,1-.58.12,1.79,1.79,0,0,0,.61.25C409.92,159,410.06,158.73,409.84,158.7Z"/><path class="cls-3" d="M410.59,159l0,0S410.58,159,410.59,159Z"/><path class="cls-3" d="M407.34,158.38v.08l0-.07Z"/><path class="cls-3" d="M409.89,159.16c.14.11.25,0,.37-.08a1.28,1.28,0,0,1-.39,0C409.84,159.13,409.83,159.17,409.89,159.16Z"/><path class="cls-3" d="M408.71,158.27a2.09,2.09,0,0,0,.22.28C408.88,158.41,408.77,158.17,408.71,158.27Z"/><path class="cls-3" d="M410.52,158.86h0C410.52,158.75,410.52,158.79,410.52,158.86Z"/><path class="cls-3" d="M410.52,158.86a1.32,1.32,0,0,0-.26.22,1.4,1.4,0,0,0,.29-.09Z"/><path class="cls-3" d="M406.12,160.89c.12-.37.62-.62.88-.12.43-.2.49-1.52.35-2.31-.05.16-.08.32-.5.46.08.24.69.69.3,1-.53.08-.36-.23-.55-.5.09.53-.78.55-.85,1.28l.49-.14C406.22,160.63,406,160.76,406.12,160.89Z"/><path class="cls-3" d="M408,158.67h.16c-.16-.11-.24-.29-.39-.65-.29.12-.38.25-.42.38l.71.24Z"/><path class="cls-3" d="M408.86,158.8c-.21.4-.62.51-.5,1,.45.06.39-.29.7-.42-.74,0,.25-.2-.21-.54a1.2,1.2,0,0,1,.41,0,2.16,2.16,0,0,1-.33-.27l0,0h0c0,.06,0,.09,0,0s0,0,0,0a.52.52,0,0,1-.06.15c-.19-.13,0-.11.06-.15l0-.06h0c-.26,0-.51.07-.76.08A1.23,1.23,0,0,0,408.86,158.8Z"/><path class="cls-3" d="M412,161.64a.17.17,0,0,1,0-.1C412,161.58,411.93,161.61,412,161.64Z"/><path class="cls-3" d="M411.76,161.33c.07-.05.14-.21.31-.13s0,.2-.06.34c.12-.09.41-.23.13-.5l-.06,0a1.48,1.48,0,0,1-.47-.85A3.88,3.88,0,0,0,411.76,161.33Z"/><path class="cls-3" d="M410.25,160.17l-.64.08.23.43,0-.22C410.19,160.61,410.18,160.33,410.25,160.17Z"/><polygon class="cls-3" points="407.32 158.15 407.5 157.73 407.02 158.27 407.32 158.15"/><polygon class="cls-3" points="406.55 158.01 406.68 157.63 406.42 157.81 406.55 158.01"/><path class="cls-3" d="M365.28,140.74l-.22-.06A.56.56,0,0,0,365.28,140.74Z"/><path class="cls-3" d="M366.19,141.75l.17-.1C366.23,141.67,366.16,141.71,366.19,141.75Z"/><path class="cls-3" d="M388.53,151.81c-.07-.44-.08-1.07-.24-.66l-.12.42A.39.39,0,0,1,388.53,151.81Z"/><path class="cls-3" d="M375.88,147.29l0,.15.39-.23Z"/><path class="cls-3" d="M374.66,148.63l-.13-.43A1.27,1.27,0,0,0,374.66,148.63Z"/><path class="cls-3" d="M360.32,135.12l-.5.06C360,135.47,360.12,135.22,360.32,135.12Z"/><path class="cls-3" d="M398.83,156a1.21,1.21,0,0,0-.45-.42C398.56,155.89,398.65,156.31,398.83,156Z"/><path class="cls-3" d="M369.05,138a.33.33,0,0,0-.3.07C368.89,138.14,369,138.13,369.05,138Z"/><path class="cls-3" d="M397.77,155.38a.64.64,0,0,0,.08.14,1,1,0,0,1,.53,0C398.25,155.34,398.07,155.16,397.77,155.38Z"/><path class="cls-3" d="M351.52,109.69s0,0,0-.07S351.5,109.65,351.52,109.69Z"/><path class="cls-3" d="M355.64,102a2.19,2.19,0,0,1,0,.29C355.69,102.24,355.69,102.15,355.64,102Z"/><path class="cls-3" d="M403.56,157.05c.17,0,0,0,0,0Z"/><path class="cls-3" d="M403.9,158.91a.35.35,0,0,0-.12.19A.44.44,0,0,1,403.9,158.91Z"/><path class="cls-3" d="M395.31,157.37h0C395.32,157.46,395.32,157.44,395.31,157.37Z"/><path class="cls-3" d="M403.75,157.31a.73.73,0,0,0-.17-.18A.63.63,0,0,0,403.75,157.31Z"/><path class="cls-3" d="M403.77,157.1l.13.08C403.94,157.11,403.93,157.06,403.77,157.1Z"/><path class="cls-3" d="M403.33,157a.8.8,0,0,1,.25.11s0-.06,0-.08Z"/><path class="cls-3" d="M355.94,123.35l0,0C355.73,123.2,355.79,123.26,355.94,123.35Z"/><path class="cls-3" d="M382.58,153.81h0v0Z"/><path class="cls-3" d="M381.86,153.8c.5-.34.6-.22.73,0l.42-1.19Z"/><path class="cls-3" d="M363.08,138.31l0,.59c-.84,0-.92-.47-1.08.21,1.1-.8,1.23,1.28,2.31.45l0,.42c0-.08-.11,0-.15-.11-.13.87,1-.31,1.33.38.1.25.08.51-.16.49l.64.19a.12.12,0,1,1-.21.13l.68.56,0,0a4.51,4.51,0,0,1,.86-.08c0,.29-.18,0-.26.18l.56.11c-.12.39-.63.34-.83.06-.67,1.27.52.05.62,1.32l-.43-.22c-.34.75.08.84.14,1.53.07-.25.11-1.6.72-1.45,0,.18.14.34.53.34-.33.34,0,.45.22.66l-.46.45c.41.12.61-.14,1-.2.26.33,0,.75-.22,1.13.42.53.19-.9.86-.45.24.55.69.63,1.44.77.15.41-.31.26-.32.48l.6-.17c.05.06-.07.17-.13.22.35,0,.43-.47.89-.33.54-.47.06,1.38,1,1.11,0,.23-.3.26-.42.48a3.92,3.92,0,0,0,1.67-.05c.05.22.1.45.16.66,0-.61.72-.78,1.35-.91,0-.26.05-.49.05-.61l.75.11c0,.13-.18.27-.43.42l.2-.05c.06.33-.26.56-.62.74l0-.46a2.87,2.87,0,0,0-.95.79.48.48,0,0,1,.29,0,.36.36,0,0,0-.2.18c0,.06.13,0,.32-.07l-.3.66.2-.2.49.89c1-.21,2-.76,3-.43-.49.3-.51.69-.86,1.2.13-.71-.81-.23-1.18-.65.19.21,0,.42-.15.47l1.13.05c-.3.41,0,.44,0,.76.39-.94,1-.19,1.47-.25-.16.3-.42.54-.78.23,0,.91,1.2-.65,1.3.16-.1,0-.13-.13-.26,0,.39-.11.83.43.54.6l-.1,0c.6.5,2,1.22,2.51.54a10.27,10.27,0,0,1-.71,1c.87-.61,1.74-1.24,2.58-1.87-.45.58-.87,2.33-1.64,2.39a.65.65,0,0,0,.73.34c-.07-.15.22-1.07.4-1,0,.93.08.53.27,1.41-.09-.22.62-1.14.86-1-.12.13-.49,1-.65,1.07l1.17-.66c-.26.09-.46.83-.46,1.19,0-.23.56.32.78.31l-.16-.38c.66.54,1.42-1.05,2.13-.67-.19.17-.83,1.2-.51,1.5.42-.45,1.94-2.17,2.75-2.3V154l.64-.12a17.3,17.3,0,0,1-3.06,2.35c.18.37-.08.39.36.56,0,.34-.43.32-.56.28l.92.63c.23-.64,1-.28,1.22-.81l-1.36.15c.23-.62,1.4-1.46,2-1,.07.32-.61,1-.68,1.25.18-.17.84-.11.84.07l-.44.2c.3.4,1-.53,1.21.25.15.1.17,1,.35.63a10,10,0,0,1,1.24-3.5,6,6,0,0,1,.62,1.42c.06.66-.92,1.18-.88,1.75a.94.94,0,0,1,.4-.36c.11.21-.28.5.13.56.3-.61.74.35.38-.47.44,0,.34.28.78.42,0-.47.91-1.27,1.34-1.31a1.2,1.2,0,0,0-.08.51c.73.33,1,.8,1.73,1,0,.18.3.47.06.71.14-.09.3-.28.53-.22.24.69-.52-.07-.42.7.15-.36.74-.34,1.13-.47.09-.62-.68-.34-1.07-.2a2.58,2.58,0,0,1,1.93-1.62c.64,0,.08.6.22.52,1.05.48,1.36-1.12,2.08-.26.21.63-.28,1-.31,1.43-.53.05-.63-.55-1-.63l.32.36c-.2.13-.56.16-.69,0,.17.55,1.83.7,2.58,1.34.2-.13.51-.25.44-.49h-.29c-.13-.49.67-.45.38-.73.45-.21,1-.57,1.42-.2l-.06.62c0-.18-.24-.44-.43-.3.28-.2.58,1,1,.29l-.25-.5c.44-.21,1-.73,1.45-.42-.06-.64-.12,0-.27-.73.06.92-1.13-.33-.92.68-.12-.88-.48-.48-.72-1.27,0,.2.05.42-.3.23a.93.93,0,0,1-.13.15l0,0v0s0,0,0,0a.66.66,0,0,1,.11.35c-.31.4-.91.23-1.17.41-.2-.15.15-.2.09-.44l-.4.27c.09-.44-.38-.9.21-1l-.46-.16c-.21-.33-.55-.55-.84-.44-.18-.16-.69.31-.4,0l-.81,0,0-.11c-.7-.28-1.72.24-2.28-.78a1.08,1.08,0,0,1-.93-.19l.05-.4c-.35,0-.77-.7-1-.37,0-1.11-1.38-.77-1.85-1.14l-.21.46a2.84,2.84,0,0,0-1.29-.14l-.14.42c-.54.19-.87-.73-1.5-.95.11-.14.25,0,.32.11-.32-1.25-1.83,0-2.19-1a.28.28,0,0,1-.4-.18h.05l-.06,0c0-.1-.08-.21-.13-.31a1.08,1.08,0,0,0,.09.3A1.55,1.55,0,0,0,388,152l.13-.47h-.05c-.1-.25-.25.13-.31.51a1.09,1.09,0,0,0-.37.13c.2-.77-.59,0-.42-.86-.31.29-1.06-.21-1.55.49,0-.1,0-.17.12-.13-.16-.19-.32-.38-.62-.27l.2-.58-.83.49c-.1-.47-.11-.72.39-1-1,.3-.66,0-1.56.3l.22-.33c-.2-.1-.77.17-.72-.18,0-.91-2.07-1.37-2.77-2.63-.44,1.11-.19-.78-.74-.06.1-.27,0-.5.34-.58-.68-.15-.54-.91-1.34-.55.1-.26.34-.25.38-.42-.07,0-.3.08-.26-.09s.21-.14.36-.18c-.56-.33-1.11.32-1.62.93,0-.5-.22-.55-.73-.27,0-.28.06-.61.45-.45-.18-.14-.89-1.16-1.3-.67,0-.18-.22-.25-.32-.23a4,4,0,0,0-.82-.71l.05.17c-.65.47-.45-.13-.83-.32l.06-.06c-.37-1-.52,0-.79-1.15l-.28.4c-.75.71-.21-1-.87-1.1l0,.34c-.46.05.35-1.6.23-1.88,0-.11.17,0,.28,0-.14-.95-.5.39-1,.1.16-.31.7-.52.47-.83,0-.3-1.56,0-1.46-.85-.11.26-.21.53-.54.47-.35-.24,0-1.48-.9-1.19a.38.38,0,0,1,.1-.19c-.38-.08-.95-.51-1.4-.38,1.08-1.29-1.87-1-.68-2l-.68-.69.14-.07c-.27-.56-.69-.52-1.12-.48,0-.18.18-.18.25-.21-.28-.92-.37-.94-1.45-1.13l.37-.34c-.39,0-.06-1.52-1-2a.35.35,0,0,1,.24,0c-.51-.27-.54-1-.63-1.48s-.25-.94-1.13-.67l-.7-.36c.28.82-.75.25-.85.71-.26-.26.06-1,.34-.71l-.05.1c.91-.31-.22-1.09.38-1.37a12.24,12.24,0,0,1-.84-2.33c-.23-.78-.36-1.58-.64-2.31l-.61.44-.17-.53c.11-.19.46-.38.58,0,.31-.33-.57-.48-.72-.44,0-.82.9,0,.84-.24l-.15-.28-.06.1c-.36-.14-.67-.06-.79-.51.05-.33.38-.29.37-.41s.06-.06,0-.18l-.16-.66-.47.44c-.36-.2-.18-.63-.7-.12.79-.74-.37-2.59-.16-3a1.43,1.43,0,0,1-.67-1.25c-.09.16-.7.38-.73-.08,1.35-.14.37-.94,1.25-1.5-.57.45-.39-1.22-1.19-.55,0-.39.49-.11.75-.45-.7-.79,0-2-.32-3.05-.18,0-.42.22-.71,0l.81-.68c-.11-.21-1-.09-.46-.55-.14.07-.36.17-.43,0a8.57,8.57,0,0,0-.05-3.31,4.09,4.09,0,0,1,.73-3.29c-.35.28-.38.09-.38-.14-.09.14-.44,0-.68,0,.23-.3.48-.59.71-.87-.65-.22,0-1-.58-1.12l.08.3c-.71-.47-1.7.39-2.65.28.82.5-1.33,1.16-.13,2-.21.17-.31-.15-.53-.06.4.2.47.43.29.86l-.1-.05c.09,1.21-.29,1.73-.51,3.12l.47-.12c0,.29-.19.36-.3.51.74.29,0-.83.8-.56-.93.44.11,2-.94,2.39,0,.46.53-.18.57.27l-.28.15.39.07c0,.3-.38.49-.63.53,0-.08-.09-.2-.12-.27-.31.42.23,1.07.14,1.21l.13-.45c.43,1.19.26,2.75,1.09,3.8l.2-.13c.58.81-.12.77.29,1.69l-.06,0a.91.91,0,0,1,.47.65c-.31-.19-.39.57-.74.32.65.85.44.4,1.4.82l-.32.23c.38.13.56.1.79.54-.42-.3-.46.46-1,.13-.5,1.23,1.2,1.25.2,2.06,1.12.15.29-1,.58-.84.27-.31.83.15.84.48s-1.07.93-.78,1.73c0-.09-.1-.07-.12-.15-.15.39.53.47.25,1,.66,0,.13.49.9.27l-.43-.66c.33.35,1.34.4,1.19,1.21a1.59,1.59,0,0,1-.61-.21c-.14.28.29.32.15.6-.76.23-.52-.79-1.23-1-.25.34.85.63,0,.71,1.14-.07.18.83,1.17,1.05l-.46.15c.11,0,.38.14.43.3l-.68,0c.66.23-.09,1,.35,1.32-.38-.86.45-.42.61-.92,1,.79-.87,1.09-.12,2.19-.14-.14,0-.72.3-.56a1.57,1.57,0,0,1-.18.87c.46.74.39-.32.81-.12-.4.51.38.28.71.53l-.43.21c.15,1,1-.22,1.08.71h-.77l.37.32-.53.17c.6.25.58.43.67.93.25-.26.8-.36,1,0-.12.4-.48.08-.13.58-.33,0-.73.08-.47-.37-.15.06-.33,0-.48.08-.14.44.32.74.43.93a.34.34,0,0,1,0-.26c.33.15.68.28,1,.42-.08.21-.27.19-.45.17.14.13.4.12.57.32-.37.14-.71.37-1.06.14l.82.5c-.12.13-.17.62-.35.6.06.53,1.25.58,1.34,1.26a.37.37,0,0,1,.3.07c.27.52.18,1.23,1,1.48l-.34.74c.45.34.4-1,1.14-.39.55.38-.34.55-.36.86.47,0,1.39,0,1.31.82C363.26,138.6,363.24,138.42,363.08,138.31Zm4.66,4.77c-.16,0-.56,0-.43-.26C367.81,142.54,367.7,142.81,367.74,143.08Zm8.37,5.51c-.17.07-.24-.07-.27-.32A.41.41,0,0,1,376.11,148.59Zm25.6,8.34,0,0C401.49,156.69,401.56,156.79,401.71,156.93Zm.48.37a.18.18,0,0,0,.08-.18c-.07.1-.19.07-.32,0C402,157.25,402,157.36,402.19,157.3Zm-43.8-36.74-.08.14C358.1,120.52,358.24,120.54,358.39,120.56Z"/><path class="cls-3" d="M374.8,148.47a1.28,1.28,0,0,1,.11-.24A.19.19,0,0,0,374.8,148.47Z"/><path class="cls-3" d="M360.41,135.11s0,0,0,0l-.08,0Z"/><path class="cls-3" d="M392.49,158.34a.57.57,0,0,1-.13-.32C392.31,158.13,392.33,158.24,392.49,158.34Z"/><path class="cls-3" d="M405.27,157.26l-.38,0c.18,0,.21.13.28.23C405.19,157.42,405.16,157.24,405.27,157.26Z"/><path class="cls-3" d="M407.61,160.94c.07,0,.11,0,.18,0l0-.23C407.6,160.65,407.4,160.79,407.61,160.94Z"/><path class="cls-3" d="M405.2,158.9c-.08.4.18.32.44.31h0C405.81,158.67,405.5,158.78,405.2,158.9Z"/><path class="cls-3" d="M405.7,159.21a.41.41,0,0,1,.23,0C406,159.05,405.85,159.19,405.7,159.21Z"/><path class="cls-3" d="M402.94,157.24c.09.13.22-.48.24-.3C403.45,156.47,402.24,157.34,402.94,157.24Z"/><polygon class="cls-3" points="405.07 160.25 405.1 159.74 404.86 160.09 405.07 160.25"/><path class="cls-3" d="M403.2,159.39l.36.24c0-.09.08-.12.15-.14C403.47,159.41,403.23,159.24,403.2,159.39Z"/><path class="cls-3" d="M403.71,159.49a.4.4,0,0,0,.34,0A.77.77,0,0,0,403.71,159.49Z"/><polygon class="cls-3" points="404.49 160.25 404.39 160.12 404.12 160.01 404.49 160.25"/><path class="cls-3" d="M399,158h-.47c-.09.15,0,.28.17.27S399,158.22,399,158Z"/><path class="cls-3" d="M399.9,159.76c-.09-.14-.06-.25-.08-.42l-.19.59Z"/><path class="cls-3" d="M398.6,159.5c-.1.16-.78.28-.22.41C398.48,159.77,399,159.76,398.6,159.5Z"/><polygon class="cls-3" points="392.45 156.5 392.56 156.54 392.92 155.58 392.45 156.5"/><path class="cls-3" d="M385.92,156.32c.39.45.39-.51.71,0,.22-.17-.26-.39-.05-.53C386.17,155.86,386.07,155.66,385.92,156.32Z"/><path class="cls-3" d="M386.58,155.76a.9.9,0,0,0,.22-.07A.69.69,0,0,0,386.58,155.76Z"/><polygon class="cls-3" points="356.26 100.86 356.5 100.58 356.14 100.74 356.26 100.86"/><path class="cls-3" d="M355.57,100.19h.65c-.19-.09-.38-.15-.56-.23C355.68,100,355.72,100.15,355.57,100.19Z"/><path class="cls-3" d="M367.54,144.7l.13-.1c.08-.16,0-.22-.08-.36Z"/><polygon class="cls-3" points="364.5 140.83 364.54 140.9 364.88 140.4 364.5 140.83"/><path class="cls-3" d="M361.31,138.09c.08.15.3.24.39.39C361.39,138.24,361.87,137.61,361.31,138.09Z"/><path class="cls-3" d="M143.29,430.4c-.16.1.16.37.19.45C143.66,430.55,143.21,430.32,143.29,430.4Z"/><polygon class="cls-3" points="144.83 427.55 144.92 427.7 144.91 427.08 144.83 427.55"/><path class="cls-3" d="M146.69,425.43c-.73-.25-.58.84-1.11,1.06l-.17-.05.28.55C146,426.47,146.25,425.63,146.69,425.43Z"/><path class="cls-3" d="M148.81,425.2c-.27-.1,0-.41-.28.23h.09A2.13,2.13,0,0,1,148.81,425.2Z"/><path class="cls-3" d="M148.62,425.42c-.16.25.31,0,0,0Z"/><path class="cls-3" d="M149.34,424.22l0,.47c.18,0,.42-.23.44-.05C149.88,424.23,149.69,424.2,149.34,424.22Z"/><path class="cls-3" d="M149.15,423.62l0,.22C149.19,423.85,149.24,423.82,149.15,423.62Z"/><path class="cls-3" d="M149,424.32l.09-.48c-.13,0-.32-.16-.06.2C148.9,423.89,149,424.08,149,424.32Z"/><path class="cls-3" d="M148.79,424.44c-.26.09-.51.25-.47-.21C148,424.88,148.41,425.1,148.79,424.44Z"/><path class="cls-3" d="M146.2,424.85l-.34.09,0,.34C145.87,425.11,146.39,425,146.2,424.85Z"/><path class="cls-3" d="M151.07,422.45c-.11-.11-.41-.12-.59-.21l0,.34C150.63,422.52,150.87,422.34,151.07,422.45Z"/><path class="cls-3" d="M150.48,422.24l0-.5C150.27,422,150.33,422.16,150.48,422.24Z"/><polygon class="cls-3" points="148.55 423.09 148.56 423.98 148.63 422.98 148.55 423.09"/><polygon class="cls-3" points="152.02 421.1 152.17 421.5 151.98 420.84 152.02 421.1"/><path class="cls-3" d="M152.57,420.16c.15.31.55.06.6.31a1.68,1.68,0,0,0,0-.94C153.11,419.8,153,420,152.57,420.16Z"/><path class="cls-3" d="M153.06,419a2.69,2.69,0,0,0,.08.5A1.23,1.23,0,0,0,153.06,419Z"/><path class="cls-3" d="M151,421.18a.64.64,0,0,0,.55,0l-.45-.1Z"/><path class="cls-3" d="M151.08,421h0l.23-.28Z"/><path class="cls-3" d="M151,421.21l0,0S150.93,421.17,151,421.21Z"/><path class="cls-3" d="M149.52,422.41c-.05-.34,0-.92-.55-.72C149.11,422,149.44,421.89,149.52,422.41Z"/><path class="cls-3" d="M150.4,421.08l-.33.32c.09.06.28.08.3.25Z"/><polygon class="cls-3" points="150.42 420.82 150.4 421.08 150.53 420.97 150.42 420.82"/><path class="cls-3" d="M152.31,419.47a1,1,0,0,1,.16-.67,2.47,2.47,0,0,0-.53.59C152,419.49,152.18,419.72,152.31,419.47Z"/><path class="cls-3" d="M151.7,420.22v-.05S151.63,420.19,151.7,420.22Z"/><path class="cls-3" d="M153.73,416.79h-.08l.06.05Z"/><path class="cls-3" d="M151.85,419.38a.33.33,0,0,0-.09.44,2,2,0,0,1,.18-.43C151.9,419.34,151.87,419.32,151.85,419.38Z"/><path class="cls-3" d="M153.25,418.36a3.08,3.08,0,0,0-.38.16C153,418.51,153.33,418.45,153.25,418.36Z"/><path class="cls-3" d="M151.84,420.18v0C152,420.22,151.91,420.2,151.84,420.18Z"/><path class="cls-3" d="M151.84,420.18a1.55,1.55,0,0,0-.08-.36,1.12,1.12,0,0,0-.06.35Z"/><path class="cls-3" d="M151.75,414.76a.55.55,0,0,1-.21,1c0,.52,1.28,1,2.11,1-.14-.1-.27-.18-.25-.68-.26,0-1,.57-1.06.07.14-.6.37-.34.7-.47-.55-.05-.25-1-.93-1.27l0,.57C152,415,151.91,414.69,151.75,414.76Z"/><path class="cls-3" d="M153.16,417.48l-.06.18a1.66,1.66,0,0,1,.8-.25c0-.37-.09-.49-.19-.58l-.53.74Z"/><path class="cls-3" d="M152.66,418.36c-.28-.35-.2-.82-.74-.84-.26.47.1.51.09.88.37-.79.07.34.61-.06a1.77,1.77,0,0,1-.15.46,2.21,2.21,0,0,1,.4-.28h0c-.06,0-.1,0-.05,0v0a.63.63,0,0,1-.11-.12c.21-.16.11,0,.11.12l.05,0h0l.26-.87A2.16,2.16,0,0,0,152.66,418.36Z"/><path class="cls-3" d="M148.47,420.78a.15.15,0,0,1,.1,0C148.56,420.74,148.54,420.7,148.47,420.78Z"/><path class="cls-3" d="M148.89,420.64c0,.09.12.23,0,.37s-.17-.12-.29-.19c0,.16,0,.53.4.33v-.08c.31-.2,1-.27,1-.18A3.41,3.41,0,0,0,148.89,420.64Z"/><path class="cls-3" d="M150.72,419.46l.21-.73-.51.11.2.11C150.33,419.24,150.6,419.32,150.72,419.46Z"/><polygon class="cls-3" points="153.96 416.83 154.3 417.15 153.96 416.46 153.96 416.83"/><polygon class="cls-3" points="154.39 415.99 154.71 416.23 154.63 415.89 154.39 415.99"/><path class="cls-3" d="M171.74,366.55l0-.23A.51.51,0,0,0,171.74,366.55Z"/><path class="cls-3" d="M171.16,368l.17.1C171.26,368,171.19,367.89,171.16,368Z"/><path class="cls-3" d="M164.85,395.59c.47-.13,1.13-.2.71-.35l-.43-.1A.54.54,0,0,1,164.85,395.59Z"/><path class="cls-3" d="M168.69,380.27l-.15,0,.3.35Z"/><path class="cls-3" d="M167.12,379.38l.41-.26A1.38,1.38,0,0,0,167.12,379.38Z"/><path class="cls-3" d="M174.23,358.7l-.33-.38C173.77,358.68,174,358.6,174.23,358.7Z"/><path class="cls-3" d="M158.9,407.52a1.43,1.43,0,0,0,.54-.46C159.07,407.23,158.62,407.28,158.9,407.52Z"/><path class="cls-3" d="M175.82,368.77c0-.15-.09-.23-.19-.26C175.66,368.66,175.71,368.76,175.82,368.77Z"/><path class="cls-3" d="M159.79,406.37l-.15.08a1.3,1.3,0,0,1-.2.61C159.72,406.93,159.94,406.74,159.79,406.37Z"/><path class="cls-3" d="M184.49,330.68l.07,0C184.51,330.61,184.49,330.64,184.49,330.68Z"/><path class="cls-3" d="M191.36,323.76a1.42,1.42,0,0,1-.08.35A.52.52,0,0,0,191.36,323.76Z"/><path class="cls-3" d="M156.45,412.81c-.07.19,0,.05,0,0Z"/><path class="cls-3" d="M154.48,412.81a.31.31,0,0,0-.14-.17A.34.34,0,0,1,154.48,412.81Z"/><path class="cls-3" d="M158.28,403.4h0C158.18,403.4,158.2,403.4,158.28,403.4Z"/><path class="cls-3" d="M156.14,413a.87.87,0,0,0,.23-.16A1.07,1.07,0,0,0,156.14,413Z"/><path class="cls-3" d="M156.33,413l-.12.14C156.26,413.23,156.31,413.24,156.33,413Z"/><path class="cls-3" d="M156.56,412.56a.7.7,0,0,1-.19.26s.07,0,.08,0Z"/><path class="cls-3" d="M180.39,346.2l.05,0C180.34,345.92,180.33,346,180.39,346.2Z"/><path class="cls-3" d="M162.84,389.08v0l0,0Z"/><path class="cls-3" d="M162.83,388.31c.37.49.24.62,0,.78l1.23.3Z"/><path class="cls-3" d="M172.91,363.14l-.54.32c-.39-.78,0-1.1-.7-.87,1.24.55-.56,1.84.68,2.39l-.38.2c.05-.09,0-.13,0-.21-.83.36.75.79.28,1.48-.2.23-.45.34-.53.1l.08.71c-.09.16-.29,0-.2-.12l-.25.93,0,0a5.24,5.24,0,0,1,.42.81c-.27.16-.09-.17-.27-.17l.11.62c-.41.07-.56-.47-.38-.79-1.45,0,.16.54-1,1.25l0-.54c-.84,0-.72.49-1.37.84.28,0,1.54-.61,1.64.05-.15.12-.28.3-.14.69-.45-.18-.45.15-.56.52l-.59-.26c0,.45.34.54.52.87-.23.4-.73.31-1.16.25-.37.65.93-.17.72.68-.46.47-.38,1-.29,1.79-.37.32-.34-.21-.57-.14l.34.54c-.05.09-.18,0-.25-.05.06.38.58.27.55.8.61.39-1.33.57-.83,1.45-.23.07-.34-.22-.58-.27a4.71,4.71,0,0,0,.45,1.74l-.61.39c.61-.22.92.52,1.16,1.15a5.21,5.21,0,0,0,.64-.15l0,.86c-.14,0-.31-.11-.51-.33a1.72,1.72,0,0,0,.09.19c-.33.17-.61-.1-.86-.43l.47-.11a2.26,2.26,0,0,0-1-.76.56.56,0,0,1,.07.3.46.46,0,0,0-.22-.16c-.08,0,0,.13.12.31l-.72-.11.24.15-.8.78c.38.95,1.1,1.95.91,3.14-.36-.47-.76-.39-1.32-.65.73,0,.09-.94.45-1.44a.28.28,0,0,1-.49,0l.13,1.22c-.46-.22-.44.07-.74.24,1,.2.3,1,.41,1.53-.32-.11-.6-.34-.31-.8-.93.24.78,1.16,0,1.44.05-.12.12-.16,0-.28.16.4-.35,1-.55.71l0-.12c-.45.75-1.06,2.41-.33,2.87a7.33,7.33,0,0,1-1-.63l2,2.58c-.61-.43-2.41-.65-2.5-1.48a.8.8,0,0,0-.33.84c.15-.09,1.11.1,1.09.31-1,.15-.54.16-1.44.47.23-.13,1.17.55,1,.84-.13-.12-1-.44-1.1-.6l.68,1.22c-.1-.27-.85-.43-1.22-.39.24,0-.31.64-.3.89l.38-.21c-.54.78,1.06,1.5.62,2.32-.17-.2-1.19-.85-1.51-.48.44.44,2.11,2,2.16,3h-.37l.07.73a21.75,21.75,0,0,1-2.18-3.34c-.39.21-.4-.07-.59.41-.36,0-.3-.45-.26-.6l-.7,1c.64.23.22,1.12.74,1.32l-.06-1.49c.63.23,1.4,1.5.92,2.23-.33.09-1-.66-1.22-.74.16.2.05.93-.13.94l-.17-.49c-.44.33.47,1.09-.36,1.34-.12.16-1,.16-.69.36a9,9,0,0,1,3.42,1.46,6.35,6.35,0,0,1-1.57.67c-.68,0-1.07-1.07-1.66-1a.92.92,0,0,1,.32.45c-.23.12-.47-.33-.6.12.58.36-.46.8.42.44,0,.49-.33.37-.54.85.47,0,1.13,1.09,1.11,1.58a1.1,1.1,0,0,0-.5-.12c-.46.8-1,1.09-1.37,1.85-.18,0-.55.27-.73,0,0,.16.2.37.1.61-.76.18.19-.56-.62-.54.33.21.17.85.22,1.3.59.18.5-.72.45-1.16a2.48,2.48,0,0,1,1.17,2.35c-.15.74-.63,0-.58.19-.75,1.12.76,1.7-.31,2.4-.69.13-1-.5-1.34-.59.1-.61.73-.62.9-1l-.46.31a.71.71,0,0,1,.24-.77c-.6.1-1.17,1.94-2,2.63.07.24.08.61.34.59l.09-.33c.52-.05.23.84.6.57.06.54.23,1.21-.3,1.62l-.59-.2c.16.07.52-.17.45-.42.1.36-1.2.41-.65,1.06l.59-.17c0,.54.32,1.35-.12,1.73.64.09,0-.15.81-.13-.93-.15.75-1.21-.33-1.2.92.06.66-.43,1.53-.54-.18-.09-.42,0-.11-.38a.81.81,0,0,1-.1-.18l0,0h0s0,0,0,0a.65.65,0,0,1-.38.06c-.29-.43.07-1.07,0-1.4.22-.2.15.21.41.18l-.14-.5c.42.19,1-.28.93.42l.3-.5a1.05,1.05,0,0,0,.67-.9c.22-.2-.1-.85.1-.47l.18-.94.11.05c.46-.78.19-2,1.39-2.54a1.64,1.64,0,0,1,.41-1.05l.39.08c.05-.41.87-.87.58-1.2,1.12.09,1-1.6,1.51-2.13l-.44-.25a3.71,3.71,0,0,0,.37-1.49l-.42-.17c-.12-.61.84-1,1.14-1.77.13.13,0,.29-.15.37,1.32-.43.19-2.12,1.22-2.59a.38.38,0,0,1,.22-.47s0,0,0,.06a.2.2,0,0,0,0-.08l.34-.17a1,1,0,0,0-.32.12,1.94,1.94,0,0,0,.11-.67l.49.1s0,0,0-.06c.26-.14-.13-.27-.51-.3a1.21,1.21,0,0,0-.13-.42c.79.15,0-.69.89-.59-.3-.32.24-1.26-.49-1.72.11,0,.19,0,.14.11.2-.21.4-.42.28-.74l.61.15-.51-.89c.48-.18.74-.23,1,.29-.31-1.09,0-.75-.33-1.72l.35.19c.09-.25-.22-.85.14-.86.94-.24,1.27-2.64,2.5-3.77-1.19-.19.75-.45-.05-.86.28,0,.51-.11.64.21.05-.81.86-.9.36-1.69.29,0,.31.31.49.3,0-.08-.13-.32.06-.33s.17.19.23.35c.26-.75-.49-1.15-1.21-1.51.5-.22.53-.43.16-.9.29,0,.63-.14.53.35.14-.24,1-1.41.42-1.68.18,0,.19-.34.15-.44a5.51,5.51,0,0,0,.52-1.17l-.16.11c-.62-.51,0-.53.13-1l.07,0c.93-.83-.07-.55.93-1.34l-.46-.13c-.92-.48.93-.68.8-1.43l-.34.12c-.2-.46,1.67-.4,1.92-.68.11,0,.09.17.11.29.91-.64-.54-.34-.42-1,.36,0,.74.47,1,.06.34-.12-.53-1.66.31-2-.3,0-.59.07-.66-.3.09-.49,1.41-.88.8-1.59a.28.28,0,0,1,.22,0c-.06-.43.11-1.27-.22-1.64,1.67.27.08-2.47,1.5-1.91l.34-1.11.14.08a1.16,1.16,0,0,0-.15-1.4c.16-.12.24,0,.31.08.67-.9.65-1,.25-2.14l.5.09c-.18-.33,1.28-1.19,1.1-2.38a.33.33,0,0,1,.17.18c-.13-1.32,2.28-2.2.73-3.23l-.15-.89c-.47.91-.68-.41-1.11-.12,0-.41.87-.79.79-.29l-.11,0c.82.49.74-1.07,1.33-.83.64-1.89,1.79-3.55,2.45-5.31l-.76,0,.26-.6c.22-.11.61,0,.43.4.47-.09-.07-.85-.21-.92.58-.76.69.62.79.37l.08-.38-.11.05c-.18-.39-.47-.52-.25-1,.25-.28.49,0,.56-.14s.09,0,.09-.2l.33-.75-.65.12c-.15-.44.28-.72-.46-.58,1.14-.19,1.35-2.78,1.76-3a2,2,0,0,1,.19-1.67c-.17.11-.81,0-.56-.5,1.2.62.87-.74,1.92-.84-.73.16.34-1.5-.71-1.22.25-.39.48.14.89-.08-.14-1.18,1.08-2.13,1.33-3.44-.16-.08-.48.05-.64-.31l1.05-.38c0-.27-.88-.55-.15-.81-.17,0-.41,0-.41-.14,1.64-2.19,1-5.24,3.33-7.26-.43.24-.39,0-.32-.26-.13.14-.41-.14-.65-.18l1-.85c-.57-.39.31-1.14-.26-1.44V322c-.58-.67-1.78.12-2.67-.24.65.75-1.61.92-.72,2.1-.24.11-.24-.25-.48-.22.32.33.32.6,0,1l-.08-.08c-.32,1.32-.89,1.74-1.62,3.1l.49,0c-.16.29-.33.31-.49.42.57.58.33-.86,1-.29-1.05.12-.73,2.19-1.87,2.12-.16.48.57,0,.41.51l-.33,0,.33.24a.72.72,0,0,1-.81.27c.05-.07,0-.24,0-.33-.47.3-.27,1.18-.42,1.29l.32-.4c-.17,1.38-1.07,2.85-.93,4.29l.24,0c.07,1.09-.49.69-.67,1.8l0-.05a1,1,0,0,1,0,.88c-.15-.35-.65.33-.81-.11.07,1.18.16.62.71,1.58l-.41,0c.24.34.4.42.31,1-.15-.53-.65.15-.88-.47-1.15.84.2,1.91-1.09,2,.79.84.87-.76,1-.41.4-.12.58.67.36,1s-1.45.17-1.74,1.06c0-.09,0-.12,0-.21-.37.25.1.77-.44,1,.51.43-.22.52.51.84l.11-.87c0,.53.75,1.27.06,1.88a1.48,1.48,0,0,1-.3-.6c-.3.14,0,.47-.32.62-.72-.33.19-1-.2-1.73-.4.12.21,1.12-.51.59.9.71-.44.82.13,1.69l-.43-.19c0,.11.18.39.1.56l-.46-.53c.32.66-.77.78-.66,1.34.33-1,.61,0,1.08-.32.17,1.41-1.41.27-1.68,1.68,0-.2.52-.58.62-.22a1.72,1.72,0,0,1-.76.57c-.23.91.5,0,.64.5-.65.11.07.52.1,1l-.46-.16c-.65.9.85.61.17,1.39l-.49-.61v.53l-.48-.29c.2.66,0,.78-.29,1.23a.66.66,0,0,1,.65.82c-.38.21-.37-.33-.53.33-.24-.25-.53-.53,0-.66-.13-.08-.23-.24-.36-.32-.43.21-.38.79-.46,1a.48.48,0,0,1,.2-.2l.29,1.14c-.22.08-.32-.08-.41-.24,0,.2.14.41.08.69-.34-.2-.73-.33-.76-.78l.09,1c-.18,0-.61.28-.7.12-.39.4.28,1.45-.25,2a.42.42,0,0,1,.1.31c-.31.57-1,.93-.72,1.84l-.81.15c-.06.62,1-.23.93.79,0,.74-.65,0-.92.2.21.45.66,1.27-.1,1.67C172.73,363.47,172.89,363.35,172.91,363.14Zm-2.37,7c0-.17-.22-.55.08-.54C171.07,369.92,170.78,369.94,170.54,370.11Zm-3.12,10.81c-.1-.16,0-.28.27-.38A.49.49,0,0,1,167.42,380.92Zm-10.26,29.79,0,0C157.46,410.5,157.34,410.56,157.16,410.71Zm-.51.49a.18.18,0,0,0,.16.13c-.09-.1,0-.24.09-.37C156.77,410.94,156.65,411,156.65,411.2Zm27.49-65.9-.16.08C184,345.06,184,345.18,184.14,345.3Z"/><path class="cls-3" d="M167.3,379.49a.75.75,0,0,1,.26.05C167.51,379.45,167.42,379.42,167.3,379.49Z"/><path class="cls-3" d="M174.29,358.77v0l-.07-.05Z"/><path class="cls-3" d="M157.73,400.2a.58.58,0,0,1,.34-.12C158,400,157.85,400,157.73,400.2Z"/><path class="cls-3" d="M155.61,414.71l.11-.43c-.09.19-.21.2-.33.25C155.49,414.58,155.67,414.59,155.61,414.71Z"/><path class="cls-3" d="M151.14,416.37c0,.09-.07.12,0,.2l.2.11C151.42,416.44,151.37,416.19,151.14,416.37Z"/><path class="cls-3" d="M154,414.25c-.36-.18-.38.13-.47.42l0,0C154,415,154,414.62,154,414.25Z"/><path class="cls-3" d="M153.53,414.74a.62.62,0,0,1-.13.24C153.58,415.13,153.5,414.91,153.53,414.74Z"/><path class="cls-3" d="M156.48,412.08c-.16.07.4.33.22.32C157.08,412.79,156.61,411.26,156.48,412.08Z"/><polygon class="cls-3" points="152.75 413.78 153.23 413.94 152.97 413.6 152.75 413.78"/><path class="cls-3" d="M154.25,411.94l-.36.34c.08,0,.09.11.09.2C154.14,412.23,154.38,412,154.25,411.94Z"/><path class="cls-3" d="M154,412.48a.51.51,0,0,0-.13.37A1.15,1.15,0,0,0,154,412.48Z"/><polygon class="cls-3" points="152.94 413.15 153.11 413.08 153.31 412.81 152.94 413.15"/><path class="cls-3" d="M156.77,407.48l.12-.52c-.13-.13-.29,0-.32.15S156.59,407.48,156.77,407.48Z"/><path class="cls-3" d="M154.83,408.22c.16-.07.26,0,.44,0l-.54-.3Z"/><path class="cls-3" d="M155.41,406.83c-.13-.13-.1-.9-.36-.3C155.17,406.66,155.06,407.18,155.41,406.83Z"/><polygon class="cls-3" points="159.62 400.23 159.57 400.35 160.49 400.78 159.62 400.23"/><path class="cls-3" d="M160.33,393c-.48.46.51.4,0,.77.15.23.41-.31.54-.09C160.8,393.23,161,393.12,160.33,393Z"/><path class="cls-3" d="M160.88,393.67a1.2,1.2,0,0,0,.06.24A.74.74,0,0,0,160.88,393.67Z"/><polygon class="cls-3" points="192.32 322.54 192.64 322.22 192.24 322.36 192.32 322.54"/><path class="cls-3" d="M191.83,321.58l.65.11-.49-.41C192,321.37,192,321.56,191.83,321.58Z"/><path class="cls-3" d="M168.93,370.65l.13.08c.18,0,.23-.07.32-.23Z"/><polygon class="cls-3" points="171.32 365.86 171.28 365.94 171.88 365.99 171.32 365.86"/><path class="cls-3" d="M172.22,361.42c-.09.16,0,.4-.13.57C172.13,361.58,172.92,361.63,172.22,361.42Z"/><path class="cls-3" d="M136.24,367.45c-.21,0,0,.41-.05.5C136.55,367.74,136.2,367.35,136.24,367.45Z"/><path class="cls-3" d="M137.92,365.4l.08.16a4.43,4.43,0,0,0-.06-.51C137.94,365.17,137.93,365.29,137.92,365.4Z"/><path class="cls-3" d="M139.17,364.23c-.61-.38-.35.51-.74.54l-.15-.08.29.51C138.79,364.87,138.86,364.27,139.17,364.23Z"/><path class="cls-3" d="M140.92,364.61c-.25-.14,0-.31-.21.1l.08,0A.38.38,0,0,1,140.92,364.61Z"/><path class="cls-3" d="M140.79,364.73c-.11.15.25.07,0,0Z"/><path class="cls-3" d="M141.22,364l0,.34c.16.07.33-.06.36.07C141.67,364.14,141.51,364.07,141.22,364Z"/><path class="cls-3" d="M141,363.5v.16C141,363.68,141.07,363.68,141,363.5Z"/><path class="cls-3" d="M141,364v-.33c-.1-.05-.28-.2,0,.14C140.8,363.64,140.93,363.81,141,364Z"/><path class="cls-3" d="M140.79,364c-.21,0-.39.06-.42-.28C140.15,364.15,140.57,364.44,140.79,364Z"/><path class="cls-3" d="M138.69,363.66l-.26,0,.07.27C138.47,363.77,138.86,363.8,138.69,363.66Z"/><path class="cls-3" d="M142.42,363.13a5,5,0,0,0-.53-.31l0,.25A.65.65,0,0,1,142.42,363.13Z"/><path class="cls-3" d="M141.89,362.82l0-.35C141.68,362.62,141.75,362.73,141.89,362.82Z"/><polygon class="cls-3" points="140.38 362.95 140.53 363.62 140.43 362.89 140.38 362.95"/><polygon class="cls-3" points="143.03 362.38 143.22 362.71 142.95 362.18 143.03 362.38"/><path class="cls-3" d="M143.37,361.84c.17.26.47.18.55.38a1.16,1.16,0,0,0-.15-.68C143.79,361.73,143.67,361.83,143.37,361.84Z"/><path class="cls-3" d="M143.64,361.17a1.5,1.5,0,0,0,.13.37A.91.91,0,0,0,143.64,361.17Z"/><path class="cls-3" d="M142.17,362.18a.7.7,0,0,0,.46.11l-.4-.18Z"/><path class="cls-3" d="M142.22,362.1h0l.15-.15Z"/><path class="cls-3" d="M142.15,362.2l0,0S142.11,362.16,142.15,362.2Z"/><path class="cls-3" d="M141.1,362.7c-.1-.26-.11-.66-.57-.66C140.69,362.3,141,362.3,141.1,362.7Z"/><path class="cls-3" d="M141.66,362l-.24.15c.09.06.25.13.29.26Z"/><polygon class="cls-3" points="141.63 361.78 141.66 361.96 141.74 361.91 141.63 361.78"/><path class="cls-3" d="M143.05,361.29a.47.47,0,0,1,0-.44.91.91,0,0,0-.37.28C142.81,361.23,143,361.43,143.05,361.29Z"/><path class="cls-3" d="M142.62,361.66v0S142.56,361.62,142.62,361.66Z"/><path class="cls-3" d="M143.9,359.75l-.08,0,.06,0Z"/><path class="cls-3" d="M142.64,361.11c-.13,0-.09.15,0,.28a.52.52,0,0,1,.1-.26C142.67,361.09,142.64,361.06,142.64,361.11Z"/><path class="cls-3" d="M143.71,360.74l-.31,0C143.55,360.79,143.78,360.82,143.71,360.74Z"/><path class="cls-3" d="M142.73,361.67v0C142.83,361.72,142.79,361.7,142.73,361.67Z"/><path class="cls-3" d="M142.73,361.67a1.46,1.46,0,0,0-.11-.28.49.49,0,0,0,0,.24Z"/><path class="cls-3" d="M141.9,357.82c.31.25.45.7,0,.65.09.37,1.24,1,2,1.25a.69.69,0,0,1-.31-.54c-.22-.05-.74.16-.9-.22,0-.39.27-.14.54-.15-.48-.18-.34-.76-1-1.12l0,.38C142.12,358,142,357.82,141.9,357.82Z"/><path class="cls-3" d="M143.5,360.09l0,.12a1.19,1.19,0,0,1,.65,0,.73.73,0,0,0-.25-.46l-.35.39Z"/><path class="cls-3" d="M143.2,360.59c-.3-.32-.3-.63-.76-.78-.16.26.16.38.2.64.21-.46.11.26.52.12a.58.58,0,0,1-.07.28,1.58,1.58,0,0,1,.31-.09h0c-.06,0-.09,0-.05,0h0l-.12-.12c.16-.06.11.05.12.12l.05,0h0l.11-.54C143.37,360.26,143.3,360.37,143.2,360.59Z"/><path class="cls-3" d="M140,361.25a.26.26,0,0,1,.09.05C140,361.24,140,361.21,140,361.25Z"/><path class="cls-3" d="M140.3,361.26c0,.06.14.19,0,.26s-.16-.13-.27-.22c0,.13.09.39.39.35l0-.07a1.5,1.5,0,0,1,.85.14A4.79,4.79,0,0,0,140.3,361.26Z"/><path class="cls-3" d="M141.67,360.86l.08-.45-.42-.06.18.13C141.3,360.61,141.55,360.74,141.67,360.86Z"/><polygon class="cls-3" points="144.1 359.84 144.44 360.15 144.05 359.58 144.1 359.84"/><polygon class="cls-3" points="144.37 359.36 144.68 359.61 144.57 359.36 144.37 359.36"/><path class="cls-3" d="M155.7,331.37l0-.16A.42.42,0,0,0,155.7,331.37Z"/><path class="cls-3" d="M155.25,332.1l.16.12C155.34,332.13,155.28,332.08,155.25,332.1Z"/><path class="cls-3" d="M151.46,348.33c.4.05,1,.18.6,0l-.4-.17C151.67,348.26,151.58,348.31,151.46,348.33Z"/><path class="cls-3" d="M153.76,339.37l-.14,0,.3.31Z"/><path class="cls-3" d="M152.26,338.36l.36-.05A1,1,0,0,0,152.26,338.36Z"/><path class="cls-3" d="M157.58,327l-.32-.33C157.16,326.9,157.4,326.92,157.58,327Z"/><path class="cls-3" d="M147.31,354.73a.75.75,0,0,0,.43-.18C147.43,354.57,147,354.49,147.31,354.73Z"/><path class="cls-3" d="M159.55,333.92a.44.44,0,0,0-.18-.22A.29.29,0,0,0,159.55,333.92Z"/><path class="cls-3" d="M148,354.18h-.12a.46.46,0,0,1-.11.36C148,354.54,148.15,354.47,148,354.18Z"/><path class="cls-3" d="M166,312.24h.06C166,312.2,166,312.21,166,312.24Z"/><path class="cls-3" d="M172.19,309.87a.69.69,0,0,1-.07.2S172.19,310,172.19,309.87Z"/><path class="cls-3" d="M145.76,357.69c0,.11,0,0,0,0Z"/><path class="cls-3" d="M144,357.18a.36.36,0,0,0-.15-.16A.5.5,0,0,1,144,357.18Z"/><path class="cls-3" d="M146.31,351.78h0C146.22,351.76,146.24,351.76,146.31,351.78Z"/><path class="cls-3" d="M145.5,357.72a.41.41,0,0,0,.19-.05A.76.76,0,0,0,145.5,357.72Z"/><path class="cls-3" d="M145.68,357.82l-.09.06C145.64,357.93,145.69,357.94,145.68,357.82Z"/><path class="cls-3" d="M145.83,357.55a.33.33,0,0,1-.14.12.1.1,0,0,1,.07,0Z"/><path class="cls-3" d="M162.71,320.84h0C162.66,320.65,162.66,320.71,162.71,320.84Z"/><path class="cls-3" d="M149.1,343.52a0,0,0,0,1,0,0h0Z"/><path class="cls-3" d="M149,343c.38.42.28.47.11.52l1.14.53Z"/><path class="cls-3" d="M156.59,329.51l-.47.06c-.4-.61-.08-.72-.69-.76,1.16.7-.41,1,.75,1.72l-.34,0s0-.08,0-.12c-.74,0,.73.71.33,1a.34.34,0,0,1-.48-.08l.12.48c-.08.07-.27-.06-.2-.14l-.17.53,0,0a4.73,4.73,0,0,1,.43.63c-.24,0-.09-.13-.26-.18l.14.42c-.37-.06-.54-.45-.39-.61-1.32-.42.17.39-.82.54v-.34c-.76-.22-.63.12-1.21.16.26.06,1.38,0,1.51.49-.14,0-.24.11-.09.4-.42-.24-.4,0-.49.17l-.54-.33c0,.3.33.44.51.71-.18.19-.64,0-1-.16-.3.32.83.15.69.64-.38.18-.28.52-.15,1.07-.32.11-.32-.23-.52-.24l.33.44s-.16,0-.23-.1c.08.26.55.33.56.67.57.41-1.19,0-.67.7-.2,0-.32-.23-.55-.33a3.37,3.37,0,0,0,.54,1.25l-.54.09c.54,0,.87.58,1.14,1.06l.57.08.07.56a1.1,1.1,0,0,1-.48-.35l.09.14c-.28,0-.56-.23-.81-.51l.42.06a3.78,3.78,0,0,0-.94-.77.35.35,0,0,1,.08.22.71.71,0,0,0-.21-.17c-.07,0,0,.1.13.24l-.66-.27.23.16-.68.29c.41.72,1.14,1.57,1.06,2.29a4.51,4.51,0,0,0-1.25-.78c.65.17,0-.59.3-.82-.15.12-.38-.06-.45-.15l.21.83c-.43-.27-.4-.08-.66-.05.93.4.35.74.48,1.11-.29-.16-.56-.39-.33-.61-.82-.09.79,1,.07.93,0-.06.1-.07,0-.19a.28.28,0,0,1-.45.32l0-.07c-.35.37-.77,1.29-.08,1.79-.09,0-.85-.58-1-.69l2,2.22c-.59-.44-2.24-1.08-2.38-1.64-.15,0-.33.11-.23.45.13,0,1,.37,1,.5a4.71,4.71,0,0,0-1.27-.08c.2,0,1.11.68,1,.83-.13-.12-1-.57-1-.69l.72,1a2.61,2.61,0,0,0-1.14-.58c.22.07-.23.34-.2.5l.33,0c-.42.36,1.08,1.27.75,1.69-.16-.17-1.14-.88-1.4-.72.43.4,2.08,1.91,2.21,2.55l-.32-.1.12.51a29.65,29.65,0,0,1-2.27-2.8c-.32,0-.36-.16-.49.11a.37.37,0,0,1-.28-.47l-.53.49c.59.33.29.81.78,1.08l-.19-1c.58.32,1.39,1.37,1,1.73-.29,0-1-.71-1.16-.82.16.18.13.63,0,.58l-.19-.36c-.36.1.52.85-.2.79-.1.07-.91-.17-.59.06a15.16,15.16,0,0,1,3.21,1.88,5.35,5.35,0,0,1-1.33,0c-.61-.16-1.07-1-1.59-1.14a1.33,1.33,0,0,1,.33.39c-.2,0-.46-.35-.53-.08.56.4-.33.41.43.41,0,.32-.27.15-.4.42a2.68,2.68,0,0,1,1.15,1.35,1.8,1.8,0,0,0-.46-.21c-.34.41-.75.48-1,.89-.16-.06-.46,0-.65-.21.06.12.22.3.16.44-.66-.08.1-.33-.61-.53.32.23.24.62.33.93.55.28.37-.35.28-.66a2.77,2.77,0,0,1,1.29,1.9c-.05.45-.55-.15-.49,0-.54.56.87,1.36,0,1.56-.59-.09-.9-.59-1.25-.76,0-.39.56-.23.67-.43l-.36.09c-.09-.19-.09-.45.11-.46-.52-.09-.79,1-1.49,1.26.09.18.14.44.37.49l0-.2c.46.1.3.63.6.55.11.38.35.88-.06,1l-.54-.3c.15.1.43,0,.34-.17.13.28-1,0-.43.57l.49,0c.11.39.47,1,.12,1.17.58.23,0-.1.7.12-.83-.34.49-.65-.45-.92.81.28.52-.13,1.27,0-.17-.11-.38-.13-.15-.29a1.12,1.12,0,0,1-.11-.15h0s0,0,0,0a1,1,0,0,1-.33-.06c-.31-.37-.06-.71-.18-1,.17-.07.16.19.39.24l-.18-.38c.38.24.85.07.86.53l.2-.27c.32,0,.56-.19.49-.44.17-.08-.19-.6,0-.3l0-.59.1.06c.33-.4,0-1.29,1-1.35a.56.56,0,0,1,.24-.6l.36.16c0-.26.68-.36.39-.66,1,.36.78-.79,1.14-1l-.42-.28a1.43,1.43,0,0,0,.18-.9l-.39-.22c-.16-.44.66-.46.86-.87.13.11,0,.19-.1.2,1.15.07,0-1.36.86-1.39-.08-.19,0-.24.16-.25s0,0,0,0l0,0c.1,0,.2,0,.3,0h-.28a.82.82,0,0,0,0-.41l.44.2s0,0,0,0c.22,0-.14-.21-.49-.34a1,1,0,0,0-.15-.31c.72.31,0-.45.76-.15-.3-.29.1-.76-.59-1.26.1.05.16,0,.13.11.16-.08.33-.17.19-.41l.56.26-.53-.72a1,1,0,0,1,1,.47c-.37-.8,0-.49-.43-1.22l.33.22c.06-.13-.27-.61.06-.52.82.09.94-1.39,2-1.78-1.09-.45.65-.09-.11-.57.26.09.46.07.6.31,0-.52.71-.36.2-1,.27.09.31.28.47.33,0-.07-.14-.25,0-.2s.17.17.23.29c.19-.42-.52-.88-1.19-1.31.44,0,.45-.13.08-.54.27.06.57.08.51.37.11-.11.81-.64.27-1,.16,0,.15-.17.1-.24a1.88,1.88,0,0,0,.4-.62l-.14,0c-.6-.5,0-.34.06-.63l.06.05c.8-.28-.09-.37.77-.61l-.43-.21c-.87-.56.81-.18.64-.7l-.3,0c-.21-.35,1.5.21,1.71.1s.09.13.12.21c.79-.16-.51-.37-.45-.78.33.1.71.51.89.31.31,0-.58-1.22.17-1.21-.27-.06-.54-.12-.62-.38s1.24-.17.64-.8a.65.65,0,0,1,.21.06c-.08-.29,0-.78-.3-1.11,1.55.64,0-1.56,1.28-.81l.25-.61.13.09c.29-.32,0-.63-.2-.94.13,0,.22.1.29.15.57-.39.54-.48.13-1.3l.46.2c-.19-.27,1.11-.41.89-1.22a.44.44,0,0,1,.16.17c-.18-.87,2-.76.53-1.85l-.17-.61c-.4.44-.65-.45-1-.38,0-.25.76-.26.71,0h-.1c.78.54.64-.47,1.19-.15.51-1,1.5-1.75,2-2.68l-.7-.24.22-.3c.19,0,.56.15.41.37.43.08-.09-.55-.23-.64.51-.31.65.59.74.46l.06-.22H166c-.18-.3-.45-.46-.27-.72s.45.12.51.06.08,0,.08-.1l.28-.38-.6-.11c-.15-.32.24-.37-.44-.49,1,.2,1.15-1.37,1.51-1.4a.8.8,0,0,1,.13-1c-.15,0-.75-.24-.53-.47,1.12.73.77-.23,1.74,0-.67-.11.27-.85-.69-1,.21-.17.45.23.82.2-.17-.78.93-1,1.13-1.78-.15-.09-.45-.1-.61-.37l1,.06c0-.17-.83-.6-.17-.55-.15,0-.37-.09-.37-.2,1.45-.91.78-3,2.91-3.59-.4,0-.37-.11-.31-.25-.12.05-.38-.21-.6-.3l.88-.25c-.54-.41.27-.62-.26-1v.23c-.54-.58-1.64-.44-2.47-.91.62.65-1.47.11-.62,1.1-.22,0-.23-.23-.46-.28.31.3.32.47,0,.63l-.08-.08c-.27.73-.78.84-1.42,1.48l.45.17a.69.69,0,0,1-.44.12c.53.52.28-.45.89.1-1-.24-.63,1.15-1.67.79-.14.25.52.18.38.43l-.3-.07.31.24c-.15.14-.52.05-.74-.06,0,0,0-.15,0-.2-.42.05-.22.66-.36.68l.29-.16c-.12.82-.91,1.48-.73,2.43l.22.06c.09.7-.43.29-.56.94l0,0a.47.47,0,0,1,.05.56c-.15-.27-.59,0-.75-.3.1.76.17.44.7,1.19l-.37-.09c.23.29.38.38.31.71-.15-.38-.59-.09-.82-.55-1,.2.25,1.26-.94,1,.76.76.78-.23.89,0,.36,0,.56.59.37.72s-1.33-.3-1.57.18c0-.05,0-.09,0-.13-.32.05.13.51-.36.52.48.42-.18.27.49.68l.08-.52c.05.34.74,1,.12,1.2a1.65,1.65,0,0,1-.3-.46c-.27,0,0,.3-.26.3-.68-.41.13-.6-.26-1.15-.36,0,.24.77-.45.23.86.71-.37.39.19,1.11l-.4-.25c0,.09.18.3.12.39l-.45-.47c.32.51-.68.28-.56.66.27-.52.57.16,1,.11.21.94-1.29-.23-1.48.59,0-.13.45-.22.56,0a1.18,1.18,0,0,1-.68.15c-.17.52.47.16.61.5-.59-.12.08.34.13.64l-.42-.23c-.57.39.8.62.21.93l-.48-.53,0,.34-.45-.32c.2.47.06.51-.22.7.33.1.75.46.63.7-.34,0-.35-.31-.48.06-.22-.22-.5-.48,0-.42-.13-.09-.23-.22-.36-.31-.38,0-.3.4-.37.53a.27.27,0,0,1,.18-.08l.31.81a.48.48,0,0,1-.38-.27c0,.12.14.3.1.47-.32-.23-.68-.42-.73-.71l.12.67c-.16,0-.54,0-.63-.12-.34.15.32,1-.14,1.2a.31.31,0,0,1,.11.22c-.25.28-.83.33-.57,1l-.74-.12c0,.37.94.13.9.76,0,.46-.6-.16-.84-.13.21.34.67,1,0,1C156.45,329.67,156.58,329.64,156.59,329.51Zm-1.78,3.81c-.05-.12-.24-.41,0-.32C155.28,333.35,155,333.28,154.81,333.32Zm-2.17,6.12c-.1-.13,0-.17.22-.17C152.86,339.35,152.8,339.42,152.64,339.44Zm-6.51,17v0C146.38,356.37,146.28,356.38,146.13,356.44Zm-.38.2a.27.27,0,0,0,.15.13c-.08-.09,0-.17,0-.23C145.82,356.49,145.72,356.48,145.75,356.64Zm20.39-35.31H166C166,321.12,166,321.22,166.14,321.33Z"/><path class="cls-3" d="M152.44,338.48a1.22,1.22,0,0,1,.24.1A.25.25,0,0,0,152.44,338.48Z"/><path class="cls-3" d="M157.64,327.11h0l-.07-.06Z"/><path class="cls-3" d="M145.5,349.5a.57.57,0,0,1,.29,0C145.69,349.44,145.59,349.41,145.5,349.5Z"/><path class="cls-3" d="M145.27,358.79l0-.28c-.05.12-.16.09-.26.1C145.15,358.67,145.31,358.72,145.27,358.79Z"/><path class="cls-3" d="M141.6,358.8c0,.06,0,.06,0,.13l.19.12C141.85,358.92,141.77,358.73,141.6,358.8Z"/><path class="cls-3" d="M143.82,358.06c-.34-.22-.31,0-.35.17a0,0,0,0,1,0,0C143.92,358.57,143.87,358.32,143.82,358.06Z"/><path class="cls-3" d="M143.46,358.27a.23.23,0,0,1-.09.14C143.55,358.56,143.45,358.38,143.46,358.27Z"/><path class="cls-3" d="M145.69,357.19c-.13,0,.4.34.24.28C146.31,357.84,145.72,356.67,145.69,357.19Z"/><polygon class="cls-3" points="142.65 357.41 143.09 357.64 142.82 357.34 142.65 357.41"/><path class="cls-3" d="M143.71,356.51l-.26.15a.2.2,0,0,1,.1.16C143.65,356.69,143.84,356.59,143.71,356.51Z"/><path class="cls-3" d="M143.55,356.82a.19.19,0,0,0-.06.22A.41.41,0,0,0,143.55,356.82Z"/><polygon class="cls-3" points="142.74 357.02 142.87 357.01 143.01 356.88 142.74 357.02"/><path class="cls-3" d="M145.42,354.14l0-.33c-.13-.12-.26-.11-.26,0S145.25,354.09,145.42,354.14Z"/><path class="cls-3" d="M143.78,354.13a1.07,1.07,0,0,1,.39.1l-.51-.35Z"/><path class="cls-3" d="M144.13,353.33c-.13-.12-.18-.62-.35-.29C143.9,353.16,143.86,353.48,144.13,353.33Z"/><polygon class="cls-3" points="147.18 350.01 147.15 350.08 148.02 350.61 147.18 350.01"/><path class="cls-3" d="M147.16,345.41c-.39.17.49.4.07.51.16.19.34-.09.48.09C147.6,345.69,147.78,345.67,147.16,345.41Z"/><path class="cls-3" d="M147.71,346s0,.1.08.17A.44.44,0,0,0,147.71,346Z"/><polygon class="cls-3" points="173.06 309.38 173.35 309.28 172.98 309.25 173.06 309.38"/><path class="cls-3" d="M172.58,308.65l.61.25-.46-.39C172.73,308.57,172.73,308.68,172.58,308.65Z"/><path class="cls-3" d="M153.37,333.22l.12.09c.17.05.2,0,.28-.06Z"/><polygon class="cls-3" points="155.28 330.81 155.25 330.85 155.81 331.05 155.28 330.81"/><path class="cls-3" d="M155.88,328.22c-.08.07,0,.25-.09.32C155.8,328.29,156.53,328.55,155.88,328.22Z"/><path class="cls-3" d="M116,325.42c-.05,0,.34.17.41.21C116.37,325.51,115.91,325.38,116,325.42Z"/><polygon class="cls-3" points="115.59 324.11 115.73 324.21 115.45 323.87 115.59 324.11"/><path class="cls-3" d="M116.13,323.23c-.65-.3-.09.39-.4.41l-.16-.06.45.37C116.05,323.72,115.88,323.26,116.13,323.23Z"/><path class="cls-3" d="M117.72,323.66c-.24-.13-.12-.23-.14,0l.07,0A.23.23,0,0,1,117.72,323.66Z"/><path class="cls-3" d="M117.65,323.74c0,.09.23.08,0,0Z"/><path class="cls-3" d="M117.8,323.25l.12.26c.15.08.25,0,.32.11C118.21,323.43,118.07,323.35,117.8,323.25Z"/><path class="cls-3" d="M117.46,322.83l0,.13C117.57,323,117.6,323,117.46,322.83Z"/><path class="cls-3" d="M117.59,323.21l-.09-.25c-.1-.06-.29-.19,0,.1C117.36,322.93,117.51,323.07,117.59,323.21Z"/><path class="cls-3" d="M117.45,323.22c-.17,0-.31,0-.42-.26C117,323.24,117.38,323.49,117.45,323.22Z"/><path class="cls-3" d="M115.55,322.78l-.24,0,.15.22C115.39,322.87,115.74,322.9,115.55,322.78Z"/><path class="cls-3" d="M118.63,322.8a4.34,4.34,0,0,0-.5-.33l.07.19A.73.73,0,0,1,118.63,322.8Z"/><path class="cls-3" d="M118.13,322.47l-.1-.29C117.91,322.27,118,322.37,118.13,322.47Z"/><polygon class="cls-3" points="116.84 322.34 117.13 322.88 116.87 322.29 116.84 322.34"/><polygon class="cls-3" points="119.02 322.35 119.23 322.64 118.93 322.18 119.02 322.35"/><path class="cls-3" d="M119.24,322c.17.24.43.25.52.42a1.18,1.18,0,0,0-.2-.56C119.59,322,119.5,322.07,119.24,322Z"/><path class="cls-3" d="M119.41,321.55a1.45,1.45,0,0,0,.15.32A1.07,1.07,0,0,0,119.41,321.55Z"/><path class="cls-3" d="M118.26,322a.9.9,0,0,0,.41.18l-.37-.22Z"/><path class="cls-3" d="M118.29,322h0l.11-.09Z"/><path class="cls-3" d="M118.25,322h0S118.21,322,118.25,322Z"/><path class="cls-3" d="M117.42,322.23c-.13-.22-.2-.54-.61-.61C117,321.86,117.23,321.9,117.42,322.23Z"/><path class="cls-3" d="M117.79,321.74l-.19.08a1.06,1.06,0,0,1,.3.26Z"/><polygon class="cls-3" points="117.74 321.59 117.79 321.74 117.86 321.72 117.74 321.59"/><path class="cls-3" d="M118.91,321.5a.31.31,0,0,1,0-.34.47.47,0,0,0-.3.14C118.7,321.4,118.85,321.59,118.91,321.5Z"/><path class="cls-3" d="M118.57,321.7v0S118.52,321.65,118.57,321.7Z"/><path class="cls-3" d="M119.53,320.48l-.06,0,0,.05Z"/><path class="cls-3" d="M118.54,321.26c-.11,0-.07.1,0,.22a.36.36,0,0,1,.07-.18C118.57,321.25,118.54,321.23,118.54,321.26Z"/><path class="cls-3" d="M119.43,321.22a1.22,1.22,0,0,0-.26-.06C119.3,321.22,119.51,321.31,119.43,321.22Z"/><path class="cls-3" d="M118.67,321.73v0C118.77,321.79,118.73,321.76,118.67,321.73Z"/><path class="cls-3" d="M118.67,321.73a1.2,1.2,0,0,0-.13-.25.44.44,0,0,0,0,.19A.27.27,0,0,1,118.67,321.73Z"/><path class="cls-3" d="M117.76,318.37c.27.29.39.69-.05.53a5.94,5.94,0,0,0,1.76,1.54.79.79,0,0,1-.28-.52c-.21-.11-.65-.07-.8-.42,0-.32.24-.05.47,0-.43-.27-.3-.71-.86-1.18l0,.33C118,318.58,117.87,318.4,117.76,318.37Z"/><path class="cls-3" d="M119.21,320.65v.09a1.34,1.34,0,0,1,.56.19,1,1,0,0,0-.24-.44l-.28.22Z"/><path class="cls-3" d="M119,321c-.29-.33-.3-.59-.72-.82-.12.18.17.35.22.57.15-.32.11.24.46.22a.39.39,0,0,1,0,.21,1.13,1.13,0,0,1,.26,0h0s-.07,0,0,0h0L119,321c.13,0,.09.06.11.12l0,0h0l0-.41C119.11,320.75,119.06,320.83,119,321Z"/><path class="cls-3" d="M116.21,320.89l.08.06C116.26,320.9,116.24,320.87,116.21,320.89Z"/><path class="cls-3" d="M116.5,320.94c0,.06.15.19.06.22s-.16-.13-.27-.21c.06.11.13.33.39.34l0-.06a1.79,1.79,0,0,1,.77.24A7.58,7.58,0,0,0,116.5,320.94Z"/><path class="cls-3" d="M117.67,320.85l0-.35-.38-.14.18.14C117.32,320.57,117.55,320.72,117.67,320.85Z"/><polygon class="cls-3" points="119.71 320.6 120.01 320.94 119.67 320.38 119.71 320.6"/><polygon class="cls-3" points="119.93 320.3 120.21 320.59 120.1 320.35 119.93 320.3"/><path class="cls-3" d="M134.14,302.87v-.14A.34.34,0,0,0,134.14,302.87Z"/><path class="cls-3" d="M133.59,303.22l.09.17C133.65,303.28,133.61,303.21,133.59,303.22Z"/><path class="cls-3" d="M126.87,314.12c.33.22.8.58.51.24l-.3-.32C127.06,314.16,127,314.16,126.87,314.12Z"/><path class="cls-3" d="M130.56,308.13l-.11-.08.17.38Z"/><path class="cls-3" d="M129.59,306.62l.3.13A.81.81,0,0,0,129.59,306.62Z"/><path class="cls-3" d="M136.84,300.53l-.15-.43C136.55,300.2,136.73,300.34,136.84,300.53Z"/><path class="cls-3" d="M122.6,317.54a.63.63,0,0,0,.38,0C122.72,317.46,122.39,317.25,122.6,317.54Z"/><path class="cls-3" d="M136.5,306.83a.5.5,0,0,0-.08-.26A.33.33,0,0,0,136.5,306.83Z"/><path class="cls-3" d="M123.21,317.35l-.11,0a.28.28,0,0,1-.12.25C123.17,317.63,123.33,317.64,123.21,317.35Z"/><path class="cls-3" d="M147.93,294.06l0,0S147.94,294,147.93,294.06Z"/><path class="cls-3" d="M153.34,296a.26.26,0,0,1-.12.11S153.3,296.06,153.34,296Z"/><path class="cls-3" d="M121.12,319.38c0,.08,0,.05,0,0Z"/><path class="cls-3" d="M119.64,318.42a.6.6,0,0,0-.12-.17A.53.53,0,0,1,119.64,318.42Z"/><path class="cls-3" d="M122.05,314.78h0C122,314.72,122,314.73,122.05,314.78Z"/><path class="cls-3" d="M120.9,319.32l.16,0A.32.32,0,0,0,120.9,319.32Z"/><path class="cls-3" d="M121.05,319.46l-.08,0C121,319.54,121.05,319.56,121.05,319.46Z"/><path class="cls-3" d="M121.19,319.29a.2.2,0,0,1-.13.06l.06,0A.36.36,0,0,1,121.19,319.29Z"/><path class="cls-3" d="M142.67,298.61l0,0C142.69,298.44,142.67,298.49,142.67,298.61Z"/><path class="cls-3" d="M125.83,309.24v0h0Z"/><path class="cls-3" d="M125.87,308.8c.23.51.13.5,0,.47l.84.93Z"/><path class="cls-3" d="M135.36,301.91l-.39-.21c-.14-.68.13-.6-.34-.94.73,1.15-.61.57.12,1.72l-.27-.16s0-.08,0-.09c-.59-.39.38.93,0,1a.4.4,0,0,1-.36-.32l0,.43c-.08,0-.19-.18-.11-.2l-.29.32,0,0a4.79,4.79,0,0,1,.17.71c-.19-.11,0-.15-.15-.28v.4c-.27-.23-.31-.62-.15-.67-.94-1,0,.39-.79,0l.08-.26c-.55-.56-.53-.23-1-.49.19.18,1.09.72,1.08,1.14-.12,0-.22,0-.18.27-.27-.4-.31-.22-.43-.11l-.36-.53c0,.25.16.51.23.81-.2.06-.51-.33-.79-.64-.32.1.64.52.4.84-.36-.05-.36.27-.4.76-.28-.07-.2-.33-.36-.45l.16.52s-.12-.13-.16-.2c0,.24.36.53.28.8.36.61-1-.59-.72.22-.15-.11-.2-.34-.36-.53a3.82,3.82,0,0,0,.13,1.25l-.45-.19a2.07,2.07,0,0,1,.67,1.38l.44.34-.07.47a1.28,1.28,0,0,1-.31-.51l0,.16a1.5,1.5,0,0,1-.54-.79l.33.25a5.14,5.14,0,0,0-.58-1.06.31.31,0,0,1,0,.21.78.78,0,0,0-.13-.23c-.05-.05,0,.09.05.25l-.47-.53.15.24-.62-.11c.16.77.56,1.79.33,2.32a5.88,5.88,0,0,0-.84-1.21c.5.45.15-.46.44-.5-.15,0-.3-.24-.34-.34l0,.76c-.29-.42-.3-.25-.52-.35.66.76.11.74.14,1.1-.21-.26-.38-.56-.14-.64-.65-.45.43,1.15-.15.78,0,0,.1,0,0-.17.08.32-.32.32-.44,0l0,0a.9.9,0,0,0-.44,1.39c-.07-.09-.58-.85-.67-1l1.2,2.68c-.39-.62-1.63-1.86-1.63-2.38-.13,0-.29-.06-.29.26a3.26,3.26,0,0,1,.74.85,5.15,5.15,0,0,0-1-.63c.17.07.79,1,.65,1.1-.08-.15-.7-.89-.73-1l.41,1.11a3.41,3.41,0,0,0-.83-1c.16.15-.26.18-.27.32l.28.11c-.42.12.66,1.5.32,1.69-.11-.21-.8-1.19-1-1.18a13.72,13.72,0,0,1,1.4,3l-.25-.22,0,.46a29.27,29.27,0,0,1-1.42-3.21c-.28-.11-.28-.28-.44-.11a.4.4,0,0,1-.15-.5l-.54.18c.44.51.1.78.47,1.2v-.91c.44.51.94,1.7.58,1.84a7.5,7.5,0,0,1-.85-1.14c.11.21,0,.57-.13.46l-.1-.38c-.32-.06.3.91-.3.57-.1,0-.76-.5-.51-.19a19.58,19.58,0,0,1,2.42,2.82,5.57,5.57,0,0,1-1.12-.51c-.5-.37-.76-1.23-1.18-1.55a2,2,0,0,1,.22.44c-.17-.06-.34-.46-.44-.27.41.55-.34.22.3.51,0,.27-.25,0-.4.19a3.27,3.27,0,0,1,.8,1.54,1.61,1.61,0,0,0-.37-.34c-.34.2-.7.11-1,.35-.14-.11-.4-.14-.54-.41,0,.13.16.33.08.42-.55-.29.13-.24-.46-.65.25.3.14.6.18.89.45.43.36-.16.32-.45a3.46,3.46,0,0,1,.92,2c-.08.35-.46-.32-.42-.2-.52.27.64,1.41-.1,1.27-.5-.27-.74-.77-1-1,0-.32.51,0,.62-.14l-.33,0c-.06-.19,0-.4.14-.35-.44-.25-.76.59-1.39.57.07.19.1.41.3.52l0-.15c.39.23.22.61.49.64.08.35.26.83-.08.83l-.47-.4c.13.13.38.14.3,0,.11.27-.87-.31-.38.34l.42.18c.09.34.4,1,.11,1,.5.35,0-.09.6.3-.72-.52.42-.37-.39-.87.7.47.44,0,1.08.4-.14-.14-.32-.23-.12-.28l-.09-.16h0a.92.92,0,0,1-.29-.16c-.25-.39,0-.59-.12-.83.15,0,.13.2.32.31l-.14-.36c.33.31.73.34.72.71l.19-.15c.27.09.48,0,.43-.19.15,0-.13-.55,0-.23l.08-.45.08.08c.31-.2.07-1.06.92-.73,0-.17,0-.36.26-.4l.28.27c0-.21.62,0,.41-.36.81.68.73-.33,1.06-.37l-.31-.39c.16-.11.21-.33.27-.64l-.3-.34c-.07-.41.62-.09.85-.33.09.15,0,.16-.12.12.94.54.18-1.1.93-.74,0-.18,0-.18.17-.13s0,0,0,0l0,0,.24.11a.85.85,0,0,0-.23-.12.5.5,0,0,0,.11-.31l.33.35v0c.19.08-.07-.23-.34-.48a1.43,1.43,0,0,0-.07-.32c.54.57,0-.37.65.22-.2-.36.21-.56-.26-1.27.07.09.12.11.08.15.15,0,.3,0,.24-.24l.41.46-.3-.81a1.3,1.3,0,0,1,.7.81c-.15-.8.07-.4-.12-1.16l.23.33c.08-.08-.1-.61.15-.39.65.45,1-.65,2-.46-.79-.87.54.24,0-.5.19.2.35.27.41.53.1-.41.65.06.39-.68.19.2.18.37.3.48,0-.06-.06-.26.07-.14s.09.21.12.34c.24-.23-.22-.94-.67-1.6.36.21.39.12.19-.38.2.18.44.34.32.54.12,0,.8-.1.44-.63.13.11.16-.06.14-.13.24-.12.29-.09.47-.29l-.12,0c-.36-.69.07-.26.19-.46l0,.07c.71.18,0-.34.76-.08l-.29-.38c-.55-.87.69.26.69-.22l-.24-.17c-.08-.38,1.14.92,1.33.94s0,.15,0,.23c.67.28-.31-.55-.16-.83.24.25.43.75.63.69.24.17-.15-1.23.43-.84-.19-.18-.39-.36-.39-.6s1,.5.71-.29l.15.15c0-.26.23-.58.06-1,1,1.3.37-1.22,1.21.06l.36-.34.08.14c.31-.09.2-.46.09-.82.12,0,.16.19.2.26.55,0,.55-.07.45-.92l.3.4c-.07-.3,1,.29,1-.44a.93.93,0,0,1,.08.22c.1-.76,1.75.5.93-1.12l0-.55c-.44.11-.37-.69-.68-.85.08-.18.66.22.53.41L141,302c.44.84.63,0,1,.55.69-.5,1.66-.49,2.35-.88l-.46-.57.25-.11c.15.11.39.43.21.51.3.3.09-.47,0-.61.49,0,.32.81.43.76l.11-.13-.07-.05c-.05-.33-.21-.6,0-.69s.3.34.37.33.06.06.09,0l.32-.13-.42-.42c0-.32.3-.14-.18-.61.73.73,1.29-.38,1.58-.18,0-.48.15-.58.4-.67-.12-.07-.49-.61-.25-.66.62,1.19.65.28,1.31,1-.47-.46.47-.47-.22-1.11.22,0,.27.42.56.62.12-.68,1-.22,1.41-.66-.08-.16-.3-.34-.33-.63l.7.61c0-.13-.43-.93.06-.5-.1-.12-.25-.29-.22-.37,1.37.18,1.58-1.74,3.34-.9-.3-.22-.23-.3-.14-.37-.1,0-.21-.38-.34-.58l.73.35c-.26-.62.41-.29.14-.86l-.08.17c-.19-.75-1-1.31-1.5-2.15.22.84-1.14-.8-.85.43-.17-.13-.09-.3-.24-.47.12.4.07.53-.2.48l0-.1c-.45.37-.87.15-1.57.25l.28.38c-.15,0-.25-.09-.37-.16.23.7.36-.17.63.59-.64-.74-.85.49-1.52-.39-.19.1.34.44.15.54l-.2-.22.15.35c-.16,0-.41-.26-.54-.48,0,0,0-.11.07-.14-.34-.21-.39.36-.5.3l.27.05c-.36.54-1.18.57-1.35,1.38l.15.17c-.16.58-.42,0-.73.38v0c0,.24,0,.4-.14.45,0-.29-.46-.32-.48-.65-.17.62,0,.42.15,1.29l-.25-.28c.08.34.17.5,0,.7,0-.37-.43-.4-.46-.87-.85-.43-.2,1.08-1,.19.34,1,.67.26.67.51.27.23.24.76.06.75s-.92-1-1.25-.75c0,0,0-.08,0-.1-.27-.14-.06.46-.44.19.24.58-.23.1.17.79l.21-.35c-.06.28.26,1.17-.27,1a2,2,0,0,1-.09-.52c-.21-.14-.08.24-.29.09-.4-.69.28-.38.15-1-.27-.23-.05.71-.41-.08.44,1-.41.09-.2.94l-.23-.41c0,.09,0,.33,0,.36l-.21-.6c.1.56-.6-.16-.63.19.37-.25.39.43.73.63-.12.82-.92-.89-1.32-.37,0-.1.42.07.42.33a1.13,1.13,0,0,1-.57-.26c-.29.3.32.38.33.71-.43-.41,0,.31-.09.56l-.26-.41c-.56,0,.43.92-.12.82l-.21-.65-.09.26-.26-.49c0,.47-.09.42-.37.42.23.25.44.75.28.87-.27-.16-.18-.42-.39-.21-.1-.29-.25-.65.1-.34-.08-.14-.11-.29-.18-.43-.31-.19-.36.14-.45.2a.2.2,0,0,1,.16,0v.79a.6.6,0,0,1-.22-.42c0,.09,0,.31-.06.41-.19-.34-.41-.68-.36-.93l-.1.58c-.12-.13-.43-.28-.47-.43-.31-.07,0,.93-.45.84a.36.36,0,0,1,0,.23c-.28.08-.75-.19-.73.44l-.54-.48c-.13.27.7.6.49,1.05s-.43-.43-.62-.54c.06.38.25,1.12-.3.8C135.2,302,135.32,302,135.36,301.91Zm-2.45,2c0-.12-.08-.45.11-.24C133.28,304.2,133.08,304,132.91,303.94Zm-3.27,3.71c-.06-.16.05-.14.22,0C129.83,307.68,129.77,307.71,129.64,307.65Zm-8.15,10.85,0,0C121.7,318.53,121.61,318.5,121.49,318.5Zm-.34,0a.33.33,0,0,0,.12.16c-.07-.1,0-.15,0-.17C121.22,318.44,121.13,318.4,121.15,318.53Zm24-17.63-.11-.07C145.06,300.64,145.1,300.77,145.14,300.9Z"/><path class="cls-3" d="M129.7,306.79c.06.06.11.13.17.2A.36.36,0,0,0,129.7,306.79Z"/><path class="cls-3" d="M136.87,300.61h0l0-.08Z"/><path class="cls-3" d="M121.69,312.59a.53.53,0,0,1,.25.12C121.86,312.61,121.78,312.55,121.69,312.59Z"/><path class="cls-3" d="M120.7,320.11l0-.21c0,.07-.14,0-.22,0C120.59,320,120.73,320.07,120.7,320.11Z"/><path class="cls-3" d="M117.5,319.12c0,.06,0,.05,0,.11l.17.15A.18.18,0,0,0,117.5,319.12Z"/><path class="cls-3" d="M119.45,319.09c-.3-.28-.28-.1-.31,0v0C119.53,319.54,119.49,319.31,119.45,319.09Z"/><path class="cls-3" d="M119.13,319.16a.11.11,0,0,1-.07.09C119.21,319.42,119.12,319.25,119.13,319.16Z"/><path class="cls-3" d="M121.08,319c-.11,0,.33.4.2.31C121.59,319.68,121.12,318.55,121.08,319Z"/><polygon class="cls-3" points="118.43 318.22 118.82 318.54 118.58 318.21 118.43 318.22"/><path class="cls-3" d="M119.39,317.78l-.24,0a.22.22,0,0,1,.08.16C119.33,317.9,119.5,317.88,119.39,317.78Z"/><path class="cls-3" d="M119.23,318a.13.13,0,0,0,0,.17A.25.25,0,0,0,119.23,318Z"/><polygon class="cls-3" points="118.52 317.92 118.63 317.95 118.76 317.87 118.52 317.92"/><path class="cls-3" d="M121,316.38l.07-.25c-.1-.14-.21-.18-.23-.08S120.9,316.28,121,316.38Z"/><path class="cls-3" d="M119.61,315.82a1,1,0,0,1,.33.21l-.41-.46Z"/><path class="cls-3" d="M120,315.27c-.1-.14-.09-.58-.28-.36C119.82,315.05,119.75,315.3,120,315.27Z"/><polygon class="cls-3" points="123.04 313.67 123 313.72 123.66 314.5 123.04 313.67"/><path class="cls-3" d="M123.82,309.92c-.36,0,.34.53,0,.44.1.23.31.08.39.28C124.14,310.34,124.29,310.4,123.82,309.92Z"/><path class="cls-3" d="M124.17,310.64a.61.61,0,0,0,0,.17A.37.37,0,0,0,124.17,310.64Z"/><polygon class="cls-3" points="154.14 296.14 154.38 296.24 154.12 296 154.14 296.14"/><path class="cls-3" d="M154,295.32l.35.55-.2-.56C154.17,295.36,154.14,295.44,154,295.32Z"/><path class="cls-3" d="M131.78,303.12l.08.14c.11.13.15.11.24.09Z"/><polygon class="cls-3" points="133.96 302.23 133.92 302.24 134.31 302.69 133.96 302.23"/><path class="cls-3" d="M135.16,300.53c-.08,0-.09.18-.17.21C135.08,300.55,135.58,301.13,135.16,300.53Z"/><path class="cls-3" d="M42.17,300.3s.06,0,.17.05l.16,0h0c.11,0,0,0,0,0l-.17,0Z"/><path class="cls-3" d="M42.37,298.5l.09.16a2.53,2.53,0,0,1,0-.55A2.7,2.7,0,0,0,42.37,298.5Z"/><path class="cls-3" d="M44.32,297.13c-.59-.5-.7.58-1.2.6l-.15-.09.19.58C43.5,297.86,43.87,297.15,44.32,297.13Z"/><path class="cls-3" d="M46.2,297.86c-.2-.21.13-.34-.31.06l.08,0A1.08,1.08,0,0,1,46.2,297.86Z"/><path class="cls-3" d="M46,298c-.21.13.26.13,0,0Z"/><path class="cls-3" d="M47,297.29l-.2.37c.14.12.43,0,.38.18C47.38,297.57,47.25,297.45,47,297.29Z"/><path class="cls-3" d="M47,296.68l-.12.17C47,296.9,47,296.91,47,296.68Z"/><path class="cls-3" d="M46.66,297.21l.25-.36c-.09-.08-.2-.29-.12.15C46.72,296.8,46.74,297,46.66,297.21Z"/><path class="cls-3" d="M46.42,297.21c-.23,0-.5,0-.3-.41C45.57,297.19,45.9,297.59,46.42,297.21Z"/><path class="cls-3" d="M44.05,296.43l-.34,0-.07.32C43.68,296.55,44.18,296.62,44.05,296.43Z"/><path class="cls-3" d="M49.07,296.77c0-.15-.26-.33-.36-.5l-.17.26C48.7,296.58,49,296.57,49.07,296.77Z"/><path class="cls-3" d="M48.71,296.27l.26-.39C48.64,296,48.63,296.13,48.71,296.27Z"/><polygon class="cls-3" points="46.76 295.94 46.41 296.7 46.87 295.88 46.76 295.94"/><polygon class="cls-3" points="50.45 296.25 50.37 296.66 50.55 296.02 50.45 296.25"/><path class="cls-3" d="M51.36,295.86c0,.33.38.39.28.62a1.61,1.61,0,0,0,.49-.74C52,295.94,51.73,296,51.36,295.86Z"/><path class="cls-3" d="M52.35,295.32a2,2,0,0,0-.22.42A1.26,1.26,0,0,0,52.35,295.32Z"/><path class="cls-3" d="M49.62,295.71a.69.69,0,0,0,.45.3l-.3-.35Z"/><path class="cls-3" d="M49.76,295.65h0l.32-.09Z"/><path class="cls-3" d="M49.59,295.72h0S49.58,295.67,49.59,295.72Z"/><path class="cls-3" d="M47.86,295.87c.11-.3.47-.73-.11-.88C47.71,295.32,48,295.41,47.86,295.87Z"/><path class="cls-3" d="M49.21,295.3l-.43.06c0,.1.18.22.12.37Z"/><polygon class="cls-3" points="49.36 295.1 49.21 295.3 49.37 295.27 49.36 295.1"/><path class="cls-3" d="M51.54,295.18a.89.89,0,0,1,.5-.42,2.15,2.15,0,0,0-.73.12C51.32,295,51.31,295.28,51.54,295.18Z"/><path class="cls-3" d="M50.66,295.37l0,0S50.63,295.3,50.66,295.37Z"/><polygon class="cls-3" points="54.16 294.07 54.11 294.01 54.12 294.08 54.16 294.07"/><path class="cls-3" d="M51.25,294.82c-.2,0-.27.12-.32.27a1.55,1.55,0,0,1,.38-.21C51.3,294.82,51.29,294.78,51.25,294.82Z"/><path class="cls-3" d="M52.88,294.94a1.71,1.71,0,0,0-.38-.13C52.63,294.91,52.88,295.05,52.88,294.94Z"/><path class="cls-3" d="M50.79,295.42l0,0C50.86,295.51,50.83,295.47,50.79,295.42Z"/><path class="cls-3" d="M50.79,295.42a1.42,1.42,0,0,0,.14-.33.91.91,0,0,0-.24.24Z"/><path class="cls-3" d="M54,291.25a.54.54,0,0,1-.81.6c-.31.41.35,1.57.91,2.16,0-.17-.09-.32.25-.67-.21-.16-1.06-.2-.82-.65.48-.36.49,0,.81.12-.37-.41.48-.9.15-1.56l-.4.39C54.06,291.53,54.18,291.31,54,291.25Z"/><path class="cls-3" d="M53.33,294.21l-.15.1a1.52,1.52,0,0,1,.73.33.66.66,0,0,0,.21-.56l-.83.21Z"/><path class="cls-3" d="M52.44,294.56c0-.45.34-.76,0-1.12-.48.19-.23.45-.46.73.75-.36-.15.3.49.34a1.55,1.55,0,0,1-.38.25,2.31,2.31,0,0,1,.46.05l0,0h0s-.07-.07,0-.05h0a1,1,0,0,1,0-.17c.25,0,.07.09,0,.17v.06h0l.7-.48A1.85,1.85,0,0,0,52.44,294.56Z"/><path class="cls-3" d="M47.8,294a.25.25,0,0,1,.07.08C47.9,294,47.9,293.93,47.8,294Z"/><path class="cls-3" d="M48.22,294.07c0,.08,0,.26-.21.29s-.08-.19-.14-.32c-.07.15-.27.45.15.5l0-.08c.36,0,1,.36.92.43A3.44,3.44,0,0,0,48.22,294.07Z"/><path class="cls-3" d="M50.33,294.17l.58-.43-.46-.23.09.2C50.14,293.76,50.32,294,50.33,294.17Z"/><polygon class="cls-3" points="54.3 294.26 54.35 294.72 54.54 293.99 54.3 294.26"/><polygon class="cls-3" points="55.14 293.94 55.22 294.33 55.38 294.03 55.14 293.94"/><path class="cls-3" d="M104.53,279.51l.19-.14A.62.62,0,0,0,104.53,279.51Z"/><path class="cls-3" d="M103,279.69v.2C103.09,279.77,103.1,279.69,103,279.69Z"/><path class="cls-3" d="M76.65,288.89c.36.31.79.81.67.38l-.17-.41A.48.48,0,0,1,76.65,288.89Z"/><path class="cls-3" d="M91.27,283.75l-.11-.11-.13.44Z"/><path class="cls-3" d="M91.2,282l.44.21A1.5,1.5,0,0,0,91.2,282Z"/><path class="cls-3" d="M112.56,278l.19-.47C112.37,277.56,112.57,277.76,112.56,278Z"/><path class="cls-3" d="M64,291.44a1.42,1.42,0,0,0,.68.11C64.29,291.38,64,291.07,64,291.44Z"/><path class="cls-3" d="M104.58,284.15a.3.3,0,0,0,.13-.29C104.6,284,104.53,284.05,104.58,284.15Z"/><path class="cls-3" d="M65.37,291.38l-.16-.07a1.24,1.24,0,0,1-.56.24C64.91,291.68,65.19,291.73,65.37,291.38Z"/><path class="cls-3" d="M142,275l.07,0C142.09,275,142.06,275,142,275Z"/><path class="cls-3" d="M151,278.5a2.28,2.28,0,0,1-.35.06C150.73,278.59,150.83,278.57,151,278.5Z"/><path class="cls-3" d="M58.64,293.14c-.17.08,0,.06,0,0Z"/><path class="cls-3" d="M57.29,291.73a.31.31,0,0,0,0-.22A.37.37,0,0,1,57.29,291.73Z"/><path class="cls-3" d="M66.64,288.32h0C66.59,288.25,66.6,288.27,66.64,288.32Z"/><path class="cls-3" d="M58.31,293a1.31,1.31,0,0,0,.27.06A.76.76,0,0,0,58.31,293Z"/><path class="cls-3" d="M58.41,293.21h-.18C58.23,293.29,58.26,293.33,58.41,293.21Z"/><path class="cls-3" d="M58.89,293.05a.83.83,0,0,1-.31,0c.05,0,.07,0,.06.05Z"/><path class="cls-3" d="M126.39,277.83l0,0C126.6,277.66,126.52,277.7,126.39,277.83Z"/><path class="cls-3" d="M80.78,283.56l0,0h0Z"/><path class="cls-3" d="M81.41,283.12c-.2.58-.37.54-.62.47l.45,1.19Z"/><path class="cls-3" d="M108.06,278.9l-.54-.32c.5-.71,1-.55.43-1,.11,1.35-1.87.39-1.75,1.74l-.36-.24c.09,0,.1-.08.19-.08-.71-.56-.33,1-1.16,1-.29-.07-.51-.24-.34-.42l-.58.42a.12.12,0,1,1,0-.24l-.93.24v0a4.23,4.23,0,0,1-.49.75c-.27-.16.1-.16,0-.32l-.48.4c-.26-.31.13-.71.5-.71-.68-1.28-.39.4-1.56-.24l.47-.24c-.42-.72-.77-.39-1.4-.78.17.23,1.29,1,.77,1.45-.17-.08-.39-.09-.66.22-.07-.48-.35-.32-.72-.24l-.07-.63c-.38.24-.3.56-.5.88-.46,0-.62-.48-.79-.88-.74,0,.61.72-.23,1-.63-.15-1,.17-1.68.65-.45-.15,0-.39-.16-.55l-.3.56c-.09,0-.09-.16-.08-.24-.29.24.07.64-.4.88,0,.72-1.17-.86-1.66,0-.18-.16,0-.4-.07-.63a4.36,4.36,0,0,0-1.24,1.29l-.65-.33c.5.41,0,1.06-.37,1.59a5.49,5.49,0,0,0,.45.47l-.71.46c-.11-.09-.07-.32,0-.6a1.36,1.36,0,0,0-.12.17c-.31-.19-.23-.57-.08-1l.33.35a2.46,2.46,0,0,0,.15-1.23.53.53,0,0,1-.23.21.44.44,0,0,0,0-.27c0-.06-.1.09-.2.27l-.28-.68v.29L89.54,282c-.6.82-1.06,2-2.15,2.44.2-.56-.08-.85-.16-1.47.41.6.84-.41,1.45-.38a.28.28,0,0,1-.24-.43l-1,.76c-.06-.51-.28-.34-.59-.5.37.95-.68.78-1.06,1.16-.08-.33,0-.68.5-.69-.7-.65-.55,1.28-1.22.75.12,0,.2,0,.22-.17-.25.34-1,.23-.89-.09l.12,0c-.86,0-2.58.43-2.56,1.29a7.84,7.84,0,0,1,0-1.21l-1,3.09c0-.74-.81-2.37-.18-2.9a.8.8,0,0,0-.87.19c.16.08.53,1,.35,1.08-.66-.71-.43-.37-1.19-.94.23.12.21,1.29-.12,1.31,0-.17-.23-1.1-.13-1.24l-.61,1.25c.16-.23-.14-.94-.38-1.22.13.2-.7.11-.9.26l.39.19c-1,0-.61,1.72-1.53,1.84.07-.25,0-1.46-.48-1.51-.11.61-.42,2.89-1.13,3.49L74,288l-.54.48a19.42,19.42,0,0,1,1.39-3.73c-.39-.19-.17-.36-.68-.24-.24-.27.19-.51.34-.56l-1.23,0c.18.65-.79.84-.63,1.38l1.16-.94c.18.65-.38,2-1.25,2.07-.27-.22-.07-1.2-.13-1.42-.07.25-.72.59-.83.45l.29-.42c-.52-.16-.59,1-1.29.51-.2,0-.75-.73-.71-.33a8.62,8.62,0,0,1,.92,3.61,7.25,7.25,0,0,1-1.46-.84c-.44-.52.18-1.5-.19-1.95a1,1,0,0,1-.17.53c-.23-.11,0-.58-.46-.4.07.68-.91.14-.09.61-.39.28-.49,0-1,.1a2,2,0,0,1-.53,1.85,1,1,0,0,0-.23-.47c-.89.14-1.44-.06-2.26.13-.12-.14-.56-.24-.46-.57-.09.15-.15.4-.4.47-.63-.46.55-.22,0-.82.06.39-.53.68-.84,1,.26.57.87-.08,1.17-.41a2.48,2.48,0,0,1-1,2.41c-.63.37-.43-.45-.52-.31-1.31.17-.73,1.69-1.92,1.37-.55-.41-.29-1-.48-1.38.51-.34.93.11,1.3,0l-.52-.13c.13-.22.47-.44.71-.34-.47-.39-2.18.45-3.28.29-.13.22-.38.48-.18.65l.29-.16c.4.34-.43.74,0,.83-.34.41-.67,1-1.32.92l-.27-.56c.06.16.48.24.59,0-.17.32-1.12-.55-1.16.3l.52.29c-.33.42-.65,1.19-1.21,1.15.4.51.09-.1.65.47-.56-.75,1.31-.34.55-1.08.6.68.74.15,1.41.69-.06-.19-.27-.32.18-.34a1.17,1.17,0,0,1,.05-.2h0l0,0s0,0,0,0a.69.69,0,0,1-.3-.23c.09-.51.78-.68,1-1,.28,0,0,.26.15.43l.26-.44c.15.42.87.55.33,1l.55-.12a1,1,0,0,0,1.07-.11c.28,0,.53-.64.39-.25l.79-.48,0,.11c.85-.16,1.57-1.14,2.72-.58a1.52,1.52,0,0,1,1-.36l.18.36c.33-.22,1.18.13,1.25-.3.62.93,1.84-.16,2.52-.12l-.08-.5a3.47,3.47,0,0,0,1.37-.61l-.12-.43c.4-.46,1.29.06,2-.13,0,.17-.21.17-.37.09,1.1.82,1.77-1.1,2.74-.53a.36.36,0,0,1,.5-.09.09.09,0,0,0,0,0h.09a2.57,2.57,0,0,0,.33.18,1.18,1.18,0,0,0-.29-.19,2.05,2.05,0,0,0,.61-.29l.18.45.06,0c.26.13.14-.26,0-.6a1.23,1.23,0,0,0,.26-.34c.33.73.57-.37,1,.4.09-.43,1.13-.52,1.11-1.38,0,.11.1.15,0,.18.28,0,.56.09.75-.18l.22.58.44-.92c.41.31.6.5.33,1,.71-.86.63-.39,1.22-1.22l0,.4c.25-.06.57-.65.78-.36.7.64,2.85-.38,4.43.07-.47-1.1.77.4.68-.5.13.26.36.38.16.66.71-.39,1.2.25,1.6-.59.12.26-.1.43,0,.58,0-.07.2-.28.31-.13s-.08.25-.18.38c.76-.16.71-1,.64-1.81.44.31.63.23.83-.33.18.23.44.47,0,.64.28,0,1.7.12,1.63-.52.11.15.38,0,.44-.09a5.7,5.7,0,0,0,1.25-.16l-.18-.08c.12-.79.47-.24.94-.4v.08c1.18.38.44-.34,1.61.13l-.13-.47c0-1,1,.46,1.62,0l-.27-.23c.29-.4,1.16,1.24,1.52,1.32.09.08-.1.16-.19.24,1,.47,0-.64.68-.88.17.32,0,.88.42.88.26.24,1.15-1.28,1.86-.72-.17-.24-.34-.48-.06-.72.47-.16,1.43.8,1.75-.08a.35.35,0,0,1,.11.19c.34-.26,1.14-.51,1.3-1,.56,1.6,2.17-1.11,2.37.41l1.11-.23v.16a1.15,1.15,0,0,0,1.15-.79c.18.08.07.24.07.32,1.09.17,1.19.09,2-.78l.16.48c.2-.32,1.61.58,2.57-.13a.36.36,0,0,1-.08.24c1.09-.73,3,1,3.15-.83l.71-.53c-1,0,.06-.8-.39-1.05.38-.15,1.08.42.61.57l-.09-.08c-.06,1,1.28.18,1.33.82,1.94-.28,3.91,0,5.74-.16l-.29-.7.64,0c.19.15.29.54-.17.56.29.39.72-.43.72-.59.92.19-.25.89,0,.87l.37-.09-.1-.08c.27-.33.26-.65.81-.68.37.11.23.43.37.45s.06.07.21,0l.81,0-.38-.53c.32-.33.76-.06.31-.67.66.94,3.05,0,3.41.3a2,2,0,0,1,1.57-.53c-.17-.1-.33-.74.21-.72,0,1.36,1,.48,1.56,1.39-.45-.6,1.48-.32.78-1.16.46.07.08.5.45.78,1-.63,2.34.09,3.62-.21,0-.18-.24-.43,0-.71l.77.8c.25-.11.13-1,.66-.47-.08-.14-.2-.36,0-.43,2.62.6,5.12-1.21,7.85.15-.38-.31-.15-.36.11-.4-.18-.06,0-.43-.09-.67l1.14.56c.14-.67,1.15-.15,1.21-.78l-.34.14c.39-.79-.78-1.6-.8-2.56-.43.9-1.46-1.12-2.19.16-.2-.17.13-.32,0-.53-.17.43-.42.54-.91.4l0-.11c-1.32.23-1.93-.12-3.46-.24l.16.46a1,1,0,0,1-.58-.27c-.29.75.91-.05.65.77-.52-.92-2.27.21-2.67-.85-.49,0,.2.53-.29.57l-.16-.28-.09.39a.73.73,0,0,1-.57-.63c.08,0,.22-.09.3-.12-.46-.31-1.17.24-1.33.14l.49.13c-1.32.42-3,.2-4.25.94l.12.21c-1,.52-.82-.16-1.9.15l0-.06a1,1,0,0,1-.78.4c.25-.29-.57-.45-.24-.78-1,.56-.5.4-1.12,1.31l-.21-.35c-.2.36-.21.54-.74.69.41-.36-.41-.52,0-1-1.23-.68-1.61,1-2.26-.11-.42,1.07,1.05.45.78.7.28.31-.35.81-.72.75s-.77-1.23-1.69-1.11c.1,0,.09-.08.19-.09-.38-.22-.64.43-1.11.05-.17.65-.55,0-.53.83l.82-.28c-.45.26-.8,1.23-1.64.87a1.55,1.55,0,0,1,.41-.53c-.26-.21-.43.2-.7,0,0-.79,1-.29,1.45-.95-.28-.3-.9.69-.74-.2-.25,1.13-.93,0-1.45.87l0-.47c-.09.08-.26.33-.45.34l.26-.65c-.44.58-1-.34-1.48,0,1-.14.3.54.77.83-1.18.78-.87-1.15-2.24-.76.18-.08.74.2.47.46a1.67,1.67,0,0,1-.84-.44c-.92.21.2.47-.16.81-.39-.54-.43.29-.81.52l-.06-.48c-1.1-.18-.16,1-1.16.78l.32-.72-.47.24,0-.56c-.49.47-.67.38-1.22.3a.66.66,0,0,1-.42.95c-.36-.25.12-.48-.54-.33.12-.32.24-.71.58-.31,0-.16.11-.32.12-.48-.38-.28-.87,0-1.11.07a.48.48,0,0,1,.27.08l-.88.78c-.17-.16-.07-.32,0-.47-.19.07-.29.31-.57.39,0-.4-.05-.8.34-1l-.87.54c-.08-.16-.53-.4-.43-.56-.53-.17-1.15.91-1.86.7a.37.37,0,0,1-.22.23c-.64,0-1.27-.41-2,.22l-.51-.64c-.57.24.69.8-.25,1.19-.67.32-.34-.56-.61-.72-.3.4-.8,1.19-1.51.71C107.69,278.9,107.87,279,108.06,278.9Zm-7.19,1.31c.12-.12.36-.47.5-.2C101.29,280.58,101.13,280.33,100.87,280.21ZM90.07,283c.08-.18.25-.13.46,0A.51.51,0,0,1,90.07,283Zm-29.51,9.22v0C60.91,292.31,60.79,292.27,60.56,292.23Zm-.68,0a.16.16,0,0,0,0,.2c0-.12.15-.17.32-.18C60.14,292.1,60,292,59.88,292.19Zm68.92-11.37-.14-.11C128.93,280.54,128.87,280.67,128.8,280.82Z"/><path class="cls-3" d="M91.21,282.16a.93.93,0,0,1,.1.25A.18.18,0,0,0,91.21,282.16Z"/><path class="cls-3" d="M112.53,278.06h0a.28.28,0,0,0,0-.09Z"/><path class="cls-3" d="M68.8,285.91a.59.59,0,0,1,.31.19C69.09,286,69,285.9,68.8,285.91Z"/><path class="cls-3" d="M56.81,293.88l.36-.24c-.18.08-.28,0-.4-.05C56.81,293.7,56.93,293.83,56.81,293.88Z"/><path class="cls-3" d="M52.51,292.06c0,.08-.12.05-.16.12l.09.21C52.68,292.3,52.8,292.07,52.51,292.06Z"/><path class="cls-3" d="M56,292.44c-.14-.38-.35-.17-.61,0l0,0C55.52,293,55.76,292.71,56,292.44Z"/><path class="cls-3" d="M55.33,292.45a.61.61,0,0,1-.26.08C55.11,292.76,55.19,292.55,55.33,292.45Z"/><path class="cls-3" d="M59.16,292.66c-.16-.07.05.52-.07.38C59.07,293.58,59.81,292.2,59.16,292.66Z"/><polygon class="cls-3" points="55.4 291.22 55.64 291.68 55.69 291.24 55.4 291.22"/><path class="cls-3" d="M57.73,291h-.49c0,.08,0,.14-.07.2C57.45,291.08,57.78,291.09,57.73,291Z"/><path class="cls-3" d="M57.17,291.14a.47.47,0,0,0-.34.18A1.26,1.26,0,0,0,57.17,291.14Z"/><polygon class="cls-3" points="55.98 290.9 56.14 290.96 56.47 290.91 55.98 290.9"/><path class="cls-3" d="M62.62,289.8l.46-.26c0-.18-.15-.25-.31-.14S62.51,289.65,62.62,289.8Z"/><path class="cls-3" d="M60.79,288.83c.16.07.2.18.31.32l-.13-.61Z"/><path class="cls-3" d="M62.21,288.34c0-.18.61-.66,0-.47C62.19,288.05,61.72,288.31,62.21,288.34Z"/><polygon class="cls-3" points="69.92 287.42 69.8 287.45 70.03 288.44 69.92 287.42"/><path class="cls-3" d="M76.14,283.7c-.64-.12,0,.65-.62.45-.1.26.49.16.38.39C76.22,284.22,76.43,284.33,76.14,283.7Z"/><path class="cls-3" d="M75.9,284.54a1,1,0,0,0-.15.19A.52.52,0,0,0,75.9,284.54Z"/><polygon class="cls-3" points="152.48 278.91 152.88 279.09 152.6 278.77 152.48 278.91"/><path class="cls-3" d="M153.15,278.09l.15.64.18-.6C153.4,278.16,153.23,278.23,153.15,278.09Z"/><path class="cls-3" d="M99.61,279.07v.16c.08.15.18.15.36.16Z"/><polygon class="cls-3" points="104.93 278.81 104.84 278.81 105.09 279.37 104.93 278.81"/><path class="cls-3" d="M109.24,277.48c-.18,0-.37.15-.56.15C109.06,277.48,109.39,278.2,109.24,277.48Z"/></svg>