<svg id="Layer_1" data-name="Layer 1" xmlns="http://www.w3.org/2000/svg" viewBox="0 0 500 500"><defs><style>.cls-1{fill:#373735;}.cls-2{fill:#f9d16e;}</style></defs><path class="cls-1" d="M441.85,67.29c.3.21.38-.23.47-.27C441.73,66.82,441.81,67.4,441.85,67.29Z"/><polygon class="cls-1" points="436.02 65.49 436.19 65.38 435.21 65.4 436.02 65.49"/><path class="cls-1" d="M430.89,63.24c.22.86,1.92.68,2.73,1.32l.09.21.64-.34A20.06,20.06,0,0,1,430.89,63.24Z"/><path class="cls-1" d="M428.67,60.7c.08.32-.69,0,.63.33a.73.73,0,0,1-.09-.11A5.11,5.11,0,0,1,428.67,60.7Z"/><path class="cls-1" d="M429.21,60.92c.56.2-.28-.36,0,0Z"/><path class="cls-1" d="M426.57,60.09l.82,0c-.09-.21-.74-.49-.45-.51C426.13,59.47,426.23,59.68,426.57,60.09Z"/><path class="cls-1" d="M425.69,60.33l.42,0C426.07,60.28,426,60.22,425.69,60.33Z"/><path class="cls-1" d="M427,60.46l-.89-.09c.07.15,0,.37.4.06C426.37,60.6,426.6,60.47,427,60.46Z"/><path class="cls-1" d="M427.42,60.73c.35.3.85.59,0,.55C428.88,61.72,428.86,61.17,427.42,60.73Z"/><path class="cls-1" d="M430.35,63.82l.45.41.56,0C431.08,64.22,430.4,63.6,430.35,63.82Z"/><path class="cls-1" d="M422,58.15c-.1.13.13.47.12.67h.61C422.52,58.64,422,58.38,422,58.15Z"/><path class="cls-1" d="M422.16,58.82h-.9C422,59.07,422.16,59,422.16,58.82Z"/><polygon class="cls-1" points="425.3 61.03 426.81 61 425.04 60.94 425.3 61.03"/><polygon class="cls-1" points="418.34 57.21 418.88 56.92 417.94 57.34 418.34 57.21"/><path class="cls-1" d="M416.14,57c.4-.24-.44-.54,0-.68a4.37,4.37,0,0,0-1.62.36A2.79,2.79,0,0,1,416.14,57Z"/><path class="cls-1" d="M413.67,56.94a5.37,5.37,0,0,0,.81-.26A2.63,2.63,0,0,0,413.67,56.94Z"/><path class="cls-1" d="M419.86,58.3a.65.65,0,0,0-.2-.28,1.57,1.57,0,0,0-.76-.37l.47.5Z"/><path class="cls-1" d="M419.38,58.17v0l-.92-.15Z"/><path class="cls-1" d="M419.94,58.33l-.08,0C419.88,58.35,419.89,58.37,419.94,58.33Z"/><path class="cls-1" d="M423.29,59.92c-.56.07-1.64,0-.79.65C422.94,60.4,422.45,60,423.29,59.92Z"/><path class="cls-1" d="M420.19,59l.86.36c0-.11-.1-.32.18-.35Z"/><polygon class="cls-1" points="419.73 58.96 420.19 58.96 419.88 58.83 419.73 58.96"/><path class="cls-1" d="M415.21,57.49a3.68,3.68,0,0,1-1.34.1,10.65,10.65,0,0,0,1.56.28C415.52,57.75,415.77,57.53,415.21,57.49Z"/><path class="cls-1" d="M417.14,57.82l-.09,0C417.1,57.88,417.14,57.9,417.14,57.82Z"/><polygon class="cls-1" points="409.05 57.24 409.12 57.32 409.14 57.25 409.05 57.24"/><path class="cls-1" d="M415.51,58a1.09,1.09,0,0,0,.87-.06,7.78,7.78,0,0,1-.95,0C415.4,57.93,415.39,58,415.51,58Z"/><path class="cls-1" d="M412.31,57a5,5,0,0,0,.66.29C412.78,57.16,412.39,56.92,412.31,57Z"/><path class="cls-1" d="M416.93,57.71l.07,0C416.88,57.59,416.89,57.63,416.93,57.71Z"/><path class="cls-1" d="M416.93,57.71a2.23,2.23,0,0,0-.55.19,3.4,3.4,0,0,0,.67-.06Z"/><path class="cls-1" d="M407.47,59.91c.08-.39,1.13-.72,2-.24.88-.25.4-1.58-.33-2.35,0,.17-.05.32-1,.52.31.22,2,.61,1.19.92-1.2.14-1-.19-1.53-.42.46.51-1.54.65-1.31,1.39l1.05-.21C407.57,59.63,407.19,59.8,407.47,59.91Z"/><path class="cls-1" d="M410.84,57.46l.38,0a4.13,4.13,0,0,1-1.26-.62c-.63.16-.77.3-.82.43l1.84.16Z"/><path class="cls-1" d="M412.9,57.57c-.33.4-1.24.51-.73,1,1.09.06.79-.29,1.46-.42-1.77-.05.53-.2-.72-.55a6.35,6.35,0,0,1,1,0,7.89,7.89,0,0,1-.9-.28l0,0h0c.07.06.09.09,0,0h0a.51.51,0,0,1-.09.16c-.51-.14-.08-.12.09-.16l0-.06h0l-1.79.1A9.45,9.45,0,0,0,412.9,57.57Z"/><path class="cls-1" d="M421.33,61.16a.13.13,0,0,1,0-.11C421.18,61.06,421.13,61.08,421.33,61.16Z"/><path class="cls-1" d="M420.72,60.69a.84.84,0,0,1,.67,0c.31.23-.06.2-.09.34.28,0,.93,0,.25-.47l-.14,0c-.62-.36-1.34-1.14-1.2-1.16A3,3,0,0,0,420.72,60.69Z"/><path class="cls-1" d="M416.79,59l-1.48,0,.7.46,0-.23C416.81,59.48,416.66,59.19,416.79,59Z"/><polygon class="cls-1" points="408.89 57.01 409.11 56.57 408.22 57.17 408.89 57.01"/><polygon class="cls-1" points="406.96 56.98 407.05 56.59 406.53 56.81 406.96 56.98"/><path class="cls-1" d="M311.93,94.68l-.19.4A2.2,2.2,0,0,0,311.93,94.68Z"/><path class="cls-1" d="M314,92.49l-.09-.19C313.89,92.48,313.91,92.57,314,92.49Z"/><path class="cls-1" d="M360.45,60.9c-.7-.23-1.53-.62-1.35-.2l.29.37A2,2,0,0,1,360.45,60.9Z"/><path class="cls-1" d="M331.68,74.88h.22l.15-.56C331.94,74.5,331.8,74.67,331.68,74.88Z"/><path class="cls-1" d="M332.24,76.64l-.82.19A3.16,3.16,0,0,0,332.24,76.64Z"/><path class="cls-1" d="M302.11,108l.08.65C302.63,108,302.25,108.16,302.11,108Z"/><path class="cls-1" d="M388,57.24a6.09,6.09,0,0,0-.69-.29l-.16-.05-.25,0-.48-.1c.26.1.53.21.72.3s.26.16.36.22S387.85,57.4,388,57.24Z"/><path class="cls-1" d="M309.31,90.71c-.13.25-.14.39-.06.45C309.38,90.91,309.43,90.74,309.31,90.71Z"/><path class="cls-1" d="M384.51,56.94l.29.07a5.66,5.66,0,0,1,.59-.15l.16,0,.26,0a3.45,3.45,0,0,1,.57,0C385.43,56.64,385,56.59,384.51,56.94Z"/><path class="cls-1" d="M273.54,161.26s-.06.08-.1.1S273.52,161.34,273.54,161.26Z"/><path class="cls-1" d="M262.29,175.71c0-.17.17-.43.27-.68A2.46,2.46,0,0,0,262.29,175.71Z"/><path class="cls-1" d="M399.22,56.78c.41,0,.06-.05,0,0Z"/><path class="cls-1" d="M401.23,58.45a.26.26,0,0,0-.16.21A.35.35,0,0,1,401.23,58.45Z"/><path class="cls-1" d="M380.83,60.06h0C380.93,60.13,380.9,60.12,380.83,60.06Z"/><path class="cls-1" d="M399.84,57a3.47,3.47,0,0,0-.53-.12A4.09,4.09,0,0,0,399.84,57Z"/><path class="cls-1" d="M399.75,56.75l.36,0C400.16,56.72,400.11,56.67,399.75,56.75Z"/><path class="cls-1" d="M398.65,56.82a3.59,3.59,0,0,1,.66,0c-.08,0-.11-.05-.09-.06Z"/><path class="cls-1" d="M286.44,131.29l-.07.06C286.34,131.79,286.4,131.62,286.44,131.29Z"/><path class="cls-1" d="M351.62,68l0,0h-.06Z"/><path class="cls-1" d="M350.39,68.76a1.23,1.23,0,0,1,1.2-.78l-.83-1Z"/><path class="cls-1" d="M307.37,100.32c.3-.18.6-.37.91-.54-.24,1.34-.92,1.89.07,1.5-1-1,2.32-3,1.36-4l.64-.31c-.13.14-.09.21-.22.34,1.32-.54-.13-1.35,1.08-2.48.44-.37.85-.54.72-.14.18-.4.39-.78.6-1.16s.38,0,.11.22l1.25-1.48,0,0a8.89,8.89,0,0,1,.34-1.35c.48-.22-.07.28.14.31l.51-1c.55-.07.18.81-.36,1.31,1.66.22.36-.88,2.41-1.89l-.57.85c1,.07,1.33-.71,2.5-1.12-.19,0-.81.17-1.31.21s-.88,0-.59-.55a1.83,1.83,0,0,0,.92-1c.34.34.7-.16,1.24-.7l.4.5c.47-.69.2-.89.36-1.43a1.36,1.36,0,0,1,1.62-.18c1.14-.92-1.27.1-.08-1.18a3.77,3.77,0,0,0,.69-.52,3.88,3.88,0,0,0,.6-.55,17.8,17.8,0,0,0,1.17-1.49c.8-.36.13.4.48.35l.28-.87c.15-.1.2.06.22.14.38-.55-.36-.55.34-1.3-.19-.73,2.3-.37,2.84-1.74.36,0,.11.41.32.55a15.74,15.74,0,0,0,1.8-2.49l1.24-.29c-1,.07-.36-1,.26-2a6.75,6.75,0,0,0-.93,0c.39-.39.78-.78,1.2-1.14.22,0,.19.27.1.63l.18-.28c.62-.08.54.39.37.9l-.7-.06c-.14.55-.22,1.11,0,1.39a1.37,1.37,0,0,1,.35-.43c0,.15,0,.26,0,.29s.14-.19.29-.45l.67.44-.06-.29,2-.62c.91-1.37,1.59-2.87,3.6-4.19-.3.73.25.82.49,1.39-.86-.3-1.5,1.06-2.64,1.48.6-.22.61.11.51.27l1.67-1.49c.18.47.57.13,1.17.07-.41-.35-.12-.69.36-1a11.87,11.87,0,0,0,1.5-.91c.19.28.13.68-.88,1,1.39.21.93-1.69,2.26-1.58-.24.12-.39.13-.42.33.44-.54,1.92-.9,1.71-.49l-.24.1c1.66-.52,4.95-1.9,4.94-2.75a4.91,4.91,0,0,1,.07,1.24c.67-1.23,1.36-2.47,2.08-3.72,0,.78,1.49,2.11.24,3a3.21,3.21,0,0,0,1.71-.57c-.3,0-1-.81-.64-1a9.06,9.06,0,0,0,2.3.5c-.45,0-.32-1.27.34-1.42-.05.19.37,1.07.16,1.25.43-.51.87-1,1.32-1.53-.36.3.18.93.62,1.15-.22-.17,1.41-.34,1.81-.56l-.75-.07c1.87-.3,1.43-2,3.3-2.37-.17.28-.23,1.52.73,1.45.3-.64,1.31-3.16,2.91-3.9l.38.27,1.21-.62a33.06,33.06,0,0,1-3.53,4.18c.74.1.27.34,1.3.08.42.22-.47.58-.77.67.81-.12,1.63-.21,2.45-.3-.24-.64,1.72-1,1.53-1.55l-2.51,1.19c-.24-.64,1.16-2.16,2.92-2.38.49.18-.12,1.24,0,1.46a2.9,2.9,0,0,1,1.75-.59l-.67.47c1,.09,1.42-1.14,2.69-.69.4,0,1.32.66,1.33.25a4.42,4.42,0,0,1-.91-3.61,13.47,13.47,0,0,1,2.76.72c.75.5-.8,1.56-.16,2,0-.18.34-.46.48-.55.44.09-.1.59.81.37.06-.69,1.88-.2.36-.63.87-.32,1,0,2-.15-.4-.4.76-1.6,1.65-1.91,0,.18.2.38.31.47,1.87-.17,2.9.06,4.64-.13a4.6,4.6,0,0,0,.52.23c.16.09.24.21.12.37a.9.9,0,0,1,.87-.29c.47.36.17.34-.16.33s-.52,0-.33.41c.07-.39,1.44-.36,2.22-.5-.07-.32-.51-.41-1-.4a5.77,5.77,0,0,0-1.41.2c-.06-.86,1.48-1.54,3.32-1.68,1.46,0,.55.62.81.54a1.5,1.5,0,0,0,.72,0,4.48,4.48,0,0,0,.62-.2,4,4,0,0,0,.88-.53,2.33,2.33,0,0,1,2.12-.41c.95.48.11,1.06.34,1.44-1.17.27-1.84-.21-2.64-.13l1,.18a2.77,2.77,0,0,1-1.58.29c.79.39,4.6-.28,6.72.11.36-.19,1-.4.69-.6l-.66.09c-.63-.41,1.23-.64.38-.81a5.52,5.52,0,0,1,3.17-.6l.24.62c0-.18-.83-.37-1.18-.18.53-.27,1.94.82,2.52,0l-.89-.43c.91-.31,2.05-.95,3.18-.72-.51-.62-.27.06-1.06-.67.69.89-2.91-.07-1.79.87-.83-.81-1.43-.35-2.52-1,0,.2.39.38-.57.3a.74.74,0,0,1-.21.18h-.06l.05,0s0,0,0,0a.94.94,0,0,1,.49.3c-.46.46-2,.5-2.47.76-.56-.07.23-.24-.09-.45l-.74.4c-.09-.45-1.54-.67-.22-1l-1.2,0a4,4,0,0,0-2.29,0c-.57-.05-1.38.61-.92.22l-.93.22-.45.11a.61.61,0,0,1-.16.09v-.12l-.13,0-.31,0c-.23,0-.46,0-.7,0l-1.44,0-.73-.05-.37,0-.46-.09a4.71,4.71,0,0,0-1.18-.1,5.76,5.76,0,0,1-.81-.15,6.69,6.69,0,0,1-2.26.37l-.25-.37c-.77.21-2.41-.1-2.7.34-1-1-3.87.25-5.28.28l0,.5a13.6,13.6,0,0,0-3,.78l.14.43c-1,.55-2.67.09-4.27.46.08-.19.5-.22.8-.17-2.11-.63-3.9,1.47-5.78,1.15a1.4,1.4,0,0,1-1,.23.31.31,0,0,0,.1,0l-.18,0a6.32,6.32,0,0,0-.65-.1A2.7,2.7,0,0,0,361,61a7.24,7.24,0,0,0-1.3.47l-.32-.42-.11,0c-.52,0-.33.32,0,.6a2.78,2.78,0,0,0-.58.45c-.58-.65-1.22.58-2-.08-.12.24-.71.47-1.29.75s-1.11.66-1.12,1.11c0-.1-.2-.11.06-.2a2.71,2.71,0,0,0-1.55.51l-.41-.52-.93,1.14c-.82-.12-1.19-.23-.62-.91-1.48,1.26-1.31.72-2.51,1.89l-.06-.4c-.52.19-1.16,1-1.58.79-.69-.13-2.12.39-3.76,1a34.83,34.83,0,0,1-5,1.84c1.06.77-1.54.18-1.25,1-.29-.17-.76-.11-.4-.55a7,7,0,0,1-1.77.85,2.27,2.27,0,0,0-1.22,1.08c-.29-.15.11-.52-.11-.58-.09.11-.33.46-.56.4s.09-.32.26-.55c-1.43.86-1.15,1.67-.85,2.42-.92.07-1.25.34-1.47,1.11-.38-.07-.94,0-.12-.67-.5.27-3.17,1.56-2.87,2.12-.24,0-.69.4-.77.55a24.8,24.8,0,0,0-2.18,1.52l.34-.12c.05.91-.75.73-1.51,1.41l0-.08c-2.17,1-.62.83-2.82,1.78l.41.29c.24.46-.25.66-.9.89a3.37,3.37,0,0,0-1.77,1.16l.54-.13c-.29.76-2.42.35-3.06.76-.18,0,.09-.28.21-.48-1.83.88.24.63-.7,1.72-.43-.07-.35-.86-1.1-.24-.59.11-1.21,2.76-2.57,3.26.39,0,.78-.06.46.56-.62.79-2.61,1.32-2.63,2.54-.14,0-.23,0-.28,0-.37.71-1.37,2.15-1.34,2.79-1.72-.52-2.49,4.16-3.64,3.2l-1.38,1.94-.09-.15a3.4,3.4,0,0,0-1.07,2.44c-.29.22-.25-.07-.3-.14a5.36,5.36,0,0,0-2.1,3.78l-.51-.13c0,.59-2.5,2.18-3.21,4.33a.34.34,0,0,1-.06-.32c-.82,2.37-4.32,4.22-3.26,5.92l-.44,1.62c1.17-1.72.51.67,1.2.09-.32.76-1.53,1.54-1.1.63l.15-.09c-.62-.8-1.59,2.05-2.12,1.68-1,1.77-2.11,3.48-3.18,5.17s-2.15,3.33-3,5l.85,0-.65,1.17c-.31.23-.72.15-.26-.68-.6.25-.43,1.58-.3,1.68-1.12,1.52-.42-1-.7-.54l-.31.72.16-.12c0,.7.23.89-.33,1.89-.46.58-.57.13-.73.37,0,0-.11.05-.21.38l-.8,1.49.81-.35c-.07.8-.72,1.41.21,1-1.4.58-3.1,5.47-3.65,6a7.81,7.81,0,0,1-1.1,3.18c.24-.23.91-.13.37.83-1-.93-1.39,1.57-2.63,2,.91-.45-1.15,2.91.19,2.16-.48.78-.48-.16-1.05.34-.44,2.2-2.31,4.24-3.24,6.78.14.11.57-.2.57.44l-1.38.94c-.14.52.72.86-.23,1.5.19-.07.48-.16.38.19-2.93,4.47-3.73,10.14-7.4,14.36.61-.52.44-.07.22.44.23-.29.4.19.64.22L261.68,177c.43.64-1,2.2-.48,2.68l.19-.7c.29,1.17,2.06-.51,2.87,0-.33-1.31,2.3-2,1.91-4.11.34-.27.15.43.44.33-.2-.57-.06-1.09.51-1.91l.05.14c1-2.57,1.89-3.49,3.4-6.22l-.53,0a2.91,2.91,0,0,1,.76-.89c-.34-1-.8,1.7-1.24.74,1.24-.42,1.93-4.3,3.17-4.4.43-.94-.62,0-.2-.88l.38-.13-.24-.39c.33-.59.81-.75,1.05-.67a2.81,2.81,0,0,0-.18.62c.68-.65.9-2.29,1.13-2.52l-.57.82c.88-2.67,2.64-5.62,3.22-8.32l-.29.09c.49-2.05.91-1.41,1.69-3.54v.1a3.52,3.52,0,0,1,.44-1.65c0,.63.91-.76.86,0,.55-2.21.15-1.14,0-2.84l.48-.15a2.38,2.38,0,0,1,.17-1.78c-.11,1,.81-.41.75.72,1.76-1.78.81-3.52,2.35-4-.44-1.43-1.41,1.59-1.34.95-.53.31-.3-1.15.13-1.77s1.73-.58,2.57-2.29c-.09.17,0,.21-.12.38.56-.52.32-1.4,1.1-2-.33-.72.55-1-.09-1.48l-.64,1.63c.27-1-.12-2.22,1-3.47a3,3,0,0,1,0,1.07c.43-.32.29-.89.73-1.22.63.5-.82,2-.77,3.19.53-.3.41-2,.92-1.18-.61-1.18,1-1.6.84-3.13l.38.3a2.64,2.64,0,0,1,.22-1l.22.88c0-1.16,1.37-1.54,1.59-2.54-1,1.83-.72.13-1.45.74.68-2.56,1.8-.7,3-3.33-.13.37-1,1.14-.85.5a4.54,4.54,0,0,1,1.24-1.15c.87-1.69-.58,0-.42-.84.83-.27.27-.92.53-1.73l.42.23c1.37-1.71-.57-1,.75-2.5l.15,1,.37-1,.37.47a3.89,3.89,0,0,1,1.16-2.27c-.43,0-.67-.57-.17-1.4.6-.4.2.56.87-.63.09.42.23.9-.46,1.17.1.13.09.41.19.55.66-.42,1-1.46,1.27-1.87a1.57,1.57,0,0,1-.38.39l.5-2c.32-.16.31.12.3.41a9.82,9.82,0,0,1,.41-1.24c.25.34.61.53.32,1.33l.64-1.82c.21,0,.91-.55.9-.27.78-.72.82-2.51,1.85-3.47a1,1,0,0,1,.13-.54c.82-1,1.82-1.69,2.34-3.2l1.09-.27c.6-1-1.42.4-.42-1.35.68-1.26.8-.05,1.25-.33.15-.76.32-2.2,1.58-2.86A8.68,8.68,0,0,1,307.37,100.32ZM317,89.07c-.13.28-.3.91-.64.87C316.14,89.31,316.5,89.31,317,89.07Zm17.11-14.48c-.11.24-.44.34-.86.36A1.88,1.88,0,0,1,334.06,74.59Zm60.71-17.21,0,0C394.07,57.26,394.31,57.32,394.77,57.38Zm1.39.13c.13-.08.12-.14.06-.21-.09.13-.4.15-.75.14C395.57,57.56,395.76,57.64,396.16,57.51Zm-114.57,76.1.24-.18C281.68,134,281.64,133.82,281.59,133.61Z"/><path class="cls-1" d="M332.18,76.43a.45.45,0,0,1-.24-.15C331.89,76.41,331.93,76.49,332.18,76.43Z"/><path class="cls-1" d="M302.09,107.86l0,0a.26.26,0,0,0,.05.09Z"/><path class="cls-1" d="M375.76,62.64a1.18,1.18,0,0,1-.57-.18C375.2,62.58,375.33,62.66,375.76,62.64Z"/><path class="cls-1" d="M403.45,56.51l-.89.12a1.57,1.57,0,0,1,.8.16C403.34,56.68,403.17,56.51,403.45,56.51Z"/><path class="cls-1" d="M410.94,59.78c.13-.05.26,0,.39,0l0-.23C410.77,59.49,410.39,59.64,410.94,59.78Z"/><path class="cls-1" d="M404.25,58.12c.06.41.61.27,1.23.21a.41.41,0,0,1-.11,0C405.56,57.77,404.9,57.94,404.25,58.12Z"/><path class="cls-1" d="M405.62,58.32a2.72,2.72,0,0,1,.57,0C406.26,58.1,406,58.27,405.62,58.32Z"/><path class="cls-1" d="M397.89,57.15c.3.1.17-.52.34-.36C398.53,56.25,396.3,57.5,397.89,57.15Z"/><polygon class="cls-1" points="404.73 59.46 404.51 58.96 404.17 59.36 404.73 59.46"/><path class="cls-1" d="M399.93,59.11l1,.12c0-.08.11-.13.26-.17C400.56,59.05,399.9,59,399.93,59.11Z"/><path class="cls-1" d="M401.16,59.06a2.14,2.14,0,0,0,.78-.09A3.39,3.39,0,0,0,401.16,59.06Z"/><polygon class="cls-1" points="403.4 59.6 403.11 59.49 402.43 59.46 403.4 59.6"/><path class="cls-1" d="M389.62,59.39h-1.07c-.13.16.14.3.54.28S389.76,59.58,389.62,59.39Z"/><path class="cls-1" d="M392.81,60.77c-.29-.08-.32-.19-.5-.34l0,.63Z"/><path class="cls-1" d="M389.52,60.91c-.12.16-1.58.28-.25.43C389.4,61.18,390.47,61.18,389.52,60.91Z"/><polygon class="cls-1" points="373.9 61.18 374.17 61.13 373.98 60.13 373.9 61.18"/><path class="cls-1" d="M360.7,66.16c1.25,0,.14-.67,1.3-.62.23-.3-.95-.05-.71-.31C360.62,65.63,360.22,65.6,360.7,66.16Z"/><path class="cls-1" d="M361.29,65.23a3.08,3.08,0,0,0,.34-.24A1.36,1.36,0,0,0,361.29,65.23Z"/><polygon class="cls-1" points="260.58 178.16 260.05 178.81 260.58 178.47 260.58 178.16"/><path class="cls-1" d="M260.63,179.88l-.67-.1.33.69C260.34,180.29,260.44,180,260.63,179.88Z"/><path class="cls-1" d="M319.45,88.53l-.06-.16c-.21,0-.35.08-.64.31Z"/><polygon class="cls-1" points="311.76 95.86 311.89 95.73 311.22 95.61 311.76 95.86"/><path class="cls-1" d="M306.69,103.27c.24-.27.4-.69.64-1C306.94,103,306.05,102.91,306.69,103.27Z"/><path class="cls-1" d="M255.64,216.81c-.13.38.31.34.37.42C256.08,216.55,255.53,216.8,255.64,216.81Z"/><polygon class="cls-1" points="256.29 210.16 256.43 210.32 256.25 209.27 256.29 210.16"/><path class="cls-1" d="M257.72,204.15c-.83.41-.39,2.21-.89,3.22l-.2.14.44.62A20.64,20.64,0,0,1,257.72,204.15Z"/><path class="cls-1" d="M260,201.27c-.32.14-.08-.75-.26.73l.1-.12C259.83,201.75,259.87,201.57,260,201.27Z"/><path class="cls-1" d="M259.8,201.88c-.12.65.32-.36,0,0Z"/><path class="cls-1" d="M260.3,198.91l.06.89c.2-.14.4-.88.46-.58C260.88,198.33,260.68,198.47,260.3,198.91Z"/><path class="cls-1" d="M260,198v.46C260.06,198.39,260.11,198.28,260,198Z"/><path class="cls-1" d="M260,199.43v-1c-.14.09-.37.06,0,.44C259.77,198.78,259.93,199,260,199.43Z"/><path class="cls-1" d="M259.77,199.92c-.26.44-.49,1-.54.13C259,201.68,259.51,201.55,259.77,199.92Z"/><path class="cls-1" d="M257.07,203.68l-.35.57.11.6C256.78,204.55,257.3,203.69,257.07,203.68Z"/><path class="cls-1" d="M261.78,193.74c-.13-.09-.45.2-.66.22l0,.66C261.33,194.32,261.55,193.73,261.78,193.74Z"/><path class="cls-1" d="M261.12,194l-.06-1C260.86,193.8,261,194,261.12,194Z"/><polygon class="cls-1" points="259.23 197.68 259.43 199.32 259.28 197.38 259.23 197.68"/><polygon class="cls-1" points="262.52 190.17 262.75 190.77 262.42 189.72 262.52 190.17"/><path class="cls-1" d="M262.91,187.79c.22.45.59-.45.69,0a5.41,5.41,0,0,0-.2-1.79A3.4,3.4,0,0,1,262.91,187.79Z"/><path class="cls-1" d="M263.23,185.11a5.52,5.52,0,0,0,.17.89A3.25,3.25,0,0,0,263.23,185.11Z"/><path class="cls-1" d="M261.45,191.4a1,1,0,0,0,.57-.65l-.49.29Z"/><path class="cls-1" d="M261.51,191.05h0l.18-.79Z"/><path class="cls-1" d="M261.43,191.5l0-.1C261.4,191.43,261.38,191.45,261.43,191.5Z"/><path class="cls-1" d="M260.12,195.33c-.12-.6-.13-1.78-.72-.76C259.61,195,259.94,194.43,260.12,195.33Z"/><path class="cls-1" d="M260.81,191.85l-.29,1c.12,0,.31-.14.37.16Z"/><polygon class="cls-1" points="260.78 191.33 260.81 191.84 260.92 191.49 260.78 191.33"/><path class="cls-1" d="M262.52,186.74a4.32,4.32,0,0,1,0-1.47,11.4,11.4,0,0,0-.45,1.69C262.23,187.06,262.42,187.35,262.52,186.74Z"/><path class="cls-1" d="M262,188.83v-.1C262,188.78,261.93,188.83,262,188.83Z"/><polygon class="cls-1" points="263.48 180.04 263.39 180.11 263.46 180.14 263.48 180.04"/><path class="cls-1" d="M262,187a1.3,1.3,0,0,0,0,1,10.21,10.21,0,0,1,.12-1C262.06,186.91,262,186.9,262,187Z"/><path class="cls-1" d="M263.3,183.61a5.73,5.73,0,0,0-.36.7C263.11,184.12,263.4,183.71,263.3,183.61Z"/><path class="cls-1" d="M262.14,188.61v.07C262.27,188.55,262.22,188.56,262.14,188.61Z"/><path class="cls-1" d="M262.14,188.61A2.81,2.81,0,0,0,262,188a5.94,5.94,0,0,0,0,.74A.75.75,0,0,1,262.14,188.61Z"/><path class="cls-1" d="M261,178c.39.14.56,1.32,0,2.21.13,1,1.52.6,2.38-.11-.17-.06-.32-.09-.39-1.11-.27.31-.87,2.1-1.08,1.21,0-1.33.32-1,.63-1.64-.57.46-.45-1.77-1.21-1.6l.07,1.18C261.3,178.15,261.19,177.71,261,178Z"/><path class="cls-1" d="M263,182l0,.41a4.39,4.39,0,0,1,.78-1.31c-.08-.71-.2-.87-.32-.94l-.4,2Z"/><path class="cls-1" d="M262.69,184.21c-.36-.39-.38-1.4-.94-.88-.18,1.19.2.89.26,1.63.25-1.93.13.59.63-.75a8.33,8.33,0,0,1-.08,1.06,8.34,8.34,0,0,1,.38-1l0,0h0c-.06.07-.1.09-.05,0s0,0,0-.05a.33.33,0,0,1-.15-.11c.19-.54.13-.07.15.11l.05,0h0l.1-2A10.36,10.36,0,0,0,262.69,184.21Z"/><path class="cls-1" d="M258.71,193.37a.12.12,0,0,1,.11,0C258.8,193.2,258.77,193.14,258.71,193.37Z"/><path class="cls-1" d="M259.12,192.64a1,1,0,0,1,.05.74c-.21.36-.21,0-.35,0,.06.29.1,1,.49.2l0-.14c.3-.74,1-1.62,1.05-1.47A3,3,0,0,0,259.12,192.64Z"/><path class="cls-1" d="M260.83,188.37l.09-1.63-.51.74h.22C260.38,188.36,260.69,188.22,260.83,188.37Z"/><polygon class="cls-1" points="263.72 179.89 264.13 180.18 263.66 179.15 263.72 179.89"/><polygon class="cls-1" points="264.01 177.79 264.38 177.93 264.24 177.34 264.01 177.79"/><path class="cls-1" d="M243.29,64.29l-.35-.31A2,2,0,0,0,243.29,64.29Z"/><path class="cls-1" d="M245.05,67.06l.2,0C245.09,67,245,66.94,245.05,67.06Z"/><path class="cls-1" d="M266.58,125.94c.32-.72.83-1.55.4-1.43l-.42.25A2.63,2.63,0,0,1,266.58,125.94Z"/><path class="cls-1" d="M258.26,91.43l-.08.23.52.34Z"/><path class="cls-1" d="M256.4,91.45v-.93A4.55,4.55,0,0,0,256.4,91.45Z"/><path class="cls-1" d="M230.74,51.33H230C230.68,51.86,230.55,51.46,230.74,51.33Z"/><path class="cls-1" d="M266.44,156.27a6.79,6.79,0,0,0,.38-1.47C266.51,155.5,266.09,156.06,266.44,156.27Z"/><path class="cls-1" d="M247.87,62.84c-.23-.21-.37-.27-.45-.2C247.65,62.85,247.81,63,247.87,62.84Z"/><path class="cls-1" d="M266.93,153.06c-.05.1-.08.21-.12.31a6.17,6.17,0,0,1,0,1.43A2.14,2.14,0,0,0,266.93,153.06Z"/><path class="cls-1" d="M170.09,28.65l-.15,0C169.93,28.66,170,28.66,170.09,28.65Z"/><path class="cls-1" d="M150.14,25.45c.2-.05.52-.08.82-.12A2.7,2.7,0,0,0,150.14,25.45Z"/><path class="cls-1" d="M265.43,169.4c0,.45,0,.08,0,0Z"/><path class="cls-1" d="M263.43,171.33a.31.31,0,0,0-.19-.21A.42.42,0,0,1,263.43,171.33Z"/><path class="cls-1" d="M264.47,148.47v0C264.39,148.56,264.4,148.54,264.47,148.47Z"/><path class="cls-1" d="M265.14,170.05a4.48,4.48,0,0,0,.2-.56A4.64,4.64,0,0,0,265.14,170.05Z"/><path class="cls-1" d="M265.35,170l-.09.39C265.32,170.43,265.37,170.39,265.35,170Z"/><path class="cls-1" d="M265.48,168.78a3.72,3.72,0,0,1-.14.71q.06-.12.09-.09Z"/><path class="cls-1" d="M205.22,34.25a.46.46,0,0,1-.07-.07C204.67,34.19,204.86,34.23,205.22,34.25Z"/><path class="cls-1" d="M261,114.86l0,0v-.07Z"/><path class="cls-1" d="M260.44,113.34a1.5,1.5,0,0,1,.55,1.5l1.18-.68Z"/><path class="cls-1" d="M238.28,58.2l.43,1.06c-1.34-.55-1.81-1.37-1.54-.27,1.14-.8,2.83,3,3.93,2.32l.21.73c-.11-.16-.19-.14-.31-.31.34,1.47,1.4.22,2.31,1.78.27.57.35,1,0,.78.35.32.72.63,1.05,1s-.06.4-.25,0c.4.57.83,1.13,1.21,1.72h-.05a8.66,8.66,0,0,1,1.26.8c.1.56-.26-.17-.34,0,.3.28.57.58.85.87-.09.59-.83-.11-1.19-.83-.66,1.61.8.67,1.14,3.13l-.63-.9c-.39,1,.26,1.59.31,2.91.14-.36,0-2.73.9-1.75a2.37,2.37,0,0,0,.74,1.33c-.45.2,0,.75.28,1.51l-.61.19c.5.76.78.58,1.24,1a1.47,1.47,0,0,1-.42,1.69,1.76,1.76,0,0,0,.14.39c.07.15.12.21.16.2s.07-.34.15-.45.14-.29.25-.29.19,0,.52.85a2.17,2.17,0,0,0,.36.73l.32.49a5,5,0,0,0,.59.72c.43.46.95.92,1.58,1.47.08.5-.37.16-.43.39a1.09,1.09,0,0,1,.62.13c.06.2-.11.19-.19.19.43.6.61-.17,1.17.83.77,0-.16,2.52,1,3.59-.06.38-.42,0-.62.14a17.09,17.09,0,0,0,2,2.74l0,1.41c.17-1.08,1.1,0,1.85.91a6.94,6.94,0,0,0,.27-1c.29.54.54,1.09.81,1.64,0,.24-.3.12-.64-.09l.24.27c-.06.68-.51.46-1,.12l.21-.73c-.49-.32-1-.6-1.35-.4a1.32,1.32,0,0,1,.32.51c-.13-.08-.24-.13-.28-.06s.13.22.36.45l-.58.58.3,0,.17,2.33c1.07,1.43,2.49,2.58,3.32,5.12-.65-.54-.87,0-1.48.13.49-.84-.69-1.93-.9-3.27.1.7-.22.62-.36.47.39.73.76,1.48,1.12,2.23-.51,0-.26.58-.33,1.24.88-.68,1,1.63,1.51,2.55-.32.12-.7,0-.85-1.24-.49,1.45,1.48,1.46,1.09,2.87-.06-.29,0-.46-.23-.54.44.62.48,2.33.13,2l-.06-.29c.23,1.94.93,5.87,1.81,6.05a4.53,4.53,0,0,1-1.24-.21c1.12,1,2.19,2.06,3.29,3.11-.76-.21-2.34,1.17-2.95-.39a3.69,3.69,0,0,0,.28,2c.07-.32,1-.91,1.07-.48a10,10,0,0,0-.87,2.41c.11-.49,1.3-.09,1.35.67-.19-.1-1.12.18-1.27-.08l1.31,1.75c-.25-.44-1,0-1.24.46.2-.21.13,1.61.28,2.1l.19-.81c0,2.12,1.74,2,1.85,4.07-.25-.24-1.47-.52-1.54.55.62.45,2.9,2,3.45,3.86l-.31.38.44,1.42a31.9,31.9,0,0,1-3.65-4.58c-.21.81-.37.24-.27,1.42-.29.44-.51-.61-.55-1l0,2.76c.67-.16.77,2.08,1.33,2l-.85-3c.67-.16,2,1.64,2,3.62-.25.51-1.21-.33-1.44-.28a3.58,3.58,0,0,1,.36,2l-.38-.82c-.22,1.09.94,1.75.35,3.07,0,.45-.85,1.35-.45,1.42.77-.73,3.14-.92,3.72-.43a18.24,18.24,0,0,1-1.15,2.93c-.6.74-1.42-1.13-1.94-.5.18,0,.41.44.48.61-.16.48-.57-.2-.5.83.69.18-.09,2.09.57.5.18,1-.17,1.07-.18,2.25.46-.36,1.47,1.12,1.62,2.15-.17-.07-.4.15-.51.26-.15,2.08-.54,3.18-.65,5.11-.17.17-.44,1.09-.71.67a2.35,2.35,0,0,1,.28,1.16c-.68,1.1,0-1.34-.76-.51.39.1.42,1.58.6,2.45.63-.22.27-2,.1-2.82.84.05,1.6,1.6,1.83,3.67.07,1.64-.6.65-.51.94-.45,3,1.21,2.73.35,5.19-.66.94-1.07-.07-1.48.11-.06-1.33.54-2,.61-2.87l-.36,1.07a3.26,3.26,0,0,1,0-1.78,10.28,10.28,0,0,0-.6,3.12,27.47,27.47,0,0,1-.76,4.23c.13.43.22,1.17.48.86v-.74c.52-.63.43,1.46.74.55a7.06,7.06,0,0,1,.06,3.56l-.65.18c.18,0,.49-.86.36-1.28.19.62-1.12,2-.41,2.76l.55-.91a7.55,7.55,0,0,1,.24,3.56c.68-.46,0-.29.81-1.06-1,.63.52-3.16-.59-2.07.94-.78.57-1.51,1.43-2.59-.21,0-.45.36-.2-.66a1.1,1.1,0,0,1-.15-.26l0-.06,0,0s0,0,0,0a1.21,1.21,0,0,1-.37.49c-.39-.58-.16-2.23-.33-2.82.17-.6.19.29.45,0l-.26-.88c.46,0,.94-1.55,1-.06l.18-1.31a4.64,4.64,0,0,0,.43-2.48c.16-.61-.33-1.62,0-1l-.07-2.09h.12c.23-2-.38-4.25.58-6.53a8.42,8.42,0,0,1,0-2.56l.4-.2c-.07-.89.52-2.65.12-3,1.09-.92.38-4.31.56-5.88l-.51-.06a15.06,15.06,0,0,0-.33-3.45l-.44.09c-.41-1.14.23-3,.1-4.77.17.12.15.58.06.91.93-2.21-1-4.52-.34-6.51a1.79,1.79,0,0,1-.08-1.19.35.35,0,0,0,0,.12,1.56,1.56,0,0,0,0-.2c.06-.22.14-.45.19-.69a2.74,2.74,0,0,0-.2.59,8.88,8.88,0,0,0-.28-1.5l.46-.27,0-.13c.13-.56-.26-.42-.6-.1a2.84,2.84,0,0,0-.35-.72c.73-.51-.39-1.44.38-2.12-.43-.34-.57-2.77-1.45-3,.1,0,.14-.2.18.1a3.26,3.26,0,0,0-.24-1.79l.58-.33-1-1.26c.26-.86.44-1.23,1-.47-1-1.88-.46-1.57-1.42-3.14l.41,0c-.11-.59-.77-1.47-.5-1.87.57-1.46-1-6.61-1-10.14-1,.9.17-1.7-.75-1.64.23-.26.28-.77.63-.27-.67-1.67-.2-2.71-1.23-3.72.22-.26.48.27.6.06-.09-.13-.37-.49-.26-.71s.3.19.48.44c-.52-1.76-1.39-1.71-2.19-1.63a1.67,1.67,0,0,0-.73-1.91c.15-.38.26-1,.68.09-.15-.61-.75-3.83-1.39-3.69.09-.24-.23-.86-.36-1a23.48,23.48,0,0,0-.91-2.8l0,.4c-.92-.26-.56-1-1-2h.09a7.35,7.35,0,0,0-.3-1.38.72.72,0,0,0-.19-.36l-.2-.21c-.26-.27-.42-.4-.9-1.63l-.31.39c-.49.2-.69-.34-.91-1,0-.17-.13-.39-.17-.54a2.14,2.14,0,0,1-.08-.44,2,2,0,0,0-.34-1l-.08.6c-.31-.33-.16-1,0-1.66a5.16,5.16,0,0,0,.3-1.8c0-.2.24.21.39.43-.26-2.27-.67,0-1.44-1.46.18-.42.94,0,.55-1,.05-.64-2.35-2.4-2.5-4-.07.42-.15.83-.67.27a10.36,10.36,0,0,1-.76-2,2.42,2.42,0,0,0-1.25-1.62c0-.16,0-.24.06-.28-.34-.31-.82-.85-1.29-1.33a3.93,3.93,0,0,0-1.31-1c.43-.83-.58-1.78-1.54-2.61s-1.9-1.51-1.32-2c-.61-.66-1.25-1.29-1.87-1.92l.16-.06a4,4,0,0,0-2.48-1.63c-.21-.35.1-.25.18-.28A9.63,9.63,0,0,0,236.21,50a7.26,7.26,0,0,0-2.14-1l.16-.51c-.31-.08-.87-.8-1.64-1.65a8.72,8.72,0,0,0-2.91-2.34.4.4,0,0,1,.35,0c-2.55-1.14-4.54-5.06-6.45-4l-1.76-.59c1.89,1.36-.71.47-.06,1.24-.82-.39-1.71-1.72-.71-1.2l.1.17c.84-.57-2.26-1.85-1.91-2.32q-1.53-.81-3-1.68c-1-.57-1.93-1.2-2.93-1.7l-3-1.57L208.88,32c-.5-.22-1-.42-1.52-.62l.19.85-1.38-.57c-.31-.3-.29-.73.7-.31-.38-.59-1.81-.33-1.89-.19-1.86-1,1.07-.5.47-.75l-.84-.26.15.15a3.37,3.37,0,0,1-2.13-.18c-.73-.38-.25-.55-.55-.68,0,0-.08-.1-.47-.16l-1.8-.63.55.77c-.88,0-1.69-.56-1.05.33-.9-1.46-6.7-2.19-7.39-2.69a10.91,10.91,0,0,1-3.77-.37c.33.18.42.86-.78.56.68-1.22-2.11-1-3-2.07.8.75-3.52-.3-2.24.78-1-.24,0-.5-.74-.92a9.8,9.8,0,0,1-1.94-.07c-.67-.06-1.36-.17-2.07-.28a24.52,24.52,0,0,0-4.44-.52c-.05.18.44.46-.22.7L171.18,24c-.61.07-.58,1-1.67.36.16.15.38.38,0,.43a21.15,21.15,0,0,0-4.5-.26c-1.51.05-3,.1-4.55.28s-3,.27-4.57.3a23.83,23.83,0,0,1-4.61-.17c.86.24.32.34-.3.43.41,0,0,.43.16.65-.87-.13-1.73-.2-2.6-.29-.35.73-2.67.47-2.82,1.14l.77-.24c-.92.9,1.73,1.4,1.72,2.38.51-.52,1.32-.33,2.2-.2a3.13,3.13,0,0,0,2.74-.44c.44.14-.32.35-.07.54a2.4,2.4,0,0,1,2.1-.56l-.11.12a17.7,17.7,0,0,1,3.73-.18l4,.18-.28-.47a3.55,3.55,0,0,1,1.25.3c.81-.73-2.06,0-1.33-.8,1,1,5.19-.14,5.84,1,1.12,0-.33-.56.8-.52l.29.3.29-.37c.74.08,1.1.46,1.12.71a3.46,3.46,0,0,0-.7.07c.94.38,2.69,0,3,.07L172,28.51a34.31,34.31,0,0,1,4.91.18c.84.06,1.68.09,2.5.13a16.93,16.93,0,0,0,2.36,0l-.2-.25c2.3-.09,1.78.43,4.25.66l-.09,0a4.19,4.19,0,0,1,1.86,0c-.66.14,1.07.72.21.85,2.49,0,1.25-.12,3-.62l.29.45a2.68,2.68,0,0,1,1.93-.15c-1.07.06.64.74-.57.88,2.31,1.42,4,.1,4.78,1.64,1.44-.64-2-1.22-1.29-1.21-.23-.23.06-.36.5-.39a3.94,3.94,0,0,1,1.42.27c.8.28,1,1.68,3,2.29-.19-.07-.23,0-.43-.07.66.48,1.58.12,2.33.88.71-.39,1.14.48,1.57-.21l-1.86-.51c1.08.19,2.37-.3,3.9.76a3.35,3.35,0,0,1-1.16.08c.41.41,1,.22,1.43.64-.45.68-2.25-.68-3.54-.53.4.51,2.25.25,1.4.84,1.17-.69,1.87.81,3.47.64l-.27.4a3.14,3.14,0,0,1,1.11.19l-.92.26c1.24,0,1.79,1.33,2.9,1.52-2.08-.94-.22-.73-1-1.45,1.42.31,1.67.76,1.91,1.27a2.7,2.7,0,0,0,.53.8,4,4,0,0,0,1.41.93c-.41-.14-1.28-1-.59-.89a5.35,5.35,0,0,1,1.3,1.31c1.87.9-.05-.59.87-.42.35.85,1,.28,1.92.56l-.24.42c1,.7,1.23.59,1.46.45s.44-.29,1.26.45l-1.12.08,1,.45-.48.35a4.67,4.67,0,0,1,2.43,1.36c0-.44.61-.65,1.52-.1.44.64-.58.13.68,1-.45,0-.94.12-1.25-.58-.15.09-.45.07-.6.17a8.07,8.07,0,0,0,2,1.46,1.75,1.75,0,0,1-.4-.43l2.14.73c.17.35-.14.31-.44.27a10.17,10.17,0,0,1,1.31.56,1.13,1.13,0,0,1-1.42.18L227,48c0,.22.57,1,.26.95.73.89,2.61,1.19,3.57,2.39a1.13,1.13,0,0,1,.57.2c1,1,1.61,2.16,3.19,3l.18,1.17c1,.82-.28-1.55,1.45-.17,1.26,1,0,.84.22,1.36a4.19,4.19,0,0,1,2.75,2.27C238.78,58.84,238.61,58.49,238.28,58.2Zm9.26,13.07c-.23-.24-.78-.65-.62-1C247.57,70.36,247.45,70.72,247.54,71.27ZM258,94c-.22-.19-.24-.56-.18-1A2.4,2.4,0,0,1,258,94Zm7.62,70.43,0,0C265.87,163.73,265.77,164,265.63,164.47Zm-.39,1.48c.05.16.11.16.19.11-.11-.12-.08-.46,0-.84C265.29,165.31,265.18,165.49,265.24,166ZM201.86,29.56l.24.21C201.42,29.7,201.64,29.64,201.86,29.56Z"/><path class="cls-1" d="M256.62,91.46a.4.4,0,0,1,.21-.2C256.72,91.16,256.63,91.18,256.62,91.46Z"/><path class="cls-1" d="M230.87,51.34l0,0-.09,0Z"/><path class="cls-1" d="M262.73,142.46a1.49,1.49,0,0,1,.26-.59C262.87,141.85,262.77,142,262.73,142.46Z"/><path class="cls-1" d="M265,174v-1a1.86,1.86,0,0,1-.28.85C264.85,173.89,265,173.73,265,174Z"/><path class="cls-1" d="M260.71,181.85c0,.15,0,.3,0,.45h.23C261,181.7,260.91,181.26,260.71,181.85Z"/><path class="cls-1" d="M263.28,174.69c-.41,0-.37.63-.4,1.31,0,0,0-.08,0-.11C263.43,176.17,263.36,175.43,263.28,174.69Z"/><path class="cls-1" d="M262.87,176.16a3.2,3.2,0,0,1-.09.62C263,176.89,262.87,176.54,262.87,176.16Z"/><path class="cls-1" d="M265.27,167.9c-.14.3.49.26.31.42C266.05,168.75,265.22,166.11,265.27,167.9Z"/><polygon class="cls-1" points="261.88 175.03 262.41 174.87 262.07 174.43 261.88 175.03"/><path class="cls-1" d="M263,169.8l-.28,1c.08,0,.11.14.13.31C262.94,170.51,263.14,169.8,263,169.8Z"/><path class="cls-1" d="M262.84,171.16a2.27,2.27,0,0,0,0,.88A5.78,5.78,0,0,0,262.84,171.16Z"/><polygon class="cls-1" points="261.95 173.55 262.1 173.25 262.24 172.5 261.95 173.55"/><path class="cls-1" d="M264.36,158.28l-.05-1.19c-.16-.13-.29.18-.25.62C264.15,158,264.18,158.44,264.36,158.28Z"/><path class="cls-1" d="M262.66,161.69c.13-.31.25-.32.43-.48l-.62-.1Z"/><path class="cls-1" d="M262.84,158.27c-.16-.13-.36-1.73-.44-.25C262.57,158.15,262.61,159.33,262.84,158.27Z"/><polygon class="cls-1" points="264.46 140.66 264.46 140.96 265.48 140.91 264.46 140.66"/><path class="cls-1" d="M261.33,125.26c-.15,1.39.65.28.43,1.55.27.3.18-1,.41-.72C261.85,125.27,262,124.83,261.33,125.26Z"/><path class="cls-1" d="M262.17,126.09c.05.13.11.27.18.41A1.69,1.69,0,0,0,262.17,126.09Z"/><polygon class="cls-1" points="146.77 25.44 145.83 25.38 146.47 25.62 146.77 25.44"/><path class="cls-1" d="M145.17,26.46l-.33-.6-.43.66C144.6,26.46,145,26.34,145.17,26.46Z"/><path class="cls-1" d="M247.33,74h.17c.1-.19,0-.37-.11-.75Z"/><polygon class="cls-1" points="242.16 63.78 242.26 63.94 242.52 63.3 242.16 63.78"/><path class="cls-1" d="M235.31,56.87c.26.3.68.55.93.86C235.58,57.17,235.75,56.28,235.31,56.87Z"/><path class="cls-2" d="M482.39,261.75c-6.62-68.23-72.76-117.64-147.72-110.37a145.86,145.86,0,0,0-69.26,25.15,146.2,146.2,0,0,0-48.2-50.66C153.9,85.08,72.47,98.73,35.35,156.36s-15.9,137.41,47.42,178.2q4.1,2.64,8.29,5c-21.16,19.89-30.61,44.27-22,63.52,12.63,28.12,59.08,34.66,103.76,14.6,18.24-8.19,33.36-19.54,44-32,4.06,15,12,30.86,23.66,45.47,30.54,38.28,74.83,53.74,98.93,34.52,16.49-13.16,19.25-39.15,9.55-66.53,3.2-.1,6.41-.3,9.65-.62C433.61,391.2,489,330,482.39,261.75Z"/><path class="cls-1" d="M480.08,263.66c-.1-2.11-.47-1.32-.57-1.63C479.85,265.54,480.19,263.56,480.08,263.66Z"/><path class="cls-1" d="M478.46,298.53l0-.65c-.22,1.72-.59,3.41-.88,5.13Z"/><path class="cls-1" d="M466.48,329.07a13.27,13.27,0,0,0,1.83-2.73c.63-1.2,1.32-2.62,2-4.13,1.31-3.07,2.69-6.47,3.79-9.19l.5-.85c.13-.9.29-1.77.36-2.68-.53,1.7-1.23,3.48-1.87,5.32-.3.92-.68,1.83-1.06,2.73L471,320.23l-.55,1.32-.6,1.25-1.16,2.37c-.39.75-.73,1.48-1.1,2.13Z"/><path class="cls-1" d="M455.6,342.8c.44-.34-.09.43-.14.51l.45-.62.83-1.14c.35-.51.79-1.15,1.33-2l-.48.56C457.19,340.72,456.65,341.53,455.6,342.8Z"/><path class="cls-1" d="M457.59,340.15c2-2.81-1.48,1.69,0,0Z"/><path class="cls-1" d="M447.65,352.47c.48-.58,1-1.14,1.45-1.73l1.39-1.8c-.38.31-1.22,1.21-1.87,1.89s-1.14,1.08-.67.5C444.87,354.77,445.63,354.2,447.65,352.47Z"/><path class="cls-1" d="M445.06,356l1.55-1.78A7.77,7.77,0,0,0,445.06,356Z"/><path class="cls-1" d="M449.84,350.37c-1,1.32-2.16,2.53-3.23,3.8a3.29,3.29,0,0,0,1.52-1.72C448,352.88,448.57,352.07,449.84,350.37Z"/><path class="cls-1" d="M451.76,348.31c.9-.91,1.9-2,2.29-2.4s.32-.07-1.07,1.75c2.72-3.41,3.69-5,3.41-4.81a11.71,11.71,0,0,0-1.4,1.54C454.22,345.31,453.19,346.67,451.76,348.31Z"/><path class="cls-1" d="M466.28,330.91l1.89-2.9c.43-.9.77-1.85,1.16-2.76C468.84,326.68,466,331,466.28,330.91Z"/><path class="cls-1" d="M426.16,370.59c-.14.29,1.46-.55,1.85-.6l2.62-2.1C429.17,368.82,426.47,370.65,426.16,370.59Z"/><path class="cls-1" d="M428,370l-2,1.58c-.66.51-1.35,1-2,1.49a32.49,32.49,0,0,0,3.52-2.48C428.11,370.12,428.18,370,428,370Z"/><path class="cls-1" d="M445,357.07c1-1,1.79-2.12,2.69-3.17s1.8-2.1,2.61-3.22c-1,1.33-2.11,2.53-3.15,3.8l-1.61,1.89-1.69,1.81Z"/><path class="cls-1" d="M409.79,380.36l2.34-1.64c-1.41.92-2.78,1.93-4.24,2.77C408.53,381.12,409.17,380.77,409.79,380.36Z"/><path class="cls-1" d="M398.29,385.62c1.82-1.06-2.84.64-.86-.37-1.58.65-3.06,1.24-4.42,1.85l-2,.89-1.9.77,2-.71c.68-.26,1.39-.52,2.14-.78C394.8,386.73,396.46,386.27,398.29,385.62Z"/><path class="cls-1" d="M385,390.4c1.32-.49,2.68-1,4.14-1.64C387.73,389.27,386.36,389.8,385,390.4Z"/><path class="cls-1" d="M416.72,377.5a23.2,23.2,0,0,0-3.66,1.54l1.95-.55Z"/><path class="cls-1" d="M415.08,378.47l-.07,0-3.78,2Z"/><path class="cls-1" d="M417.15,377.25l-.43.25A.94.94,0,0,0,417.15,377.25Z"/><path class="cls-1" d="M434.93,365.6,431.29,369c-.43.4-.64.64-.42.58a10.52,10.52,0,0,0,2.11-1.29C434.47,366.69,431.66,368.66,434.93,365.6Z"/><path class="cls-1" d="M419.54,376.46c1.57-.85,3-1.85,4.57-2.79-.15,0-1.05.36.11-.54C422.67,374.23,421.16,375.44,419.54,376.46Z"/><polygon class="cls-1" points="417.35 377.91 419.54 376.46 417.81 377.44 417.35 377.91"/><path class="cls-1" d="M393.78,387.94a60.27,60.27,0,0,1-7.21,2.63l4.44-1.3c1.48-.46,2.92-1,4.33-1.52C395.69,387.48,396.84,386.81,393.78,387.94Z"/><path class="cls-1" d="M404.34,383.82l-.46.24C404.18,384,404.42,383.86,404.34,383.82Z"/><path class="cls-1" d="M359.07,396l.46,0,.09-.08Z"/><path class="cls-1" d="M395.85,387.65a23,23,0,0,0,4.57-2L398,386.74c-.84.36-1.73.67-2.65,1C395.18,387.87,395.16,387.92,395.85,387.65Z"/><path class="cls-1" d="M377.49,392.54c1.19-.14,2.5-.46,3.9-.74A38.5,38.5,0,0,0,377.49,392.54Z"/><path class="cls-1" d="M403.13,384.26l.31-.15C402.71,384.32,402.81,384.32,403.13,384.26Z"/><path class="cls-1" d="M403.13,384.26c-1.07.51-1.88,1-2.71,1.41,1.28-.57,2.47-1.1,3.46-1.61A4.71,4.71,0,0,1,403.13,384.26Z"/><path class="cls-1" d="M351,399.33c0-.2,1.44-.48,3.74-.72,1.11-.11,2.38-.21,3.71-.28s2.69-.24,4-.29c5.14-.92,1.54-1.8-3-2-.15.18-.11.43-5.39,1,.47,0,1.44,0,2.56,0l1.76,0,1.72-.1c2.16-.11,3.54-.11,1.32.33a30,30,0,0,1-5.94.53c-.5,0-.89,0-1.37-.07-.21,0-.54,0-1,0h-1.45c2,.12-.92.49-3.4.86-.27-.05,0,.24,0,.38l.21.52.41,1c.27.63.52,1.2.73,1.64.43.89.72,1.29.79.93l-1.08-2.89-.28-.75-.07-.19c0-.07.1,0,.14-.05l.36,0,1.49-.16c.1.05-.37.15-.61.24S350.2,399.33,351,399.33Z"/><path class="cls-1" d="M369.5,394.69l2.14-.4a75.07,75.07,0,0,1-7.5.66c-3.55.62-4.28.85-4.52,1l5.32-.62c1.77-.25,3.52-.56,5.28-.84Z"/><path class="cls-1" d="M381.15,392.13c-1.51.93-6.61,2.18-3.36,2a31.23,31.23,0,0,0,4.92-1.47,30.91,30.91,0,0,1,3-1.16c-9.94,2.78,2.81-1-4.46.7,1.93-.6,3.7-1,5.33-1.59-1.78.54-3.54.86-5.18,1.23l.24,0,0,0h0c.45-.06.6-.06.1,0l-.2.07a1.49,1.49,0,0,1-.41.27c-2.9.68-.48,0,.41-.27,0,0,.1-.07.1-.1h0c-3.29,1-6.65,1.72-10,2.52,1.08-.17,2.27-.44,3.8-.76S378.83,392.81,381.15,392.13Z"/><path class="cls-1" d="M429.06,372.3c-.28.16-.29.12-.33.11C428.22,372.85,428,373,429.06,372.3Z"/><path class="cls-1" d="M425.38,374.52c.59-.48,1.06-.91,3.07-2.33,1.81-1.15.11.17.28.22,1.15-1,4-3.29.14-.74l-.56.48a59.22,59.22,0,0,1-5.43,3.16c-1.56.85-2.64,1.3-2.34,1.09A22.35,22.35,0,0,0,425.38,374.52Z"/><path class="cls-1" d="M403.71,385.46c-2.64,1.14-5.23,2.43-7.94,3.42l2.14-.58c.71-.2,1.4-.44,2.11-.67l-.29-.12C404.31,385.69,403.22,385.85,403.71,385.46Z"/><path class="cls-1" d="M358.08,395.91c.36-.16.72-.38,1.08-.57-1.61.41-3.25.67-4.88,1Z"/><polygon class="cls-1" points="346.56 399.8 345.87 398.94 347.68 403.71 346.56 399.8"/><path class="cls-1" d="M15.55,205l.18-2.61C15.62,203.66,15.57,204.46,15.55,205Z"/><path class="cls-1" d="M14.8,223.92l.21.46C14.87,223.51,14.77,223.15,14.8,223.92Z"/><path class="cls-1" d="M183,409.76c-1.67.76-3.51,1.42-4.82,2s-2.17.88-1.87,1l1.2-.12C179.71,411.39,181.46,410.51,183,409.76Z"/><path class="cls-1" d="M85,345.63l-.84.72c-.52.75-.94,1.52-1.32,2.18l1-1.41Z"/><path class="cls-1" d="M85.45,342.45l.44-.44.28-.22.57-.47,1.23-1-1.06.84-.61.51-.33.28-.09.07-.14.14Z"/><path class="cls-1" d="M68.17,119.71c.75-.71,1.57-1.33,2.37-2a9.8,9.8,0,0,0-2.64,1.81C67.85,119.66,68.27,119.52,68.17,119.71Z"/><path class="cls-1" d="M295.82,468.54c-1.46-.57-2.78-1-4-1.55s-2.28-.92-3.27-1.37c1.67.88,3.24,1.55,4.48,2.12A9.16,9.16,0,0,0,295.82,468.54Z"/><path class="cls-1" d="M19.51,212.71c0-1.54,0-2.21-.13-2.17C19.36,212.13,19.39,213,19.51,212.71Z"/><path class="cls-1" d="M280.42,461.74l1.42.85,1.56.75,1.63.72,1.71.77,1.85.79C286.07,464.41,283.28,462.89,280.42,461.74Z"/><path class="cls-1" d="M401,157.45c.25.11.56.22.78.33S401.49,157.62,401,157.45Z"/><path class="cls-1" d="M473.45,232.25c-.41-.95-1.07-2.51-1.7-4C472,229,472.55,230.2,473.45,232.25Z"/><path class="cls-1" d="M349.71,445c.53-2.21,0-.36,0,0Z"/><path class="cls-1" d="M353.36,434.25a2,2,0,0,0,.12,1A2.87,2.87,0,0,1,353.36,434.25Z"/><path class="cls-1" d="M259.4,450.62l-.16-.13C259.74,451,259.65,450.92,259.4,450.62Z"/><path class="cls-1" d="M350.75,441.77c-.26.82-.55,1.76-.85,2.79C350.05,444.12,350.31,443.27,350.75,441.77Z"/><path class="cls-1" d="M350.44,442.17a16.54,16.54,0,0,0,.44-1.94c0-.15,0-.16-.1.11S350.68,441.19,350.44,442.17Z"/><path class="cls-1" d="M348.71,448c.22-.61.42-1.2.63-1.77a14.07,14.07,0,0,0,.56-1.7c-.13.43-.2.6-.19.48C349.53,445.68,349.2,446.56,348.71,448Z"/><path class="cls-1" d="M230,133.42l.38.36C232.41,135.17,231.55,134.52,230,133.42Z"/><path class="cls-1" d="M124.73,431.24l.28,0h-.37Z"/><path class="cls-1" d="M115.9,431.45a66.21,66.21,0,0,1,8.74-.25c-1-.36-2-.8-2.91-1.21C119.82,430.56,117.88,431,115.9,431.45Z"/><path class="cls-1" d="M29.09,162.05l-1.63,2.65c-.56.87-1.09,1.76-1.57,2.68,2.73-7,5.89-11.56,2.42-6.77.19.37-.42,1.89-1.42,4-.53,1-1.07,2.26-1.64,3.57s-1.23,2.67-1.82,4.06c-2.33,5.59-4.07,11.39-3.57,12l-1.37,3.85c.33-1.12.3-1.33.62-2.44a33.29,33.29,0,0,0-1.3,4.25,21.43,21.43,0,0,0-.27,2.79c0,.89-.08,1.86-.26,3.21s-.35,3.14-.82,5.64c-.6,3.49-1,5.95-.91,3.52-.09,1.32-.2,2.64-.26,4l-.07,4c-.16,2.29-.36,1.72-.2-.57,0,1-.13,2-.13,3v3c0,1,0,2,0,3l.15,3,0-.08c.16.85.31,2.25.55,3.66l.66,3.78c.09,3.06-.28-1.51-.38-.72.27,2.21.71,4.39,1.13,6.56,0,1.37-.25.71-.6-.88-.18-.79-.37-1.81-.56-2.92s-.25-2.33-.35-3.48a18.37,18.37,0,0,0-.17,3.76,28.66,28.66,0,0,0,.52,3.05c.26,1.12.48,2.48.9,4.36s.74,4.35,1.39,7.67l-.82-3.06-.68-3.09a29.17,29.17,0,0,0,.21,3.27c.18,1.14.42,2.35.69,3.65.48,2.61,1.34,5.53,2.12,9.06-.13-.86-.86-4.41-1.22-6.86s-.27-3.84.75-.36a35.52,35.52,0,0,0,.91,3.51,41.21,41.21,0,0,0,1.67,4.73c-.22.09,0,1,.49,2.52s1.27,3.48,2.18,5.69l-.72-.06c.53,1.19.92,2,1.26,2.71s.64,1.1.89,1.5c.51.78.92,1.32,1.68,2.64.56,1.33,1.06,2.37,1.43,3.24s.63,1.55.82,2.13a18.36,18.36,0,0,1,.6,2.52c4.48,8.1-2.45-5.93,3,3.52.86,1.71,1.84,3.2,2.74,4.67l1.38,2.16c.47.71,1,1.39,1.49,2.09,1,1.38,2,2.84,3.27,4.3s2.52,3.07,4,4.79c3.27,4.23-.91-.47.19,1.11L50,308.91c.75.88.4.69.21.61,2.86,2.81.7-.18,5.08,4.3.87.33,2.9,2.82,5.64,5.71,1.4,1.41,2.91,3,4.54,4.42a52.43,52.43,0,0,0,5,3.82c1.42,1.29-1-.26-.66.28,4.43,3,6.3,4.31,8.08,5.33L80.6,335c1.07.66,2.47,1.33,4.43,2.3l.77.52.37.25.24.18.94.69.85.63.2.15s.21.09.06.17l-.49.41.53-.4.12-.08s0,0,0-.06l-.08-.1c-.07-.12-.07-.19,0-.21a1.12,1.12,0,0,1,.5.08l.45.15,0,0v0l0,.08-.1.17c-.32.49-.9,1.25-1.68,2.2l-.62.74c-.22.26-.46.59-.69.88L85,345.63c1.47-1.27,2.66-2.29,3.68-3.12-1.3,1.31-2.2,2.49-3.28,3.72s-2,2.48-3,3.75c-.81.83-.37-.05.43-1.45l-1,1.46c-2.37,2.52-1.53.92-.23-1.23.87-.82,1.67-1.68,2.56-2.41,1.32-2,2.54-4,1.93-3.87-.38.52-1.16,1.46-2,2.48.35-.54.55-.9.31-.73a17.75,17.75,0,0,0-1.81,2.35l-2,1.27-.13.6c-1.46,1.57-2.74,3.3-4.09,5-.68.83-1.25,1.75-1.89,2.63s-1.27,1.74-1.82,2.68l-1.45,3.14c-.48,1-.83,2.12-1.25,3.19l-.61,1.61c-.18.55-.34,1.12-.51,1.68-.33,1.14-.74,2.27-1,3.49a54.51,54.51,0,0,0-1.89,17.61c-.69-3.56-.89-.76-1.52-.93.3-2,.34-4.88.75-8.18a23.74,23.74,0,0,1,.39-2.54l.51-2.65.78-2.69.42-1.36c.15-.45.35-.88.53-1.32l-.5,1.17-.32.82a2.26,2.26,0,0,1-.36.7c-.13.12-.09-.37,0-.88a50.79,50.79,0,0,0-2.15,13.57c-.24-.18-.37.55-.49,1.78a14.93,14.93,0,0,0-.05,2.17l0,2.62c.23-.71.36-.41.59.49s.49,2.43.91,4.19a36.92,36.92,0,0,0,4.14,10.18c0,.22-.37.13-1-.86a24.64,24.64,0,0,1-1.2-2.16c-.4-1-1-2.29-1.49-3.93a20.39,20.39,0,0,0,.76,2.52,13.84,13.84,0,0,0,.87,2.08,20.43,20.43,0,0,0,2.13,3.22l1.15,1.45c.42.47.84.95,1.26,1.48s.89,1.08,1.39,1.68,1,1.28,1.58,2a19.78,19.78,0,0,1-1.33-1.47,5.45,5.45,0,0,0-.88-.87,76.82,76.82,0,0,0,5.57,5.54c1.95,1.66,3.36,2.82,2.37,2.28l-1.33-1a44.42,44.42,0,0,0,8.39,5.28,57.63,57.63,0,0,0,10.41,3.92c6.92,1.85,12.9,2.13,13.73,1.82a5.5,5.5,0,0,1-2.2.94A94.44,94.44,0,0,0,129,428.11c-.8.43.42,1,.76,1.51.17.28.12.56-.54.85a8.21,8.21,0,0,1-1.49.42c-.68.11-1.56.22-2.68.31,1.29,0,2.74,0,4.55-.12a62,62,0,0,0,6.64-.82c-1.77.12-4.47-.56-2.1-.89,3.31,0,4.45-.09,5.79-.17l2.42-.27c1.06-.1,2.45-.28,4.47-.55-1.31.2-1.3-.13-.46-.62a10.89,10.89,0,0,1,1.81-.8,19.87,19.87,0,0,1,2.68-.84c-.59.32.61,1-.83,1.5l2.44-.91,2.41-1c1.61-.62,3.18-1.36,4.76-2.05-2.39,1-.14,1.07,2.16.61-.55.07,1.58-.65,4.13-1.59,1.27-.49,2.66-1,3.87-1.5s2.26-1,2.88-1.28c-1.38.49-2.74,1-4.14,1.47A44.35,44.35,0,0,0,178.74,416c2.37-1.66,4.69-3.31,9.62-6.23-1.07.89-2.21,3,2.88.05,1-1,3.15-3.14,5.89-6s6.11-6.3,9.65-9.84c.55-.34,1.08-.71,1.62-1.07.9-.92,1.76-1.87,2.62-2.82.36-.4,1-1.14,1.59-1.81l1.79-2.09c-2.56,3.51-4.75,6.68-8.14,10.55a94.55,94.55,0,0,1-10,9.92c3.71-2.35,1.27-.33,6.47-4.36,1-.61.38,0-.69,1s-2.63,2.17-3.43,2.73a120.82,120.82,0,0,0,12-9.62c-.24,0,.15-.55.85-1.36l2.61-2.95a9.84,9.84,0,0,0,1.63-2.63c-.5.67-1,1.28-1.42,1.83l-.33.41-.15.18-.35.39-1.41,1.54c-1.91,2-3.87,4-5.93,5.87-.43,0,.82-1.62,3-4.08l3.76-4.32,3.7-4.38.63,2.22c.25,1.25-.12,1.06-.46.95s-.64-.2-.68.06a15.9,15.9,0,0,1,1.06,2.44c.85,2.38,1.77,4.66,1.86,5.16-.64-1.39-1.32-2.77-1.92-4.19a44.27,44.27,0,0,0,3.17,7.46c1.2,2.33,2.44,4.78,3.8,8.15,1.09,2.24,2.81,7,3.42,7.15-1.4-3.93.35-5.73,2.14-3.71.19.39,1.61,3.26,3.3,6.29s3.59,6.21,4.29,7.44c1,1.81-.23.8-1.47-.29s-2.45-2.3-1.66-.72a19.44,19.44,0,0,1,2.36,2.44c1.45,2.18-1.15-.5,2.4,3.95.55.17,2.39,2.39,3.42,3.69.54.64.88,1,.74.84s-.74-1-2-2.81c1.81,2.09,2.79,3.19,3.79,4.43.5.62,1,1.26,1.73,2s1.51,1.71,2.67,2.86c-.57-.89.73-.11,2.67,1.34s4.61,3.47,6.76,5.18c-.36-.08.41.91.82,1.36a133.37,133.37,0,0,0,11.27,8.67,91.32,91.32,0,0,0,11.78,6.94c.4.28,1.74,1,2.71,1.58s1.63.94.56.66c1.46.48,2.82.85,5.91,1.95,1.44.67,1.75.82,1.43.78a16.25,16.25,0,0,1-2.18-.68c-1.91-.66-4-1.44-1.86-.22a4.88,4.88,0,0,1,1.58.31l1.48.44,1.81.49a72.65,72.65,0,0,0,8,1.78,8.63,8.63,0,0,0-2.24-.79c-1.11-.28-2.49-.69-4-1-3-.85-6.33-1.84-8.52-2.67.32-.85,8,1.92,18.75,3.2l4.18.44c.77.1,1,.18,1,.26s-.81.25-.06.24c1,.1,1.94.08,2.81.09h1.27l1.16-.07c.75-.06,1.45-.09,2.09-.18l1.79-.29a28.69,28.69,0,0,0,5.18-1.46l1.06-.39,1.06-.46c.71-.31,1.48-.58,2.31-1s1.8-.77,2.87-1.34,2.28-1.21,3.69-2c2.23-1.31,2.46-1.15,2.25-.68s-.87,1.23-.28,1a26,26,0,0,1-7.55,4.19,55.31,55.31,0,0,1-6.67,1.89c1-.21,1.92-.39,2.87-.62s1.89-.52,2.82-.84a19.79,19.79,0,0,1-1.92.8c-.37.14-.76.3-1.18.43l-1.27.36-1.3.35c-.43.1-.86.17-1.27.25a18.24,18.24,0,0,1-2.25.3,31.12,31.12,0,0,0,6.34-1.1,37.25,37.25,0,0,0,9.74-4.4,38,38,0,0,0,9-8.25c.6-.81,1.19-1.62,1.78-2.4l1.48-2.46c.23-.41.49-.79.7-1.19l.58-1.2c.38-.79.76-1.54,1.11-2.26.29-1.1.71-2.59,1-3.58s.21-1.53-.11-.67c-.38,1.27-.82,2.52-1.23,3.79-.43.82-.54.76-.42.32s.31-1.32.54-2.13c.44-1.64.85-3.08-.07-.76,1.36-5.12,1.94-11,2.18-18.37l.55-1.41c-.11.18-.31,4.87-.33,7,0-.77.07-1.87.16-3.14l.15-2c.05-.69,0-1.42,0-2.15a24.29,24.29,0,0,0-.76-7.5c0,1.75.1,3.49.07,5.23-.65-5.28-2.34-11.59-3.93-17.94a9.3,9.3,0,0,0,.37,2.44,15.17,15.17,0,0,1,.47,3.68c0-2.06,1,2,1.48,5.84s.77,7.38.93,4.13c0,1.2-.15,2.31-.19,3.4s0,2.16-.08,3.27-.14,2.25-.22,3.51-.42,2.59-.73,4.08c.11-.08.26-.6.3-.44a3.32,3.32,0,0,1,0,.9c-.09.55-.25,1.42-.5,2.74,0,.25,0,.83,0,1.19l-.11.35.1-.28c0,.23,0,.25,0-.11a18.72,18.72,0,0,1,.77-2.65,25.19,25.19,0,0,1-.25,2.95c-.24,1.21-.53,2.6-.87,4s-.84,2.74-1.28,3.92-.89,2.16-1.14,2.86c-.77,1.4-.71,1.05-.5.58s.38-1.17-.07-.42c-.63,1.29-1.18,2.64-1.89,3.89a22.49,22.49,0,0,0-2.5,2.43c-.44.36-.7.54-.56.28a7.1,7.1,0,0,1,.53-.76c.26-.42.63-1,1.14-1.75a22.16,22.16,0,0,1-2,2.58l-1.1,1.22-.55.61-.61.55a46.11,46.11,0,0,1-10.47,6.56c-2.85,1.14-7.4,2.72-4.83,1.74a43.75,43.75,0,0,1-10.36,1.55l-.09-.11a64.72,64.72,0,0,1-16.13-2,63.75,63.75,0,0,1-8.22-2.72,61.65,61.65,0,0,1-8-4.05,70,70,0,0,1-11.51-6.74c-.26-.33-.5-.67-.74-1a76.29,76.29,0,0,1-7-5.47l-1.73-1.48-1.51-1.33a22.07,22.07,0,0,0-2.1-1.66c-1.49-2.07-5.5-6-9.5-10.44a117,117,0,0,1-10.26-12.88l-.6,0a177,177,0,0,1-9.45-15.3l-.2.59a61.89,61.89,0,0,1-4.35-9.54c-.71-1.88-1.38-3.89-2-6l-.37-1.16-.37-1.27c-.24-.86-.49-1.72-.74-2.58q-.74-2.61-1.47-5.25l-1.74,2c.31-.45,1-1.25,1.79-2.2.44,1.49,1,3.5,1.37,5.11-.41-1.74-.85-3.54-1.31-5.35l-4.47,4.86-2.31,2.54-1.65,1.72c-1.84,1.93-3.76,3.82-5.69,5.64a67,67,0,0,1-12,9.19,31.77,31.77,0,0,1-2.81,1.95c-.85.54-1.66,1-2.47,1.39.21-.12.39-.24.54-.34l-.91.53c-1,.53-2.07,1-3.22,1.59,1-.43,1.94-.86,2.73-1.29-1.7,1-4.31,2.54-6.88,4l-1.34.13-.6.32c-2.67,1.12-2,1.24-.45.88-1.29.75-2.51,1.38-3.41,1.94a19.69,19.69,0,0,0-4.86,1.83,19.91,19.91,0,0,1-5.53,1.81,26.8,26.8,0,0,1-2.93,1.29c-1.42.51-3.15,1.16-4.9,1.73-3.48,1.18-7,2.19-7.64,2.79-.12-.09-1,.05.57-.31l-4.84.93c-1.59.26-3.12.63-4.57.94l-1.48-.41c-1.16.33-2.34.6-3.52.86s-2.37.54-3.57.75a22.29,22.29,0,0,1-4.22-.25c-.47-.15.16-.33,2.31-.67-2.6.3-4.44.48-5.86.53s-2.44.11-3.41.09c-1.93,0-3.66,0-8.14-.13l.48-.35c-1.58-.15-3.64-.36-5.54-.6-.94-.15-1.85-.3-2.63-.46a9.09,9.09,0,0,1-1.87-.58c-.42-.15-.92-.33-1.49-.51l-1.89-.69c-.7-.24-1.46-.5-2.26-.83s-1.67-.62-2.55-1A50.82,50.82,0,0,1,81,415.62a36.23,36.23,0,0,1-5.44-5.36,35.52,35.52,0,0,1-2.32-3.12,35.14,35.14,0,0,1-1.9-3.38,32.81,32.81,0,0,1-3.33-14c-.25.87-.37.8-.42.18,0-.31,0-.76,0-1.29,0-.27,0-.56,0-.86l.11-.94c.18-2.59.9-5.61.49-6a18.2,18.2,0,0,1,.68-1.7c.2-.36.26-.24.07,1.18a41,41,0,0,1,1.44-5.87c.29-.85.52-1.68.84-2.44l.92-2.2c.55-1.44,1.25-2.72,1.83-4.06s1.25-2.66,1.86-4.15c.76-.78-.62,1.91,0,1.18a14.66,14.66,0,0,1,1.91-3.37c.66-.68-.59,1.23-1.15,2.57.55-1,1.1-1.91,1.58-2.69s.89-1.49,1.23-2.11c.71-1.24,1.25-2.11,1.55-2.82a3.58,3.58,0,0,0,.45-2.51c1.71-1.75,2.87-3.13,4-4.36.55-.62,1-1.23,1.53-1.86l.72-1,.36-.51.5-.63c.84-.65,2-1.63,2.33-1.77.15-.07.07.08-.41.62l-1,1.12-.79.81c-.17.17-.27.28-.38.41l-.35.39.53-.56,1-1,2.8-2.71.82-.79.41-.41.22-.2.1-.1s-.07-.06-.1-.09l-2.12-1.29-4.25-2.57c-2-1.22-4-2.36-5.42-3.31a8.86,8.86,0,0,0-2.6-1.38c-.81-.68-3.78-2.77-4.53-3.25-3-2.22-4.54-3.63-6.12-4.9s-3.06-2.65-5.83-5.1l1.45,1.45a14.52,14.52,0,0,1-3.86-3.07l-2.22-2.32L56.83,312l-1.45-1.55.18.07c-1.12-1.3-2-2.34-2.75-3.2l-1.71-2.08c-.89-1.09-1.39-1.63-1.88-2.17a20.25,20.25,0,0,1-1.79-2.18l-1.56-2.15c-.64-.91-1.44-2-2.32-3.44l0,.88c-.39-.11-1-.8-1.72-1.88a39.66,39.66,0,0,1-2.56-4.21c-1.89-3.33-3.94-7.49-5.93-10.87.34.89.69,1.77,1.1,2.63a16.31,16.31,0,0,1-1.69-3.35c-.52-1.3-1.06-2.7-1.51-4.14-.84-2.9-1.69-5.77-2.36-7.79-.25-.9.65,1.32,1.23,2.47-1.81-5.26-2.06-5.55-2.3-5.46s-.5.55-1.91-3.37c-.17-1.56,1.44,1.59-.27-3.72-.23-1.38-1.75-5.14-3-9.63l-.49-1.71-.41-1.75c-.27-1.18-.53-2.37-.77-3.53a56,56,0,0,1-.78-6.51c0,1.69-.06,3.4-.77-.42-.16-1.48-.27-3.22-.36-5.09s0-3.86,0-5.82c.09-3.93.23-7.77,0-10.47.12-.74.2-1,.27-1.05,0-1.14.1-2.62.24-4.24s.25-3.42.51-5.13.4-3.39.62-4.78.38-2.55.42-3.24c1.17-1.89,2.81-8.71,4.9-14.89l1.6-4.43c.57-1.36,1.13-2.6,1.61-3.65.95-2.1,1.79-3.34,2.12-3.14,1.1-2,2.09-4.14,3.33-6.11l1.79-3c.58-1,1.28-1.94,1.92-2.91l-.08.39c2.48-3.69,4.39-6,5.66-7.94s2.27-3.13,3.15-4.44c1.43-1.5.55-.26.5-.08,1.1-1.2,2.16-2.18,3.07-3.11s1.72-1.76,2.53-2.46c1.57-1.41,2.81-2.62,4-3.74s2.42-2.16,3.78-3.44,3-2.61,5.11-4.41l1.23-.22c.58-.47,1.87-1.32,3.65-2.45.89-.56,2-1.11,3.08-1.75s2.34-1.36,3.69-2c5.24-2.79,11.85-5.51,17.76-7.91a4.27,4.27,0,0,1-1.25.67c6.63-2.79,15.09-4.67,22.46-5.69l5.28-.65c1.67-.23,3.23-.32,4.64-.52a31.87,31.87,0,0,0,6.33-1.17l2.37-.22,2.38-.11c1.59-.06,3.18-.2,4.77-.19-12.36-.2,1.85-.81-3.24-1.12a49.12,49.12,0,0,1,7.39.46c1.79.25,2.2.45-.79.36l-.93-.13c-1.12.45,2.72.59,6.76,1.08,1,.11,2,.18,3,.32l2.63.41c1.54.26,2.55.48,2.45.63,1.5.2,3,.53,4.46.78s3,.54,4.43.91l4.38,1,4.32,1.23,2.15.62,2.11.72,4.21,1.44L190,114l2.06.82,2,.9,4,1.8,3.91,2c2.63,1.25,5.1,2.78,7.63,4.17,1.25.71,2.45,1.51,3.67,2.26s2.46,1.48,3.63,2.3c2.38,1.58,4.7,3.22,7,4.9-.54-.73-1.12-1.41-1.69-2.12,1.08.76,2.15,1.54,3.19,2.36s2.11,1.59,3.12,2.44c1.5,1.45,1.84,2.15-2.59-1.33a40.39,40.39,0,0,0,4.62,3.61,25,25,0,0,0,3.16,2.08c4,3.8,3.05,3.25,1.44,2s-4-3-2.72-1.95,2.32,2,3.46,3l-.7-.76c1.48,1.14,2.33,1.71,3.4,2.61.54.45,1.15,1,1.92,1.67s1.66,1.64,2.84,2.86c2.81,3.25,1.16,1.93,2.28,3.19a16.09,16.09,0,0,0,1.7,2c1.08,1.25,2.14,2.52,3.16,3.82s2,2.61,3,3.94c-.66-1.16-1.28-2.36-2-3.5,3,3.27,5.6,7.53,3.42,3.4.35.63.83,1.49,1.46,2.48s1.38,2.17,2.19,3.47,1.69,2.71,2.6,4.22c.24.38.47.77.71,1.16l.95,1.65,2,3.4,4.48-3,.56-.38.43-.27.82-.51,1.63-1c1.06-.7,2.16-1.3,3.19-1.91s2.05-1.2,3-1.71l2.72-1.47,2.34-1.15c1.39-.7,2.45-1.15,3-1.36a93.62,93.62,0,0,1,18.42-7.47c-.91.23-1.69.27-1.46,0a4.52,4.52,0,0,1,1.23-.61,29.89,29.89,0,0,1,3.43-1.06c-1,1,1.94.23,5.81-.57,1.92-.45,4.11-.81,6.13-1.17a35.28,35.28,0,0,1,5.24-.45c-1.18,0-.64-.16.74-.42s3.59-.64,5.72-.89,4.2-.49,5.25-.66,1.12-.31-.75-.4c5.46-.3.38.47,4.52.48a113.12,113.12,0,0,1,21.1.34,174.56,174.56,0,0,1,23,4.21c.29-.11-2.25-1,1.15-.44,1.34.46,2.65,1,3.95,1.58s2.62,1.08,3.9,1.66a18.61,18.61,0,0,0,3.32.68,15.74,15.74,0,0,1,5,1.95c-.7-.44-1.75-1.11.24-.36a145.7,145.7,0,0,1,40.23,25.4c11.9,10.78,21.71,24.15,27.48,38.91-.76-2-.85-2.36-.54-1.85.15.25.4.72.7,1.31s.58,1.33.91,2.09c-.75-2,.42-.13.47-.61.75,2.09,1.58,4.16,2.17,6.3l1,3.19c.32,1.06.55,2.15.82,3.22a17.13,17.13,0,0,1,1.22,3.05c.4,1.42.81,3.12,1.21,4.79.11.42.21.84.31,1.25s.15.82.23,1.21c.15.79.3,1.53.43,2.19a10.8,10.8,0,0,0,.76,2.61l-.87-4.14c.87,2.7.93.7.9-1.94s-.47-5.86.1-5.58c-1.23-3-2.11-7.14-3.55-11.7-.31-1.15-.74-2.3-1.18-3.47s-.9-2.35-1.4-3.55-1.14-2.33-1.77-3.49a28.07,28.07,0,0,0-2.07-3.38c-1-2.14,1.23,1.6.82.4a37.08,37.08,0,0,1-2.61-3.95c-1-1.62-2.22-3.56-3.73-6.16.16.16.3.34.45.52a150.06,150.06,0,0,0-12.67-16.41l-3.25-3.55-3.65-3.64c-2.62-2.49-5.61-5.18-9.35-8.12l.82,1.24-5.3-4.33c-2.11-1.06.21.6,2.57,2.3s4.6,3.65,2.69,2.64a24.88,24.88,0,0,0-2-1.94c-.89-.75-2-1.57-3.18-2.47l-1.89-1.38c-.66-.47-1.37-.91-2.07-1.37-1.43-.91-2.87-1.92-4.38-2.78l-4.4-2.58-4-2.18c-1.21-.69-2.29-1.3-3.17-1.77a12.05,12.05,0,0,1-1.88-1.22c-2.86-1.32-2.49-1-2.13-.68.18.16.37.32.15.27s-.84-.3-2.29-.88l-1.43-.9-1.61-.24c-1.87-.83-3.32-1.38-4.26-1.87s-1.42-.81-1.45-1c.93.36,2.7.88,3.72,1.22-1.23-.53-2.74-1.1-4.33-1.67s-3.32-1-4.92-1.5-3.1-.87-4.33-1.13-2.14-.51-2.58-.65c1.93.57,3.89,1,5.79,1.73a160.32,160.32,0,0,0-27-5,126.69,126.69,0,0,0-27,.23l1.26.13c-3.13.3-5.3.61-7,.81s-3,.38-4.35.51-2.69.32-4.57.63-4.27.79-7.63,1.6l.48-.17c-1.32.44-2.87.89-4.54,1.38L305,155.91c3.26-1.3-6.42,1.48-2.14-.17a68.18,68.18,0,0,0-8.93,3.66c-1,.51-1.41.89-5.38,3l-2,.53-3.14,1.93c-1.13.68-2.71,1.49-5.69,3.19,4.81-3-4.14,1.6,1.23-1.78A67.49,67.49,0,0,0,266,174l-1-1.43c-.44-.71-.87-1.38-1.27-2s-.92-1.55-1.32-2.32a23.33,23.33,0,0,1-1.15-2.29c-2.29-2.47-.63.2,1.24,3.14l1.37,2.21.59.95.33.56c.38.66.54,1,.2.48.41,1.05-.07.59-1.2-1-.68-1-1.47-2.1-2.23-3.26s-1.58-2.28-2.19-3.23c-1.31-1.88-2.15-3.68-3.63-6.12a59.2,59.2,0,0,0-7.44-9.92c.78.87.9.86,1.65,1.74-2.71-3.44-6-6.08-9.6-10.06a27.36,27.36,0,0,1-3.69-2.94c-1.11-1-2.05-1.71-2.63-1.69,1.37,1.12,2.73,2.26,4.05,3.45s2.64,2.38,3.94,3.6c-2.23-2-4.57-3.83-7.28-5.9s-5.79-4.42-9.63-7.57a55.14,55.14,0,0,1,4.87,3.11c-2.15-2-4.53-3.3-6.86-5.22a6.32,6.32,0,0,1,2.25,1.14c1.14.75,2.57,1.84,4.15,3,3.09,2.47,6.71,5.39,9.25,7.43a22.73,22.73,0,0,0-2.33-2.19l-2.9-2.33c-1.81-1.39-3-2.29-1.43-1.6-4.31-2.1-9-7.22-16.21-10.65l.69-.14c-1.11-.57-3.4-1.79-5.41-2.91,1.34.46,2.6,1.06,3.9,1.6-2.84-1.5-5.53-3-8.13-4.63-1.31-.8-2.66-1.5-4-2.23a33.6,33.6,0,0,0-4.16-1.95c1.49.62,2.6,1.22,3.47,1.65s1.47.77,1.89,1c.83.48.91.61.78.65s-1.39-.22,1,1.13c-7.2-3.27-9.21-4.32-11.37-5.69a34.22,34.22,0,0,0-4.18-2.19c-1-.43-2.11-1-3.58-1.49s-3.21-1.1-5.34-1.78c2.32.69,8.51,3.13,4.86,2.14-1.59-.58-3.44-1.26-5.12-1.91s-3.26-1.13-4.23-1.54c-11.46-2.82,1.65.86-3.29-.08-3.77-1.46-5.68-1.14-10.77-1.84l.05-.48a39.44,39.44,0,0,0-4-.67c-1-.14-1.79-.22-2.36-.26a6.64,6.64,0,0,0-1.94.06c-.74.19-1.31.33-7.28-.33,1.7-.14,3.41-.16,5.13-.25-2.1-.11-4.19-.31-6.29-.3l1.33-.49c-3.45.07-5.69,0-7.92,0s-4.45-.1-7.81,0c.79.13.58.36-.56.59a23.46,23.46,0,0,1-2.41.34c-1,.16-2.28.31-3.75.46-2,0-1.48-.12-1.46-.19s-.13-.05-.78,0-1.82.24-3.9.55c.92-.28,1.88-.59,3.08-.84a21.49,21.49,0,0,1,4.49-.29c.35-.19,1.84-.48,2.22-.67a70.66,70.66,0,0,0-7.52.61c-2.55.42-5,.74-6.45,1.08a27,27,0,0,1,3.28-.42c-2,.36-4,.9-6,1.39s-3.93,1.07-5.88,1.66c-1.91.27-.47-.23,1-.72-1.2.31-2.2.63-3.35,1s-2.39.84-4.13,1.37a6.27,6.27,0,0,1,1.14-.92,10.31,10.31,0,0,1,1.44-.67c.33-.14.73-.29,1.19-.45l1.64-.49c-1.9.49-3.73,1.19-5.59,1.79s-3.67,1.33-5.49,2c-.39.06-1.86.41-3,.75s-2.07.6-1.39.25a49.28,49.28,0,0,0-5,2.08c-1.73.88-3.59,1.78-5.44,2.83s-3.76,2.13-5.63,3.29c-.94.58-1.87,1.16-2.82,1.72s-1.89,1.09-2.79,1.67a25.62,25.62,0,0,1-2.53,1.94c-1.72,1.07-3.27,2.27-4.88,3.39s-3.14,2.34-4.7,3.6c-.78.64-1.59,1.26-2.35,2L51.22,133c-.77.76-1.59,1.49-2.34,2.34S47.35,137,46.57,138c-.71.58-1.45,1.13-2.13,1.75l-2,1.83c-2.4,2.92-1,1.65,0,.88.49-.38.88-.65.64-.21a10.12,10.12,0,0,1-.87,1.24l-.91,1.15L40,146.23c-1.3,1.78-2.1,2.81-2.61,3.4s-.68.74-.8.72-.09-.68-1.05.55c-2.31,3.8-5.73,10.62-9.69,17.7A67.68,67.68,0,0,1,29.09,162.05Zm-10,89.61c-.49-1.71-1.7-5.1-1.63-6.45C18.4,247.09,18.57,248.65,19.11,251.66ZM76,355.6a23.64,23.64,0,0,1,3.38-4.54c-.48.68-1,1.4-1.58,2.15S76.56,354.74,76,355.6ZM336.22,465.1l-.13.12C332.89,467,334.05,466.41,336.22,465.1Zm5.82-4.89c.47-.62.38-.62.12-.43a11.15,11.15,0,0,1-1,1.24l-.39.44-.48.42-1.06.92a6.68,6.68,0,0,0,1-.73A10.14,10.14,0,0,0,342,460.21ZM246.41,153.32l-1-1.23C247.93,154.6,247.14,154,246.41,153.32Z"/><path class="cls-1" d="M85.35,342.86a1.34,1.34,0,0,1,.71-.38,1.35,1.35,0,0,0,.17-.28c0-.05,0-.07,0-.07a.52.52,0,0,0-.24.15C85.82,342.41,85.62,342.6,85.35,342.86Z"/><path class="cls-1" d="M67.74,120.1l.24-.16a1.19,1.19,0,0,0,.19-.23Z"/><path class="cls-1" d="M235.76,428.12a25.22,25.22,0,0,1-1.71-2.8C233.91,425.3,234.23,426,235.76,428.12Z"/><path class="cls-1" d="M351.19,421.48l.32,2.49c.08.83.11,1.66.17,2.5l-.16-4.53C351.42,422.07,351.36,423,351.19,421.48Z"/><path class="cls-1" d="M371.36,396.72c.74-.18,1.58-.29,2.31-.52l-.25-.17C370.25,396.67,368,397.15,371.36,396.72Z"/><path class="cls-1" d="M352.15,416.61a5.25,5.25,0,0,0-.13-2.44c-.27-1.28-.68-2.94-1.1-4.69.05.21.09.41.14.62-.39-.45-.34.25-.06,1.52S351.8,414.73,352.15,416.61Z"/><path class="cls-1" d="M350.69,408.68c-.32-1.07-.62-2.16-.89-3.22C349.47,405.12,350.11,406.78,350.69,408.68Z"/><path class="cls-1" d="M347.29,452.08c.77-1.44,0-1.15.49-1.91.07-.47-.14-.07-.44.66-.15.36-.32.81-.49,1.28s-.42.9-.6,1.32C345.49,455.08,345.24,456,347.29,452.08Z"/><path class="cls-1" d="M353,413.48c-.07.46-.14.91-.24,1.37l.72,1.95C353.27,415.69,353.19,414.57,353,413.48Z"/><path class="cls-1" d="M352.91,442c.22-.94.38-1.89.58-2.84l.28-1.42c.07-.48.11-1,.18-1.44-.1.08-.07-.66,0-1.56-.09.88-.18,1.79-.27,2.65s-.3,1.66-.41,2.35A13.69,13.69,0,0,0,352.91,442Z"/><path class="cls-1" d="M353.92,434.75l.14-1.36c0-.45,0-.88,0-1.28,0-.8,0-1.5,0-2C354,431.09,354.07,433.26,353.92,434.75Z"/><path class="cls-1" d="M354.28,421.34l.07,1.73c.16,1.37.12,2.74.19,4.11l-.05-2.92C354.45,423.29,354.35,422.32,354.28,421.34Z"/><path class="cls-1" d="M306.52,472.88c-2.09-.24-4.17-.57-6.24-1-.33,0-.08.14.54.32a18.81,18.81,0,0,0,2.79.58c.76.07,1.72.21,2.38.24S307,473,306.52,472.88Z"/><path class="cls-1" d="M325.79,473.33a9.71,9.71,0,0,1-2.87.25l-.08.65c.5-.14,1-.26,1.49-.41Z"/><path class="cls-1" d="M307,474.47c-.17,0-.84,0-1.62-.05l-2.3-.24c-1.25-.13-1.4-.06,2.67.6.34,0,2.13.1,3.1.12.48,0,.76,0,.54-.07Z"/><path class="cls-1" d="M231.55,419c.3.45.58.91.88,1.36l.73-.75Z"/><path class="cls-1" d="M180.3,417.07c3.46-1.67,3.79-2,4-2.34s.42-.54,3.49-2.15c1.45-1.09-5,2.59-3.53,1.49C180.36,416.51,178.09,417.41,180.3,417.07Z"/><path class="cls-1" d="M184.29,414.07l2-1.29C185.13,413.49,184.61,413.84,184.29,414.07Z"/><path class="cls-1" d="M477.92,249.08c.28,1.56.45,3.14.68,4.7l-.22-3.08C478.24,250.16,478.11,249.61,477.92,249.08Z"/><path class="cls-1" d="M480.21,258l-.5,1.2.94,2.77A29,29,0,0,1,480.21,258Z"/><path class="cls-1" d="M22,265.17l.29.29a34.23,34.23,0,0,0-1.21-4.09Z"/><polygon class="cls-1" points="15.8 198.77 15.6 199.91 16.53 197.87 15.8 198.77"/><path class="cls-1" d="M37.47,146.85c-1.48,1.79-2.88,4.16-4.22,6.06C36,148.62,38.45,146.8,37.47,146.85Z"/></svg>