<svg id="Layer_1" data-name="Layer 1" xmlns="http://www.w3.org/2000/svg" viewBox="0 0 1920 350"><defs><style>.cls-1{fill:#96c96e;}</style></defs><path class="cls-1" d="M1920,350H0V103.16H22.66c3.69,0,7.81,0,12-2.58,4.74,0,8.06-8.14,12.87-16.23,4,6.38,9.74-.76,14-7.87,3.73,10.14,7.47,25.92,12.57,21,3.45,5.69,7.88,5.69,12.46,5.69,5.51,0,9-13.87,6-24.16,7.49,5.15,13.33,11.19,14.85,5.68,3.54.25,2.76-11.05-3-40.58,6.08,14.76,11.06,25.84,13.9,25.37,5.63,13.85,9.12,16.17,10.55-5.63,4.79,16.28,7.53,8.46,10.26-8.33,2.7-10.38,5.4-29.72,8.45-55.51.37,25.79,1.09,45.13,2.55,57.46,1.16,15.41,3.06,23.8,8.47,14.25.07,17.34,3.65,16.74,9.3,9.52,3.67-1,9.4-8.69,16.47-18.9-6.88,20.41-8.46,30.62-6.82,35.46s6.37,4.55,12.22,3.74a25,25,0,0,0,8.06,1.42,70.58,70.58,0,0,0,10.87-.14c3.87.17,7.64.26,6.24-9,3.76,1.26,4-2.72,1.91-11.26,1-3.45-.41-11.46-2.87-22.13,4.14,7.12,7.78,12.78,8,9.69,5.9,9.87,8.39,11,4.66-7,8.82,20.8,11.42,22.47,6.3-8.5,9.38,27.6,11,22.56,9-11.64,5.49,25.94,7.29,22.74,7.71-5.25,3,16.63,4.6,8.49,6.3-6.17,1.28,15.85,2.64,24.49,5.45,6.22.41,29.93,2.26,33,8,5.08-2.16,35.1-.43,39.28,8.83,10.76-5,31.58-2.43,30.47,6.76,9.54-4,18.18-1.3,16.56,4.77,6.86,0,4.26,3.41.45,7.13-3.84-4.06,11.07-5.24,17.54-2.43,17.3-2.75,9-1.51,11.34,2.36,10-1.56,9.61,3.53,9.51,4.07-1.93,7.78,11.44,11,11.54,5.82-15.84,12.67,27.48,16.93,27.48,14.09-23.18,15.56,50.66,24.11,50.66,42.66,6.86-.61,21.9,1.28,32.85,4.18,36,3.81,7.32,8.64,6.79,12.8-6.61,4.72,13.4,8.78,13.93,13.6-1.43,1.62,15.75,3.82,15.82,7.3,2.48.8,13.21,2.88,13,6.23,3.7,3.47,9.31,8.22,9.51,5-2.18,4.05,0,6.15-3.17,6.67-9.33s-.51-15.31-2.68-27.53c6.85,12.29,12.51,21.41,7.39,1.86,15.45,30.8,20.1,32.94,17.84-21.76,11.75,51.1,16.59,45.37,27.78-2.23-.13,27.36,6.09,12.86,13.6-6.48-3.71,25.78-5.11,43,4.43,34.78C479.17,91,481.67,96,495,87.35c-5,11.37.71,9.15,7.74,5.82-1.81,10,7.92,10,17.72,10,5,0,10,0,11.86-9,4.88-4.12,6.62-17.27,5.07-43.57,5.84,13.15,10.86,23,11.41,12.33,8.75,23.63,13,26.71,14.56-10,7.19,35.86,11.63,32,19.22-.7,2.37,17.68,7.88,6.59,14.38-8.18-1.82,19.7-1.88,32.84,3.65,28.8-3.14,21.43-.69,25.68,7.36,18.77-1.63,10.8,2.33,10.42,6.22,7.94,2.37,2.35,4.55,2.66,4.71-4.65,4.42,7.78,6.83,7.93,6.23-7,5.55,15.19,8.1,15.24,7.92-6.67,4.84,20.16,7,18.34,7.67-4.11,5.15,21.25,9.19,22.86,14.91,2.54,2.21,20.82,6.1,19.71,11.82,8.26,2.21,5.39,6.24.45,10.49-7,8.93,22.24,19.82,22.24,30.76,22.24,5.59,0,11.18,0,14-7.15,5.58-3.27,8.38-13.68,8.36-34.56,5.65,10.47,10.58,18.28,9.38.12,10.41,28.12,14.69,30.28,16.34-11.94,7,40.42,11.44,36.47,19.84,1,1.28,21,6.55,10.47,12.64-3.53-.85,28,1.57,42,10.5,40-.81,16,4.89,16,10.61,15.94s11.37,0,12.46-11.69c10.33,11.74,16.05,11.74,16.57-25.89C856.28,103.16,868,103.16,886,84.12c1.37,4.76,3.13,8.33,4.75,10.14,2.16,3.07,4.18,4.37,4-.9,5.25,7.65,8.33,8.72,6.65-7.93C907,96.1,907.85,89,905.94,71.72c7.46,12.61,13.37,18.89,18.78-1.89,5.83,25.88,11.16,24.71,19.16,6.5,3.37,7.26,9.42-2.52,16.48-17.19,1.48,22,5.24,33,10.14,38.51s10.94,5.51,5.84-12.71c23.52,18.22,35.9,18.22,57.78-74.56,1,30.93,3,51.54,5.9,65.12s6.82,20.11,7.2,9.31c9,16.32,14.52,15.3,18.18-16.59,5.56,32.65,10.15,33.79,18.76,1.48,2.11,33.46,8.26,33.46,19.28,20.25a24,24,0,0,0,14.66,11.56c5.69,1.65,12,1.65,6.06-17.55,6.29,4.8,11.81,8.4,15.14,2.89,7,8.64,11.88,8.17,15.24-12.42C1161,88.36,1166,82.15,1171.82,68c5.23-5.6,11.24-19.2,18.19-37.33-.35,12.09-.28,22.16.14,30.55a140.15,140.15,0,0,0,2.24,20.42c2.07,10.79,5.29,16.12,7.17,16.86,2.84,2.38,5.42,3.41,6.43,2.17s.47-4.74-2.85-11.71c17.11,14,23.26,14.13,13.25-38.58,22.48,52.83,28.79,52.83,46.93-13.46.81,44.19,6.84,58.92,14.75,63.72a13.18,13.18,0,0,0,11.73,1c5.24,1.34,9.4,1.43,5.39-11.23,12.39,12.76,16.62,12.79,8.45-20.44,16.63,33.26,20.87,33.26,19.38-23.72,12.61,38,22.63,50.65,33.42,52.62,5.4,1,11-.69,15.79-5.26,5.06,5.83,10.1,7.73,6-13.18,15.54,22.8,21.93,22.8,21.85-36.28,6.57,19.69,12.42,32.82,18,41.13S1429.18,97,1432,84.87c8.7,12.92,14.77,10.24,21.4-14,1.59,23.18,3.37,25.45,6.68,1.68,1,27.16,3.43,28.29,9.47,5.22-.6,24.58,2.35,25,8.39,8.13-1.59,15.2-.08,13.2,2,.51,2.92,10.69,7.67,12.19,12.26,12.3,13.77.35,26.1-11.8,44.31-60.39,2.91,64.79,16.27,64.79,29.89,64.45,4.2.11,8.42.19,11.66-.66,5.23,1,9.47,1,5.52-14,6.21,7.48,10.37,11.22,9.72,3.21,4.2,1.3,3.58-9.16.25-30.06,6.08,10.45,11.47,18.29,11.85,5.82,9.71,23.29,14.41,26.26,15.55-14,8.29,41.75,13,40.23,22.12,1.25,1.1,31.81,6.57,26.16,14.5,12.42-.65,10.64-.15,17.84,1.56,22s4.61,5.31,8.6,3.65c.75,5.43,2.59,8.06,1.79,5.16,5.69,5.53,8.74,5.53,3.26-8.81,15.12,14.34,21.62,14.34,16.58-35.7,15.92,47.08,20.3,44.13,23.24-14.52,6.07,56.67,11.82,59.3,27.72,25.45-5.26,32.06-.36,27.64,7.21,12,2.29-4.69,7.27-20.58,12.76-44.4,4.19,47.65,10.43,63.53,19.37,66.12,4.48,1.29,9.63-.74,15.53-3.8,1.5,4.59,4.7,6.87,4.51,1.08,8.17,8.08,13,8.08,7.91-18.21,7.56,8.76,13.92,14.6,16.61,11.82,9.06,7.73,14.44,6.84,11.91-24.79,13.76,22.23,19.59,13.72,26.23-23.28.71,43.38,3.39,53,12.85,7.86-2.24,54.58,2.3,54.49,18.09,23.88-7.48,30.61-3.72,30.7,7.5,18-4.27,12.82-1.09,12.82,4.14,9.85,3.33,3,7.69,3,10.63,3H1920Z"/></svg>