<svg id="Layer_1" data-name="Layer 1" xmlns="http://www.w3.org/2000/svg" viewBox="0 0 200 200"><defs><style>.cls-1{fill:#fff;}</style></defs><path class="cls-1" d="M142.64,110.4C157.93,94,157.4,68.24,141.46,52.79a39.51,39.51,0,0,0-56.57,1.66,41.46,41.46,0,0,0-5.76,48.65,1.14,1.14,0,0,1-.11.11L50.54,133.7a11.54,11.54,0,0,0,.33,16.05h0a11,11,0,0,0,15.76-.47L95.11,118.8l.1-.12A39.63,39.63,0,0,0,142.64,110.4Zm-47.27-8.28a27.42,27.42,0,0,1-.79-38.28,26.25,26.25,0,0,1,37.59-1.11A27.41,27.41,0,0,1,133,101,26.24,26.24,0,0,1,95.37,102.12Z"/><path class="cls-1" d="M101,0A100,100,0,1,0,201,100,100,100,0,0,0,101,0Zm0,177a77,77,0,1,1,77-77A77,77,0,0,1,101,177Z"/></svg>